<!--
SPDX-FileCopyrightText: 2017 mray

SPDX-License-Identifier: CC0-1.0
-->
<svg version="1.1" xmlns="http://www.w3.org/2000/svg" width="32" height="32" viewBox="0 0 32 32">
<title>ds-activitypub</title>
<path d="M11.599 10.987l-11.556 6.672c-0.004 0.002-0.009 0.004-0.014 0.004-0.016 0-0.029-0.013-0.029-0.029v0-3.293c0-0.011 0.006-0.020 0.014-0.025l0-0 14.495-8.369c0.004-0.002 0.009-0.004 0.014-0.004 0.016 0 0.029 0.013 0.029 0.029v0 20.057c-0 0.016-0.013 0.029-0.029 0.029-0.005 0-0.010-0.001-0.014-0.004l0 0-2.853-1.648c-0.009-0.005-0.014-0.014-0.014-0.025v0-13.37c-0-0.016-0.013-0.029-0.029-0.029-0.005 0-0.010 0.001-0.014 0.004l0-0z"></path>
<path d="M29.052 15.978l-11.589-6.691c-0.008-0.005-0.013-0.013-0.013-0.023 0-0 0-0 0-0v0l-0.004-3.3c0-0.014 0.012-0.026 0.026-0.026 0.005 0 0.009 0.001 0.013 0.004l-0-0 14.502 8.372c0.008 0.005 0.013 0.013 0.013 0.023 0 0 0 0 0 0v0 3.327c0 0 0 0 0 0 0 0.010-0.005 0.018-0.013 0.022l-0 0-14.499 8.371c-0.004 0.002-0.008 0.003-0.013 0.003-0.014 0-0.026-0.011-0.026-0.026v-0l-0.002-3.296c0-0 0-0 0-0 0-0.010 0.005-0.018 0.013-0.022l0-0 11.592-6.693c0.008-0.005 0.013-0.013 0.013-0.023s-0.005-0.018-0.013-0.023l-0-0z"></path>
<path d="M17.477 12.654l5.766 3.329c0.006 0.004 0.010 0.010 0.010 0.018s-0.004 0.014-0.010 0.018l-0 0-5.766 3.329c-0.003 0.002-0.006 0.003-0.010 0.003-0.011 0-0.020-0.009-0.020-0.020v0-6.657c0-0.011 0.009-0.020 0.020-0.020 0.004 0 0.007 0.001 0.010 0.003l-0-0z"></path>
<path d="M2.952 19.337l5.742-3.315c0.004-0.002 0.008-0.003 0.012-0.003 0.014 0 0.025 0.011 0.025 0.025 0 0 0 0 0 0v0 6.63c0 0 0 0 0 0 0 0.014-0.011 0.025-0.025 0.025-0.005 0-0.009-0.001-0.012-0.003l0 0-5.742-3.315c-0.007-0.004-0.012-0.012-0.012-0.021s0.005-0.017 0.012-0.021l0-0z"></path>
</svg>
