<!--
SPDX-FileCopyrightText: 2023 Bluesky, PBLLC <press@blueskyweb.xyz>

SPDX-License-Identifier: LicenseRef-AllRightsReserved
-->
<svg version="1.1" xmlns="http://www.w3.org/2000/svg" width="32" height="32" viewBox="0 0 32 32">
<title>ds-atproto</title>
<path d="M19.888 9.004c0.008 0.005 0.018 0.008 0.029 0.008 0.033 0 0.059-0.027 0.059-0.059 0 0 0 0 0-0v0l0.001-0.481q0-0.060 0.060-0.060h3.242c0.042 0 0.077 0.034 0.077 0.077v0q0.022 3.511-0.075 7.026c-0.035 1.289-0.218 3.936 1.648 4.186 1.443 0.193 2.076-0.74 2.198-2.068q0.203-2.201-0.026-4.4c-0.045-0.431-0.139-0.968-0.254-1.406-1.346-5.106-5.968-7.17-10.847-7.253q-2.114-0.036-4.28 0.641c-3.849 1.203-6.206 4.279-6.801 8.186-0.828 5.439 0.823 11.452 6.642 13.323q2.858 0.92 5.888 0.617c1.007-0.101 2.047-0.347 3.043-0.633q0.052-0.015 0.068 0.035l1.406 4.12c0 0 0 0 0 0.001 0.009 0.026-0.005 0.054-0.031 0.063-0 0-0.001 0-0.001 0h0c-2.765 0.895-5.788 1.112-8.646 0.756-7.539-0.936-12.962-6.573-13.267-14.177-0.105-2.605 0.178-5.3 1.059-7.738 2.129-5.898 7.304-9.228 13.463-9.595q0.643-0.038 2.147 0.002c3.602 0.098 7.302 1.189 10.114 3.505 4.292 3.535 5.8 9.081 4.983 14.442q-0.256 1.679-0.975 3.123c-1.105 2.218-3.276 2.931-5.609 2.938-1.73 0.005-3.538-0.571-4.772-1.815-0.018-0.019-0.044-0.030-0.072-0.030s-0.054 0.012-0.072 0.030v0c-1.706 1.727-4.331 2.101-6.612 1.65-4.665-0.922-6.854-5.396-6.046-9.81 0.689-3.763 3.804-6.268 7.583-6.413 1.61-0.061 3.281 0.417 4.676 1.208zM12.271 15.669c-0.143 2.621 1.346 4.235 4.017 4.017 1.315-0.107 2.453-0.849 2.744-2.205 0.314-1.46 0.287-3.635-1.060-4.648-0.843-0.634-2.107-0.688-3.129-0.444-1.705 0.407-2.481 1.627-2.571 3.28z"></path>
</svg>
