<!--
SPDX-FileCopyrightText: 2021-2023 Sébastien Rosset <email unknown>

SPDX-License-Identifier: LicenseRef-AllRightsReserved
-->
<svg version="1.1" xmlns="http://www.w3.org/2000/svg" width="32" height="32" viewBox="0 0 32 32">
<title>ds-activitypods</title>
<path d="M13.804 2.001l2.209 5.072-0.017 0q-0.014 0-0.019 0.013l-9.972 22.888q-0.011 0.025-0.038 0.025h-5.061q-0.039 0-0.024-0.036l12.172-27.941c0.006-0.013 0.018-0.021 0.033-0.021v0l0.717 0z"></path>
<path d="M13.804 2.001l5.107-0c0.012 0 0.022 0.007 0.027 0.018l0 0 12.183 27.962c0 0.001 0.001 0.001 0.001 0.002 0.001 0.007-0.003 0.014-0.010 0.016-0.001 0-0.002 0-0.003 0l-5.083-0q-0.025 0-0.035-0.023l-12.188-27.974z"></path>
<path d="M10.746 29.802l5.239-11.724c0.002-0.005 0.007-0.008 0.013-0.008s0.011 0.003 0.013 0.008l0 0 5.239 11.724c0.001 0.002 0.001 0.004 0.001 0.006 0 0.008-0.006 0.014-0.014 0.014 0 0 0 0 0 0h-10.478c0 0 0 0 0 0-0.008 0-0.014-0.006-0.014-0.014 0-0.002 0.001-0.004 0.001-0.006l-0 0z"></path>
</svg>
