<!--
SPDX-FileCopyrightText: 2022 Akkoma Project

SPDX-License-Identifier: AGPL-3.0-or-later
-->
<svg version="1.1" xmlns="http://www.w3.org/2000/svg" width="32" height="32" viewBox="0 0 32 32">
<title>ds-akkoma</title>
<path d="M8.729 11.377c3.637 0.17 6.29 0.54 7.959 1.11 1.425 0.487 5.083 2.898 5.259 3.285 0.014 0.030 0.035 0.077 0.062 0.141 2.315 5.66 3.015 10.237 2.101 13.729-0.988 3.773-4.999 2.318-6.482-0.112-1.29-2.115-1.814-5.558-2.537-5.439-1.658 0.273-3.919 8.536-9.766 7.871-3.006-0.342-3.062-4.549-2.489-8.084 0.858-5.293 2.822-9.461 5.892-12.501zM13.247 13.112c-2.343 0.712-3.51 2.249-3.501 4.61 0.006 1.541 2.561 2.175 4.43 1.891 3.768-0.574 3.056-2.578 2.513-3.919-0.17-0.419-0.601-1.016-1.293-1.792l-2.149-0.79z"></path>
<path d="M16 14.113c7.255 2.251 13.447 3.409 13.447 2.251 0-0.96-0.774-3.253-7.603-6.719 0.049-1.655 0.103-2.668 0.161-3.038 0.438-2.814 2.752-5.691 1.876-6.504s-6.692 3.377-9.131 5.379c-0.398 0.327-1.126 0.799-2.184 1.416-5.214-0.479-8.271-0.332-9.073 1.023-0.438 0.938 5.253 3.94 12.508 6.192z"></path>
</svg>
