<!--
SPDX-FileCopyrightText: 2020-2023 Mouse Reeve <mouse.reeve@gmail.com>

SPDX-License-Identifier: LicenseRef-AntiCapitalistLicense
-->
<svg version="1.1" xmlns="http://www.w3.org/2000/svg" width="32" height="32" viewBox="0 0 32 32">
<path d="M11.561 1.751h0.588q0.174 0.148 0.433 0.084c0.007-0.002 0.015-0.003 0.023-0.003 0.024 0 0.045 0.009 0.061 0.023l-0-0q0.138 0.121 0.325 0.083c0.028-0.005 0.056 0.003 0.076 0.021l0.001 0q0.11 0.099 0.259 0.077c0.032-0.005 0.065 0.001 0.093 0.016l0.001 0.001c0.328 0.176 0.704 0.263 1.014 0.406 0.396 0.181 0.837 0.322 1.205 0.512 2.139 1.103 3.547 1.909 5.359 2.757 0.003 0.001 0.006 0.003 0.009 0.003 0.034 0.011 0.070-0.009 0.081-0.043 0.001-0.003 0.002-0.006 0.002-0.009l-0 0c0.031-0.179 0.295-0.748 0.547-0.383 0.382 0.553 0.815 1.040 1.53 1.095q0.080 0.007 0.122-0.062 0.382-0.615 1.023-0.69c0.168-0.019 0.401 0.019 0.604 0.004q0.047-0.004 0.065-0.046c0.149-0.346 0.424-1.282 0.964-0.953 0.026 0.016 0.045 0.040 0.055 0.069l0 0.001c0.264 0.868 0.808 1.441 1.516 1.986 0.478 0.367 0.845 0.797 1.328 1.15 0.19 0.14 0.273 0.058 0.413-0.078 0.593-0.572 1.515-0.198 1.623 0.611v0.282c-0.238 1.281-1.483 0.605-2.273 0.59q-0.398-0.007-0.797 0.001c-0.213 0.005-0.362 0.127-0.609 0.088q-0.046-0.008-0.076 0.028-0.101 0.114-0.262 0.062-0.071-0.024-0.067 0.051l0.007 0.12q0.004 0.062 0.062 0.043 0.191-0.061 0.327 0.049 0.040 0.032 0.092 0.032 0.629-0.001 1.258 0c0.482 0 1.032-0.104 1.56-0.096 0.116 0.002 0.21 0.096 0.21 0.213 0 0 0 0 0 0v0 1.102q0 0.056-0.044 0.092c-0.179 0.146-0.456 0.1-0.677 0.122-0.001 0-0.002 0-0.003 0-0.028 0.004-0.047 0.029-0.043 0.057 0 0.001 0 0.002 0 0.002l-0-0c0.065 0.378 0.039 1.412-0.564 1.375-0.303-0.018-0.146-0.379-0.244-0.62-0.018-0.042-0.059-0.071-0.106-0.071-0.045 0-0.083 0.026-0.102 0.063l-0 0.001c-0.138 0.275-0.621 0.781-0.979 0.552q-0.037-0.024-0.046-0.067-0.089-0.478-0.154-0.959c-0.032-0.236-0.391-0.382-0.596-0.451-0.715-0.241-1.9-0.045-2.624 0.157-0.035 0.010-0.060 0.041-0.060 0.079 0 0.013 0.003 0.026 0.009 0.038l-0-0.001q0.154 0.303 0.083 0.67-0.256 1.318-0.48 2.641c-0.022 0.128 0.011 0.266 0.115 0.336q1.161 0.786 2.114 2.114 0.119 0.166 0.25-0.010 0.029-0.038 0.073-0.026 0.135 0.036 0.215-0.063c0.022-0.027 0.058-0.039 0.091-0.031l0.001 0q0.125 0.030 0.192-0.064c0.016-0.023 0.043-0.038 0.073-0.038 0.005 0 0.011 0 0.015 0.001l-0.001-0c0.279 0.049 0.442-0.085 0.682-0.087q0.161-0.002 0.326 0.001 0.053 0.001 0.097 0.029 0.143 0.091 0.315 0.064 0.049-0.008 0.091 0.014c0.27 0.136 0.584 0.255 0.789 0.457q0.65 0.642 0.33 1.596-0.146 0.438-0.575 0.211c-0.007-0.004-0.016-0.006-0.025-0.006-0.024 0-0.044 0.015-0.051 0.036l-0 0-0.049 0.156q-0.013 0.041-0.049 0.063-0.177 0.109-0.353 0.002-0.046-0.028-0.067-0.076-0.358-0.804-1.246-0.628-0.238 0.047-0.166 0.278 0.1 0.327 0.189 0.637c0.009 0.034 0.014 0.068 0.014 0.101l-0 0.001q-0.001 0.143 0.088 0.253 0.029 0.037 0.023 0.084c-0.039 0.278 0.092 0.466 0.092 0.712q-0.003 0.812 0 1.627c0.001 0.25-0.135 0.442-0.089 0.728q0.008 0.049-0.029 0.081c-0.105 0.094-0.071 0.251-0.096 0.347-1.135 4.415-5.715 7.059-10.115 5.687q-0.405-0.126-1.765-0.701c-1.705-0.72-3.049-1.292-4.448-2.155-0.004-0.003-0.008-0.005-0.013-0.007-0.054-0.024-0.118 0.001-0.142 0.055-0.002 0.005-0.004 0.009-0.005 0.014l0-0.001c-0.556 1.888-1.631 3.283-3.627 3.699-0.199 0.042-0.509 0.037-0.766 0.132h-0.235q-0.243-0.099-0.507-0.104c-0.305-0.007-0.744-0.128-1.027-0.236-5.187-1.985-3.934-9.552 1.625-9.702 0.295-0.009 0.625 0.099 0.971 0.063 0.003-0 0.007-0.001 0.011-0.001 0.028 0 0.053 0.011 0.072 0.028l-0-0c0.118 0.105 0.25 0.062 0.373 0.102q0.655 0.212 1.244 0.506c0.010 0.005 0.022 0.008 0.035 0.008 0.038 0 0.070-0.027 0.077-0.064l0-0 0.549-3.113c0.009-0.051-0.020-0.1-0.068-0.118l-0-0q-3.804-1.344-5.178-4.963c-1.655-4.359 0.834-9.058 5.156-10.497 0.095-0.032 0.19 0 0.273-0.104 0.019-0.023 0.049-0.033 0.078-0.027l0.001 0q0.23 0.056 0.414-0.071 0.045-0.031 0.099-0.021 0.262 0.052 0.489-0.078c0.031-0.017 0.065-0.024 0.098-0.019l0.001 0q0.448 0.058 0.833-0.088zM11.128 2.571q-0.185-0.064-0.402-0.031-3.007 0.462-4.799 2.716c-1.716 2.155-2.117 5.117-0.974 7.642q1.303 2.878 4.395 4.007 0.052 0.019 0.062-0.036l0.075-0.398 0.2-0.994q0.011-0.054-0.039-0.031c-0.276 0.124-0.926 0.309-1.201 0.148-0.205-0.121-0.209-0.472-0.005-0.573q0.060-0.029 0.335-0.052 0.569-0.047 1.104-0.442c0.014-0.010 0.026-0.025 0.034-0.042 0.022-0.052-0.003-0.111-0.055-0.134-0.018-0.007-0.036-0.010-0.054-0.007l0.001-0q-1.717 0.222-2.707-1.186c-0.3-0.427 0.27-0.781 0.513-0.441 1.2 1.681 2.665 0.788 4.145 0.118 1.116-0.505 2.842-0.759 3.735 0.4q0.034 0.045 0.077 0.008 0.371-0.323 0.823-0.104 0.039 0.019 0.076-0.005l0.385-0.25q0.035-0.023 0.015-0.060c-0.97-1.781-3.402-1.257-5.002-0.901-1.66 0.37-2.813 0.076-4.232-0.806-0.183-0.114-0.333-0.144-0.368-0.397q-0.007-0.049 0.025-0.088 0.147-0.187 0.137-0.333c-0.2-2.877 2.165-4.958 4.982-4.737 1.174 0.185 1.977 0.512 3.257 1.006 0.378 0.145 0.619 0.218 0.521 0.711q-0.113 0.567-0.601 0.96c-0.010 0.009-0.017 0.022-0.017 0.036 0 0.026 0.021 0.047 0.047 0.047 0.004 0 0.007-0 0.010-0.001l-0 0q0.591-0.148 0.953-0.632c0.019-0.025 0.046-0.044 0.076-0.054l0.001-0q0.225-0.069 0.43 0.082l0.138 0.454q0.014 0.501-0.157 0.992-0.023 0.066 0.044 0.046l0.594-0.183c0.002-0.001 0.003-0.001 0.005-0.002 0.032-0.013 0.047-0.049 0.034-0.080-0.001-0.002-0.002-0.004-0.002-0.005l0 0c-0.223-0.437 0.050-0.793 0.552-0.607q0.176 0.525 0.718 0.615l0.534 0.132q0.049 0.012 0.035-0.036l-0.217-0.753q-0.182-1.144-0.14-1.711 0.029-0.403 0.465-0.358 0.045 0.005 0.077 0.034c0.204 0.187 0.391 0.46 0.665 0.541l0.503 0.118q0.053 0.012 0.045-0.041c-0.047-0.314-0.064-0.531-0.42-0.62q-2.227-1.133-4.44-2.298c-1.056-0.557-2.076-0.985-3.122-1.325q-0.9-0.293-1.87-0.058zM25.392 6.311q0.812 0.406 1.227 1.192c0.043 0.081 0.127 0.135 0.223 0.135 0.026 0 0.050-0.004 0.073-0.011l-0.002 0c0.456-0.136 0.637 0.723-0.054 0.751-0.112 0.005-0.214-0.061-0.338-0.074-0.029-0.003-0.058 0.008-0.077 0.029l-0 0.001c-0.984 1.105-2.482 0.039-2.041-1.318q0.115-0.169 0.067-0.372-0.011-0.048 0.001-0.096 0.047-0.179 0.201-0.246 0.095-0.042-0.009-0.050-0.666-0.051-0.784 0.606-0.117 0.206-0.329 0.291-0.044 0.017-0.090 0.007l-0.37-0.090q-0.765-0.148-1.249-0.574-0.251-0.219-0.14 0.095c0.113 0.317 0.394 0.653 0.18 0.98l-0.666 0.114q-0.598 0.003-1.144-0.232-0.047-0.019-0.043 0.030c0.035 0.468 0.131 1.323 0.589 1.678 0.276 0.213 0.352 0.352 0.143 0.651q-0.086-0.014-0.178 0.104c-0.446 0.065-0.841-0.017-1.24-0.075q-0.055-0.008-0.015 0.032 1.161 1.161 2.789 1.040 0.134-0.028 0.3-0.034 0.173-0.005 0.299-0.037c1.641-0.411 3.847-1.114 5.092 0.061 0.135 0.128 0.141 0.277 0.158 0.452 0.002 0.008 0.009 0.014 0.018 0.014s0.015-0.006 0.017-0.013l0-0c0.049-0.352 0.205-0.678 0.622-0.432q0.044 0.026 0.037-0.025c-0.070-0.528 0.637-0.405 0.946-0.439 0.001-0 0.002-0 0.002-0 0.027-0.005 0.045-0.031 0.040-0.058-0-0.001-0-0.002-0-0.002l0 0q-0.026-0.112-0.144-0.095-1.846 0.267-3.589-0.204c-0.626-0.169-0.307-0.678 0.041-0.9 0.92-0.587 1.808-0.654 2.952-0.585q0.095 0.006 0.008-0.031-0.45-0.19-0.766-0.461-0.864-0.742-2.078-1.878l-0.347-0.496q-0.041-0.058-0.061 0.010-0.076 0.264-0.236 0.493-0.010 0.015-0.029 0.016-0.014 0-0.029-0.001c-0-0-0.001-0-0.001-0-0.012 0-0.022 0.010-0.022 0.022 0 0.003 0.001 0.007 0.002 0.010l-0-0q0.013 0.028 0.042 0.017zM16.402 8.784c-0.801 0.271-1.683 0.311-2.303-0.283q-0.032-0.030-0.027-0.075 0.028-0.226 0.174-0.264 0.602-0.154 1.059-0.562c0.053-0.047 0.363-0.49 0.080-0.435q-0.047 0.010-0.093-0.008c-1.307-0.518-2.465-0.995-3.911-0.942q-0.049 0.002-0.088 0.028c-0.169 0.108-0.361 0.056-0.521 0.111q-1.909 0.66-2.574 2.584c-0.036 0.104-0.008 0.224-0.045 0.338-0.14 0.444-0.088 0.962 0.029 1.403q0.012 0.046 0.053 0.070c0.644 0.383 1.413 0.761 2.181 0.678q0.049-0.005 0.071-0.049c0.078-0.152 0.086-0.404 0.118-0.509 0.31-1.042 1.44-1.875 2.512-1.681q1.374 0.248 2.753 0.491 0.049 0.010 0.075-0.033c0.128-0.216 0.538-0.607 0.487-0.843-0.003-0.011-0.012-0.018-0.023-0.018-0.003 0-0.005 0-0.008 0.001l0-0zM25.752 7.95c-0.243-0.062-0.523-0.172-0.625-0.429-0.004-0.009-0.011-0.018-0.020-0.023-0.022-0.012-0.050-0.004-0.061 0.017-0.005 0.010-0.007 0.020-0.004 0.031l-0-0q0.113 0.587 0.711 0.456c0.012-0.003 0.020-0.013 0.020-0.026s-0.008-0.022-0.019-0.026l-0-0zM29.76 8.255q-0.028 0.239-0.217 0.373-0.067 0.047 0.012 0.065l0.45 0.102q0.064 0.014 0.086-0.046c0.083-0.209 0.161-0.694-0.267-0.571-0.036 0.011-0.061 0.041-0.065 0.076l-0 0.001zM18.189 9.615q-0.010-0.015-0.024-0.028-0.035-0.034-0.079-0.012c-0.162 0.082-0.473 0.279-0.651 0.253q-0.071-0.010-0.050 0.058l0.029 0.092q0.020 0.062 0.083 0.049 0.261-0.049 0.497 0.036c0.18 0.065 0.311 0.041 0.491 0.071 0.002 0 0.004 0.001 0.007 0.001 0.024 0 0.044-0.020 0.044-0.044 0-0.007-0.002-0.013-0.004-0.019l0 0q-0.037-0.080-0.124-0.115c-0.023-0.009-0.040-0.031-0.043-0.056l-0-0.001q-0.017-0.159-0.145-0.253c-0.012-0.010-0.022-0.020-0.030-0.033l-0-0zM13.603 10.629c-0.712-0.152-1.329-0.192-1.698 0.562-0.002 0.004-0.003 0.008-0.003 0.012 0 0.015 0.012 0.027 0.027 0.027 0.002 0 0.005-0 0.007-0.001l-0 0q0.739-0.196 1.508-0.265c0.179-0.016 0.261-0.082 0.222-0.271q-0.010-0.053-0.063-0.065zM18.025 13.691c-0.181 0.637-0.712 0.12-0.958-0.070-0.005-0.004-0.012-0.006-0.019-0.006-0.017 0-0.030 0.014-0.030 0.030 0 0.004 0.001 0.008 0.003 0.012l-0-0c0.104 0.247-0.014 0.516-0.277 0.557-0.198 0.030-0.497-0.298-0.635-0.434-0.009-0.009-0.021-0.015-0.035-0.015-0.024 0-0.045 0.018-0.048 0.042l-0 0c-0.227 1.521-1.046-0.098-1.249-0.413-0.020-0.032-0.056-0.052-0.096-0.052-0.056 0-0.102 0.040-0.112 0.093l-0 0.001-1.246 6.96q-0.008 0.050 0.040 0.037c0.422-0.108 1.931-0.444 2.26-0.179 0.257 0.209 0.148 0.746-0.204 0.826q-0.641 0.146-1.143 0.368-0.064 0.029 0.005 0.041l6.552 1.177q0.047 0.008 0.054-0.038l1.845-10.305q0.009-0.047-0.039-0.056l-7.615-1.365c-0.001-0-0.003-0.001-0.004-0.001-0.010 0-0.017 0.008-0.017 0.017 0 0.008 0.005 0.015 0.013 0.017l0 0q0.232 0.070 0.444 0.114c0.96 0.194 1.583 0.755 2.047 1.647q0.326 0.626 0.456 0.9 0.023 0.047 0.009 0.096zM10.224 20.953c0.558-0.072 1.008-0.041 1.552 0.093 0.003 0.001 0.007 0.001 0.010 0.001 0.021 0 0.038-0.015 0.042-0.035l0-0 1.401-7.833c0-0.002 0.001-0.003 0.001-0.005 0-0.015-0.012-0.027-0.027-0.027-0.001 0-0.003 0-0.004 0l0-0q-0.903 0.147-1.714 0.564c-0.028 0.014-0.047 0.039-0.052 0.069l-0 0.001-1.27 7.109q-0.013 0.073 0.061 0.064zM25.211 17.227c-0.416-0.557-0.977-1.096-1.563-1.562q-0.058-0.047-0.071 0.027l-0.093 0.53q-0.008 0.043 0.022 0.075c0.497 0.553 0.882 0.954 1.681 0.977q0.061 0.002 0.025-0.047zM25.859 17.855c-0.877 0.303-1.872-0.047-2.489-0.689-0.003-0.003-0.006-0.006-0.010-0.008-0.020-0.011-0.045-0.003-0.056 0.018-0.002 0.004-0.004 0.008-0.004 0.012l0-0-0.075 0.447q-0.006 0.034 0.014 0.062 0.94 1.322 2.561 0.871c0.864-0.239 1.11-0.794 2.155-0.487 0.031 0.009 0.064-0.008 0.073-0.039v-0q0.121-0.375 0.497-0.285c0.031 0.008 0.059 0.026 0.078 0.051l0.001 0.001q0.054 0.070 0.137 0.085 0.097 0.017 0.022-0.047c-0.896-0.757-1.914-0.332-2.904 0.009zM20.958 25.678c-0.16 0.776-0.098 2.153-1.375 1.728q-0.097-0.032-0.066 0.066c0.226 0.692-0.518 1.161-1.118 0.903-0.259-0.11-0.348-0.407-0.095-0.581 0.143-0.099 0.32-0.060 0.483-0.031 0.003 0.001 0.007 0.001 0.011 0.001 0.040 0 0.072-0.032 0.072-0.072 0-0.021-0.009-0.040-0.023-0.053l-0-0q-0.101-0.092-0.24-0.073-0.049 0.007-0.091-0.016-0.146-0.081-0.17-0.238c-0.012-0.074-0.070-0.133-0.142-0.145l-1.432-0.247q-0.12-0.020-0.147 0.098-0.101 0.434-0.683 0.543-0.428-0.046-0.757-0.363-0.085-0.413 0.268-0.478l0.201 0.040q0.149 0.101 0.293 0.089 0.084-0.006 0.017-0.056-0.119-0.089-0.281-0.060l-0.231-0.054-1.264-0.221c-0.005-0.001-0.011-0.001-0.018-0.001-0.027 0-0.052 0.010-0.071 0.027l0-0-0.15 0.139q-0.792 0.32-1.171-0.377-0.019-0.037-0.061-0.045l-1.022-0.19q-0.296-0.055-0.037 0.098c1.418 0.837 3.009 1.431 4.534 2.085 1.040 0.446 2.331 0.819 3.433 0.654 2.69 0.085 5.257-1.854 6.34-4.207q1.154-2.508 0.337-5.296-0.014-0.047-0.065-0.049c-0.447-0.014-0.94 0.124-1.3 0.104q-0.468-0.027-0.931-0.2c-0.265-0.121-0.723-0.35-0.88-0.618q-0.034-0.059-0.047 0.008l-0.154 0.766q-0.010 0.044 0.013 0.083c1.314 2.264 0.452 4.791-1.802 5.962-0.138 0.071-0.155 0.136-0.179 0.281zM22.603 20.655l-0.541 2.987c-0.001 0.003-0.001 0.008-0.001 0.012 0 0.035 0.028 0.063 0.063 0.063 0.021 0 0.040-0.011 0.051-0.027l0-0q0.624-0.905 0.713-1.99c0.029-0.339-0.065-0.684-0.104-1.037-0.005-0.046-0.044-0.082-0.091-0.082-0.045 0-0.082 0.032-0.090 0.075l-0 0.001zM5.951 20.953q-0.503-0.049-1.068 0.113c-2.644 0.757-3.885 3.763-2.582 6.205 0.643 1.205 2.104 2.291 3.596 2.191 1.195 0.167 2.376-0.426 3.098-1.349 0.466-0.597 0.757-1.417 1.051-2.193 0.484-1.284 1.105-2.456 1.933-3.604l1.002-0.926c0.005-0.003 0.008-0.008 0.008-0.014 0-0.009-0.007-0.016-0.016-0.016-0.003 0-0.006 0.001-0.009 0.003l0-0c-2.553 1.002-4.195 3.183-5.664 5.349q-0.168 0.248-0.881 0.692-0.238 0.011-0.476 0.039c-2.153 0.255-3.472-2.365-1.993-3.967q0.92-0.997 2.445-0.727l1.898 1.221c0.007 0.004 0.016 0.007 0.025 0.007 0.026 0 0.047-0.021 0.047-0.047 0-0.002-0-0.004-0-0.006l0 0-0.059-0.451 0.275-1.821c0.001-0.005 0.001-0.010 0.001-0.016 0-0.039-0.023-0.073-0.056-0.090l-0.001-0c-0.782-0.384-1.698-0.755-2.575-0.594zM19.735 23.913l-7.009-1.257q-0.053-0.010-0.088 0.032-0.679 0.816-1.149 1.767-0.028 0.057 0.035 0.068l7.887 1.419q0.049 0.009 0.058-0.040l0.338-1.889q0.015-0.086-0.071-0.102zM4.343 26.1c0.148 0.36 1.087 0.771 1.433 0.732q0.633-0.071 1.053-0.659 0.535-0.751 1.056-1.507c0.017-0.024 0.027-0.054 0.027-0.086 0-0.053-0.027-0.1-0.068-0.127l-0.001-0c-0.541-0.351-1.073-0.743-1.665-1.032q-0.041-0.020-0.085-0.013-0.178 0.028-0.334-0.047-0.047-0.023-0.097-0.002c-0.189 0.078-0.352 0.027-0.529 0.104-0.521 0.231-0.915 0.551-1.057 1.124q-0.005 0.022-0.021 0.038l-0.029 0.029q-0.028 0.027-0.028 0.066v0.753c0 0.028 0.008 0.055 0.022 0.079l0 0.001c0.067 0.108 0.178 0.427 0.265 0.481q0.040 0.025 0.058 0.067zM21.26 24.524q0.288-0.121 0.473-0.372c0.006-0.007 0.009-0.016 0.009-0.026 0-0.022-0.016-0.039-0.036-0.043l-0-0q-0.29-0.051-0.553 0.049c-0.033 0.013-0.056 0.044-0.056 0.081v0 0.387q0 0.050 0.050 0.047 0.049-0.003 0.058-0.053c0.006-0.031 0.026-0.057 0.054-0.069l0.001-0z"></path>
<path d="M11.014 3.672l0.036 0.047q0.033 0.043 0.086 0.032c0.409-0.083 0.741 0.37 0.342 0.615-0.127 0.079-0.27 0.013-0.409 0.074-0.013 0.005-0.024 0.015-0.033 0.027-0.024 0.035-0.014 0.083 0.021 0.107 0.013 0.008 0.027 0.013 0.041 0.013l-0-0c0.364 0.014 0.801 0.197 0.429 0.625q-0.031 0.036-0.078 0.046c-0.741 0.152-1.396-0.387-1.006-1.133 0.013-0.025 0.012-0.054-0.002-0.077l-0-0c-0.643-1.109 1.299-1.51 1.207-0.776-0.036 0.291-0.377 0.309-0.595 0.315-0.028 0.001-0.051 0.024-0.051 0.052 0 0.012 0.004 0.024 0.011 0.032l-0-0z"></path>
<path d="M14.49 5.742q-0.471 0.248-0.85-0.171-0.461-0.611 0.047-1.158 0.034-0.036 0.029-0.085c-0.071-0.784 0.695-1.071 1.297-0.719 0.176 0.103 0.199 0.384 0.049 0.52-0.16 0.145-0.387 0.042-0.569-0.002q-0.039-0.008-0.053 0.029c-0.081 0.217 0.495 0.161 0.437 0.586-0.060 0.431-0.496 0.196-0.734 0.206-0.030 0.001-0.054 0.026-0.054 0.056 0 0.022 0.013 0.041 0.031 0.050l0 0c0.297 0.143 0.659 0.272 0.37 0.688z"></path>
<path d="M8.721 5.488l0.010 0.055c0.005 0.025 0.027 0.044 0.053 0.044 0.004 0 0.007-0 0.011-0.001l-0 0c0.631-0.125 0.696 0.635 0.238 0.696-0.664 0.088-1.306-0.501-0.904-1.144 0.016-0.026 0.016-0.059 0-0.086l-0-0.001c-0.381-0.629 0.212-1.222 0.853-1.164 0.533 0.049 0.411 0.813-0.187 0.677-0.005-0.001-0.011-0.002-0.017-0.002-0.042 0-0.076 0.034-0.076 0.076 0 0.007 0.001 0.014 0.003 0.020l-0-0.001c0.051 0.187 0.54-0.081 0.636 0.435q0.010 0.049-0.016 0.093-0.177 0.3-0.541 0.238c-0.003-0-0.006-0.001-0.009-0.001-0.029 0-0.053 0.024-0.053 0.053 0 0.004 0 0.007 0.001 0.011l-0-0z"></path>
<path d="M17.894 7.593l-0.19 0.11q-0.252-0.048-0.493-0.226-0.37-0.348-0.258-0.886l0.362-0.41q0.031-0.035 0.039-0.082c0.2-1.35 2.065-0.512 1.335 0.062-0.197 0.154-0.386-0.081-0.57-0.089-0.001-0-0.003-0-0.004-0-0.040 0-0.073 0.033-0.073 0.073 0 0.031 0.020 0.058 0.047 0.068l0.001 0c0.369 0.14 0.491 0.56 0.077 0.732q-0.046 0.018-0.090 0l-0.37-0.145q-0.039-0.015-0.069 0.015l-0.024 0.023q-0.027 0.027 0.004 0.049c0.254 0.181 0.555 0.402 0.278 0.706z"></path>
<path d="M6.778 5.558q0.177 0.047 0.309 0.2c0.020 0.023 0.030 0.051 0.030 0.081l-0 0.001q-0.007 0.452-0.478 0.461-0.047 0.001-0.050 0.047l-0.004 0.051c-0 0.001-0 0.003-0 0.004 0 0.033 0.026 0.059 0.059 0.059 0.003 0 0.006-0 0.009-0.001l-0 0 0.335-0.050q0.047-0.007 0.086 0.016c0.468 0.267 0.143 0.713-0.277 0.713-0.033 0-0.059 0.024-0.064 0.056l-0 0c-0.032 0.226 0.853-0.174 0.718 0.494-0.006 0.029-0.021 0.055-0.043 0.074l-0.001 0.001c-0.607 0.534-1.506 0.022-1.306-0.797q0.008-0.039-0.039-0.094c-0.362-0.644-0.036-1.29 0.715-1.317z"></path>
<path d="M26.072 6.239l-0.68 0.071q-0.029 0.010-0.042-0.017c-0.001-0.003-0.002-0.006-0.002-0.010 0-0.012 0.010-0.022 0.022-0.022 0 0 0.001 0 0.001 0h-0q0.014 0.001 0.029 0.001 0.019-0.001 0.029-0.016 0.16-0.229 0.236-0.493 0.020-0.068 0.061-0.010l0.347 0.496z"></path>
<path d="M24.402 7.015q-0.286 0.014-0.523-0.159 0.118-0.657 0.784-0.606 0.104 0.008 0.009 0.050-0.154 0.067-0.201 0.246-0.012 0.047-0.001 0.096 0.047 0.203-0.067 0.372z"></path>
<path d="M23.090 7.064q0.277 0.256 0.066 0.466c-0.256 0.254-0.965 0.126-1.275 0.036 0.215-0.328-0.067-0.663-0.18-0.98q-0.111-0.314 0.14-0.095 0.484 0.426 1.249 0.574z"></path>
<path d="M17.211 7.477q0.241 0.178 0.493 0.226l-0.481 0.468-0.138-0.454q0.098-0.068 0.125-0.24z"></path>
<path d="M21.322 9.865q-0.136-0.321-0.044-0.641c0.104-0.361-0.189-0.619 0.087-0.998q0.387-0.421 0.876-0.328c0.352 0.067 0.446 0.399 0.155 0.637q-0.029 0.023-0.067 0.025l-0.345 0.017q-0.051 0.003-0.055 0.055c-0.012 0.161 0.484 0.060 0.61 0.319 0.2 0.41-0.322 0.443-0.547 0.563q-0.050 0.028 0.007 0.031 0.279 0.019 0.491 0.184 0.037 0.029 0.047 0.075 0.083 0.387-0.236 0.461-0.618 0.144-0.979-0.4z"></path>
<path d="M7.251 14.69c0.387 0.008 1.131 0.201 0.764 0.78-0.39 0.090-1.442-0.236-0.764-0.78z"></path>
<path d="M24.236 19.651q0.558 0.049 1.023-0.094c0.353-0.109 0.677 0.205 0.434 0.505-0.204 0.253-0.883 0.304-1.18 0.277q-0.316-0.001-0.434-0.328c-0.007-0.019-0.026-0.033-0.047-0.033-0.010 0-0.020 0.003-0.028 0.008l0-0-0.127 0.085c-0.022 0.014-0.047 0.021-0.072 0.021l-0.001-0q-0.472-0.014-0.57-0.455-0.010-0.049 0.017-0.089c0.265-0.399 0.729-0.149 0.898 0.182 0.012 0.024 0.041 0.035 0.065 0.024l0-0q0.060-0.027 0.022-0.104z"></path>
<path d="M11.979 22.317q-1.669 1.291-2.895 3.037-0.322-0.227-0.546 0.032-0.4 0.461-0.162 0.979-0.273 0.454-0.682 0.709-0.451-0.218-0.808 0.392l-0.466-0.063q0.712-0.444 0.881-0.692c1.469-2.166 3.111-4.347 5.664-5.349 0.002-0.002 0.005-0.003 0.008-0.003 0.009 0 0.016 0.007 0.016 0.016 0 0.006-0.003 0.011-0.008 0.014l-0 0-1.002 0.926z"></path>
<path d="M24.659 21.929q0.148 0.212 0.122 0.49c-0 0.003-0 0.006-0 0.010 0 0.054 0.040 0.099 0.092 0.107l0.001 0c0.104 0.016-0.006-0.816 0.537-0.613 0.321 0.12 0.139 0.399 0.266 0.59 0.014 0.019 0.036 0.032 0.061 0.032 0.041 0 0.074-0.033 0.074-0.074 0-0.005-0-0.009-0.001-0.013l0 0c-0.104-0.583 0.59-0.743 0.67-0.273 0.122 0.724-0.442 1.24-1.144 0.94q-0.044-0.019-0.086 0.001-0.456 0.21-0.858-0.051c-0.352-0.358-0.549-1.376 0.267-1.146z"></path>
<path d="M23.628 24.326l0.018 0.288q0.004 0.075 0.077 0.056l0.043-0.011q0.070-0.018 0.053-0.088c-0.135-0.552 0.6-0.733 0.672-0.19 0.006 0.047-0.029 0.315 0.082 0.293 0.047-0.010 0.082-0.052 0.082-0.101 0-0.004-0-0.008-0.001-0.012l0 0c-0.059-0.552 0.578-0.729 0.687-0.2 0.138 0.662-0.473 1.252-1.13 0.917q-0.043-0.021-0.085-0.002-0.737 0.324-1.128-0.401-0.21-0.518 0.193-0.805c0.028-0.019 0.061-0.027 0.093-0.022l0.001 0q0.252 0.039 0.343 0.279z"></path>
<path d="M9.084 25.354c0.245 0.38-0.151 0.474-0.1 0.684 0.008 0.033 0.037 0.056 0.072 0.056 0.024 0 0.045-0.012 0.059-0.029l0-0c0.135-0.181 0.272-0.455 0.556-0.305 0.657 0.347-0.593 1.7-1.296 0.606q-0.238-0.519 0.162-0.979 0.224-0.259 0.546-0.032z"></path>
<path d="M15.451 26.677l0.231 0.054q-0.021 0.007-0.029 0.027l-0.201-0.040q0-0.021 0-0.041z"></path>
<path d="M15.682 26.731q0.162-0.029 0.281 0.060 0.067 0.050-0.017 0.056-0.144 0.011-0.293-0.089 0.008-0.020 0.029-0.027z"></path>
<path d="M7.694 27.074c0.304 0.435-0.1 0.446-0.181 0.732-0.001 0.005-0.002 0.010-0.002 0.016 0 0.033 0.026 0.059 0.059 0.059 0.013 0 0.025-0.004 0.035-0.011l-0 0c0.135-0.098 0.302-0.256 0.475-0.229 0.216 0.035 0.371 0.33 0.225 0.52-0.617 0.804-1.79 0.266-1.419-0.694q0.357-0.611 0.808-0.392z"></path>
<path d="M5.081 29.117q-0.353-0.042-0.644-0.349c-0.333-0.788 0.304-1.423 1.096-1.134 0.064 0.024 0.113 0.077 0.131 0.142l0 0.001q0.109 0.413-0.295 0.501c-0.029 0.006-0.059 0.003-0.087-0.007l-0.001-0q-0.132-0.055-0.244 0.026c-0.003 0.002-0.006 0.005-0.009 0.009-0.017 0.021-0.014 0.051 0.007 0.067 0.003 0.003 0.007 0.005 0.011 0.007l-0-0c0.256 0.116 0.881 0.135 0.5 0.647q-0.086 0.118-0.465 0.091z"></path>
</svg>
