<!--
SPDX-FileCopyrightText: 2023 to Present, Bluesky, PBLLC <press@blueskyweb.xyz>

SPDX-License-Identifier: LicenseRef-AllRightsReserved
-->

<!-- Generated by IcoMoon.io -->
<svg version="1.1" xmlns="http://www.w3.org/2000/svg" width="1024" height="1024" viewBox="0 0 1024 1024">
<title></title>
<g id="icomoon-ignore">
</g>
<path fill="#000" d="M221.992 121.925c117.389 88.128 243.646 266.823 290.008 362.709 46.362-95.887 172.62-274.581 290.008-362.709 84.701-63.59 221.944-112.792 221.944 43.772 0 31.269-17.927 262.669-28.442 300.24-36.549 130.607-169.728 163.92-288.199 143.758 207.079 35.244 259.756 151.983 145.989 268.723-216.066 221.711-310.546-55.628-334.756-126.692-4.438-13.028-6.515-19.123-6.545-13.94-0.031-5.183-2.107 0.912-6.545 13.94-24.21 71.064-118.69 348.403-334.756 126.692-113.767-116.74-61.090-233.479 145.989-268.723-118.47 20.163-251.65-13.15-288.199-143.758-10.515-37.571-28.442-268.972-28.442-300.24 0-156.564 137.243-107.362 221.944-43.772z"></path>
</svg>
