<!--
SPDX-FileCopyrightText: Copyright © 2020-present, Ad Aures

SPDX-License-Identifier: LicenseRef-AllRightsReserved
-->
<svg version="1.1" xmlns="http://www.w3.org/2000/svg" width="32" height="32" viewBox="0 0 32 32">
<title>ds-castopod</title>
<path d="M28.337 6.5c1.060 0 1.921 0.856 1.928 1.917v15.153c0.003 0.51-0.196 1.001-0.555 1.363s-0.846 0.567-1.356 0.568h-4.667c0 0-0.166-0.354-0.344-0.722l-0.029-0.059c-0.010-0.020-0.019-0.040-0.029-0.059l-0.019-0.039c-0.102-0.208-0.201-0.406-0.269-0.528-0.188-0.36-0.641-0.355-0.667-0.354l-12.678 0c0 0-0.461-0.060-0.69 0.354-0.074 0.124-0.168 0.301-0.262 0.489l-0.020 0.039c-0.007 0.013-0.013 0.026-0.020 0.039l-0.020 0.039-0.020 0.039c-0.19 0.385-0.363 0.762-0.363 0.762h-4.594c-1.060 0-1.921-0.856-1.928-1.917v-15.153c0-1.061 0.856-1.923 1.915-1.93h24.685zM22.62 10.567l-0.037 0h-13.044c-2.247 0-4.069 1.821-4.069 4.068s1.822 4.068 4.069 4.068h13.044c2.237 0 4.060-1.822 4.060-4.059 0.011-1.081-0.412-2.123-1.175-2.889s-1.803-1.194-2.885-1.187zM21.555 13.093c0.746-0.002 1.432 0.415 1.774 1.078s0.284 1.463-0.149 2.069c0 0-0.004-0.002-0.012-0.007l-0.012-0.007c-0.144-0.072-0.886-0.423-1.53-0.423-0.959 0-1.641 0.51-1.641 0.51-0.472-0.6-0.559-1.417-0.224-2.104s1.033-1.12 1.797-1.118zM10.523 13.093l-0.004 0.004c0.762-0.002 1.458 0.432 1.793 1.117s0.249 1.5-0.22 2.1c0 0-0.678-0.51-1.641-0.51-0.702 0-1.521 0.423-1.554 0.44l-0.001 0.001c-0.437-0.608-0.496-1.41-0.152-2.075s1.031-1.081 1.781-1.077z"></path>
</svg>
