<!--
SPDX-FileCopyrightText: Copyright © 2009-present, Dries Buytaert <dries@buytaert.net>

SPDX-License-Identifier: LicenseRef-AllRightsReserved
-->
<svg version="1.1" xmlns="http://www.w3.org/2000/svg" width="32" height="32" viewBox="0 0 32 32">
<title>ds-drupal</title>
<path d="M15.999-0c0.614 2.323 2.618 4.393 4.77 6.546l0.202 0.202c0.023 0.022 0.045 0.045 0.068 0.067 3.378 3.375 7.206 7.2 7.206 12.937-0.007 6.761-5.485 12.24-12.246 12.248-6.76-0.008-12.238-5.487-12.245-12.248 0-5.564 3.603-9.33 6.901-12.632l0.204-0.204c0.034-0.034 0.068-0.068 0.101-0.101l0.202-0.202c2.177-2.177 4.217-4.266 4.837-6.614zM15.999 18.367c0 0-0.808 0.879-1.635 1.798l-0.171 0.191c-0.541 0.603-1.067 1.199-1.355 1.552-0.663 0.777-1.034 1.761-1.050 2.782-0.001 1.505 0.801 2.897 2.105 3.65s2.91 0.753 4.213 0c1.303-0.753 2.106-2.144 2.105-3.65 0.009-1.030-0.368-2.025-1.056-2.791-0.324-0.361-0.913-1.020-1.495-1.672l-0.085-0.095c-0.807-0.904-1.576-1.765-1.576-1.765zM15.999 7.045l-0.002 0.002c-0.001 0.001-0.002 0.002-0.002 0.002l-0.013 0.013c-0.012 0.012-0.028 0.029-0.050 0.050l-0.050 0.050c-0.005 0.005-0.009 0.009-0.014 0.014l-0.12 0.12c-0.006 0.006-0.013 0.013-0.020 0.020l-0.063 0.063c-0.029 0.029-0.059 0.059-0.091 0.091l-0.073 0.073c-0.033 0.033-0.068 0.068-0.104 0.104l-0.195 0.194c-0.010 0.010-0.019 0.019-0.029 0.029l-0.118 0.118c-0.030 0.030-0.060 0.060-0.090 0.090l-0.274 0.274c-0.020 0.020-0.041 0.041-0.061 0.061l-0.12 0.12c-0.030 0.030-0.059 0.059-0.089 0.089l-0.058 0.058c-0.010 0.010-0.019 0.019-0.029 0.029l-0.057 0.057c-0.019 0.019-0.037 0.037-0.056 0.056l-0.081 0.081c-0.009 0.009-0.018 0.018-0.026 0.026l-0.102 0.102c-0.025 0.025-0.048 0.048-0.072 0.072l-0.045 0.045c-0.029 0.030-0.058 0.058-0.084 0.084l-0.038 0.039c-0.012 0.012-0.024 0.024-0.036 0.036-0.46 0.461-1.452 1.34-0.297 2.587 1.312 1.418 8.328 8.75 9.131 9.939 0.366 0.542 0.419 0.796 0.915 0.778 0.278-0.010 0.484-0.342 0.575-0.54 0.425-0.93 1.146-3.747-0.946-7.004s-7.115-8.022-7.115-8.022zM10.578 12.718c-5.141 5.086-2.37 9.862-1.619 9.887 0.078 0.003 0.208 0.012 0.296-0.235 0.43-1.2 3.89-4.67 4.702-5.502 0.065-0.052 0.104-0.129 0.109-0.212s-0.027-0.164-0.086-0.222l-3.402-3.716z"></path>
</svg>
