<!--
SPDX-FileCopyrightText: Copyright © 2019-Present, Dolphin Project>

SPDX-License-Identifier: AGPL-3.0-only
-->

<svg version="1.1" xmlns="http://www.w3.org/2000/svg" width="32" height="32" viewBox="0 0 32 32">
<title>ds-dolphin</title>
<path d="M8.752 2.906c-0.391-0.815-1.224-1.379-2.188-1.379-1.339 0-2.425 1.087-2.425 2.426 0 0.773 0.362 1.463 0.928 1.905 0.124 0.099 0.202 0.245 0.217 0.403s-0.035 0.316-0.138 0.436c-2.141 2.535-3.433 5.811-3.433 9.387 0 6.442 4.192 11.912 9.993 13.828 0.168 0.054 0.352-0.012 0.448-0.161s0.079-0.343-0.040-0.474c-1.942-2.151-3.126-5.001-3.126-8.125 0-4.861 2.865-9.058 6.998-10.988 0.102-0.047 0.223-0.029 0.307 0.046s0.117 0.192 0.083 0.299c-0.072 0.229-0.11 0.472-0.11 0.725 0 1.339 1.087 2.426 2.425 2.426s2.425-1.087 2.425-2.426c0-0.666-0.269-1.27-0.704-1.708-0.080-0.082-0.104-0.204-0.062-0.31s0.143-0.178 0.258-0.183c0.168-0.007 0.337-0.010 0.507-0.010 3.312 0 6.315 1.331 8.506 3.486 0.125 0.124 0.318 0.149 0.471 0.060s0.226-0.269 0.18-0.439c-1.725-6.114-7.346-10.6-14.007-10.6-2.422 0-4.706 0.593-6.718 1.637-0.139 0.074-0.303 0.089-0.453 0.040s-0.274-0.157-0.343-0.299zM24.754 6.38c0.669 0 1.213 0.544 1.213 1.215s-0.543 1.214-1.213 1.214c-0.669 0-1.213-0.544-1.213-1.215s0.543-1.215 1.213-1.215z"></path>
<path d="M25.718 23.144c0.091 0.039 0.149 0.129 0.147 0.227-0.044 1.804-0.753 3.595-2.129 4.971-2.84 2.84-7.452 2.84-10.292 0s-2.84-7.452 0-10.292c1.376-1.376 3.167-2.085 4.971-2.128 0.098-0.002 0.188 0.056 0.226 0.147s0.018 0.195-0.051 0.265c0.001 0.001 0.001 0.001 0 0.001-1.893 1.893-1.893 4.968 0 6.861s4.968 1.893 6.861 0c0.070-0.070 0.175-0.090 0.266-0.052z"></path>
</svg>
