<!--
SPDX-FileCopyrightText: Copyright © 2023, Bob Mottram <bob@libreserver.org>

SPDX-License-Identifier: LicenseRef-AllRightsReserved
-->
<svg version="1.1" xmlns="http://www.w3.org/2000/svg" width="32" height="32" viewBox="0 0 32 32">
<title>ds-epicyon</title>
<path d="M26.886 7.766v0.479l-0.16-0.017-0.047-0.009-0.181-0.024-0.093-0.006-0.186 0.013-0.181 0.051-0.207 0.087-0.019 0.16-0.033 0.14c-0.027 0.085-0.059 0.167-0.1 0.248s-0.090 0.156-0.142 0.232l-0.105 0.149-0.051 0.077-0.088 0.164c-0.050 0.113-0.079 0.232-0.103 0.352l-0.020 0.142-0.010 0.16-0.133 0.062-0.031 0.032-0.070 0.058-0.189 0.22-0.147 0.161-0.31 0.31-0.303 0.305c-0.097 0.097-0.193 0.193-0.298 0.281l-0.335 0.256-0.331 0.283-0.16 0.121c-0.078 0.055-0.16 0.104-0.241 0.154l-0.247 0.16-0.179 0.123-0.188 0.135c-0.121 0.085-0.244 0.171-0.383 0.225-0.091 0.036-0.189 0.059-0.287 0.061l-0.096 0.001c-0.128-0.006-0.255-0.021-0.383-0.021s-0.256 0.015-0.383 0.026l-0.192 0.011c-0.191 0.008-0.383 0.003-0.575 0.004-0.096 0.001-0.192 0.002-0.287 0.008-0.161 0.011-0.319 0.038-0.479 0.060-0.122 0.017-0.247 0.025-0.367 0.050l-0.167 0.045-0.164 0.056-0.085 0.024-0.179 0.031c-0.094 0.011-0.189 0.011-0.284 0.012-0.191 0.002-0.384-0.004-0.575 0.009-0.225 0.015-0.446 0.063-0.671 0.079-0.159 0.011-0.32 0.008-0.479 0.009l-0.479-0.001c-0.128-0.002-0.256-0.004-0.383-0.016-0.128-0.012-0.256-0.035-0.383-0.054-0.093-0.014-0.187-0.026-0.279-0.047l-0.173-0.047c-0.11-0.037-0.217-0.079-0.331-0.099-0.152-0.027-0.307-0.024-0.46-0.025l-0.482-0-0.062-0.129-0.092-0.084-0.147-0.076-0.353-0.122-0.249-0.095-0.083-0.025-0.085-0.019-0.088-0.012-0.090-0.006-0.181 0.006-0.173 0.031-0.083 0.024-0.164 0.055-0.085 0.024-0.178 0.026-0.181-0.009-0.088-0.018-0.085-0.025-0.331-0.125c-0.090-0.028-0.18-0.049-0.272-0.066l-0.187-0.031-0.179-0.039c-0.112-0.029-0.219-0.078-0.331-0.106-0.115-0.028-0.236-0.043-0.354-0.028l-0.178 0.042-0.085 0.040-0.082 0.054-0.081 0.064c-0.080 0.068-0.157 0.141-0.241 0.206l-0.135 0.090-0.159 0.062 0.056-0.287 0.014-0.085 0.009-0.045 0.017-0.158-0.151 0.014-0.125 0.031-0.151 0.059-0.165 0.071c-0.089 0.033-0.178 0.060-0.272 0.072l-0.19 0.005-0.096-0.008-0.192-0.024c-0.096-0.011-0.191-0.020-0.287-0.023-0.127-0.004-0.256-0.002-0.383 0.012l-0.192 0.024c-0.096 0.014-0.191 0.029-0.287 0.039-0.095 0.009-0.191 0.012-0.287 0.015-0.123 0.004-0.246 0.004-0.367 0.026-0.144 0.026-0.276 0.087-0.416 0.124-0.12 0.031-0.243 0.049-0.364 0.073l-0.179 0.049c-0.109 0.037-0.21 0.091-0.316 0.135l-0.085 0.028-0.040 0.017-0.151 0.027-0.099 0.133-0.036 0.031-0.067 0.070-0.129 0.119-0.13 0.129-0.059 0.061-0.074 0.071-0.033 0.035-0.139 0.117 0.019 0.16-0.005 0.138-0.017 0.077-0.077 0.152-0.060 0.064-0.072 0.055-0.16 0.091-0.082 0.041c-0.081 0.039-0.162 0.077-0.245 0.111l-0.085 0.029-0.088 0.026c-0.091 0.025-0.183 0.046-0.271 0.082l-0.17 0.085-0.081 0.050-0.071 0.048-0.082 0.047-0.038 0.027-0.143 0.058 0.013 0.151 0.032 0.125 0.064 0.151 0.094 0.164 0.056 0.086 0.118 0.171 0.064 0.095 0.035 0.046 0.098 0.16 0.482-0 0.282-0.005 0.179-0.020 0.167-0.047 0.321-0.135 0.135-0.045 0.159-0.036-0.104 0.145-0.118 0.101-0.164 0.090-0.174 0.060-0.303 0.082-0.018 0.16-0.009 0.046-0.014 0.094-0.027 0.165-0.011 0.094-0.007 0.046-0.010 0.16 0.143-0.030 0.049-0.014 0.192-0.052v0.383h0.207l0.181-0.001c0.155-0.004 0.311-0.003 0.459-0.053l0.167-0.079 0.080-0.050 0.080-0.053c0.13-0.083 0.259-0.171 0.401-0.233 0.081-0.036 0.165-0.067 0.253-0.081l0.171-0.020c0.101-0.005 0.2-0.004 0.302-0.005l0.104-0.131 0.118-0.089 0.166-0.080 0.092-0.029 0.19-0.037c0.153-0.022 0.308-0.012 0.461-0.043l0.155-0.043 0.117-0.052 0.13-0.072 0.031 0.133 0.057 0.101 0.097 0.12 0.057 0.064 0.115 0.141 0.053 0.076 0.086 0.159 0.052 0.173 0.014 0.091 0.008 0.093 0.005 0.188 0.001 0.482-0.143 0.057-0.038 0.026-0.082 0.046-0.151 0.103-0.355 0.239c-0.093 0.061-0.187 0.123-0.286 0.175-0.093 0.049-0.189 0.089-0.287 0.125-0.124 0.045-0.253 0.079-0.375 0.129l-0.173 0.080-0.083 0.047-0.164 0.106c-0.153 0.101-0.304 0.208-0.444 0.328-0.088 0.076-0.17 0.16-0.255 0.239l-0.081 0.072-0.167 0.117c-0.142 0.083-0.301 0.126-0.454 0.181l-0.173 0.063c-0.11 0.044-0.218 0.093-0.331 0.13-0.147 0.049-0.301 0.077-0.446 0.129l-0.165 0.070-0.151 0.082-0.085 0.045-0.040 0.024-0.151 0.068 0.013 0.16 0.008 0.141c0.010 0.11 0.018 0.226 0.083 0.321l0.12 0.114 0.079 0.041 0.087 0.030 0.092 0.021 0.094 0.013 0.095 0.004c0.161 0.003 0.32-0.031 0.479-0.051l0.19-0.020c0.091-0.009 0.183-0.014 0.272-0.031l0.163-0.044 0.152-0.058 0.038-0.018 0.143-0.047 0.063-0.147 0.092-0.111 0.147-0.116 0.178-0.102 0.27-0.14 0.33-0.188c0.109-0.059 0.22-0.113 0.331-0.166 0.106-0.051 0.214-0.106 0.33-0.132l0.179-0.021 0.093 0.002c0.095 0.005 0.19 0.013 0.286 0.013 0.16-0.001 0.319-0.024 0.479-0.033 0.191-0.011 0.384-0.008 0.575-0.008l-0.075 0.198-0.039 0.088c-0.041 0.077-0.083 0.153-0.132 0.225-0.072 0.105-0.154 0.202-0.242 0.294-0.066 0.070-0.136 0.137-0.21 0.199l-0.080 0.054-0.038 0.030-0.143 0.061-0.027 0.16-0.016 0.047-0.027 0.096-0.1 0.272c-0.050 0.13-0.106 0.26-0.187 0.375l-0.144 0.171-0.084 0.079-0.090 0.073-0.188 0.124c-0.119 0.065-0.248 0.11-0.383 0.124-0.127 0.013-0.255 0.013-0.383 0.016l-0.096 0.004-0.19 0.025-0.179 0.068-0.148 0.124-0.095 0.167-0.026 0.092-0.014 0.094 0.001 0.187 0.009 0.085 0.026 0.143 0.042 0.16h0.766l0.284-0.005 0.179-0.021 0.167-0.051 0.081-0.037 0.166-0.085c0.141-0.074 0.285-0.142 0.415-0.234 0.153-0.109 0.278-0.258 0.45-0.339l0.178-0.060 0.091-0.015 0.177-0.012 0.096-0.002 0.207-0.001 0.027-0.151 0.016-0.040 0.027-0.085c0.031-0.078 0.065-0.155 0.1-0.232 0.041-0.089 0.080-0.179 0.129-0.263 0.059-0.1 0.126-0.193 0.201-0.282 0.078-0.092 0.164-0.177 0.252-0.258l0.095-0.077 0.046-0.041 0.16-0.104 0.033-0.16 0.065-0.142 0.12-0.171 0.074-0.086c0.097-0.109 0.199-0.212 0.284-0.33 0.119-0.165 0.194-0.358 0.333-0.508 0.112-0.121 0.256-0.201 0.387-0.299l0.139-0.12 0.105-0.13 0.059-0.115 0.031-0.142 0.16 0.042 0.047 0.009 0.181 0.029 0.188 0.013 0.382 0.004h0.575v-0.287l0.388 0c0.158 0.001 0.317 0.001 0.475 0.016l0.383 0.052c0.096 0.012 0.191 0.019 0.287 0.023 0.159 0.007 0.32 0.004 0.479 0.004h0.862l0.061 0.133 0.085 0.096 0.128 0.096 0.074 0.039 0.078 0.028 0.165 0.009 0.087-0.021 0.089-0.036 0.176-0.1 0.166-0.123 0.080-0.070 0.079-0.076 0.076-0.081 0.135-0.168 0.056-0.095 0.031-0.046 0.062-0.16 0.142 0.047 0.036 0.018 0.139 0.058 0.080 0.026 0.036 0.015 0.142 0.027 0.047-0.142 0.018-0.036 0.058-0.139 0.026-0.080 0.015-0.036 0.027-0.142 0.137 0.062 0.1 0.086 0.051 0.059c0.051 0.059 0.099 0.121 0.156 0.175l0.094 0.064 0.132 0.032v-0.671l0.156 0.127 0.132 0.080 0.036 0.022 0.156 0.058 0.056-0.158 0.006-0.045 0.019-0.085 0.012-0.13 0.004-0.158 0.145-0.060 0.032-0.031 0.067-0.048 0.079-0.099 0.060-0.145 0.16-0.009 0.047-0.007 0.096-0.012c0.124-0.020 0.247-0.045 0.369-0.077 0.191-0.050 0.376-0.125 0.572-0.158 0.159-0.027 0.321-0.023 0.482-0.025l0.032 0.158 0.063 0.13 0.111 0.134 0.118 0.089 0.154 0.062-0.088-0.192-0.039-0.096-0.017-0.036-0.048-0.156 0.16 0.010 0.047 0.008 0.096 0.015 0.175 0.052 0.177 0.088 0.085 0.056 0.164 0.124 0.25 0.193 0.159 0.135 0.076 0.083 0.041 0.040 0.104 0.155h0.383l0.062 0.133 0.031 0.031 0.056 0.069 0.063 0.054 0.148 0.114 0.159 0.105 0.082 0.045 0.173 0.066c0.091 0.027 0.185 0.037 0.278 0.050 0.092 0.013 0.182 0.024 0.272 0.047 0.085 0.022 0.166 0.055 0.249 0.084 0.085 0.030 0.168 0.058 0.255 0.079 0.123 0.030 0.249 0.050 0.375 0.068 0.128 0.018 0.256 0.031 0.383 0.055 0.094 0.017 0.187 0.039 0.279 0.062l0.088 0.027 0.085 0.031c0.111 0.047 0.219 0.099 0.327 0.152 0.111 0.053 0.22 0.106 0.327 0.166 0.153 0.088 0.295 0.194 0.456 0.268 0.234 0.107 0.488 0.152 0.738 0.205l0.191 0.052 0.19 0.079c0.124 0.059 0.241 0.135 0.357 0.208 0.159 0.099 0.316 0.201 0.483 0.286 0.079 0.041 0.159 0.078 0.243 0.109l0.349 0.114 0.171 0.069 0.164 0.063 0.167 0.027c0.093 0.001 0.18-0.025 0.268-0.048l0.084-0.026 0.143-0.041 0.16-0.027v-0.575l-0.139-0.104-0.033-0.040-0.074-0.073-0.059-0.070-0.135-0.137-0.154-0.097-0.086-0.032-0.183-0.044c-0.126-0.024-0.254-0.043-0.382-0.059-0.093-0.012-0.187-0.018-0.279-0.038l-0.173-0.048-0.083-0.033-0.164-0.076-0.173-0.084-0.184-0.103-0.093-0.064-0.181-0.155c-0.13-0.125-0.234-0.273-0.353-0.409l-0.071-0.059-0.031-0.032-0.133-0.062 0.16-0.056 0.047-0.006 0.096-0.019c0.122-0.013 0.245-0.013 0.369-0.015l0.67 0c0.096 0.001 0.192 0.002 0.287 0.008 0.129 0.009 0.256 0.026 0.383 0.048 0.124 0.021 0.247 0.044 0.367 0.079l0.331 0.112 0.085 0.024c0.12 0.030 0.242 0.056 0.359 0.095 0.115 0.039 0.224 0.092 0.337 0.136l0.165 0.047c0.152 0.030 0.311 0.023 0.465 0.025l-0.002-0.482-0.009-0.188-0.031-0.181-0.068-0.159-0.108-0.128-0.065-0.054-0.071-0.050-0.155-0.094c-0.085-0.049-0.173-0.095-0.262-0.137-0.12-0.056-0.244-0.108-0.375-0.125-0.088-0.011-0.178-0.008-0.264 0.014-0.084 0.021-0.164 0.052-0.246 0.078l-0.173 0.043c-0.122 0.021-0.247 0.023-0.371 0.024l-0.388 0.001-0.062-0.133-0.031-0.031-0.056-0.069-0.063-0.054-0.072-0.059-0.152-0.113c-0.073-0.054-0.147-0.106-0.223-0.156l-0.151-0.079-0.164-0.047-0.088-0.009-0.184 0.010c-0.133 0.020-0.256 0.073-0.382 0.119l-0.191 0.058-0.19 0.015c-0.124-0.005-0.244-0.045-0.357-0.092l-0.244-0.111-0.16-0.059-0.091-0.021-0.045-0.012-0.159-0.019 0.030-0.143 0.014-0.049 0.052-0.192-0.122-0.129-0.040-0.065-0.031-0.139c-0.010-0.114-0.008-0.228-0.025-0.34-0.025-0.162-0.081-0.317-0.123-0.476l-0.044-0.192-0.023-0.096-0.067-0.192-0.047-0.095-0.105-0.189-0.083-0.179-0.041-0.143-0.015-0.16-0.16-0.031-0.14-0.037c-0.084-0.026-0.167-0.055-0.248-0.092-0.133-0.062-0.253-0.146-0.375-0.227l-0.065-0.045-0.116-0.073-0.142-0.068 0.085-0.13 0.029-0.038 0.101-0.149 0.088-0.156 0.052-0.135 0.029-0.159c0.161-0.002 0.321 0.001 0.482-0.019 0.096-0.011 0.19-0.031 0.285-0.047l0.096-0.015 0.096-0.010 0.191 0.005 0.094 0.016 0.179 0.054 0.148 0.082 0.092 0.089 0.062 0.131h0.287l0.057-0.158 0.025-0.045 0.042-0.085 0.075-0.13 0.089-0.158-0.16-0.005-0.141-0.017-0.169-0.047-0.157-0.083-0.078-0.065-0.157-0.166c0.099 0.001 0.203-0.003 0.303 0.006 0.093 0.008 0.183 0.021 0.272 0.047 0.098 0.028 0.19 0.072 0.283 0.112l0.085 0.039 0.096 0.033 0.047 0.020 0.16 0.031-0.053-0.125-0.072-0.097-0.108-0.108-0.056-0.048-0.062-0.060-0.033-0.026-0.094-0.111 0.151 0.027 0.040 0.017 0.084 0.028 0.301 0.135 0.13 0.045 0.156 0.036-0.046-0.143-0.031-0.049-0.114-0.192h0.383l-0.030-0.156-0.036-0.167-0.030-0.156 0.205-0.018 0.093-0.015 0.166-0.048 0.163-0.073 0.151-0.091 0.128-0.101 0.054-0.066 0.030-0.030 0.061-0.133-0.16-0.022-0.143-0.040-0.179-0.074-0.093-0.048-0.186-0.112-0.166-0.123-0.077-0.076-0.041-0.036-0.104-0.141 0.16 0.047 0.047 0.018 0.181 0.058 0.187 0.042 0.186 0.008 0.167-0.037 0.123-0.082 0.042-0.068 0.056-0.177-0.16 0.028-0.141 0.019-0.165 0.005-0.094-0.011-0.207-0.042 0.156-0.061 0.042-0.012 0.162-0.057 0.242-0.089 0.173-0.044c0.087-0.016 0.176-0.020 0.264-0.023l0.303-0.002-0.099-0.056-0.030-0.006-0.107-0.024-0.146-0.010 0.16-0.057 0.047-0.008 0.096-0.023 0.177-0.024 0.177-0.012 0.143 0.003 0.16 0.024v-0.671l-0.16-0.072c-0.104-0.042-0.21-0.077-0.321-0.092-0.159-0.021-0.318 0.003-0.477 0.011-0.096 0.005-0.191 0.001-0.287-0.009l-0.188-0.028-0.179-0.043-0.246-0.084-0.154-0.043-0.088-0.013-0.198-0.012-0.002-0.16-0.010-0.138-0.031-0.153-0.037-0.075-0.014-0.041-0.097-0.104z"></path>
</svg>
