<!--
SPDX-FileCopyrightText: Copyright © 2023, New Vector Ltd <contact@element.io>

SPDX-License-Identifier: LicenseRef-AllRightsReserved
-->
<svg version="1.1" xmlns="http://www.w3.org/2000/svg" width="32" height="32" viewBox="0 0 32 32">
<title>ds-element</title>
<path d="M11.521 1.92c0-1.060 0.86-1.92 1.92-1.92 7.069 0 12.8 5.731 12.8 12.8 0 1.060-0.86 1.92-1.92 1.92s-1.92-0.86-1.92-1.92c0-4.949-4.011-8.96-8.96-8.96-1.060 0-1.92-0.86-1.92-1.92z"></path>
<path d="M20.479 30.080c0 1.060-0.86 1.92-1.92 1.92-7.069 0-12.8-5.731-12.8-12.8 0-1.060 0.86-1.92 1.92-1.92s1.92 0.86 1.92 1.92c0 4.948 4.012 8.96 8.96 8.96 1.060 0 1.92 0.86 1.92 1.92z"></path>
<path d="M1.92 20.48c-1.060 0-1.92-0.86-1.92-1.92 0-7.069 5.731-12.8 12.8-12.8 1.060 0 1.92 0.86 1.92 1.92s-0.86 1.92-1.92 1.92c-4.948 0-8.96 4.011-8.96 8.96 0 1.060-0.86 1.92-1.92 1.92z"></path>
<path d="M30.080 11.52c1.060 0 1.92 0.86 1.92 1.92 0 7.069-5.731 12.8-12.8 12.8-1.060 0-1.92-0.86-1.92-1.92s0.86-1.92 1.92-1.92c4.948 0 8.96-4.011 8.96-8.96 0-1.060 0.86-1.92 1.92-1.92z"></path>
</svg>
