<!--
SPDX-FileCopyrightText: Ecko Project <https://magicstone.dev/>

SPDX-License-Identifier: LicenseRef-AllRightsReserved
-->

<svg version="1.1" xmlns="http://www.w3.org/2000/svg" width="32" height="32" viewBox="0 0 32 32">
<title>ds-ecko</title>
<path d="M16 0.146c-8.756 0-15.854 7.098-15.854 15.854v0c0 8.756 7.098 15.854 15.854 15.855h0c8.756 0 15.855-7.098 15.855-15.855v0c-0-8.756-7.098-15.854-15.855-15.854v0zM26.481 6.072c-2.194 4.868 1.894 7.215-0.060 9.855-1.629 2.201-4.838 3.336-7.841 2.449 0.802-3.865 1.843-5.752 3.391-8.153-3.772 3.884-4.868 11.219-5.633 17.462l-1.025-3.592 1.822-6.361c-1.27-0.588-1.803-1.26-2.148-1.925 1.017-2.341 0.712-4.009-1.284-5.854 2.956-4.156 8.025-3.713 12.778-3.881zM9.664 9.066c0.978-0.009 1.87 0.082 2.574 0.36 3.395 1.34 4.549 5.544 0.404 8.651 1.55 3.031 2.596 6.229 3.53 9.764-0.481 0.908-1.579 0.569-2.026 0.211 0.831-2.277-2.616-12.614-5.411-15.022 1.051 1.698 1.963 3.258 2.708 5.8-8.823 2.3-3.631-3.555-7.607-9.242 1.781-0.127 3.96-0.506 5.827-0.522z"></path>
</svg>
