<!--
SPDX-FileCopyrightText: Copyright © 2018-Present, Federated Networks Association ry  <https://feneas.org>

SPDX-License-Identifier: LicenseRef-AllRightsReserved
-->
<svg version="1.1" xmlns="http://www.w3.org/2000/svg" width="32" height="32" viewBox="0 0 32 32">
<title>ds-feneas</title>
<path d="M32 16c0 8.836-7.163 16-16 16v0c-8.836 0-16-7.163-16-16v0c0-8.836 7.163-16 16-16v0c8.836 0 16 7.163 16 16v0zM1.526 10.401c-2.73 7.303 0.174 15.697 7.179 19.324q3.942 2.041 8.321 1.739c7.852-0.542 13.927-6.621 14.385-14.501 0.216-3.716-0.82-7.306-3.031-10.289-2.955-3.986-7.548-6.121-12.44-6.154-6.328-0.041-12.177 3.896-14.415 9.881z"></path>
<path d="M15.319 3.63c0.015-0.237 0.062-1.568 0.179-1.674 0.010-0.009 0.023-0.017 0.038-0.022 0.056-0.019 0.117 0.011 0.135 0.067 0.005 0.015 0.006 0.030 0.005 0.045l0-0.001-0.167 1.79q-0.003 0.029-0.026 0.046-0.139 0.099-0.301 0.043-0.037-0.012-0.049-0.050-0.212-0.69-0.477-1.361-0.012-0.031-0.007-0.064t-0.019-0.056c-0.002-0.002-0.004-0.004-0.007-0.005-0.015-0.007-0.033-0.001-0.040 0.013-0.001 0.003-0.002 0.006-0.003 0.009l0-0q-0.109 0.74-0.209 1.479c-0.026 0.188-0.281 0.285-0.35 0.088-0.092-0.261-0.579-1.582-0.518-1.764 0.015-0.044 0.056-0.075 0.104-0.075 0.050 0 0.092 0.033 0.105 0.079l0 0.001 0.425 1.492c0.002 0.008 0.007 0.015 0.014 0.021 0.019 0.016 0.046 0.014 0.062-0.005 0.006-0.007 0.009-0.015 0.010-0.023l-0 0q0.080-0.738 0.207-1.485 0.014-0.082 0.115-0.148c0.018-0.012 0.039-0.019 0.062-0.019 0.049 0 0.091 0.031 0.107 0.074l0 0.001 0.551 1.511c0.004 0.011 0.014 0.019 0.026 0.019 0.015 0 0.027-0.012 0.027-0.026v-0z"></path>
<path d="M16.288 3.866c-0.282-0.128-0.133-1.289-0.094-1.513q0.052-0.304 0.38-0.34c0.586-0.064 0.909 0.083 0.852 0.706-0.022 0.237-0.018 0.945-0.162 1.109-0.203 0.23-0.748 0.141-0.975 0.038zM16.932 3.785c0.203-0.010 0.223-0.188 0.226-0.353q0.007-0.466 0.066-0.927c0.045-0.357-0.54-0.307-0.728-0.246-0.045 0.015-0.077 0.055-0.081 0.101l-0 0.001q-0.047 0.555-0.074 1.13c-0.014 0.289 0.393 0.304 0.591 0.295z"></path>
<path d="M18.745 3.499l0.169 0.675c0 0 0 0.001 0 0.002 0.009 0.041-0.016 0.082-0.057 0.091-0.001 0-0.002 0-0.002 0l0-0q-0.134 0.026-0.168-0.136-0.076-0.358-0.191-0.706-0.009-0.028-0.039-0.033l-0.302-0.044q-0.1-0.014-0.113 0.085l-0.080 0.594c-0.004 0.026-0.027 0.044-0.053 0.041h-0l-0.126-0.016q-0.052-0.007-0.042-0.058 0.17-0.866 0.319-1.735c0.009-0.051 0.055-0.087 0.106-0.082l0 0q0.316 0.026 0.635 0.105c0.529 0.13 0.405 0.668 0.224 1.032-0.009 0.018-0.024 0.032-0.041 0.041l-0.001 0-0.222 0.108q-0.022 0.012-0.016 0.035zM18.234 2.458l-0.112 0.603c-0.001 0.006-0.002 0.013-0.002 0.019 0 0.053 0.038 0.097 0.088 0.107l0.001 0 0.353 0.066c0.173 0.032 0.339-0.086 0.372-0.263 0-0 0-0 0-0v0l0.032-0.173c0-0 0-0 0-0 0.033-0.177-0.080-0.347-0.253-0.379v0l-0.353-0.065c-0.006-0.001-0.013-0.002-0.020-0.002-0.053 0-0.097 0.038-0.107 0.088l-0 0.001z"></path>
<path d="M12.423 2.637l-0.38 0.123c-0.002 0.001-0.004 0.001-0.007 0.001-0.017 0.002-0.032-0.010-0.034-0.027-0-0.002-0-0.005 0-0.007l-0 0 0.013-0.125c0.002-0.023 0.018-0.042 0.040-0.048l0-0 1.025-0.265q0.048-0.012 0.058 0.037l0.020 0.107q0.008 0.042-0.033 0.051l-0.419 0.1q-0.035 0.009-0.024 0.043c0.080 0.262 0.486 1.495 0.357 1.668-0.015 0.021-0.040 0.034-0.067 0.034-0.039 0-0.071-0.026-0.081-0.062l-0-0.001-0.409-1.596c-0-0-0-0.001-0-0.001-0.007-0.025-0.034-0.040-0.059-0.033-0 0-0.001 0-0.001 0h0z"></path>
<path d="M19.878 2.565q0.074-0.040 0.157 0.023 0.028 0.022 0.016 0.055l-0.317 0.885c-0.001 0.004-0.002 0.008-0.002 0.012 0 0.020 0.016 0.037 0.037 0.037 0.008 0 0.015-0.002 0.021-0.007l-0 0 0.982-0.71q0.022-0.016 0.047-0.005l0.161 0.067c0.012 0.005 0.020 0.017 0.020 0.030 0 0.011-0.006 0.021-0.014 0.027l-0 0-0.701 0.473c-0.047 0.032-0.077 0.084-0.077 0.144 0 0.015 0.002 0.030 0.006 0.044l-0-0.001 0.26 1.007c0.002 0.006 0.002 0.012 0.002 0.019 0 0.034-0.022 0.063-0.053 0.073l-0.001 0c-0.102 0.032-0.14-0.024-0.159-0.115q-0.1-0.472-0.252-0.912c-0-0.002-0.001-0.003-0.002-0.005-0.013-0.029-0.047-0.041-0.076-0.028-0.002 0.001-0.003 0.001-0.004 0.002l0-0c-0.328 0.179-0.348 0.299-0.452 0.637q-0.020 0.066-0.088 0.083-0.083 0.021-0.123-0.043c-0.012-0.019-0.014-0.041-0.008-0.061l0-0c0.076-0.223 0.509-1.671 0.619-1.73z"></path>
<path d="M11.496 4.587q0.281-0.087 0.548-0.21 0.181-0.083 0.228 0.093c0.001 0.003 0.001 0.007 0.001 0.011 0 0.018-0.011 0.034-0.028 0.040l-0 0-0.888 0.331c0 0-0 0-0 0-0.025 0.009-0.052-0.003-0.061-0.027-0-0-0-0-0-0.001v0l-0.631-1.677c-0.004-0.010-0.006-0.022-0.006-0.035 0-0.042 0.026-0.078 0.063-0.093l0.001-0 0.809-0.304c0.030-0.011 0.063-0.002 0.084 0.022l0 0c0.15 0.176-0.566 0.363-0.669 0.395-0.018 0.005-0.030 0.022-0.030 0.041 0 0.005 0.001 0.010 0.003 0.015l-0-0 0.18 0.479c0.018 0.048 0.064 0.081 0.117 0.081 0.016 0 0.032-0.003 0.046-0.009l-0.001 0 0.5-0.197c0.008-0.003 0.018-0.005 0.028-0.005 0.033 0 0.061 0.021 0.071 0.050l0 0.001q0.039 0.112-0.056 0.144-0.277 0.092-0.54 0.23c-0.020 0.011-0.034 0.032-0.034 0.056 0 0.008 0.002 0.016 0.004 0.023l-0-0 0.203 0.52c0.007 0.018 0.024 0.030 0.044 0.030 0.005 0 0.010-0.001 0.014-0.002l-0 0z"></path>
<path d="M21.875 4.836c0.197-0.496-0.982-0.485-0.533-1.296 0.161-0.29 0.363-0.324 0.66-0.181 0.316 0.153 0.685 0.318 0.434 0.749-0.019 0.033-0.054 0.055-0.093 0.055-0.059 0-0.107-0.048-0.107-0.107 0-0.008 0.001-0.017 0.003-0.024l-0 0.001 0.039-0.186q0.008-0.041-0.018-0.074-0.21-0.267-0.558-0.287c-0.021-0.001-0.042 0.006-0.058 0.019l-0 0c-0.45 0.387 0.005 0.607 0.268 0.825 0.391 0.324 0.131 1.026-0.39 0.933-0.361-0.064-0.942-0.399-0.594-0.851 0.016-0.020 0.039-0.032 0.066-0.032 0.046 0 0.084 0.038 0.084 0.084 0 0.002-0 0.005-0 0.007l0-0-0.023 0.252c-0.002 0.022 0.005 0.044 0.017 0.061l0 0c0.184 0.247 0.642 0.458 0.803 0.051z"></path>
<path d="M9.392 4.266c-0.002 0-0.004 0.001-0.006 0.002-0.024 0.010-0.033 0.042-0.020 0.071 0.001 0.002 0.002 0.005 0.003 0.007l-0-0 0.605 1.127c0.003 0.006 0.005 0.013 0.005 0.021 0 0.017-0.009 0.031-0.023 0.039l-0 0-0.115 0.063q-0.037 0.020-0.057-0.017l-0.821-1.547c-0.020-0.037-0.022-0.080-0.008-0.118l0-0.001c0.066-0.172 0.14-0.083 0.226-0.031q0.659 0.405 1.296 0.843c0.004 0.003 0.010 0.005 0.016 0.005 0.015 0 0.027-0.012 0.027-0.027 0-0.005-0.002-0.010-0.004-0.015l0 0q-0.325-0.554-0.604-1.144-0.063-0.134 0.087-0.209 0.032-0.016 0.048 0.015l0.877 1.66c0.003 0.006 0.005 0.013 0.005 0.020 0 0.019-0.013 0.035-0.030 0.041l-0 0q-0.127 0.039-0.235-0.023c-0.137-0.080-1.237-0.791-1.272-0.782z"></path>
<path d="M16.515 5.173c-0.001 0.010-0.009 0.017-0.019 0.017-0.001 0-0.001-0-0.002-0h0l-0.243-0.022c-0.146-0.013-0.262-0.049-0.26-0.081v0l0.004-0.043c0.003-0.031 0.124-0.046 0.271-0.033 0 0 0 0 0 0v0l0.242 0.022c0.010 0.001 0.017 0.009 0.017 0.019 0 0.001-0 0.002-0 0.002v-0l-0.011 0.119z"></path>
<path d="M15.728 5.090c0.003 0.052-0.13 0.101-0.296 0.111s-0.304-0.024-0.307-0.076c-0.003-0.052 0.13-0.101 0.296-0.111s0.304 0.024 0.307 0.076z"></path>
<path d="M14.838 5.070c0.001-0 0.002-0 0.003-0 0.007 0 0.013 0.005 0.015 0.012l0 0 0.001 0.003c0.013 0.067-0.032 0.132-0.1 0.145-0 0-0 0-0 0v0l-0.321 0.061c-0 0-0 0-0 0-0.068 0.013-0.134-0.031-0.146-0.099-0-0-0-0-0-0v0l-0.001-0.003c-0-0.001-0-0.002-0-0.003 0-0.007 0.005-0.013 0.012-0.015h0l0.538-0.102z"></path>
<path d="M16.868 5.085l0.427 0.020c0.032 0.002 0.057 0.029 0.055 0.061l-0 0.005c-0.002 0.032-0.029 0.057-0.061 0.055l-0.427-0.020c-0.032-0.002-0.057-0.029-0.055-0.061l0-0.005c0.002-0.032 0.029-0.057 0.061-0.055z"></path>
<path d="M18.194 5.31c-0.007 0.043-0.144 0.057-0.306 0.032s-0.289-0.081-0.282-0.124c0.007-0.043 0.144-0.057 0.306-0.032s0.289 0.081 0.282 0.124z"></path>
<path d="M14.025 5.23c0.009 0 0.018 0.003 0.027 0.009 0.022 0.015 0.027 0.046 0.011 0.068-0.006 0.008-0.013 0.014-0.022 0.017l0-0q-0.243 0.096-0.495 0.095c-0.031-0-0.055-0.026-0.055-0.056 0-0.024 0.015-0.045 0.037-0.053l0-0q0.245-0.085 0.497-0.079z"></path>
<path d="M19.007 5.497c-0.006 0.038-0.142 0.048-0.303 0.020s-0.286-0.080-0.279-0.119c0.006-0.038 0.142-0.048 0.303-0.020s0.286 0.080 0.279 0.119z"></path>
<path d="M13.252 5.468c0.009 0.041-0.11 0.101-0.266 0.135s-0.289 0.028-0.298-0.013c-0.009-0.041 0.11-0.101 0.266-0.135s0.289-0.028 0.298 0.013z"></path>
<path d="M19.769 5.687c0.012 0.004 0.021 0.016 0.021 0.029 0 0.003-0.001 0.007-0.002 0.010l0-0-0.003 0.009c-0 0-0 0-0 0-0.020 0.062-0.094 0.094-0.165 0.071-0-0-0-0-0-0v0l-0.268-0.087c-0-0-0-0-0-0-0.071-0.023-0.112-0.092-0.091-0.155 0-0 0-0 0-0v0l0.003-0.009c0.004-0.012 0.016-0.021 0.029-0.021 0.003 0 0.006 0 0.009 0.001l-0-0 0.466 0.153z"></path>
<path d="M22.342 7.794c0.198 0.073 0.315 0.249 0.485 0.365 0.178 0.122 0.287 0.294 0.465 0.418 0.38 0.266 0.884 0.951 1.171 1.346 2.582 3.559 2.564 8.109 0.273 11.8-0.858 1.38-2.148 2.505-3.565 3.299-0.003 0.001-0.007 0.002-0.011 0.002-0.014 0-0.026-0.012-0.026-0.026 0-0.008 0.003-0.015 0.009-0.019l0-0q0.169-0.124 0.361-0.203c0.004-0.001 0.008-0.003 0.012-0.006 0.041-0.025 0.054-0.078 0.029-0.119-0.002-0.004-0.005-0.007-0.008-0.011l0 0-1.077-1.298c-0.034-0.040-0.056-0.091-0.061-0.147l-0-0.001-0.195-2.055c-0.002-0.019 0.003-0.038 0.012-0.054l0-0 0.107-0.178q0.063-0.105-0.033-0.182-0.628-0.505-1.442-0.529c-0.034-0.001-0.060-0.029-0.060-0.062 0-0.013 0.004-0.025 0.011-0.035l-0 0c0.102-0.15 1.615-0.142 1.859-0.121q0.474 0.042 0.928-0.113c0.015-0.005 0.025-0.019 0.025-0.035 0-0.009-0.003-0.017-0.008-0.023l0 0c-0.905-1.141-2.174-2.404-3.704-2.669-0.003-0.001-0.006-0.001-0.009-0.001-0.028 0-0.050 0.022-0.050 0.050 0 0.005 0.001 0.011 0.002 0.015l-0-0q0.172 0.556 0.519 1.016c0.006 0.008 0.010 0.019 0.010 0.030 0 0.019-0.011 0.036-0.027 0.044l-0 0q-0.447 0.23-0.733 0.644-0.020 0.029-0.053 0.015-0.297-0.136-0.538-0.351c-0.127-0.113-0.155-0.28-0.277-0.412q-0.025-0.028-0.063-0.022c-0.584 0.089-1.084 0.155-1.582-0.202-0.243-0.174-0.436-0.241-0.687-0.351q-0.033-0.015-0.053-0.045l-0.083-0.127c-0.011-0.017-0.030-0.026-0.050-0.024l-0 0c-0.243 0.026-0.261-0.091-0.319-0.301-0.136-0.494-0.748-0.072-0.968 0.137-0.096 0.090-0.439 0.176-0.515-0.001-0.093-0.214 0.401-0.432 0.195-0.852q-0.015-0.031-0.001-0.062c0.056-0.123 0.254-0.26 0.246-0.393q-0.002-0.038-0.038-0.027-0.829 0.236-1.573 0.663c-0.232 0.133-0.139 0.367 0.027 0.495q0.612 0.473 1.222 0.946c0.205 0.159 0.346 0.336 0.29 0.612q-0.187 0.917-0.357 1.834-0.005 0.031 0.026 0.037c1.496 0.304 2.791 1.613 3.582 2.86 0.217 0.342 0.581-0.043 0.784 0.433q0.038 0.089 0.020 0.271-0.044 0.46 0.342 0.727c0.051 0.036 0.121 0.027 0.162-0.021l0-0c0.098-0.115-0.009-0.307 0.046-0.454 0.008-0.022 0.028-0.037 0.052-0.038h0c0.256-0.012 0.603 0.439 0.714 0.609q0.014 0.021 0.038 0.018l0.3-0.036q0.041-0.005 0.067 0.026l0.353 0.424c0.004 0.004 0.008 0.009 0.013 0.013 0.038 0.030 0.094 0.024 0.124-0.015 0.004-0.005 0.007-0.010 0.010-0.016l-0 0.001q0.098-0.195 0.245-0.391c0.156-0.207 0.449-0.031 0.651 0.017 0.333 0.079 0.694 0.012 1.026 0.1q0.203 0.054 0.018 0.154-2.634 1.428-5.566 1.23c-2.398-0.162-4.57-0.964-6.346-2.58-2.064-1.878-3.42-4.602-3.485-7.431-0.057-2.501 0.649-4.73 2.128-6.741 0.075-0.102 0.219-0.287 0.37-0.314 0.555-0.099 1.185-0.595 1.493 0.075 0.010 0.021 0.026 0.037 0.047 0.045l0.001 0c0.338 0.132 0.807 0.264 1.163 0.153 0.161-0.051 0.32-0.137 0.485-0.115 0.433 0.057 0.58 0.515 0.336 0.877-0.138 0.204-0.328 0.407-0.366 0.653q-0.058 0.381-0.032 0.766 0.003 0.035 0.024 0.062c0.199 0.244 0.464 0.444 0.39 0.801q-0.196 0.957-0.405 1.911c-0.127 0.584-0.157 1.064-0.137 1.629 0.002 0.036 0.031 0.064 0.066 0.064 0.012 0 0.023-0.003 0.032-0.008l-0 0q0.77-0.426 1.65-0.597c0.087-0.016 0.12-0.066 0.064-0.145q-0.017-0.024-0.004-0.051l0.099-0.199c0.012-0.022 0.035-0.034 0.059-0.031l0 0 0.626 0.081c0.002 0 0.003 0 0.005 0.001 0.065 0.006 0.122-0.042 0.127-0.107 0-0.002 0-0.003 0-0.005v0q0.010-0.223-0.058-0.48-0.080-0.299-0.074-1.128 0.017-2.104 0.715-4.048c0.003-0.008 0.005-0.017 0.005-0.026 0-0.040-0.030-0.073-0.069-0.078l-0-0q-0.636-0.071-1.229-0.036c-0.343 0.020-0.652 0.155-0.98 0.264-0.314 0.104-0.494-0.252-0.519-0.498-0.040-0.387 0.354-0.751 0.291-1.112-0.106-0.605-0.624-0.231-0.897-0.087-0.043 0.023-0.094 0.024-0.137 0.003l-0.001-0.001q-0.359-0.176-0.53-0.542c-0.016-0.033-0.049-0.055-0.087-0.055-0.022 0-0.042 0.008-0.059 0.020l0-0q-0.302 0.231-0.603 0.466c-0.534 0.415-1.001 0.915-1.471 1.397q-0.019 0.019-0.038 0c-0.062-0.061 1.359-1.37 1.54-1.509 2.765-2.132 6.381-2.726 9.71-1.677q0.175 0.056 0.65 0.318 0.028 0.015 0.001 0.033c-0.842 0.541 0.341 0.692-0.333 1.176q-0.355 0.254-0.725 0.479c-0.011 0.007-0.018 0.019-0.018 0.032 0 0.016 0.010 0.030 0.024 0.036l0.154 0.058c0.021 0.008 0.044 0.010 0.066 0.006l0.001-0c0.499-0.1 0.831 0.505 1.371 0.588 0.214 0.033 0.805 0.164 0.981-0.035 0.019-0.021 0.026-0.050 0.018-0.077l-0-0.001-0.079-0.268c-0.001-0.002-0.001-0.004-0.001-0.006-0.002-0.016 0.008-0.030 0.022-0.032 0.002-0 0.003-0 0.005-0h-0l1.586 0.153c0.001 0 0.003 0 0.005 0 0.024 0 0.043-0.019 0.043-0.043 0-0.013-0.006-0.025-0.015-0.033l-0-0-0.756-0.676zM21.373 10.96c-0.165-0.174-0.561-0.463-0.454-0.723 0.013-0.032 0.005-0.069-0.019-0.093l-0-0q-0.478-0.463-0.904-0.97c-0.323-0.383-0.793-0.579-1.238-0.782-0.108-0.049-0.188-0.052-0.29 0.022q-0.833 0.61-1.7 1.171c-0.018 0.012-0.040 0.019-0.063 0.019-0.003 0-0.006-0-0.009-0l0 0-1.88-0.114c-0.050-0.003-0.097 0.028-0.114 0.075l-0 0.001c-0.645 1.761-0.856 3.8-0.604 5.649 0.011 0.081 0.067 0.149 0.144 0.175l0.001 0q0.218 0.071 0.282 0.293c0.020 0.068 0.083 0.114 0.153 0.113l0.001-0c0.399-0.005 0.797 0.090 1.207 0.002q0.22-0.047 0.408 0.105 0.028 0.023 0.064 0.024 0.257 0.009 0.361-0.267 0.181-0.482 0.357-0.974 0.015-0.042 0.058-0.031l0.152 0.039c0.020 0.005 0.041 0.001 0.057-0.011l0-0 0.134-0.104q0.031-0.024 0.047 0.011c0.090 0.187 0.227 0.348 0.234 0.563q0.013 0.368 0.039 0.807 0.009 0.157 0.136 0.064 0.275-0.205 0.623-0.428c0.165-0.107 0.222-0.259 0.327-0.418q0.020-0.031 0.057-0.038 0.244-0.044 0.492-0.016c0.023 0.003 0.046-0.001 0.067-0.009l0.001-0c0.921-0.386 1.816-0.587 2.798-0.421 0.004 0.001 0.008 0.001 0.012 0.001 0.038 0 0.068-0.029 0.072-0.065l0-0c0.035-0.344 0.094-0.523-0.144-0.814-0.29-0.353-0.578-0.615-0.982-0.893-0.206-0.141-0.612-0.356-0.711-0.588-0.007-0.015-0.010-0.033-0.010-0.052 0-0.071 0.056-0.129 0.126-0.133h0c0.22-0.012 1.071 0.037 1.207-0.074 0.017-0.014 0.025-0.037 0.021-0.058l-0-0q-0.049-0.23 0.018-0.455 0.011-0.037-0.013-0.067c-0.155-0.2-0.387-0.393-0.521-0.534zM17.838 16.881c1.676 0.231 3.151 1.456 4.078 2.801 0.017 0.024 0.045 0.040 0.077 0.040 0.050 0 0.092-0.040 0.093-0.090v-0q0.003-0.147-0.045-0.292c-0.006-0.016-0.009-0.035-0.009-0.054 0-0.066 0.038-0.124 0.093-0.152l0.001-0 0.535-0.264c0.025-0.013 0.043-0.039 0.043-0.069 0-0.009-0.002-0.018-0.005-0.027l0 0.001q-0.179-0.487-0.104-1.010 0.005-0.039 0.031-0.069 0.087-0.102 0.093-0.239c0.001-0.023-0.004-0.046-0.014-0.067l-0-0.001-0.186-0.372c-0.011-0.022-0.018-0.048-0.018-0.075 0-0.092 0.075-0.167 0.167-0.167 0.008 0 0.015 0.001 0.023 0.002l-0.001-0c0.312 0.042 0.593 0.214 0.892 0.246s0.538-0.161 0.393-0.471q-0.249-0.532-0.785-0.803-0.031-0.016-0.045-0.047c-0.102-0.234-0.467-0.599-0.717-0.673-0.887-0.26-2.027 0.013-2.863 0.383q-0.034 0.015-0.034 0.052c-0.002 0.359-0.284 0.597-0.615 0.359-0.058-0.042-0.135-0.045-0.196-0.008l-0.001 0.001-0.674 0.415q-0.024 0.014-0.034 0.040c-0.056 0.145-0.312 0.404-0.222 0.574q0.016 0.030 0.049 0.034zM11.861 22.176c0.001 0.003 0.001 0.007 0.001 0.010 0 0.027-0.022 0.049-0.049 0.049-0.001 0-0.001 0-0.002-0h0q-0.113-0.005-0.194 0.071c-0.017 0.016-0.028 0.038-0.028 0.063 0 0.028 0.013 0.052 0.033 0.068l0 0c0.325 0.256 0.553 0.158 0.851-0.062 0.23-0.17 0.469 0.019 0.732-0.224 0.014-0.012 0.031-0.022 0.049-0.026l0.001-0c0.318-0.069 0.081 0.393-0.006 0.505-0.005 0.006-0.008 0.015-0.008 0.023 0 0.013 0.007 0.025 0.017 0.032l0 0c0.275 0.185 0.412 0.47 0.618 0.73 0 0 0 0 0.001 0.001 0.050 0.062 0.141 0.072 0.204 0.022 0-0 0.001-0 0.001-0.001l-0 0c0.132-0.107 0.214 0.070 0.308 0.121q0.193 0.105 0.416 0.132c0.022 0.003 0.042 0.014 0.055 0.032l0 0c0.123 0.169 0.251 0.432 0.535 0.319q0.256-0.102 0.516-0.212c0.026-0.011 0.044-0.037 0.044-0.067 0-0.014-0.004-0.028-0.011-0.039l0 0c-0.717-1.131-1.639-2.182-2.814-2.8-0.214-0.113-0.464-0.146-0.701-0.184-0-0-0.001-0-0.001-0-0.041-0.006-0.078 0.023-0.084 0.063-0 0.001-0 0.001-0 0.002v-0c-0.043 0.359-0.365 0.271-0.595 0.433q-0.365 0.256-0.733 0.511-0.030 0.020-0.044 0.054l-0.227 0.524c-0.002 0.005-0.003 0.010-0.003 0.016 0 0.023 0.018 0.041 0.041 0.041 0.003 0 0.007-0 0.010-0.001l-0 0 0.075-0.018q0.031-0.008 0.052-0.033c0.158-0.192 0.841-0.628 0.94-0.154z"></path>
<path d="M12.424 5.643c0.002-0 0.005-0.001 0.008-0.001 0.028 0 0.052 0.023 0.052 0.051 0 0.019-0.010 0.035-0.024 0.044l-0 0q-0.225 0.146-0.487 0.154c-0 0-0 0-0.001 0-0.025 0-0.045-0.020-0.045-0.045 0-0.016 0.008-0.030 0.021-0.038l0-0q0.225-0.135 0.477-0.166z"></path>
<path d="M20.035 5.822c0.004-0.010 0.014-0.018 0.026-0.018 0.004 0 0.008 0.001 0.011 0.002l-0-0 0.137 0.054c0 0 0 0 0 0 0.197 0.079 0.346 0.17 0.332 0.205-0 0-0 0-0 0v0l-0.009 0.022c-0.015 0.034-0.185-0.001-0.382-0.079h-0l-0.138-0.055c-0.010-0.004-0.017-0.014-0.017-0.026 0-0.004 0.001-0.007 0.002-0.010l-0 0 0.038-0.096z"></path>
<path d="M11.671 5.996c0.017 0.042-0.076 0.121-0.209 0.176s-0.254 0.066-0.272 0.024c-0.017-0.042 0.076-0.121 0.209-0.176s0.254-0.066 0.272-0.024z"></path>
<path d="M21.294 6.463c-0.022 0.041-0.147 0.016-0.28-0.056s-0.222-0.163-0.199-0.204c0.022-0.041 0.147-0.016 0.28 0.056s0.222 0.163 0.199 0.204z"></path>
<path d="M10.474 6.499l0.344-0.181c0.034-0.018 0.077-0.005 0.095 0.029l0.003 0.005c0.018 0.034 0.005 0.077-0.030 0.095l-0.344 0.181c-0.034 0.018-0.077 0.005-0.095-0.029l-0.003-0.005c-0.018-0.034-0.005-0.077 0.030-0.095z"></path>
<path d="M21.742 7.326q0.060 0.040 0.095 0.093c0.002 0.003 0.003 0.006 0.003 0.010 0 0.008-0.007 0.015-0.015 0.015-0.004 0-0.007-0.001-0.010-0.004l0 0q-0.82-0.553-1.727-0.949c-0.014-0.006-0.021-0.022-0.016-0.036l0-0q0.003-0.009 0.005-0.018t0.011-0.005q0.87 0.365 1.654 0.894z"></path>
<path d="M25.423 7.826c0.005-0.009 0.008-0.020 0.008-0.032 0-0.017-0.007-0.033-0.018-0.045l0 0-0.439-0.475q-0.023-0.024-0.052-0.009c-0.1 0.053-0.489 0.319-0.502 0.047-0.001-0.024 0.012-0.045 0.033-0.055l0-0 1.642-0.796c0.016-0.008 0.036-0.013 0.056-0.013 0.009 0 0.018 0.001 0.027 0.003l-0.001-0c0.174 0.035 0.227 0.174 0.136 0.325q-0.459 0.772-0.916 1.534c-0.009 0.015-0.026 0.026-0.045 0.026-0.007 0-0.014-0.002-0.020-0.004l0 0c-0.218-0.090 0.023-0.382 0.089-0.506zM25.167 7.143c-0.014 0.007-0.023 0.021-0.023 0.038 0 0.011 0.004 0.021 0.011 0.028l-0-0 0.356 0.387c0.008 0.008 0.019 0.013 0.031 0.013 0.015 0 0.028-0.008 0.036-0.020l0-0 0.506-0.822c0.004-0.006 0.006-0.014 0.006-0.022 0-0.023-0.019-0.042-0.042-0.042-0.007 0-0.014 0.002-0.020 0.005l0-0-0.862 0.435z"></path>
<path d="M21.615 6.571l0.322 0.199c0.034 0.021 0.044 0.065 0.023 0.099l-0.003 0.005c-0.021 0.034-0.065 0.044-0.099 0.023l-0.322-0.199c-0.034-0.021-0.044-0.065-0.023-0.099l0.003-0.005c0.021-0.034 0.065-0.044 0.099-0.023z"></path>
<path d="M5.017 7.444c-0.022-0.019-0.035-0.046-0.035-0.076 0-0.025 0.009-0.047 0.024-0.065l-0 0 0.427-0.504c0-0 0-0 0-0 0.17-0.201 0.472-0.225 0.674-0.053l0.765 0.649c0.202 0.171 0.228 0.473 0.057 0.674-0 0-0 0-0 0l0-0-0.427 0.504c-0.019 0.022-0.046 0.036-0.077 0.036-0.025 0-0.048-0.009-0.065-0.024l0 0-1.343-1.139zM6.558 8.215l0.271-0.319c0.029-0.034 0.046-0.078 0.046-0.126 0-0.060-0.027-0.113-0.069-0.149l-0-0-0.852-0.723c-0.114-0.097-0.279-0.090-0.369 0.015v0l-0.2 0.236c-0 0-0 0-0 0-0.089 0.105-0.069 0.27 0.046 0.367 0 0 0 0 0 0l0.852 0.722c0.034 0.029 0.078 0.047 0.127 0.047 0.060 0 0.113-0.027 0.149-0.069l0-0z"></path>
<path d="M10.221 6.753c0.025 0.039-0.068 0.142-0.208 0.23s-0.272 0.127-0.297 0.088c-0.025-0.039 0.068-0.142 0.208-0.23s0.272-0.127 0.297-0.088z"></path>
<path d="M22.646 7.35c-0.027 0.041-0.147 0.009-0.268-0.071s-0.198-0.178-0.171-0.219c0.027-0.041 0.147-0.009 0.268 0.071s0.198 0.178 0.171 0.219z"></path>
<path d="M9.142 7.605c-0.002 0.001-0.005 0.002-0.007 0.002-0.004 0-0.008-0.002-0.010-0.005l-0-0-0.018-0.024c-0.037-0.048 0.009-0.146 0.104-0.219h0l0.099-0.077c0.095-0.073 0.201-0.093 0.239-0.044 0 0 0 0 0 0v0l0.018 0.024c0.002 0.002 0.003 0.005 0.003 0.008 0 0.004-0.002 0.008-0.005 0.010h-0l-0.422 0.325z"></path>
<path d="M22.342 7.794l-0.475-0.328c-0.003-0.003-0.005-0.007-0.005-0.011 0-0.008 0.006-0.014 0.014-0.014 0.001 0 0.002 0 0.003 0h-0q0.088 0.023 0.14 0.090 0.018 0.024 0.045 0.036 0.167 0.076 0.277 0.227z"></path>
<path d="M23.318 7.903c-0.030 0.039-0.157-0.007-0.283-0.104s-0.204-0.207-0.174-0.246c0.030-0.039 0.157 0.007 0.283 0.104s0.204 0.207 0.174 0.246z"></path>
<path d="M26.463 7.933c0.591-0.838 1.471 0.378 0.997 0.767-0.084 0.068-0.199 0.058-0.249-0.040-0.003-0.006-0.005-0.012-0.005-0.019 0-0.015 0.008-0.028 0.019-0.035l0-0c0.287-0.18 0.135-0.457-0.014-0.647-0.174-0.221-0.582-0.052-0.578 0.228 0.005 0.319 0.374 0.621 0.151 0.941-0.176 0.252-0.53 0.412-0.784 0.165-0.283-0.275-0.577-0.722-0.127-1.008q0.026-0.017 0.056-0.007 0.090 0.028 0.111 0.127c0.004 0.018-0.001 0.036-0.013 0.049l-0 0-0.184 0.195q-0.030 0.031-0.012 0.071 0.125 0.282 0.357 0.475 0.024 0.021 0.056 0.019c0.863-0.054-0.058-0.889 0.219-1.281z"></path>
<path d="M8.523 8.116c-0.19-0.088 0.227-0.347 0.275-0.372 0.008-0.004 0.017-0.006 0.027-0.006 0.035 0 0.063 0.028 0.063 0.063 0 0.017-0.007 0.033-0.018 0.045v0l-0.271 0.258c-0.012 0.012-0.029 0.019-0.047 0.019-0.011 0-0.021-0.002-0.029-0.007l0 0z"></path>
<path d="M5.061 9.134l0.504 0.329c0 0 0.001 0 0.001 0.001 0.036 0.022 0.083 0.011 0.105-0.025 0-0 0-0.001 0.001-0.001l-0 0 0.352-0.586c0.013-0.022 0.037-0.036 0.063-0.036 0.041 0 0.074 0.033 0.074 0.074 0 0.003-0 0.005-0 0.008l0-0c-0.024 0.252-0.317 0.621-0.456 0.831-0.015 0.022-0.040 0.037-0.068 0.037-0.017 0-0.032-0.005-0.045-0.014l0 0-1.486-0.979q-0.058-0.039-0.025-0.1c0.086-0.158 0.446-0.881 0.654-0.713q0.027 0.022 0.007 0.050l-0.392 0.579c-0.023 0.035-0.014 0.081 0.020 0.104h0l0.434 0.298c0.011 0.008 0.025 0.012 0.040 0.012 0.025 0 0.047-0.013 0.059-0.032l0-0 0.343-0.539q0.025-0.039 0.058-0.006c0.143 0.142-0.168 0.525-0.254 0.656-0.004 0.006-0.006 0.013-0.006 0.021 0 0.013 0.007 0.025 0.017 0.032l0 0z"></path>
<path d="M23.5 8.119l0.019-0.019c0.025-0.025 0.065-0.024 0.090 0.001l0.288 0.293c0.025 0.025 0.024 0.065-0.001 0.090l-0.019 0.019c-0.025 0.025-0.065 0.024-0.090-0.001l-0.288-0.293c-0.025-0.025-0.024-0.065 0.001-0.090z"></path>
<path d="M7.869 8.732c-0.039-0.034 0.018-0.161 0.126-0.285s0.227-0.196 0.265-0.162c0.039 0.034-0.018 0.161-0.126 0.285s-0.227 0.196-0.266 0.162z"></path>
<path d="M24.449 9.146c-0.038 0.030-0.151-0.052-0.252-0.183s-0.152-0.26-0.114-0.29c0.038-0.030 0.151 0.052 0.252 0.183s0.152 0.26 0.114 0.29z"></path>
<path d="M7.347 9.35c-0.036-0.027 0.015-0.154 0.114-0.283s0.207-0.211 0.243-0.184c0.036 0.027-0.015 0.154-0.114 0.283s-0.207 0.211-0.243 0.184z"></path>
<path d="M3.854 9.686l1.411 0.701c0.019 0.010 0.032 0.029 0.032 0.052 0 0.010-0.003 0.020-0.007 0.028l0-0q-0.078 0.142-0.193 0.083-0.696-0.352-1.365-0.692c-0.002-0.001-0.004-0.002-0.006-0.003-0.042-0.017-0.090 0.003-0.107 0.045-0.001 0.002-0.002 0.005-0.002 0.007l0-0q-0.054 0.178-0.183 0.316c-0.014 0.015-0.033 0.024-0.055 0.024-0.042 0-0.076-0.034-0.076-0.076 0-0.012 0.003-0.023 0.008-0.034l-0 0 0.492-0.983c0.013-0.027 0.040-0.046 0.072-0.046 0.043 0 0.079 0.035 0.079 0.079 0 0.012-0.003 0.023-0.007 0.033l0-0.001-0.14 0.332c-0.005 0.012-0.008 0.025-0.008 0.040 0 0.040 0.023 0.075 0.057 0.092l0.001 0z"></path>
<path d="M27.937 9.368c-0.581 0.125-0.317 0.493-0.241 0.87 0.068 0.346-0.278 0.623-0.588 0.602-0.469-0.032-0.871-0.963-0.283-1.179 0.011-0.004 0.025-0.007 0.038-0.007 0.063 0 0.113 0.051 0.113 0.113 0 0.032-0.013 0.060-0.034 0.081v0c-0.092 0.089-0.268 0.179-0.19 0.348 0.083 0.179 0.205 0.485 0.403 0.452 0.498-0.082 0.287-0.558 0.213-0.865-0.070-0.291 0.060-0.405 0.294-0.535 0.475-0.265 0.62 0.085 0.792 0.441 0.142 0.294 0.054 0.558-0.271 0.656-0.022 0.007-0.045-0.005-0.053-0.026l-0-0-0.043-0.113q-0.015-0.039 0.025-0.054 0.127-0.048 0.195-0.162 0.018-0.029 0.012-0.063-0.054-0.332-0.315-0.544c-0.019-0.015-0.043-0.021-0.066-0.016l-0.001 0z"></path>
<path d="M24.977 9.71c0.001 0.001 0.002 0.003 0.002 0.005 0 0.003-0.001 0.006-0.004 0.007l-0 0-0.004 0.003c-0.067 0.046-0.168 0.016-0.225-0.068v0l-0.098-0.144c0 0 0-0-0-0-0.057-0.084-0.049-0.188 0.019-0.235 0 0 0-0 0-0v0l0.003-0.003c0.001-0.001 0.003-0.001 0.005-0.001 0.003 0 0.006 0.002 0.007 0.004l0 0 0.294 0.431z"></path>
<path d="M7.083 9.572c0.002-0.005 0.005-0.009 0.009-0.013 0.018-0.019 0.048-0.019 0.067-0.001 0.004 0.004 0.007 0.008 0.010 0.013l-0-0c0.076 0.148-0.14 0.333-0.224 0.449-0.008 0.010-0.020 0.017-0.034 0.017-0.019 0-0.035-0.013-0.040-0.030l-0-0c-0.056-0.191 0.14-0.27 0.214-0.433z"></path>
<path d="M25.398 10.517c-0.039 0.022-0.138-0.083-0.22-0.234s-0.117-0.29-0.077-0.312c0.039-0.022 0.138 0.083 0.22 0.234s0.117 0.29 0.077 0.312z"></path>
<path d="M6.625 10.281q0.089-0.118 0.086 0.029c-0.001 0.107-0.116 0.43-0.284 0.403-0.019-0.003-0.033-0.020-0.033-0.039 0-0.006 0.001-0.012 0.004-0.017l-0 0q0.095-0.201 0.227-0.376z"></path>
<path d="M25.51 10.728l0.006-0.004c0.034-0.022 0.079-0.011 0.101 0.023l0.206 0.326c0.022 0.034 0.011 0.079-0.023 0.101l-0.006 0.004c-0.034 0.022-0.079 0.011-0.101-0.023l-0.206-0.326c-0.022-0.034-0.011-0.079 0.023-0.101z"></path>
<path d="M29.188 11.443c0.017 0.045 0.027 0.097 0.027 0.151 0 0.189-0.119 0.35-0.286 0.413l-0.003 0.001-1.011 0.37c-0.045 0.017-0.097 0.027-0.151 0.027-0.189 0-0.35-0.119-0.413-0.286l-0.001-0.003-0.129-0.353c-0.017-0.045-0.027-0.097-0.027-0.151 0-0.189 0.119-0.35 0.286-0.413l0.003-0.001 1.011-0.37c0.045-0.017 0.097-0.027 0.151-0.027 0.189 0 0.35 0.119 0.413 0.286l0.001 0.003 0.129 0.353zM28.893 11.197c-0.035-0.099-0.128-0.169-0.238-0.169-0.030 0-0.058 0.005-0.084 0.015l0.002-0.001-1.001 0.349c-0.099 0.035-0.169 0.128-0.169 0.238 0 0.030 0.005 0.058 0.015 0.084l-0.001-0.002 0.104 0.298c0.035 0.099 0.128 0.169 0.238 0.169 0.030 0 0.058-0.005 0.084-0.015l-0.002 0.001 1.001-0.349c0.099-0.035 0.169-0.128 0.169-0.238 0-0.030-0.005-0.058-0.015-0.084l0.001 0.002-0.104-0.298z"></path>
<path d="M6.141 11.47c-0.002 0.004-0.006 0.007-0.010 0.007-0.002 0-0.004-0-0.005-0.001l0 0-0.003-0.002c-0 0-0-0-0-0-0.077-0.038-0.101-0.144-0.055-0.238v0l0.072-0.146c0.046-0.094 0.146-0.139 0.222-0.101 0 0 0 0 0 0v0l0.003 0.001c0.004 0.002 0.006 0.006 0.006 0.010 0 0.002-0 0.004-0.001 0.005l0-0-0.229 0.464z"></path>
<path d="M4.364 11.361l-0.213 0.587q-0.014 0.039 0.018 0.064l0.328 0.255c0.033 0.026 0.046 0.070 0.034 0.109l-0 0.001q-0.025 0.078-0.108 0.079c-0.021 0-0.041-0.007-0.058-0.019l-0-0-1.489-1.139c-0.008-0.006-0.012-0.015-0.012-0.024v-0q0.009-0.311 0.321-0.272c0.481 0.062 1.159 0.049 1.742 0.131q0.043 0.005 0.032 0.047c-0.046 0.184-0.365 0.119-0.559 0.153q-0.026 0.004-0.035 0.029zM3.952 11.86c0.004 0.003 0.009 0.005 0.015 0.005 0.010 0 0.019-0.007 0.023-0.016l0-0 0.2-0.539c0.001-0.003 0.002-0.006 0.002-0.009 0-0.013-0.010-0.023-0.023-0.024h-0l-0.972-0.054c-0.001-0-0.001-0-0.002-0-0.013 0-0.024 0.011-0.024 0.024 0 0.008 0.004 0.015 0.010 0.020l0 0 0.771 0.593z"></path>
<path d="M25.818 11.501c-0.001-0.002-0.001-0.004-0.001-0.006 0-0.005 0.003-0.010 0.007-0.012l0-0 0.018-0.009c0-0 0-0 0-0 0.066-0.032 0.158 0.020 0.206 0.117 0 0 0 0 0 0v0l0.077 0.157c0.047 0.097 0.032 0.201-0.034 0.234v0l-0.018 0.009c-0.002 0.001-0.004 0.001-0.006 0.001-0.005 0-0.009-0.003-0.011-0.007l-0-0-0.238-0.485z"></path>
<path d="M5.737 12.285c-0.042-0.014-0.033-0.155 0.020-0.315s0.13-0.279 0.172-0.265c0.042 0.014 0.033 0.155-0.020 0.315s-0.13 0.279-0.172 0.265z"></path>
<path d="M26.407 12.749c-0.043 0.016-0.124-0.098-0.179-0.253s-0.065-0.293-0.022-0.309c0.043-0.016 0.124 0.098 0.179 0.253s0.065 0.293 0.022 0.309z"></path>
<path d="M3.51 13.487l0.638 0.153c0.004 0.001 0.009 0.003 0.013 0.005 0.037 0.017 0.053 0.060 0.037 0.096-0.002 0.005-0.005 0.009-0.007 0.013l0-0q-0.058 0.081-0.173 0.059-0.86-0.159-1.714-0.375c-0-0-0-0-0.001-0-0.027-0.007-0.043-0.035-0.036-0.062 0-0 0-0 0-0.001v0c0.126-0.456 0.057-1.13 0.771-0.99 0.218 0.043 0.487 0.127 0.492 0.353 0.001 0.046 0.039 0.083 0.085 0.083 0.006 0 0.013-0.001 0.019-0.002l-0.001 0 0.692-0.152c0.009-0.002 0.019-0.003 0.029-0.001 0.041 0.007 0.069 0.046 0.062 0.088-0.002 0.010-0.005 0.020-0.010 0.028l0-0c-0.1 0.163-0.561 0.21-0.737 0.227q-0.038 0.003-0.064 0.031-0.161 0.159-0.142 0.392 0.003 0.045 0.047 0.056zM2.599 13.291l0.549 0.131c0.009 0.002 0.019 0.003 0.029 0.003 0.059 0 0.109-0.041 0.123-0.096l0-0.001 0.084-0.353c0.035-0.149-0.056-0.297-0.204-0.333l-0.258-0.062c-0.148-0.035-0.297 0.057-0.332 0.205-0 0-0 0-0 0v0l-0.084 0.353c-0.002 0.009-0.003 0.019-0.003 0.029 0 0.059 0.041 0.109 0.095 0.122l0.001 0z"></path>
<path d="M5.621 12.486q0.012-0.030 0.037-0.009c0.096 0.079-0.022 0.364-0.055 0.456-0.011 0.032-0.052 0.061-0.107 0.078l-0.001 0q-0.033 0.010-0.051-0.029-0.016-0.036-0.001-0.073l0.178-0.424z"></path>
<path d="M28.429 13.956c-0.799 0.292-0.948-1.024-0.542-1.139 0.355-0.101 0.976-0.304 1.328-0.285 0.391 0.020 0.477 0.642 0.445 0.936-0.024 0.226-0.304 0.301-0.49 0.344q-0.041 0.010-0.052-0.031l-0.037-0.144q-0.017-0.068 0.054-0.066 0.241 0.007 0.349-0.192 0.022-0.041 0.009-0.086l-0.128-0.431c-0.021-0.069-0.084-0.118-0.158-0.118-0.011 0-0.021 0.001-0.032 0.003l0.001-0c-0.286 0.055-1.106 0.146-1.29 0.358-0.013 0.015-0.021 0.036-0.021 0.058 0 0.003 0 0.006 0 0.008l-0-0q0.029 0.293 0.146 0.56 0.012 0.028 0.043 0.028l0.296 0.008q0.065 0.001 0.1 0.057 0.065 0.102-0.021 0.134z"></path>
<path d="M26.487 13.011l0.007-0.002c0.037-0.008 0.074 0.015 0.083 0.052l0.090 0.405c0.008 0.037-0.015 0.074-0.052 0.083l-0.007 0.002c-0.037 0.008-0.074-0.015-0.083-0.052l-0.090-0.405c-0.008-0.037 0.015-0.074 0.052-0.083z"></path>
<path d="M5.406 13.298l0.011 0.002c0.040 0.009 0.065 0.049 0.056 0.089l-0.087 0.379c-0.009 0.040-0.049 0.065-0.089 0.056l-0.011-0.002c-0.040-0.009-0.065-0.049-0.056-0.089l0.087-0.379c0.009-0.040 0.049-0.065 0.089-0.056z"></path>
<path d="M26.696 14.358c-0.001 0-0.002 0-0.003 0-0.017 0-0.031-0.013-0.032-0.030v-0l-0.001-0.008c-0.026-0.276-0.015-0.503 0.024-0.507v0l0.034-0.003c0.039-0.003 0.091 0.218 0.117 0.494 0 0 0 0 0 0.001v-0l0.001 0.008c0 0.001 0 0.002 0 0.003 0 0.017-0.013 0.031-0.029 0.032h-0l-0.11 0.010z"></path>
<path d="M3.182 14.919c0.213 0.046 0.647 0.182 0.673-0.139q0.022-0.277 0.040-0.541c0.003-0.039 0.035-0.069 0.074-0.069 0.030 0 0.055 0.018 0.067 0.043l0 0c0.087 0.188-0.018 0.74-0.050 0.951-0.005 0.032-0.034 0.055-0.067 0.052h-0l-1.747-0.169q-0.098-0.009-0.093-0.108 0.020-0.38 0.077-0.806 0.018-0.139 0.176-0.092c0.011 0.003 0.019 0.014 0.018 0.026v0l-0.060 0.684c-0.004 0.049 0.031 0.092 0.079 0.098h0l0.463 0.058c0.004 0.001 0.008 0.001 0.013 0.001 0.052 0 0.094-0.039 0.1-0.089l0-0 0.062-0.586c0.003-0.030 0.025-0.053 0.053-0.059l0-0c0.219-0.044 0.063 0.565 0.082 0.702 0.003 0.022 0.019 0.039 0.040 0.043l0 0z"></path>
<path d="M5.157 14.652c-0.045-0.007-0.062-0.14-0.038-0.299s0.080-0.281 0.124-0.274c0.045 0.007 0.062 0.14 0.038 0.299s-0.080 0.281-0.124 0.274z"></path>
<path d="M29.835 14.414c0 0.002 0 0.003 0 0.005 0 0.025-0.019 0.045-0.043 0.048l-0 0-1.060 0.117c-0.458 0.051-0.831 0.070-0.834 0.043 0-0 0-0-0-0v0l-0.014-0.124c0-0.027 0.367-0.089 0.823-0.14l1.060-0.117c0.002-0 0.003-0 0.005-0 0.025 0 0.046 0.019 0.049 0.043l0 0 0.014 0.124z"></path>
<path d="M26.817 14.651l0.009-0.001c0.037-0.003 0.069 0.024 0.072 0.061l0.032 0.393c0.003 0.037-0.024 0.069-0.061 0.072l-0.009 0.001c-0.037 0.003-0.069-0.024-0.072-0.061l-0.032-0.393c-0.003-0.037 0.024-0.069 0.061-0.072z"></path>
<path d="M5.068 14.938c0.001-0.003 0.003-0.005 0.006-0.005h0c0.224-0.043 0.068 0.371 0.063 0.486-0.001 0.020-0.017 0.036-0.037 0.036 0 0-0 0-0 0h-0.029q-0.028 0-0.032-0.028-0.031-0.237 0.029-0.489z"></path>
<path d="M28.479 15.983v-0.576c0-0 0-0 0-0 0-0.054-0.036-0.1-0.086-0.114l-0.001-0c-0.040-0.011-0.465-0.127-0.449-0.2 0-0.001 0.001-0.003 0.001-0.005 0.019-0.076 0.098-0.121 0.177-0.101 0.002 0 0.003 0.001 0.005 0.001l-0-0 1.654 0.47c0.086 0.025 0.147 0.102 0.147 0.194 0 0.089-0.058 0.165-0.138 0.192l-0.001 0-1.717 0.57q-0.052 0.018-0.072-0.034c-0.077-0.2 0.319-0.262 0.447-0.338 0.021-0.012 0.033-0.035 0.033-0.059v-0.001zM29.612 15.616l-0.899-0.241c-0.003-0.001-0.007-0.001-0.011-0.001-0.025 0-0.045 0.020-0.045 0.045 0 0.001 0 0.002 0 0.004v-0l0.035 0.511c0.001 0.018 0.016 0.032 0.034 0.032 0.004 0 0.007-0.001 0.010-0.002l-0 0c0.108-0.033 0.913-0.231 0.897-0.325-0.002-0.011-0.010-0.020-0.021-0.023l-0-0z"></path>
<path d="M26.885 15.47l0.023-0c0.039-0 0.071 0.031 0.072 0.071l0.008 0.869c0 0.039-0.031 0.071-0.071 0.072l-0.023 0c-0.039 0-0.071-0.031-0.072-0.071l-0.008-0.869c-0-0.039 0.031-0.071 0.071-0.072z"></path>
<path d="M2.118 16.881c-0 0-0 0-0.001 0-0.043 0-0.078-0.035-0.078-0.077v-0l-0.001-0.711c0-0 0-0 0-0.001-0-0.24 0.182-0.435 0.407-0.436h0l1.151-0.001c0 0 0 0 0.001 0 0.225-0 0.408 0.194 0.409 0.434v0l0.001 0.711c0 0 0 0 0 0.001 0 0.043-0.035 0.078-0.077 0.078h-0l-1.812 0.003zM2.407 16.698l1.23-0.004c0.092-0 0.167-0.075 0.167-0.167 0-0 0-0 0-0.001v0l-0.001-0.386c-0.001-0.165-0.165-0.298-0.367-0.298l-0.831 0.003c-0 0-0 0-0 0-0.203 0.001-0.366 0.135-0.366 0.3 0 0 0 0 0 0v0l0.001 0.386c0 0.092 0.075 0.167 0.167 0.167 0 0 0 0 0.001 0h-0z"></path>
<path d="M5.089 15.777l0.003 0c0.026 0 0.047 0.022 0.047 0.048l-0.007 0.487c-0 0.026-0.022 0.047-0.048 0.047l-0.003-0c-0.026-0-0.047-0.022-0.047-0.048l0.007-0.487c0-0.026 0.022-0.047 0.048-0.047z"></path>
<path d="M5.144 17.153c-0.153-0.067-0.119-0.374-0.119-0.523 0.001-0.029 0.025-0.052 0.054-0.052 0.023 0 0.042 0.014 0.050 0.035l0 0q0.083 0.243 0.079 0.499c-0 0.025-0.021 0.045-0.045 0.045-0.007 0-0.013-0.001-0.019-0.004l0 0z"></path>
<path d="M29.604 17.359l-1.619-0.148c-0.024-0.002-0.043-0.023-0.043-0.047v-0.123q0-0.054 0.054-0.048l1.592 0.15c0.001 0 0.003 0 0.005 0 0.056 0.003 0.103-0.040 0.107-0.096 0-0.001 0-0.003 0-0.004v0c0.001-0.080-0.054-0.498 0.163-0.344 0.027 0.020 0.042 0.051 0.040 0.084l-0 0.001c-0.012 0.172-0.041 0.982-0.127 1.076-0.013 0.014-0.032 0.023-0.053 0.023-0.040 0-0.072-0.032-0.072-0.071v-0l-0.003-0.407q-0.001-0.042-0.043-0.046z"></path>
<path d="M26.756 17.335c-0.009-0.001-0.016-0.008-0.016-0.017 0-0 0-0.001 0-0.001v0l0.001-0.007c0.031-0.315 0.086-0.567 0.123-0.563 0 0 0 0 0 0v0l0.033 0.003c0.037 0.004 0.042 0.262 0.012 0.577 0 0 0 0-0 0v0l-0.001 0.007c-0.001 0.009-0.008 0.016-0.017 0.016-0 0-0.001-0-0.001-0h0l-0.134-0.014z"></path>
<path d="M3.836 18.066c0.059-0.007 0.102-0.060 0.097-0.119v-0l-0.060-0.679c-0-0.002-0-0.003-0-0.005 0-0.025 0.016-0.045 0.038-0.052l0-0c0.070-0.021 0.127 0.031 0.137 0.103q0.058 0.443 0.14 0.875c0 0.002 0.001 0.005 0.001 0.007 0 0.019-0.014 0.035-0.032 0.038l-0 0-1.839 0.279c-0 0-0 0-0 0-0.029 0.004-0.055-0.016-0.059-0.045 0-0 0-0 0-0v0l-0.134-0.928q-0.004-0.025 0.018-0.038c0.248-0.144 0.231 0.488 0.246 0.608q0.012 0.092 0.102 0.113c0.156 0.038 0.629 0.049 0.565-0.243q-0.051-0.23-0.055-0.466-0.001-0.037 0.035-0.049l0.096-0.032c0.003-0.001 0.008-0.002 0.012-0.002 0.019 0 0.035 0.014 0.037 0.033l0 0 0.065 0.548q0.014 0.119 0.133 0.105l0.458-0.052z"></path>
<path d="M5.185 17.963q-0.064-0.212-0.077-0.447c-0-0.001-0-0.001-0-0.002 0-0.042 0.034-0.077 0.077-0.077 0.037 0 0.068 0.027 0.075 0.062l0 0q0.035 0.222 0.006 0.456c-0.003 0.021-0.020 0.036-0.041 0.036-0.019 0-0.034-0.012-0.040-0.029l-0-0z"></path>
<path d="M26.657 18.132c-0.014-0.087-0.034-0.539 0.138-0.504 0.001 0 0.001 0 0.002 0 0.039 0.009 0.063 0.048 0.053 0.087-0 0-0 0.001-0 0.001l0-0-0.109 0.419c-0.004 0.019-0.021 0.033-0.042 0.033-0.022 0-0.040-0.016-0.042-0.037l-0-0z"></path>
<path d="M27.886 17.952l1.771 0.309c0.037 0.006 0.061 0.041 0.055 0.078l-0.015 0.087c-0.006 0.037-0.041 0.061-0.078 0.055l-1.771-0.309c-0.037-0.006-0.061-0.041-0.055-0.078l0.015-0.087c0.006-0.037 0.041-0.061 0.078-0.055z"></path>
<path d="M5.36 18.24c0.002-0.001 0.004-0.001 0.007-0.001 0.013 0 0.024 0.009 0.027 0.021l0 0 0.062 0.245c0 0 0 0 0 0 0.037 0.145 0.034 0.272-0.008 0.283-0 0-0 0-0 0h0l-0.013 0.003c-0.041 0.010-0.105-0.099-0.142-0.244-0-0-0-0-0-0v0l-0.063-0.245c-0.001-0.002-0.001-0.004-0.001-0.007 0-0.013 0.009-0.024 0.021-0.027l0-0 0.109-0.028z"></path>
<path d="M26.634 18.378l0.005 0.001c0.037 0.009 0.059 0.047 0.049 0.083l-0.104 0.409c-0.009 0.037-0.047 0.059-0.083 0.049l-0.005-0.001c-0.037-0.009-0.059-0.047-0.049-0.083l0.104-0.409c0.009-0.037 0.047-0.059 0.083-0.049z"></path>
<path d="M29.359 19.895c-0.052 0.178-0.214 0.306-0.406 0.306-0.041 0-0.082-0.006-0.119-0.017l0.003 0.001-1.062-0.305c-0.178-0.052-0.306-0.214-0.306-0.406 0-0.041 0.006-0.082 0.017-0.119l-0.001 0.003 0.114-0.396c0.052-0.178 0.214-0.306 0.406-0.306 0.041 0 0.082 0.006 0.119 0.017l-0.003-0.001 1.062 0.305c0.178 0.052 0.306 0.214 0.306 0.406 0 0.041-0.006 0.082-0.017 0.119l0.001-0.003-0.114 0.396zM29.177 19.852l0.115-0.414c0.005-0.016 0.007-0.035 0.007-0.054 0-0.092-0.062-0.169-0.146-0.194l-0.001-0-1.024-0.286c-0-0-0-0-0-0-0.17-0.048-0.348 0.056-0.397 0.231 0 0 0 0 0 0v0l-0.046 0.167c-0.049 0.175 0.049 0.356 0.22 0.403 0 0 0 0 0 0l1.024 0.286c0.016 0.005 0.035 0.007 0.054 0.007 0.092 0 0.169-0.062 0.194-0.146l0-0.001z"></path>
<path d="M3.451 19.502c-0.027-0.062-0.287-0.805 0.021-0.622 0.012 0.008 0.021 0.019 0.024 0.032l0 0 0.119 0.497q0.025 0.103 0.128 0.078 0.27-0.066 0.584-0.167 0.162-0.052 0.155 0.129-0.001 0.029-0.024 0.047-0.066 0.049-0.153 0.072-0.799 0.205-1.578 0.427c-0.007 0.002-0.014 0.003-0.022 0.003-0.036 0-0.067-0.025-0.076-0.058l-0-0.001-0.231-0.853c-0.007-0.028 0.005-0.057 0.030-0.069l0-0 0.089-0.045c0.006-0.003 0.013-0.005 0.021-0.005 0.022 0 0.040 0.015 0.045 0.035l0 0 0.159 0.63c0 0 0 0.001 0 0.001 0.018 0.067 0.087 0.108 0.154 0.090 0-0 0-0 0.001-0h-0l0.513-0.138c0.001-0 0.002-0.001 0.004-0.001 0.032-0.011 0.049-0.046 0.038-0.077-0.001-0.001-0.001-0.003-0.002-0.004l0 0z"></path>
<path d="M5.425 19.111c-0.004-0.008-0.006-0.017-0.006-0.027 0-0.035 0.028-0.063 0.063-0.063 0.022 0 0.041 0.011 0.052 0.027l0 0q0.167 0.225 0.165 0.51c0 0 0 0 0 0.001 0 0.023-0.019 0.042-0.042 0.042-0.018 0-0.033-0.011-0.039-0.027l-0-0-0.193-0.463z"></path>
<path d="M26.187 19.676c0.018-0.075 0.146-0.551 0.245-0.473 0.013 0.011 0.020 0.027 0.018 0.043l-0 0c-0.016 0.127-0.054 0.471-0.22 0.481-0.002 0-0.004 0-0.006-0-0.023-0.002-0.040-0.022-0.038-0.046 0-0.002 0.001-0.004 0.001-0.006l-0 0z"></path>
<path d="M6.039 20.292c0.001 0.002 0.001 0.004 0.001 0.007 0 0.007-0.004 0.014-0.011 0.017l-0 0-0.010 0.005c-0.064 0.027-0.142-0.011-0.174-0.085 0-0-0-0-0-0v0l-0.107-0.252c0 0 0-0-0-0-0.031-0.074-0.005-0.156 0.060-0.184v0l0.010-0.004c0.002-0.001 0.004-0.001 0.007-0.001 0.007 0 0.014 0.004 0.017 0.011l0 0 0.207 0.487z"></path>
<path d="M25.924 20.518c-0.041-0.016-0.028-0.15 0.031-0.299s0.14-0.256 0.181-0.24c0.041 0.016 0.028 0.15-0.031 0.299s-0.14 0.256-0.181 0.24z"></path>
<path d="M27.351 21.33l1.199 0.524c0.003 0.001 0.007 0.003 0.010 0.005 0.036 0.022 0.047 0.069 0.025 0.105-0.002 0.003-0.004 0.007-0.007 0.009l0-0q-0.071 0.085-0.197 0.033-0.763-0.313-1.555-0.672c-0.021-0.009-0.037-0.028-0.042-0.050l-0-0c-0.053-0.233 0.41-0.198 0.517-0.208q0.58-0.056 1.143-0.139c0.004-0 0.008-0.002 0.011-0.005 0.010-0.008 0.012-0.023 0.004-0.034-0.003-0.003-0.006-0.006-0.010-0.008l0 0-1.187-0.504c-0.035-0.015-0.060-0.050-0.060-0.090 0-0.007 0.001-0.014 0.002-0.021l-0 0.001 0.018-0.089q0.012-0.059 0.068-0.035l1.7 0.737c0.003 0.001 0.006 0.003 0.010 0.005 0.027 0.018 0.035 0.056 0.016 0.083-0.002 0.003-0.005 0.006-0.007 0.009l0-0c-0.269 0.281-1.264 0.139-1.658 0.296-0.003 0.001-0.006 0.003-0.008 0.005-0.010 0.010-0.011 0.026-0.001 0.036 0.002 0.003 0.005 0.004 0.008 0.006l-0-0z"></path>
<path d="M6.081 20.615l0.005-0.003c0.035-0.018 0.078-0.005 0.096 0.030l0.18 0.339c0.018 0.035 0.005 0.078-0.030 0.096l-0.005 0.003c-0.035 0.018-0.078 0.005-0.096-0.030l-0.18-0.339c-0.018-0.035-0.005-0.078 0.030-0.096z"></path>
<path d="M25.502 21.241c-0.005-0.002-0.009-0.007-0.009-0.013 0-0.002 0-0.004 0.001-0.006l-0 0 0.094-0.203c0 0 0-0 0-0 0.081-0.175 0.174-0.304 0.207-0.289 0 0 0 0 0 0v0l0.027 0.012c0.033 0.017-0.006 0.171-0.086 0.345-0 0-0 0-0 0v0l-0.094 0.203c-0.002 0.005-0.007 0.008-0.013 0.008-0.002 0-0.004-0-0.006-0.001l0 0-0.123-0.057z"></path>
<path d="M6.747 21.828c-0.040 0.023-0.134-0.067-0.21-0.201s-0.106-0.261-0.066-0.283c0.040-0.023 0.134 0.067 0.21 0.201s0.106 0.261 0.066 0.283z"></path>
<path d="M25.404 21.492l0.005 0.003c0.035 0.020 0.046 0.065 0.026 0.099l-0.2 0.337c-0.020 0.035-0.065 0.046-0.099 0.026l-0.005-0.003c-0.035-0.020-0.046-0.065-0.026-0.099l0.2-0.337c0.020-0.035 0.065-0.046 0.099-0.026z"></path>
<path d="M7.183 22.511q-0.15-0.093-0.223-0.256c-0.010-0.021-0.024-0.039-0.042-0.053l-0-0q-0.099-0.077-0.035-0.169c0.008-0.012 0.022-0.020 0.037-0.020s0.027 0.007 0.036 0.017l0 0 0.306 0.393c0.008 0.010 0.013 0.023 0.013 0.037 0 0.033-0.027 0.060-0.060 0.060-0.012 0-0.023-0.003-0.032-0.009l0 0z"></path>
<path d="M24.966 22.191l0.006 0.004c0.031 0.023 0.038 0.066 0.016 0.098l-0.231 0.32c-0.023 0.031-0.066 0.038-0.098 0.016l-0.006-0.004c-0.031-0.023-0.038-0.066-0.016-0.098l0.231-0.32c0.023-0.031 0.066-0.038 0.098-0.016z"></path>
<path d="M7.481 22.724l0.229 0.291q0.023 0.030 0.023 0.068v0.065c0 0.003-0 0.006-0.002 0.010-0.005 0.015-0.022 0.023-0.037 0.017-0.003-0.001-0.006-0.003-0.008-0.005l0 0c-0.047-0.037-0.418-0.396-0.333-0.45 0.048-0.030 0.103-0.028 0.128 0.003l0 0z"></path>
<path d="M24.45 22.863l0.009 0.007c0.030 0.023 0.036 0.066 0.013 0.096l-0.244 0.317c-0.023 0.030-0.066 0.036-0.096 0.013l-0.009-0.007c-0.030-0.023-0.036-0.066-0.013-0.096l0.244-0.317c0.023-0.030 0.066-0.036 0.096-0.013z"></path>
<path d="M7.905 23.376l0.025-0.025c0.023-0.022 0.059-0.022 0.082 0l0.296 0.298c0.022 0.023 0.022 0.059-0 0.081l-0.025 0.025c-0.023 0.022-0.059 0.022-0.082-0l-0.296-0.298c-0.022-0.023-0.022-0.059 0-0.081z"></path>
<path d="M23.801 23.487c0.014-0.011 0.033-0.019 0.053-0.019 0.049-0.002 0.091 0.037 0.092 0.086 0.001 0.020-0.006 0.039-0.017 0.054l0-0q-0.138 0.197-0.355 0.307c-0.006 0.003-0.013 0.005-0.021 0.005-0.026 0-0.047-0.021-0.047-0.047 0-0.007 0.002-0.014 0.004-0.020l-0 0q0.098-0.214 0.29-0.367z"></path>
<path d="M8.925 24.288c-0.14 0.058-0.403-0.148-0.439-0.279-0.001-0.004-0.002-0.009-0.002-0.015 0-0.032 0.026-0.058 0.058-0.058 0.010 0 0.020 0.003 0.028 0.007l-0-0q0.201 0.113 0.369 0.271c0.008 0.008 0.014 0.019 0.014 0.032 0 0.018-0.011 0.034-0.027 0.041l-0 0z"></path>
<path d="M22.93 24.317l0.266-0.231c0.032-0.028 0.081-0.025 0.109 0.008l0.007 0.008c0.028 0.032 0.025 0.081-0.008 0.109l-0.266 0.231c-0.032 0.028-0.081 0.025-0.109-0.008l-0.007-0.008c-0.028-0.032-0.025-0.081 0.008-0.109z"></path>
<path d="M9.109 24.582c-0.015-0.007-0.026-0.023-0.026-0.041 0-0.011 0.004-0.021 0.011-0.029l-0 0c0.119-0.136 0.378 0.141 0.464 0.22 0.016 0.015 0.026 0.035 0.026 0.059 0 0.031-0.018 0.057-0.043 0.071l-0 0c-0.085 0.043-0.314-0.224-0.432-0.28z"></path>
<path d="M22.276 24.822l0.315-0.22c0.031-0.021 0.073-0.014 0.094 0.017l0.011 0.016c0.021 0.031 0.014 0.073-0.017 0.094l-0.315 0.22c-0.031 0.021-0.073 0.014-0.094-0.017l-0.011-0.016c-0.021-0.031-0.014-0.073 0.017-0.094z"></path>
<path d="M9.752 25.055c-0.007-0.005-0.012-0.013-0.012-0.022 0-0.005 0.002-0.010 0.004-0.015l-0 0 0.004-0.007c0.038-0.057 0.129-0.064 0.203-0.015 0 0 0 0 0 0v0l0.222 0.147c0.074 0.049 0.103 0.135 0.066 0.193v0l-0.004 0.007c-0.005 0.007-0.013 0.012-0.022 0.012-0.005 0-0.010-0.002-0.015-0.004l0 0-0.447-0.296z"></path>
<path d="M21.626 25.439c-0.004 0.003-0.009 0.004-0.015 0.004-0.010 0-0.019-0.005-0.024-0.013l-0-0-0.005-0.008c-0-0-0-0-0-0-0.036-0.058-0.002-0.144 0.075-0.192l0.191-0.117c0 0 0 0 0 0 0.077-0.047 0.169-0.039 0.205 0.020v0l0.005 0.008c0.003 0.004 0.004 0.009 0.004 0.015 0 0.010-0.005 0.019-0.014 0.024l-0 0-0.422 0.26z"></path>
<path d="M10.885 25.733c-0.093-0.028-0.378-0.157-0.413-0.258-0.002-0.006-0.003-0.012-0.003-0.019 0.001-0.028 0.025-0.050 0.054-0.048 0.007 0 0.013 0.002 0.019 0.005l-0-0 0.396 0.183c0.016 0.007 0.029 0.020 0.036 0.037 0.017 0.037-0 0.081-0.038 0.098-0.017 0.008-0.035 0.008-0.052 0.004l0 0z"></path>
<path d="M20.856 25.844c-0.002 0.001-0.004 0.001-0.006 0.001-0.006 0-0.011-0.003-0.013-0.008l-0-0-0.011-0.022c0-0-0-0-0-0-0.029-0.060 0.024-0.145 0.117-0.19v0l0.216-0.104c0-0 0-0 0-0 0.094-0.045 0.193-0.033 0.222 0.027 0 0 0 0 0 0v0l0.011 0.022c0.001 0.002 0.002 0.004 0.002 0.007 0 0.006-0.004 0.011-0.009 0.014l-0 0-0.529 0.254z"></path>
<path d="M11.24 25.914c-0.011-0.008-0.020-0.018-0.026-0.031l-0-0c-0.128-0.275 0.498 0.118 0.508 0.125 0.013 0.009 0.021 0.025 0.021 0.042 0 0.028-0.023 0.052-0.052 0.052-0.003 0-0.007-0-0.010-0.001l0 0q-0.24-0.043-0.442-0.186z"></path>
<path d="M20.547 25.829c0.003-0.001 0.005-0.002 0.009-0.002 0.008 0 0.014 0.004 0.017 0.011l0 0 0.008 0.018c0.030 0.064-0.006 0.143-0.080 0.178-0 0-0 0-0 0l-0.257 0.12c0 0-0 0-0 0-0.074 0.035-0.158 0.011-0.188-0.052v0l-0.007-0.018c-0.001-0.002-0.002-0.005-0.002-0.008 0-0.007 0.004-0.014 0.011-0.017l0-0 0.491-0.23z"></path>
<path d="M12.5 26.277c0.005 0.002 0.008 0.007 0.008 0.012 0 0.002-0 0.003-0.001 0.004l0-0-0.003 0.007c-0.031 0.076-0.157 0.096-0.282 0.046-0-0-0-0-0-0h0l-0.045-0.018c-0.125-0.050-0.202-0.153-0.171-0.229 0-0 0-0 0-0v0l0.003-0.006c0.002-0.005 0.007-0.008 0.012-0.008 0.002 0 0.003 0 0.004 0.001l-0-0 0.475 0.191z"></path>
<path d="M19.751 26.158c0.003-0.001 0.007-0.002 0.011-0.002 0.013 0 0.024 0.008 0.028 0.019l0 0 0.004 0.011c0.023 0.061-0.020 0.134-0.098 0.164v0l-0.195 0.076c0 0-0 0-0 0-0.078 0.030-0.159 0.005-0.183-0.056 0-0 0-0-0-0v0l-0.004-0.011c-0.001-0.003-0.002-0.007-0.002-0.011 0-0.013 0.008-0.024 0.019-0.028l0-0 0.418-0.163z"></path>
<path d="M13.303 26.599c-0.014 0.042-0.153 0.033-0.312-0.020s-0.276-0.129-0.262-0.17c0.014-0.042 0.153-0.033 0.312 0.020s0.276 0.129 0.262 0.17z"></path>
<path d="M18.58 26.533l0.39-0.109c0.038-0.011 0.077 0.012 0.088 0.049l0.002 0.008c0.011 0.038-0.012 0.077-0.049 0.088l-0.39 0.109c-0.038 0.011-0.077-0.012-0.088-0.049l-0.002-0.008c-0.011-0.038 0.012-0.077 0.049-0.088z"></path>
<path d="M13.638 26.592l0.402 0.083c0.032 0.007 0.052 0.038 0.046 0.070l-0.006 0.031c-0.007 0.032-0.038 0.052-0.070 0.046l-0.402-0.083c-0.032-0.007-0.052-0.038-0.046-0.070l0.006-0.031c0.007-0.032 0.038-0.052 0.070-0.046z"></path>
<path d="M18.267 26.698c0.006 0.043-0.118 0.096-0.278 0.119s-0.294 0.007-0.3-0.036c-0.006-0.043 0.118-0.096 0.278-0.119s0.294-0.007 0.3 0.036z"></path>
<path d="M14.397 26.754c0.001-0.009 0.008-0.016 0.017-0.016 0.001 0 0.001 0 0.001 0h-0l0.010 0.001c0.283 0.024 0.51 0.069 0.51 0.1v0l-0.003 0.043c0 0 0 0-0 0-0.003 0.031-0.235 0.037-0.52 0.013-0 0-0-0-0-0h0l-0.010-0.001c-0.008-0.001-0.015-0.008-0.015-0.017 0-0.001 0-0.001 0-0.002v0l0.010-0.123z"></path>
<path d="M16.893 26.913v-0.072q0-0.047 0.047-0.047l0.465 0.001c0 0 0 0 0 0 0.024 0 0.043 0.019 0.043 0.043 0 0.003-0 0.007-0.001 0.010l0-0c-0.016 0.068-0.426 0.094-0.508 0.106q-0.047 0.007-0.047-0.040z"></path>
<path d="M15.257 26.835l0.435 0.020c0.032 0.002 0.056 0.029 0.055 0.060l-0 0.005c-0.002 0.032-0.028 0.056-0.060 0.055l-0.435-0.020c-0.032-0.002-0.056-0.029-0.055-0.060l0-0.005c0.002-0.032 0.028-0.056 0.060-0.055z"></path>
<path d="M16.117 26.853l0.432-0.016c0.031-0.001 0.058 0.023 0.059 0.055l0 0.005c0.001 0.031-0.023 0.058-0.055 0.059l-0.432 0.016c-0.031 0.001-0.058-0.023-0.059-0.055l-0-0.005c-0.001-0.031 0.023-0.058 0.055-0.059z"></path>
<path d="M10.892 27.686l-0.133-0.077c-0.023-0.013-0.039-0.038-0.039-0.066 0-0.042 0.034-0.075 0.075-0.075 0.004 0 0.008 0 0.012 0.001l-0-0 0.161 0.021c0.019 0.002 0.037-0.007 0.045-0.023l0-0c0.074-0.147 0.18-0.322 0.352-0.35q0.176-0.029 0.285 0.109c0.013 0.016 0.020 0.036 0.020 0.057 0 0.051-0.041 0.092-0.092 0.092-0.021 0-0.040-0.007-0.056-0.019l0 0c-0.132-0.099-0.343 0.058-0.324 0.214 0.003 0.025 0.020 0.046 0.044 0.053l0 0q0.086 0.028 0.174 0.052 0.056 0.015 0.031 0.068l-0.029 0.059q-0.018 0.037-0.058 0.028l-0.176-0.041q-0.045-0.011-0.070 0.029c-0.175 0.288-0.294 0.692-0.393 0.998-0.001 0.002-0.002 0.005-0.003 0.007-0.018 0.043-0.068 0.064-0.111 0.046-0.002-0.001-0.005-0.002-0.007-0.003l0 0q-0.103-0.054-0.056-0.164 0.202-0.475 0.366-0.963c0.002-0.004 0.002-0.009 0.002-0.014 0-0.016-0.009-0.031-0.022-0.038l-0-0z"></path>
<path d="M21.944 28.496c-0.001-0.001-0.002-0.003-0.004-0.005-0.021-0.024-0.058-0.025-0.082-0.003-0.001 0.001-0.003 0.003-0.004 0.004l0-0c-0.202 0.225-0.6 0.398-0.795 0.043-0.169-0.306-0.444-0.845-0.008-1.048q0.266-0.125 0.546-0.207 0.033-0.009 0.047 0.022 0.433 0.981 0.532 1.273c0.157 0.466-0.709 0.723-0.742 0.595-0.012-0.045 0.011-0.092 0.053-0.11l0-0c0.203-0.088 0.701-0.233 0.456-0.562zM21.366 28.551q0.296-0.004 0.457-0.247c0.011-0.017 0.013-0.037 0.006-0.056l-0-0-0.275-0.687c-0.012-0.030-0.041-0.050-0.075-0.050-0.010 0-0.019 0.002-0.028 0.005l0.001-0-0.365 0.13c-0.053 0.020-0.086 0.073-0.079 0.129l0 0.001q0.050 0.404 0.284 0.739 0.027 0.038 0.074 0.037z"></path>
<path d="M20.077 27.895c0.023 0.005 0.047-0.001 0.065-0.015l0-0q0.123-0.096 0.273-0.139c0.007-0.002 0.014-0.003 0.022-0.003 0.047 0 0.085 0.038 0.085 0.085 0 0.037-0.024 0.069-0.057 0.080l-0.001 0-0.161 0.053c-0.085 0.027-0.132 0.118-0.106 0.204l0 0q0.132 0.435 0.254 0.909 0.025 0.098-0.060 0.133c-0.009 0.004-0.020 0.006-0.031 0.006-0.037 0-0.068-0.024-0.079-0.058l-0-0.001-0.364-1.193c-0.002-0.005-0.003-0.012-0.003-0.018 0-0.034 0.027-0.061 0.061-0.061 0.004 0 0.008 0 0.012 0.001l-0-0 0.089 0.017z"></path>
<path d="M11.491 29.154c-0.132-0.060-0.171-0.191-0.149-0.335 0.041-0.265 0.182-0.836 0.408-0.931 0.191-0.080 0.542 0.045 0.675 0.16 0.184 0.158 0.077 0.522-0.016 0.713-0.013 0.025-0.039 0.042-0.069 0.042-0.008 0-0.015-0.001-0.022-0.003l0.001 0-0.611-0.188q-0.068-0.020-0.106 0.039c-0.275 0.431 0.386 0.478 0.621 0.565 0.021 0.008 0.036 0.028 0.036 0.051s-0.015 0.044-0.036 0.052l-0 0c-0.169 0.062-0.618-0.113-0.732-0.165zM11.744 28.48l0.417 0.132c0.010 0.003 0.022 0.005 0.035 0.005 0.052 0 0.096-0.034 0.111-0.080l0-0.001 0.030-0.095c0.046-0.146-0.035-0.302-0.18-0.348v0l-0.111-0.035c-0.146-0.046-0.301 0.036-0.347 0.182v0l-0.030 0.095c-0.003 0.010-0.005 0.022-0.005 0.035 0 0.052 0.034 0.096 0.080 0.111l0.001 0z"></path>
<path d="M19.805 28.961c0.006 0.027 0.010 0.058 0.010 0.089 0 0.186-0.129 0.341-0.301 0.382l-0.003 0.001-0.256 0.060c-0.027 0.006-0.058 0.010-0.089 0.010-0.186 0-0.341-0.129-0.382-0.301l-0.001-0.003-0.138-0.594c-0.006-0.027-0.010-0.058-0.010-0.089 0-0.186 0.129-0.341 0.301-0.382l0.003-0.001 0.256-0.060c0.027-0.006 0.058-0.010 0.089-0.010 0.186 0 0.341 0.129 0.382 0.301l0.001 0.003 0.138 0.594zM19.477 28.445c-0.028-0.107-0.123-0.185-0.237-0.185-0.021 0-0.042 0.003-0.062 0.008l0.002-0-0.156 0.040c-0.107 0.028-0.185 0.123-0.185 0.237 0 0.021 0.003 0.042 0.008 0.062l-0-0.002 0.138 0.547c0.028 0.107 0.123 0.185 0.237 0.185 0.021 0 0.042-0.003 0.062-0.008l-0.002 0 0.156-0.040c0.107-0.028 0.185-0.123 0.185-0.237 0-0.021-0.003-0.042-0.008-0.062l0 0.002-0.138-0.547z"></path>
<path d="M13.144 28.249c0.409-0.096 0.794 0.066 0.697 0.548q-0.078 0.388-0.143 0.779c-0.016 0.097-0.058 0.146-0.161 0.11-0.023-0.008-0.039-0.029-0.039-0.054 0-0.003 0-0.006 0.001-0.008l-0 0q0.064-0.46 0.165-0.914c0.075-0.341-0.338-0.361-0.545-0.291-0.026 0.009-0.044 0.031-0.049 0.057l-0 0.001-0.193 0.965q-0.012 0.058-0.070 0.048l-0.086-0.014q-0.052-0.008-0.041-0.060l0.235-1.211c0.005-0.025 0.024-0.045 0.049-0.051l0-0q0.108-0.026 0.138 0.070 0.010 0.033 0.043 0.025z"></path>
<path d="M14.37 29.204q-0.050 0.205 0.049 0.374 0.020 0.034 0.059 0.037c0.15 0.010 0.544 0.020 0.644 0.11 0.012 0.011 0.020 0.027 0.020 0.045 0 0.033-0.027 0.060-0.060 0.060v0q-0.361 0.001-0.704-0.077c-0.396-0.090-0.166-0.989-0.074-1.233 0.008-0.021 0.024-0.038 0.045-0.047l0.001-0q0.348-0.151 0.692-0.002c0.256 0.11 0.272 0.504 0.144 0.709q-0.019 0.031-0.055 0.033-0.366 0.026-0.725-0.032-0.028-0.005-0.035 0.023zM14.424 28.994q0.271 0.128 0.569 0.079 0.033-0.005 0.048-0.035c0.239-0.472-0.479-0.558-0.583-0.372q-0.030 0.053-0.060 0.144-0.021 0.063-0.014 0.127 0.004 0.039 0.040 0.056z"></path>
<path d="M17.479 29.187c-1.016-0.18-0.549-1.005 0.192-0.752 0.011 0.003 0.021 0.010 0.028 0.020 0.017 0.024 0.011 0.058-0.014 0.075-0.010 0.007-0.022 0.010-0.033 0.010h0q-0.247-0.004-0.48 0.083c-0.050 0.019-0.084 0.066-0.084 0.121 0 0.043 0.021 0.081 0.053 0.104l0 0q0.247 0.182 0.55 0.228c0.027 0.004 0.052 0.017 0.071 0.036l0.001 0.001q0.236 0.247 0.085 0.561c-0.011 0.021-0.029 0.037-0.051 0.043l-0.001 0q-0.334 0.098-0.692 0.104c-0.001 0-0.002 0-0.003 0-0.046 0-0.084-0.038-0.084-0.084 0-0.043 0.032-0.078 0.073-0.083l0-0q0.199-0.027 0.401-0.036c0.284-0.012 0.291-0.379-0.012-0.433z"></path>
<path d="M16.542 29.825l-0.14-0.024c-0.025-0.004-0.049-0.001-0.071 0.007l-0.001 0c-0.247 0.098-0.673 0.1-0.739-0.234-0.056-0.283-0.112-0.877 0.106-1.024 0.174-0.119 0.673-0.088 0.877-0.071 0.022 0.002 0.039 0.020 0.039 0.043 0 0 0 0 0 0v0 1.243c0 0 0 0 0 0 0 0.034-0.027 0.061-0.061 0.061-0.004 0-0.008-0-0.011-0.001l0 0zM15.881 29.663c0.682 0.285 0.525-0.61 0.531-0.922 0-0.001 0-0.002 0-0.003-0.001-0.047-0.039-0.084-0.087-0.084-0.001 0-0.002 0-0.003 0h0l-0.435 0.022q-0.040 0.002-0.065 0.033c-0.142 0.172-0.154 0.865 0.059 0.954z"></path>
<path d="M18.459 29.626c0 0.001 0 0.002 0 0.003 0 0.024-0.019 0.044-0.042 0.045h-0l-0.059 0.004c-0 0-0 0-0.001 0-0.057 0.004-0.108-0.050-0.113-0.121v0l-0.011-0.153c-0.005-0.071 0.038-0.132 0.095-0.136 0 0 0 0 0 0v0l0.059-0.004c0.001-0 0.002-0 0.003-0 0.024 0 0.044 0.019 0.045 0.042v0l0.023 0.32z"></path>
</svg>
