<!--
SPDX-FileCopyrightText: Copyright © 2022-Present, Blinry <https://blinry.org/>

SPDX-License-Identifier: CC-BY-4.0
-->
<svg version="1.1" xmlns="http://www.w3.org/2000/svg" width="32" height="32" viewBox="0 0 32 32">
<title>ds-foundkey</title>
<path d="M30.456 16.753q0.012 0.12 0.072 0.253 0.329 0.722 0.657 1.443c0.693 1.524 0.168 2.502-1.283 3.119-0.417 0.177-3.399 1.354-3.48 1.549q-1.63 3.898-5.263 5.903c-3.218 1.777-7.282 1.805-10.58 0.207-0.033-0.016-0.071-0.012-0.1 0.009l-0.001 0c-1.152 0.857-2.536 1.254-3.963 1.125-3.244-0.294-5.647-2.967-6.335-6.045-0.788-3.52 1.045-7.106 4.709-7.867 0.034-0.007 0.059-0.037 0.059-0.073 0-0.006-0.001-0.011-0.002-0.017l0 0c-0.695-3.122-0.327-6.717 1.275-9.53 0.037-0.065 0.019-0.146-0.040-0.191l-0-0q-0.739-0.555-1.357-1.208c-0.826-0.872-1.396-2.061-1.799-3.185q-0.105-0.294-0.134-0.564c-0-0.002-0-0.005-0-0.007 0-0.037 0.030-0.067 0.067-0.067 0.006 0 0.012 0.001 0.017 0.002l-0-0c8.153 2.094 17.019 2.424 25.141 0.057 0.006-0.002 0.014-0.003 0.021-0.003 0.041 0 0.075 0.034 0.075 0.075 0 0.006-0.001 0.011-0.002 0.017l0-0q-0.696 3.274-3.648 4.808c-0.001 0.001-0.002 0.001-0.004 0.002-0.032 0.019-0.042 0.060-0.023 0.092 0.001 0.001 0.001 0.002 0.002 0.003l-0-0c0.786 1.176 1.179 2.455 1.379 3.85 0 0.002 0.001 0.005 0.002 0.007 0.009 0.029 0.039 0.046 0.069 0.037 0.003-0.001 0.005-0.002 0.007-0.003l-0 0c0.712-0.326 1.612-0.783 2.385-0.888 0.895-0.121 1.554 0.368 1.941 1.14q0.388 0.773 1.226 2.661c0.422 0.949 0.725 1.639 0.081 2.448q-0.407 0.511-1.139 0.786-0.037 0.014-0.032 0.053zM15.309 7.005c-0.722-1.249-2.051-1.947-3.491-1.865-2.717 0.156-4.266 2.969-3.307 5.406 1.295 3.293 5.379 4.076 8.459 3.651 1.493-0.206 2.941-0.715 4.033-1.725 0.951-0.881 1.607-2.133 1.602-3.446-0.006-1.706-1.138-3.238-2.769-3.753-1.752-0.554-3.532 0.223-4.484 1.733q-0.022 0.034-0.042-0.001zM24.517 17.211q0.661 1.557 1.349 3.116 0.229 0.519 0.79 0.285 0.882-0.368 1.753-0.762c0.597-0.27 0.686-0.506 0.396-1.114q-0.653-1.371-1.292-2.756c-0.007-0.015-0.011-0.032-0.011-0.051 0-0.050 0.030-0.092 0.073-0.11l0.001-0q0.837-0.347 1.701-0.77c0.283-0.139 0.468-0.321 0.313-0.639q-0.629-1.292-0.87-1.832c-0.161-0.36-0.385-0.635-0.806-0.452q-7.070 3.089-14.094 6.166c-0.039 0.017-0.062 0.057-0.057 0.098l0 0q0.21 1.642-0.863 2.528c-0.666 0.55-1.622 0.776-2.493 0.718-1.909-0.128-3.75-1.186-4.664-2.914-0.056-0.106-0.098-0.124-0.214-0.113-1.985 0.185-3.395 1.78-3.488 3.739q-0.089 1.865 0.923 3.526c0.973 1.597 2.909 2.972 4.879 2.438 2.152-0.583 3.162-2.881 2.841-4.968-0.005-0.035 0.013-0.069 0.045-0.083l0-0 8.549-3.784c0-0 0-0 0-0 0.029-0.012 0.063 0.001 0.075 0.030 0 0 0 0 0 0v0q0.564 1.32 1.147 2.602c0.141 0.311 0.203 0.62 0.594 0.653q0.209 0.018 0.637-0.171 0.693-0.305 1.381-0.62c0.784-0.359 0.768-0.45 0.411-1.245q-0.574-1.284-1.145-2.567c-0.003-0.007-0.005-0.015-0.005-0.024 0-0.024 0.015-0.045 0.036-0.054l0-0 2.046-0.892c0-0 0-0 0.001-0 0.023-0.010 0.050 0.001 0.060 0.025 0 0 0 0 0 0v-0z"></path>
<path d="M10.078 7.204c1.712-1.699 4.506-0.669 4.722 1.712 0 0 0 0.001 0 0.002 0.003 0.034-0.023 0.063-0.057 0.066-0.001 0-0.001 0-0.002 0h0l-1.698 0.079c-0.001 0-0.002 0-0.003 0-0.037 0-0.068-0.030-0.068-0.068 0-0.001 0-0.001 0-0.002v0c0.027-1.386-1.974-1.34-1.894-0.017 0.001 0.021-0.013 0.040-0.034 0.045l-0 0q-0.121 0.030-0.238 0.034-0.745 0.020-1.438 0.056c-0.002 0-0.005 0-0.008 0-0.056-0.001-0.099-0.048-0.098-0.104 0-0.003 0-0.006 0.001-0.008l-0 0q0.116-1.101 0.816-1.797z"></path>
<path d="M17.763 9.003c-0.001 0.020-0.017 0.037-0.037 0.038h-0l-1.689 0.080q-0.076 0.004-0.068-0.072 0.154-1.458 1.238-2.194c1.797-1.219 4.053-0.065 4.297 2.025q0.010 0.083-0.073 0.088l-1.636 0.097c-0.035 0.002-0.066-0.023-0.070-0.058v-0c-0.070-0.529-0.329-0.991-0.911-1.046-0.624-0.060-1.028 0.437-1.050 1.042z"></path>
<path d="M13.553 12.362l1.759-2.925c0.014-0.023 0.039-0.038 0.067-0.038 0.027 0 0.050 0.013 0.065 0.034l0 0 1.896 2.781c0.008 0.012 0.013 0.027 0.013 0.044 0 0.024-0.011 0.045-0.028 0.060l-0 0-1.715 1.469c-0.014 0.012-0.032 0.019-0.051 0.019-0.016 0-0.032-0.005-0.044-0.014l0 0-1.939-1.325c-0.021-0.014-0.035-0.038-0.035-0.065 0-0.015 0.004-0.029 0.011-0.041l-0 0z"></path>
<path d="M7.178 25.169c-0.742 0.338-1.691-0.148-2.118-1.087s-0.173-1.974 0.569-2.312c0.742-0.338 1.691 0.148 2.118 1.087s0.173 1.974-0.569 2.312z"></path>
</svg>
