<!--
SPDX-FileCopyrightText: 2018 Eukombos

SPDX-License-Identifier: CC0-1.0
-->
<svg version="1.1" xmlns="http://www.w3.org/2000/svg" width="32" height="32" viewBox="0 0 32 32">
<title>ds-fediverse</title>
<path d="M17.307 1.764q-1.072 0-1.843 0.737t-0.838 1.843 0.687 1.944 1.877 0.905 1.96-0.687 0.905-1.877-0.687-1.977-1.893-0.888h-0.168zM14.392 4.948l-7.775 3.954q0.67 0.67 0.838 1.609l7.741-3.954q-0.637-0.67-0.804-1.609zM19.988 5.853q-0.436 0.838-1.273 1.273l6.133 6.166q0.436-0.838 1.307-1.273zM15.229 6.59l-4.524 8.881 1.341 1.341 4.792-9.383q-0.938-0.168-1.609-0.838zM18.715 7.126q-0.737 0.369-1.542 0.335l-0.268-0.033 0.704 4.424 1.877 0.302zM4.439 8.266q-1.072 0-1.843 0.754t-0.838 1.843 0.687 1.944 1.893 0.905 1.977-0.704 0.888-1.877-0.704-1.96-1.86-0.905h-0.201zM7.455 10.544q0.033 0.302 0.033 0.603-0.033 0.637-0.335 1.173l4.423 0.704 0.871-1.676zM14.995 11.751l-0.871 1.709 10.422 1.642q-0.033-0.268-0.033-0.57 0.033-0.637 0.335-1.206zM27.461 11.952q-1.072 0.033-1.843 0.771t-0.821 1.843 0.704 1.944 1.877 0.905 1.96-0.687 0.905-1.893-0.687-1.977-1.893-0.905h-0.201zM7.153 12.388q-0.436 0.838-1.307 1.273l7.037 7.037 1.709-0.838zM5.813 13.661q-0.704 0.369-1.474 0.335l-0.302-0.033 1.341 8.579q0.704-0.335 1.508-0.302l0.268 0.033zM18.011 14.398l1.609 10.422q0.704-0.335 1.474-0.302l0.335 0.033-1.542-9.852zM24.546 15.169l-3.954 2.011 0.268 1.877 4.524-2.279q-0.67-0.67-0.838-1.609zM25.417 16.811l-3.988 7.741q0.938 0.168 1.609 0.838l3.988-7.741q-0.938-0.168-1.609-0.838zM9.499 17.783l-2.279 4.491q0.938 0.168 1.609 0.838l2.011-3.988zM18.279 18.353l-9.417 4.792q0.637 0.67 0.804 1.609l8.881-4.524zM16.436 21.704l-1.709 0.838 3.552 3.586q0.436-0.838 1.307-1.273zM6.684 22.508q-1.072 0-1.86 0.754t-0.838 1.843 0.704 1.927 1.877 0.905 1.96-0.687 0.905-1.877-0.687-1.96-1.893-0.905h-0.168zM9.666 24.787q0.067 0.302 0.033 0.603-0.033 0.637-0.302 1.173l8.579 1.374q-0.033-0.302-0.033-0.603 0.033-0.603 0.335-1.173zM20.893 24.787q-1.072 0-1.843 0.754t-0.821 1.843 0.687 1.944 1.877 0.905 1.977-0.704 0.905-1.877-0.687-1.96-1.893-0.905h-0.201z"></path>
</svg>
