<!--
SPDX-FileCopyrightText: Copyright © 2022-2023, Firefish Project <info@joinfirefish.org>

SPDX-License-Identifier: LicenseRef-AllRightsReserved
-->
<svg version="1.1" xmlns="http://www.w3.org/2000/svg" width="32" height="32" viewBox="0 0 32 32">
<title>ds-firefish</title>
<path d="M22.221-0.001h0.187q0.662 0.050 1.113 0.502 3.996 3.996 7.992 7.992 0.442 0.442 0.486 1.11v0.171c-0.061 0.807-0.622 1.482-1.418 1.623q-0.175 0.031-0.623 0.031-3.808 0.001-7.615-0.002c-0.836-0.001-1.555-0.544-1.732-1.362q-0.041-0.19-0.041-0.622-0.001-3.843-0.001-7.686c0-0.96 0.698-1.671 1.651-1.758z"></path>
<path d="M16.564 11.421l-7.859 0.001c-0.946 0-1.713-0.767-1.713-1.713v0l0.001-7.859c0-0.946 0.767-1.713 1.713-1.713 0.473 0 0.901 0.192 1.211 0.502l7.858 7.858c0.31 0.31 0.502 0.738 0.502 1.211 0 0.946-0.767 1.713-1.713 1.713v0z"></path>
<path d="M16.654 32h-15.031c-0.894-0.065-1.553-0.734-1.623-1.627v-15.039c0.064-0.76 0.567-1.394 1.315-1.572q0.18-0.043 0.519-0.043 7.317-0.001 14.634 0 0.317 0 0.494 0.042c0.622 0.148 1.13 0.643 1.277 1.27q0.039 0.169 0.041 0.508c0.016 4.859 0.011 9.719 0.006 14.578q-0 0.372-0.044 0.559c-0.175 0.758-0.819 1.263-1.587 1.324zM6.856 25.143c0-1.262-1.023-2.285-2.285-2.285v0c-1.262 0-2.285 1.023-2.285 2.285v0c0 1.262 1.023 2.285 2.285 2.285v0c1.262 0 2.285-1.023 2.285-2.285v0zM12.57 25.143c0-1.262-1.023-2.285-2.285-2.285v0c-1.262 0-2.285 1.023-2.285 2.285v0c0 1.262 1.023 2.285 2.285 2.285v0c1.262 0 2.285-1.023 2.285-2.285v0z"></path>
<path d="M32 23.314v0.179c-0.067 0.767-0.568 1.427-1.325 1.602q-0.188 0.044-0.56 0.044-3.806 0.001-7.612 0-0.403-0-0.597-0.045c-0.643-0.149-1.157-0.674-1.295-1.319q-0.040-0.189-0.041-0.622-0.001-3.728 0-7.457 0-0.428 0.041-0.622c0.275-1.297 1.946-1.825 2.898-0.874q3.985 3.983 7.969 7.969 0.473 0.473 0.522 1.144z"></path>
</svg>
