<!--
SPDX-FileCopyrightText: Public Domain, 2019-Present, The Forgefed Team  <https://forgefed.org/>

SPDX-License-Identifier: CC0-1.0
-->

<svg version="1.1" xmlns="http://www.w3.org/2000/svg" width="32" height="32" viewBox="0 0 32 32">
<title>ds-forgeflux</title>
<path d="M1.507 23.099h2.699c0.832 0 1.507 0.675 1.507 1.507v2.705c0 0.832-0.675 1.507-1.507 1.507h-2.699c-0.832 0-1.507-0.675-1.507-1.507v-2.705c0-0.832 0.675-1.507 1.507-1.507zM1.507 3.181h17.883c0.832 0 1.507 0.675 1.507 1.507v2.705c0 0.832-0.675 1.507-1.507 1.507h-17.883c-0.832 0-1.507-0.675-1.507-1.507v-2.705c0-0.832 0.675-1.507 1.507-1.507zM1.507 13.215h10.266c0.832 0 1.507 0.675 1.507 1.507v2.705c0 0.832-0.675 1.507-1.507 1.507h-10.266c-0.832 0-1.507-0.675-1.507-1.507v-2.705c0-0.832 0.675-1.507 1.507-1.507z"></path>
<path d="M20.221 13.162h10.272c0.832 0 1.507 0.675 1.507 1.507v2.725c0 0.832-0.675 1.507-1.507 1.507h-10.272c-0.832 0-1.507-0.675-1.507-1.507v-2.725c0-0.832 0.675-1.507 1.507-1.507zM27.768 3.181h2.725c0.832 0 1.507 0.675 1.507 1.507v2.725c0 0.832-0.675 1.507-1.507 1.507h-2.725c-0.832 0-1.507-0.675-1.507-1.507v-2.725c0-0.832 0.675-1.507 1.507-1.507zM12.61 23.080h17.883c0.832 0 1.507 0.675 1.507 1.507v2.725c0 0.832-0.675 1.507-1.507 1.507h-17.883c-0.832 0-1.507-0.675-1.507-1.507v-2.725c0-0.832 0.675-1.507 1.507-1.507z"></path>
</svg>
