<!--
SPDX-FileCopyrightText: Copyright © 2018-Present, Takeshi Umeda <noellabo@fedibird.com>

SPDX-License-Identifier: LicenseRef-AllRightsReserved
-->
<svg version="1.1" xmlns="http://www.w3.org/2000/svg" width="32" height="32" viewBox="0 0 32 32">
<title>ds-fedibird</title>
<path d="M9.385 0.923h0.909c0.518 0 0.938 0.42 0.938 0.938v29.216c0 0.51-0.413 0.923-0.923 0.923s-0.923-0.413-0.923-0.923v-30.154z"></path>
<path d="M1.385 24v0c0-0.51 0.413-0.923 0.923-0.923h7.077c0.51 0 0.923 0.413 0.923 0.923v0c0 0.51-0.413 0.923-0.923 0.923h-7.077c-0.51 0-0.923-0.413-0.923-0.923z"></path>
<path d="M9.385 0.923v0c0-0.51 0.413-0.923 0.923-0.923h19.385c0.51 0 0.923 0.413 0.923 0.923v0c0 0.51-0.413 0.923-0.923 0.923h-19.385c-0.51 0-0.923-0.413-0.923-0.923z"></path>
<path d="M21.846 3.692c4.843 0 8.769 3.926 8.769 8.769s-3.926 8.769-8.769 8.769c-4.843 0-8.769-3.926-8.769-8.769s3.926-8.769 8.769-8.769zM21.923 5.384c-0.213 0-0.423 0.009-0.631 0.027 1.442 0.914 2.4 2.524 2.4 4.357 0 2.846-2.307 5.154-5.154 5.154-1.465 0-2.788-0.611-3.726-1.593 0.394 3.578 3.427 6.362 7.111 6.362 3.951 0 7.154-3.203 7.154-7.154s-3.203-7.154-7.154-7.154z"></path>
</svg>
