<!--
SPDX-FileCopyrightText: Copyright © 2020-Present, Bèr Kessels  <ber@berk.es>

SPDX-License-Identifier: LicenseRef-AllRightsReserved
-->
<svg version="1.1" xmlns="http://www.w3.org/2000/svg" width="32" height="32" viewBox="0 0 32 32">
<title>ds-flockingbird</title>
<path d="M32-0v32h-16.094l-15.906-15.906v-16.094h32zM25.781 19.25c-2.814 0-5.22 1.746-6.194 4.214-0.974-2.468-3.38-4.214-6.194-4.214-0.844 0-1.652 0.157-2.395 0.444 3.908 1.585 7.022 4.719 8.583 8.639l0.006 0.015 0.006-0.015c1.561-3.92 4.675-7.054 8.583-8.639-0.743-0.287-1.551-0.444-2.395-0.444zM13.49 12.16c-1.875 0-3.478 1.164-4.127 2.808-0.649-1.645-2.252-2.808-4.127-2.808-0.563 0-1.101 0.105-1.596 0.296 2.604 1.056 4.679 3.144 5.719 5.757l0.004 0.010 0.004-0.010c1.040-2.612 3.115-4.7 5.719-5.757-0.495-0.191-1.033-0.296-1.596-0.296zM23.33 12.848c-1.121 0-2.080 0.696-2.468 1.679-0.388-0.983-1.347-1.679-2.468-1.679-0.336 0-0.658 0.063-0.954 0.177 1.557 0.632 2.798 1.88 3.42 3.442l0.002 0.006 0.002-0.006c0.622-1.562 1.863-2.81 3.42-3.442-0.296-0.114-0.618-0.177-0.954-0.177zM19.349 6.535c-1.527 0-2.833 0.948-3.361 2.287-0.528-1.339-1.834-2.287-3.361-2.287-0.458 0-0.896 0.085-1.3 0.241 2.121 0.86 3.811 2.561 4.658 4.688l0.003 0.008 0.003-0.008c0.847-2.128 2.537-3.828 4.658-4.688-0.403-0.156-0.842-0.241-1.3-0.241zM27.261 3.41c-1.43 0-2.654 0.888-3.148 2.142-0.495-1.255-1.718-2.142-3.149-2.142-0.429 0-0.84 0.080-1.217 0.226 1.986 0.806 3.57 2.399 4.363 4.392l0.003 0.008 0.003-0.008c0.793-1.993 2.377-3.586 4.363-4.392-0.378-0.146-0.788-0.226-1.217-0.226z"></path>
</svg>
