<!--
SPDX-FileCopyrightText: Copyright © 2023, Forgejo Authors  <https://forgejo.org>

SPDX-License-Identifier: LicenseRef-AllRightsReserved
-->
<svg version="1.1" xmlns="http://www.w3.org/2000/svg" width="32" height="32" viewBox="0 0 32 32">
<title>ds-forgejo</title>
<path d="M22.187-0c-2.002 0-3.625 1.623-3.625 3.625s1.623 3.625 3.625 3.625c2.002 0 3.625-1.623 3.625-3.625s-1.623-3.625-3.625-3.625zM22.187 2.148c0.816 0 1.477 0.661 1.477 1.477s-0.661 1.477-1.477 1.477c-0.816 0-1.477-0.661-1.477-1.477s0.661-1.477 1.477-1.477z"></path>
<path d="M22.187 10c-2.002 0-3.625 1.623-3.625 3.625s1.623 3.625 3.625 3.625c2.002 0 3.625-1.623 3.625-3.625s-1.623-3.625-3.625-3.625zM22.187 12.148c0.816 0 1.477 0.661 1.477 1.477s-0.661 1.477-1.477 1.477c-0.816 0-1.477-0.661-1.477-1.477s0.661-1.477 1.477-1.477z"></path>
<path d="M9.812 24.75c-2.002 0-3.625 1.623-3.625 3.625s1.623 3.625 3.625 3.625c2.002 0 3.625-1.623 3.625-3.625s-1.623-3.625-3.625-3.625zM9.812 26.898c0.816 0 1.477 0.661 1.477 1.477s-0.661 1.477-1.477 1.477c-0.816 0-1.477-0.661-1.477-1.477s0.661-1.477 1.477-1.477z"></path>
<path d="M20.687 1.812v3.629h-3.104c-3.28 0-5.939 2.648-5.939 5.914v15.457h-3.644v-15.457c0-5.27 4.29-9.543 9.583-9.543h3.104z"></path>
<path d="M20.687 11.875v3.625h-3.104c-3.28 0-5.939 2.645-5.939 5.908v5.404h-3.644v-5.404c0-5.265 4.29-9.533 9.583-9.533h3.104z"></path>
</svg>
