<!--
SPDX-FileCopyrightText: Copyright © 2011-2023, Mike Macgirvin <mike@macgirvin.com>

SPDX-License-Identifier: CC0-1.0
-->
<svg version="1.1" xmlns="http://www.w3.org/2000/svg" width="32" height="32" viewBox="0 0 32 32">
<title>ds-friendica</title>
<path d="M7.49 2.851q-1.145 0-2.182 0.573t-1.687 1.547-0.743 2.12v0.031q-0.031 3.497-0.031 10.429v6.375q-0.124 1.238 0.418 2.398t1.563 1.919 2.29 0.851h0.031q3.466 0.031 10.429 0.031h6.375q1.238 0.124 2.398-0.418t1.919-1.563 0.851-2.29v-0.031q0.031-3.497 0.031-10.46v-6.406q0.124-1.269-0.464-2.445t-1.671-1.903-2.383-0.758h-17.145zM20.21 3.903h4.426q0.959 0 1.795 0.588t1.3 1.516 0.371 1.888v6.468q0 6.963-0.031 10.429-0.062 0.959-0.665 1.749t-1.516 1.207-1.872 0.325h-12.224v-6.313h8.418l-0.031-6.282-8.387 0.031v-5.323h8.418v-6.282z"></path>
</svg>
