<!--
SPDX-FileCopyrightText: Public Domain, 2019-Present, The Forgefed Team  <https://forgefed.org/>

SPDX-License-Identifier: CC0-1.0
-->
<svg version="1.1" xmlns="http://www.w3.org/2000/svg" width="32" height="32" viewBox="0 0 32 32">
<title>ds-forgefed</title>
<path d="M16-0.001l16 16v16h-32v-16l16-16zM16.028 6.048c-1.767 0-3.2 1.433-3.2 3.2 0 1.286 0.758 2.395 1.852 2.903l0 16.653-3.724-3.578c0.157-0.378 0.243-0.792 0.243-1.226 0-1.767-1.433-3.2-3.2-3.2s-3.2 1.433-3.2 3.2c0 1.767 1.433 3.2 3.2 3.2 0.488 0 0.95-0.109 1.364-0.304l5.317 5.104h2.639v-7.469l5.58-5.58c0.382 0.161 0.801 0.25 1.241 0.25 1.767 0 3.2-1.433 3.2-3.2s-1.433-3.2-3.2-3.2c-1.767 0-3.2 1.433-3.2 3.2 0 0.499 0.114 0.971 0.318 1.392l-3.939 3.939v-9.153c1.124-0.496 1.909-1.621 1.909-2.929 0-1.767-1.433-3.2-3.2-3.2z"></path>
</svg>
