<!--
SPDX-FileCopyrightText: Copyright © 2022-Present, forgefriends community  <contact@forgefriends.org>

SPDX-License-Identifier: CC0-1.0
-->
<svg version="1.1" xmlns="http://www.w3.org/2000/svg" width="32" height="32" viewBox="0 0 32 32">
<title>ds-forgefriends</title>
<path fill="#000" d="M5.33 1.751c-1.539-0.001-2.927 0.923-3.518 2.343-0.585 1.424-0.262 3.059 0.822 4.153 0.533 0.517 1.203 0.882 1.934 1.034v7.758c-0.491 0.093-0.957 0.284-1.371 0.563-1.261 0.865-1.882 2.399-1.576 3.896s1.48 2.666 2.979 2.967c1.5 0.301 3.035-0.323 3.897-1.585 0.418-0.626 0.641-1.362 0.64-2.114 0.006-0.523-0.097-1.041-0.305-1.521-0.478-1.165-1.506-2.015-2.742-2.267v-3.651c0.787 1.111 1.832 2.014 3.046 2.632 0.992 0.507 2.073 0.817 3.183 0.913 0.035 0.003 0.422 0.102 0.43 0 0.011-0.141-0.152-0.628-0.491-1.46-3.196-0.365-5.713-2.891-6.062-6.084 0.23-0.043 0.454-0.109 0.67-0.198 1.416-0.588 2.34-1.967 2.346-3.498 0.006-0.523-0.097-1.041-0.305-1.521-0.377-0.934-1.111-1.679-2.041-2.069-0.482-0.202-1.001-0.3-1.523-0.289h-0.015zM5.338 3.277c0.297-0.002 0.592 0.055 0.867 0.168 1.014 0.412 1.593 1.488 1.381 2.565s-1.155 1.852-2.249 1.847c-0.933 0.008-1.776-0.554-2.131-1.42-0.164-0.418-0.201-0.874-0.106-1.313 0.176-0.912 0.887-1.625 1.796-1.802 0.15-0.031 0.303-0.046 0.457-0.046h-0.015zM5.339 18.432c0.298-0.002 0.594 0.055 0.87 0.168 0.412 0.183 0.778 0.473 1.038 0.854 0.605 0.908 0.485 2.116-0.286 2.888s-1.98 0.891-2.887 0.286c-0.379-0.256-0.676-0.616-0.854-1.038-0.169-0.416-0.212-0.872-0.122-1.312 0.176-0.911 0.889-1.624 1.8-1.801 0.151-0.031 0.304-0.046 0.458-0.046h-0.015z"></path>
<path d="M16.029 12.081c0.206-0.008 0.406-0.003 0.599 0.015 0.034 0.003 0.084 0.010 0.15 0.019 0.053 0.011 0.106 0.021 0.158 0.034 1.165 0.289 2.128 1.116 2.585 2.231 0.207 0.48 0.311 0.998 0.305 1.521 0.001 0.753-0.222 1.488-0.64 2.114-0.862 1.262-2.397 1.886-3.897 1.585s-2.673-1.47-2.979-2.967c-0.306-1.497 0.314-3.032 1.576-3.896 0.414-0.279 0.88-0.47 1.371-0.563 0.171-0.032 0.382-0.078 0.773-0.094zM16.028 13.568c-1.265 0-2.29 1.025-2.29 2.29s1.025 2.29 2.29 2.29c1.265 0 2.29-1.025 2.29-2.29s-1.025-2.29-2.29-2.29z"></path>
<path d="M26.5 7.409c-1.198 0.059-2.297 0.68-2.967 1.675-0.418 0.627-0.64 1.363-0.639 2.117-0.011 0.522 0.087 1.041 0.289 1.523 0.477 1.166 1.505 2.017 2.739 2.269v3.654c-0.786-1.112-1.831-2.016-3.043-2.634-0.986-0.506-2.061-0.816-3.165-0.914-0.517 0.112-0.961 0.659-0.921 1.009 0.026 0.231 0.354 0.382 0.982 0.453 3.199 0.359 5.721 2.889 6.072 6.091-0.229 0.043-0.454 0.109-0.67 0.198-1.426 0.586-2.357 1.975-2.359 3.517-0.011 0.522 0.087 1.041 0.289 1.523 0.383 0.932 1.123 1.672 2.054 2.056 0.48 0.207 0.999 0.311 1.522 0.305 1.536-0.008 2.916-0.939 3.5-2.36 0.589-1.422 0.271-3.059-0.806-4.157-0.532-0.523-1.203-0.882-1.933-1.035v-7.766c0.485-0.095 0.945-0.286 1.354-0.563 1.416-0.955 2.022-2.737 1.483-4.358s-2.091-2.685-3.797-2.601h0.015zM26.808 8.933c0.419 0.017 0.826 0.149 1.175 0.382 0.379 0.256 0.676 0.617 0.855 1.038 0.169 0.416 0.212 0.873 0.122 1.313-0.176 0.912-0.889 1.625-1.801 1.801-0.44 0.090-0.897 0.047-1.312-0.122-0.421-0.179-0.782-0.475-1.038-0.855-0.475-0.714-0.511-1.634-0.093-2.384s1.22-1.202 2.077-1.173h0.015zM26.72 24.143c0.928-0.002 1.765 0.56 2.118 1.42 0.169 0.416 0.211 0.873 0.122 1.313-0.176 0.912-0.888 1.625-1.798 1.802-0.439 0.090-0.895 0.047-1.31-0.122-1.015-0.412-1.595-1.488-1.383-2.565s1.156-1.852 2.252-1.847z"></path>
</svg>
