<!--
SPDX-FileCopyrightText: Copyright © 2019-Present, The Funkwhale Collective  <maintainers@funkwhale.audio>

SPDX-License-Identifier: LicenseRef-AllRightsReserved
-->
<!-- Logo Design by Francis Gading -->
<svg version="1.1" xmlns="http://www.w3.org/2000/svg" width="32" height="32" viewBox="0 0 32 32">
<title>ds-funkwhale</title>
<path d="M16 19.861c2.957 0 5.362-2.405 5.362-5.362 0-0.15-0.134-0.284-0.284-0.284h-2.021c-0.15 0-0.284 0.134-0.284 0.284 0 1.52-1.236 2.773-2.773 2.773-1.52 0-2.773-1.236-2.773-2.773 0-0.15-0.134-0.284-0.284-0.284h-2.021c-0.15 0-0.284 0.134-0.284 0.284 0 2.973 2.405 5.362 5.362 5.362z"></path>
<path d="M16 24.922c5.729 0 10.406-4.677 10.406-10.406 0-0.15-0.134-0.284-0.284-0.284h-2.021c-0.15 0-0.284 0.134-0.284 0.284 0 4.326-3.508 7.834-7.834 7.834s-7.834-3.508-7.834-7.834c0-0.15-0.134-0.284-0.284-0.284h-1.988c-0.15 0-0.284 0.134-0.284 0.284-0.033 5.729 4.644 10.406 10.406 10.406z"></path>
<path d="M31.2 14.232h-2.021c-0.15 0-0.284 0.134-0.284 0.284 0 7.116-5.813 12.912-12.912 12.912-7.116 0-12.912-5.779-12.912-12.912 0-0.15-0.134-0.284-0.284-0.284h-1.988c-0.15 0-0.284 0.134-0.284 0.284 0 8.535 6.949 15.484 15.484 15.484s15.484-6.948 15.484-15.484c0-0.15-0.134-0.284-0.284-0.284z"></path>
<path d="M9.035 7.534c1.036 0.535 2.155 0.635 3.157 1.219 0.652 0.384 1.069 0.802 1.47 1.436 0.635 0.952 0.601 2.155 0.601 2.155l0.083 1.32c0 0 0.501 1.32 1.62 1.32 1.186 0 1.62-1.32 1.62-1.32l0.083-1.32c0 0-0.033-1.186 0.601-2.155 0.401-0.635 0.802-1.086 1.47-1.436 1.002-0.585 2.121-0.685 3.157-1.219s2.038-1.219 2.723-2.171c0.685-0.952 1.002-2.222 0.635-3.341-1.971-0.1-4.243 0.134-5.98 1.069-2.422 1.286-3.892 0.835-4.326 2.756h-0.033c-0.434-1.938-1.887-1.47-4.326-2.756-1.737-0.935-4.009-1.169-5.98-1.069-0.384 1.119-0.050 2.372 0.635 3.341 0.735 0.969 1.754 1.654 2.789 2.171z"></path>
</svg>
