<!--
SPDX-FileCopyrightText: Copyright © 2023-Present, GotoSocial project
<https://gotosocial.org/>

SPDX-License-Identifier: CC-BY-SA-4.0
-->

<!-- Logo designed by Anna Abramek -->
<svg version="1.1" xmlns="http://www.w3.org/2000/svg" width="32" height="32" viewBox="0 0 32 32">
<title>ds-gotosocial</title>
<path d="M30.15 9.013q-0.786 0.396-1.481 0.597c-0.917 0.265-1.852 0.132-2.749 0.103q-0.058-0.002-0.015 0.037c0.914 0.831 2.195 1.22 3.403 1.314 1.276 2.355 1.415 5.127 1.409 7.741q0 0.031 0.024 0.051c1.466 1.257 1.725 3.276 0.381 4.758-1.566-0.009-2.721-0.727-3.541-2.032q0.385-0.917 0.601-1.938 0.419-2.221-0.059-4.44-0.006-0.030-0.058-0.077 0.010-0.003 0.015-0.004 0.008-0.002 0.006-0.009-0.335-1.515-1.251-2.723c-1.455-1.919-4.008-2.588-6.304-2.217-1.173 0.189-2.225 0.579-3.321 0.921-0.667 0.209-1.324 0.198-1.994-0.017-1.545-0.497-2.621-0.891-4.014-0.998q0.012-0.004 0.024-0.008-0.792-0.475-1.239-0.899c-1.938-1.835 0.794-2.926 2.137-3.373 0.008-0.002 0.013-0.009 0.013-0.017 0-0.010-0.008-0.018-0.018-0.018v0c-1.519-0.116-3.040-0.862-3.711-2.271 0.969-1.291 3.098-0.556 4.11 0.219q0.048 0.037 0.070-0.020c0.406-1.024 1.661-2.394 2.898-1.732 0.513 0.274 0.742 0.844 0.754 1.41 0 0 0 0 0 0 0 0.020 0.017 0.036 0.038 0.036v0q2.541-0.056 4.879 0.846c2.192 0.845 4.076 2.382 6.483 2.761 0.289 0.046 0.695 0.050 1.022 0.118q0.812 0.169 1.237 0.799 0.328 0.489 0.25 1.084z"></path>
<path d="M8.409 3.493c0.671 1.41 2.192 2.155 3.711 2.271 0.010 0 0.018 0.008 0.018 0.018 0 0.008-0.006 0.015-0.013 0.017h-0c-1.342 0.447-4.075 1.538-2.137 3.373q0.447 0.424 1.239 0.899c-3.411-0.176-6.026 1.641-6.829 5.012q-0.004 0.019 0 0.037 0.003 0.014 0 0.036-0.503 2.216-0.083 4.501 0.471 2.386 2.012 4.249c3.027 3.658 8.19 4.778 12.68 3.982 3.632-0.644 7-2.741 8.543-6.207q0.010-0.024 0.009-0.052 0.009-0.001 0.024-0.047c0.82 1.305 1.974 2.023 3.541 2.032 0.116 1.11 0.121 3.004-0.95 3.712-0.881 0.582-1.914 0.022-2.221-0.885-0.006-0.016-0.021-0.027-0.038-0.027-0.013 0-0.025 0.006-0.033 0.016l-0 0c-0.593 0.808-1.721 1.8-2.787 1.143-0.017-0.010-0.037-0.010-0.053 0.001l-0 0c-3.111 2.123-6.98 2.943-10.703 2.541q-3.759-0.407-6.967-2.544c-0.008-0.005-0.017-0.008-0.027-0.008s-0.019 0.003-0.027 0.008l0-0c-1.167 0.745-2.334 0.324-3.056-0.759q-0.021-0.031-0.048-0.005c-0.484 0.477-1.128 1.058-1.856 0.996-0.573-0.048-0.943-0.529-1.12-1.056q-0.365-1.090 0.001-2.171c0.002-0.006 0.003-0.013 0.003-0.020 0-0.025-0.014-0.046-0.034-0.057l-0-0c-1.3-0.7-1.442-2.002-0.934-3.291 0.344-0.869 0.841-1.608 1.419-2.336 0.013-0.016 0.019-0.036 0.016-0.056l-0-0.001c-0.508-3.812 0.847-7.785 3.432-10.606 1.129-1.232 2.551-2.206 4.18-2.624 0.017-0.004 0.029-0.019 0.029-0.037 0-0.014-0.007-0.026-0.018-0.033l-0-0c-0.656-0.403-1.379-1.213-0.921-2.024z"></path>
<path d="M30.15 9.013c-0.037 0.63-0.538 1.257-1.030 1.628-0.015 0.012-0.020 0.032-0.011 0.049l0 0 0.199 0.374c-1.207-0.094-2.489-0.483-3.403-1.314q-0.043-0.039 0.015-0.037c0.896 0.029 1.831 0.162 2.749-0.103q0.696-0.201 1.481-0.597z"></path>
<path d="M7.711 20.294q-0.032 0.007-0.046-0.006c-1.364-1.781-1.962-4.039-1.44-6.232l0.038-0.033c2.792-1.103 6.781-1.022 7.925 2.41 0.332 0.996 0.022 2.138-0.772 2.835q-0.47 0.411-0.996 0.579c-1.47 0.467-3.185 0.589-4.708 0.447zM8.605 18.123c0.482 0.292 0.797 0.042 0.996-0.387 0.338-0.729 1.257-0.924 1.843-0.356 0.244 0.237 0.307 0.683 0.628 0.827q0.383 0.172 0.658-0.17c0.235-0.292 0.214-0.724 0.071-1.078-0.402-0.998-1.382-1.62-2.455-1.462-0.93 0.137-1.886 0.893-1.996 1.88-0.031 0.279 0.019 0.602 0.256 0.745z"></path>
<path d="M28.066 15.127q0.052 0.047 0.058 0.077 0.479 2.219 0.059 4.44c-0.765 0.175-1.699 0.381-2.297 0.491-1.785 0.329-3.866 0.309-5.617-0.227-1.621-0.496-2.457-1.952-1.917-3.592 0.576-1.748 2.282-2.798 4.060-2.896q1.361-0.075 2.688 0.24c1.116 0.265 2.048 0.796 2.965 1.466zM20.155 18.239c0.429 0.050 0.605-0.422 0.782-0.733 0.113-0.197 0.38-0.358 0.609-0.414q0.713-0.175 1.207 0.41c0.125 0.147 0.195 0.428 0.342 0.574 0.28 0.279 0.817 0.192 0.988-0.157q0.104-0.211 0.059-0.541c-0.19-1.376-1.794-2.239-3.060-1.783q-0.723 0.26-1.181 0.937c-0.299 0.443-0.6 1.606 0.254 1.707z"></path>
<path d="M6.224 14.056c-0.522 2.194 0.076 4.451 1.44 6.232-1.129-0.122-2.233-0.394-3.35-0.631q-0.42-2.285 0.083-4.501 0.865-0.649 1.827-1.101z"></path>
<path d="M15.225 19.935c-0.387-0.285-0.399-0.895 0.167-0.978 0.419-0.062 1.653-0.155 2.003 0.118 0.294 0.229 0.143 0.665-0.127 0.859-0.525 0.374-1.529 0.38-2.043 0.001z"></path>
<path d="M13.917 22.060c-0.25-0.183-0.362-0.6 0.031-0.69 0.237-0.054 0.583 0.149 0.818 0.181q0.883 0.12 1.46-0.521 0.022-0.024 0.043-0.001 0.648 0.701 1.575 0.5c0.122-0.027 0.514-0.223 0.719-0.157 0.181 0.059 0.286 0.227 0.233 0.412-0.096 0.333-0.657 0.546-0.965 0.586q-0.843 0.109-1.555-0.338-0.027-0.017-0.053 0c-0.685 0.428-1.616 0.533-2.307 0.027z"></path>
</svg>
