<!--
SPDX-FileCopyrightText: 2013 to Present, The Ghost Foundation <https://ghost.org/z>

SPDX-License-Identifier: LicenseRef-AllRightsReserved
-->

<svg version="1.1" xmlns="http://www.w3.org/2000/svg" width="1073" height="1024" viewBox="0 0 1073 1024">
<title></title>
<g id="icomoon-ignore">
</g>
<path fill="#000" d="M463.477 28.372c-17.383 4.661-35.038 9.958-52.966 15.89-46.324 20.529-92.228 41.716-137.71 63.559-91.707 65.048-144.085 153.912-157.131 266.593-69.029 67.054-99.631 148.268-91.807 243.641 20.009 47.079 40.018 94.162 60.028 141.241 24.717 31.779 49.434 63.559 74.152 95.338 11.896 10.388 24.255 20.395 37.076 30.014 60.134 30.635 123.692 50.646 190.676 60.028 24.661 18.803 51.733 32.927 81.214 42.372 48.386 1.084 96.644 4.025 144.772 8.828 54.47-5.395 107.435-17.754 158.897-37.076 36.37-14.64 69.325-34.65 98.869-60.028 67.227-51.994 110.189-119.674 128.883-203.034 46.38-58.414 61.68-124.328 45.903-197.738-32.161-121.457-90.423-227.976-174.786-319.559-54.728-39.741-112.4-75.051-173.021-105.931-51.249-10.351-101.86-23.298-151.834-38.841-26.882-4.455-53.954-6.22-81.214-5.297zM463.477 67.213c13.001-0.584 25.946 0.005 38.841 1.766-84.134 14.772-158.285 50.082-222.455 105.931-20.664 25.961-44.204 48.913-70.621 68.855-1.177-1.766-2.354-3.531-3.531-5.297 51.851-109.022 137.772-166.107 257.766-171.255zM467.008 84.868c5.999-0.566 11.885 0.023 17.655 1.766-25.321 6.779-48.862 17.372-70.621 31.779-26.903 18.658-52.796 38.668-77.683 60.028-18.216 8.517-35.871 17.933-52.966 28.248-4.008 2.646-7.539 2.058-10.593-1.766 55.397-55.347 120.133-95.365 194.207-120.055zM569.408 155.489c208.642-7.321 337.525 90.371 386.648 293.076 9.83 62.376 5.12 123.579-14.124 183.614-64.996 87.471-145.62 156.326-241.876 206.566-46.867 15.957-94.536 28.315-143.007 37.076-69.191-12.616-138.046-27.327-206.566-44.138-32.353-11.133-58.836-30.554-79.448-58.262-36.789-53.545-70.923-108.865-102.4-165.959-30.375-63.827-42.146-130.917-35.31-201.269 6.165-13.513 13.227-26.458 21.186-38.841 38.19-37.002 77.62-72.901 118.29-107.697 46.224-24.29 93.304-46.653 141.241-67.090 51.44-15.808 103.23-28.166 155.366-37.076zM82.125 455.627c2.285 2.733 3.462 6.264 3.531 10.593-22.364 94.649-2.354 178.805 60.028 252.469 3.347 1.705 6.878 2.292 10.593 1.766-1.814-7.104-2.403-14.167-1.766-21.186 7.8 6.614 14.273 14.265 19.421 22.952 34.238 24.191 67.195 50.084 98.869 77.683 16.050 24.438 30.762 49.745 44.138 75.917 10.522 13.467 21.704 26.416 33.545 38.841-60.241-2.429-115.56-20.671-165.959-54.731-14.713-10.003-27.071-22.362-37.076-37.076-27.363-46.493-55.611-92.397-84.745-137.71-8.264-14.198-12.972-29.498-14.124-45.903-2.354-28.248-2.354-56.497 0-84.745 8.045-34.142 19.227-67.1 33.545-98.869zM103.312 483.875c6.826 36.115 14.477 72.602 22.952 109.462 11.094 30.321 22.864 59.745 35.31 88.276-33.268-42.288-52.101-90.543-56.497-144.772-1.763-17.616-2.351-35.272-1.766-52.966zM894.263 716.923c3.619 1.402 4.209 3.753 1.766 7.062-75.483 123.699-186.124 188.437-331.917 194.207-42.962-1.716-85.924-3.482-128.883-5.297-23.397-17.503-45.762-36.338-67.090-56.497 29.572-2.606 58.997-1.43 88.276 3.531 30.459 6.289 60.472 13.941 90.041 22.952 110.814-9.848 210.273-48.1 298.372-114.759 17.196-16.603 33.675-33.668 49.434-51.2z"></path>
</svg>
