<!--
SPDX-FileCopyrightText: Copyright © 2016-Present, GNU Social project

SPDX-License-Identifier: CC0-1.0
-->
<!-- Original logo designed by Jonas Laugs, with lettering by Steven DuBois  -->
<svg version="1.1" xmlns="http://www.w3.org/2000/svg" width="32" height="32" viewBox="0 0 32 32">
<title>ds-gnusocial</title>
<path d="M19.479 25.471q0.020-0.242-0.222-0.242-5.699-0.003-11.46 0c-3.413 0-5.023-1.626-5.026-5.036q-0.010-7.469 0-14.935c0.003-3.498 1.421-5.261 5-5.258q9.621 0 19.239 0c3.73 0 4.984 1.976 4.984 5.464q0.003 7.031 0.007 14.053c0.003 4.67-1.799 5.856-6.342 5.705-0.002-0-0.005-0-0.008-0-0.102 0-0.188 0.068-0.214 0.162l-0 0.002c-1.372 4.902-7.58 6.434-11.973 6.613-0.047 0-0.085-0.038-0.085-0.085 0-0.035 0.021-0.065 0.052-0.078l0.001-0c2.802-1.009 5.813-3.142 6.048-6.365zM17.173 7.493c-0.274-1.12-1.839-0.79-2.391-0.111q-0.091 0.114-0.232 0.163-0.96 0.34-1.715-0.229-0.137-0.104-0.16-0.274-0.222-1.77 0.594-3.308c0.019-0.034 0.030-0.075 0.030-0.118 0-0.139-0.113-0.251-0.251-0.251-0.048 0-0.094 0.014-0.132 0.037l0.001-0.001c-2.237 1.365-2.903 4.001-0.852 5.973q0.131 0.127 0.013 0.265-1.303 1.492-1.381 3.511c-0.189 4.798 1.737 8.553 7.015 8.707 4.38 0.127 6.398-2.619 6.538-6.737q0.007-0.176-0.17-0.176h-5.425q-0.235 0-0.154 0.219l0.826 2.211c0.039 0.102 0.141 0.167 0.25 0.16l0.001-0 1.362-0.078q0.265-0.016 0.176 0.235c-0.663 1.907-2.903 1.884-4.533 1.466-2.952-0.754-2.89-4.474-2.534-6.819q0.219-1.43 1.613-1.728c2.355-0.5 4.899-0.34 5.81 2.312q0.049 0.14 0.199 0.14l2.387 0.003q0.203 0 0.163-0.196-0.389-1.822-1.613-3.214-0.124-0.14 0.020-0.258c1.267-1.074 1.476-2.727 0.712-4.174-0.167-0.314-1.368-1.973-1.813-1.819-0.107 0.039-0.182 0.14-0.182 0.258 0 0.052 0.014 0.1 0.039 0.141l-0.001-0.001c0.477 0.797 1.143 3.204 0.216 3.674q-1.172 0.598-2.015-0.402-0.108-0.127-0.265-0.183-1.316-0.47-1.956 0.627-0.131 0.229-0.193-0.026z"></path>
</svg>
