<!--
SPDX-FileCopyrightText: Copyright © 2018-Present, Cisti.org <info@cisti.org>

SPDX-License-Identifier: AGPL-3.0-only
-->
<svg version="1.1" xmlns="http://www.w3.org/2000/svg" width="32" height="32" viewBox="0 0 32 32">
<title>ds-gancio</title>
<path d="M12.49-0h2.681l13.822 1.33c0.036 0.006 0.068 0.021 0.095 0.045l0.001 0.001q0.353 0.316-0.012 0.357-4.389 0.515-8.773 1.056c-2.369 0.291-4.202 1.384-6.184 2.564-0.053 0.030-0.116 0.043-0.182 0.032-0.149-0.025-0.251-0.165-0.226-0.312 0.011-0.065 0.045-0.121 0.092-0.161l-0 0 2.115-1.783c0.036-0.030 0.059-0.075 0.059-0.125 0-0.087-0.068-0.158-0.154-0.162h-0c-4.867-0.349-9.878 1.301-11.15 6.512-1.895 7.763 0.253 15.78 8.507 18.556q0.179 0.058 0.175 0.245l-0.046 2.423q-0.004 0.204-0.199 0.154-9.903-2.572-12.060-12.123c-1.546-6.824-0.004-16.145 7.896-18.045q1.513-0.362 3.545-0.565zM3.704 5.377q-0.262 0.453-0.27 0.889c-0.001 0.020 0.003 0.041 0.014 0.060 0.030 0.052 0.098 0.068 0.151 0.037 0.019-0.011 0.033-0.026 0.043-0.044l-0 0c1.662-3.021 4.538-4.114 7.776-4.526 0.092-0.019 0.16-0.099 0.16-0.196 0-0.107-0.084-0.194-0.189-0.199l-0.001-0q-5.44 0.054-7.684 3.977z"></path>
<path d="M20.303 32h-1.837l-3.233-0.544c-0.339-0.058-0.594-0.35-0.594-0.701 0-0 0-0.001 0-0.001v0-2.178c0-0 0-0.001 0-0.001 0-0.257 0.208-0.465 0.465-0.465 0.010 0 0.020 0 0.030 0.001l-0.001-0q4.53 0.278 8.977-0.549c0.495-0.092 0.853-0.525 0.852-1.027l-0-0.004c-0.004-1.463 0.058-3.902-2.111-3.84q-5.203 0.158-7.576 0.578c-2.423 0.424-4.272-0.303-4.613-2.851-0.353-2.643-1.076-10.988 0.636-13.004 1.513-1.791 6.587-1.338 8.707-1.139 3.599 0.332 5.93 0.432 8.935 0.524 0.005 0 0.011 0 0.017 0 0.2-0.002 0.36-0.164 0.358-0.361-0-0.006-0-0.012-0.001-0.018l0 0.001c-0.050-0.885-1.409 0.075-1.529-0.839q-0.025-0.195 0.166-0.229c4.098-0.761 3.582 3.682 3.441 6.591q-0.362 7.514 0.083 15.023 0.012 0.216-0.121 0.391c-2.061 2.71-7.784 4.364-11.050 4.642zM23.727 15.247c-0.013-0.173-0.157-0.308-0.332-0.308-0.009 0-0.017 0-0.026 0.001l0.001-0-3.871 0.284c-0.173 0.013-0.308 0.157-0.308 0.332 0 0.009 0 0.017 0.001 0.025l-0-0.001 0.228 3.109c0.013 0.173 0.157 0.308 0.332 0.308 0.009 0 0.017-0 0.026-0.001l-0.001 0 3.871-0.284c0.173-0.013 0.308-0.157 0.308-0.332 0-0.009-0-0.017-0.001-0.026l0 0.001-0.228-3.108z"></path>
</svg>
