<!--
SPDX-FileCopyrightText: 2018 to Present, The Guppe Project <https://ghost.org/z>

SPDX-License-Identifier: LicenseRef-AllRightsReserved
-->
<svg version="1.1" xmlns="http://www.w3.org/2000/svg" width="32" height="32" viewBox="0 0 32 32">
<title>ds-guppe</title>
<path d="M30.952 6.531c0.058 0.001 0.107 0.043 0.164 0.052 0.116 0.016 0.251-0.023 0.362 0.024 0.050 0.021 0.066 0.073 0.111 0.1 0.088 0.056 0.232 0.061 0.164 0.216-0.036 0.082-0.14 0.153-0.21 0.205s-0.127 0.108-0.204 0.147v0.041l0.081 0.020c0 0.097 0.015 0.209-0.011 0.303-0.040 0.138-0.137 0.225-0.113 0.385 0.006 0.038 0.028 0.068 0.053 0.096l0.021 0.024c0.021 0.024 0.041 0.050 0.051 0.082h0.122c0.013 0.12 0.015 0.235-0.122 0.263 0 0.058 0.014 0.14-0.021 0.192-0.025 0.037-0.069 0.052-0.090 0.095-0.028 0.060-0.019 0.132-0.043 0.194-0.052 0.134-0.112 0.222-0.131 0.371-0.145 0.080-0.069 0.275-0.053 0.405 0.012 0.099-0.035 0.205-0.045 0.304-0.010 0.107 0.022 0.201 0.037 0.304h0.081c0.002 0.088 0.023 0.176 0.003 0.263-0.014 0.064-0.071 0.12-0.074 0.184s0.044 0.121 0.059 0.181 0.003 0.123 0.020 0.182c0.027 0.092 0.148 0.193 0.235 0.224v0.081c-0.061 0.030-0.082 0.056-0.101 0.121-0.112 0.017-0.137 0.124-0.243 0.142-0.015 0.094-0.046 0.131-0.142 0.142-0.030 0.1-0.1 0.092-0.178 0.144-0.12 0.080-0.201 0.2-0.208 0.343-0.215 0.065-0.064 0.387-0.155 0.539-0.073 0.121-0.13 0.264-0.178 0.397-0.021 0.057-0.005 0.12-0.036 0.176-0.062 0.113-0.195 0.225-0.232 0.349-0.025 0.089-0.004 0.191-0.015 0.283-0.021 0.181-0.073 0.353-0.127 0.526-0.045 0.142-0.222 0.197-0.253 0.345-0.112 0.041-0.093 0.127-0.147 0.218-0.044 0.073-0.11 0.111-0.087 0.208 0.007 0.030 0.022 0.064 0.039 0.101l0.009 0.018c0.059 0.126 0.126 0.27-0.057 0.327v0.142c-0.108 0.018-0.117 0.124-0.223 0.142-0.009 0.061-0.021 0.124-0.049 0.18-0.030 0.057-0.082 0.095-0.081 0.166 0.002 0.077 0.056 0.133 0.078 0.203 0.034 0.11 0.034 0.23 0.032 0.344-0.002 0.058-0.004 0.124-0.030 0.177-0.036 0.073-0.089 0.098-0.091 0.187-0.002 0.106 0.065 0.186 0.072 0.283 0.008 0.12-0.233 0.296-0.335 0.304-0.028 0.179-0.178 0.107-0.303 0.154-0.069 0.026-0.158 0.104-0.211 0.157-0.11 0.112-0.095 0.232-0.095 0.378l0 0.517c0 0.007 0 0.014 0 0.022l0 0.022c-0.001 0.116-0.011 0.248-0.142 0.27-0.003 0.094-0.068 0.156-0.074 0.243-0.006 0.083 0.052 0.158 0.054 0.243 0.002 0.113-0.051 0.2-0.084 0.304-0.017 0.052-0.011 0.108-0.028 0.159-0.034 0.106-0.154 0.159-0.208 0.251-0.049 0.084-0.044 0.206-0.044 0.3-0.135 0.068-0.132 0.309-0.116 0.446 0.013 0.111-0.005 0.237 0.021 0.344 0.017 0.074 0.072 0.127 0.086 0.203 0.019 0.099 0.013 0.208 0.038 0.303 0.019 0.073 0.077 0.126 0.090 0.203 0.012 0.075 0.026 0.169 0.009 0.243-0.024 0.099-0.127 0.176-0.006 0.243 0.016 0.119 0.084 0.198 0.116 0.307 0.032 0.108 0.010 0.212 0.005 0.321-0.1-0.016-0.227-0.116-0.305-0.183-0.020 0.041-0.055 0.091-0.045 0.139 0.010 0.045 0.056 0.062 0.082 0.095 0.044 0.055 0.077 0.122 0.12 0.178 0.109 0.144 0.214 0.338 0.227 0.521-0.134 0.025-0.272-0.001-0.385 0.081 0.043 0.046 0.097 0.15 0.014 0.191-0.040 0.019-0.089 0.006-0.13 0.023-0.073 0.029-0.029 0.084 0.015 0.111l0.020 0.203c-0.090 0.018-0.198 0.024-0.282 0.058-0.054 0.022-0.087 0.071-0.146 0.080-0.177 0.029-0.367 0.001-0.546 0.023 0 0.056 0.009 0.125-0.015 0.178-0.029 0.064-0.11 0.078-0.167 0.105-0.248 0.116-0.421 0.002-0.67-0.018-0.096-0.008-0.169 0.064-0.264 0.054-0.092-0.010-0.17-0.067-0.264-0.076-0.040-0.134-0.133-0.095-0.24-0.133-0.024-0.009-0.045-0.023-0.066-0.038l-0.031-0.023c-0.016-0.011-0.032-0.022-0.049-0.030-0.074-0.034-0.164-0.037-0.243-0.039-0.060-0.103-0.191-0.11-0.243 0-0.082 0-0.182 0.015-0.26-0.011-0.054-0.018-0.094-0.064-0.149-0.081-0.057-0.018-0.12-0.015-0.174-0.043-0.041-0.021-0.069-0.058-0.11-0.078s-0.091-0.019-0.132-0.041c-0.14-0.071-0.27-0.215-0.432-0.233-0.015-0.090-0.053-0.115-0.142-0.122-0.030-0.096-0.099-0.105-0.174-0.161-0.082-0.062-0.157-0.171-0.254-0.21-0.113-0.045-0.263 0.005-0.384-0.015-0.168-0.028-0.384-0.161-0.517-0.266-0.075-0.059-0.126-0.14-0.187-0.21-0.132-0.149-0.281-0.287-0.425-0.425-0.084-0.081-0.174-0.216-0.292-0.234-0.021-0.073-0.049-0.101-0.122-0.122-0.017-0.084-0.066-0.107-0.116-0.171-0.081-0.103-0.139-0.278-0.269-0.316-0.008-0.104-0.067-0.11-0.113-0.189-0.026-0.046-0.026-0.105-0.029-0.156-0.204-0.045-0.171-0.353-0.345-0.405-0.011-0.095-0.060-0.129-0.11-0.204-0.023-0.035-0.029-0.079-0.053-0.114-0.021-0.031-0.043-0.061-0.066-0.090l-0.023-0.029c-0.076-0.098-0.15-0.197-0.154-0.332-0.104-0.017-0.089-0.078-0.131-0.159-0.028-0.055-0.077-0.11-0.112-0.162-0.086-0.127-0.18-0.255-0.264-0.383-0.024-0.036-0.067-0.054-0.088-0.093-0.023-0.041-0.023-0.090-0.044-0.132-0.058-0.119-0.11-0.164-0.111-0.309h-0.101c-0.003-0.066-0.006-0.14-0.040-0.198-0.023-0.040-0.061-0.066-0.079-0.11s-0.016-0.093-0.035-0.135c-0.008-0.017-0.017-0.033-0.028-0.048l-0.022-0.030c-0.014-0.020-0.027-0.041-0.035-0.066-0.019-0.065-0.014-0.138-0.041-0.201-0.022-0.052-0.073-0.080-0.095-0.13-0.024-0.054-0.004-0.117-0.024-0.173-0.021-0.057-0.071-0.097-0.095-0.153-0.029-0.067-0.022-0.143-0.047-0.211-0.019-0.052-0.057-0.093-0.074-0.146-0.086-0.263-0.123-0.546-0.24-0.796-0.038-0.082-0.024-0.19-0.045-0.278s-0.080-0.158-0.106-0.243c-0.018-0.058-0.010-0.124-0.061-0.167-0.122-0.104-0.322-0.016-0.458-0.075-0.22-0.096-0.44-0.165-0.668-0.238-0.055-0.018-0.091-0.066-0.146-0.081-0.084-0.023-0.176-0.013-0.26-0.038-0.081-0.024-0.14-0.087-0.225-0.104-0.093-0.018-0.19 0.001-0.284-0.011-0.048-0.006-0.091-0.024-0.133-0.045l-0.042-0.020c-0.035-0.017-0.071-0.033-0.11-0.041-0.227-0.048-0.479-0.034-0.71-0.033-0.096 0-0.299-0.014-0.379 0.041-0.128 0.088 0.077 0.201 0.077 0.283-0 0.050-0.041 0.068-0.084 0.084l-0.020 0.008c-0.043 0.017-0.082 0.037-0.081 0.091 0.005 0.152 0.217 0.184 0.195 0.364-0.022 0.174-0.246 0.217-0.317 0.365 0.113 0.073 0.053 0.16-0.005 0.242l-0.011 0.015c-0.021 0.031-0.041 0.061-0.049 0.089-0.016 0.054 0.003 0.125 0.005 0.181 0.093 0.007 0.1 0.053 0.169 0.103 0.050 0.036 0.101 0.052 0.143 0.102 0.025 0.032 0.079 0.101 0.037 0.14-0.053 0.050-0.123-0.051-0.167-0.068-0.135-0.052-0.184 0.043-0.221 0.15-0.081-0.030-0.11-0.103-0.183-0.142v0.203c0.058 0.019 0.124 0.112 0.034 0.148-0.060 0.024-0.217 0.002-0.278-0.018-0.066-0.021-0.116-0.074-0.183-0.096-0.057-0.019-0.123-0.005-0.178-0.029-0.049-0.021-0.079-0.071-0.128-0.093-0.063-0.029-0.135-0.023-0.201-0.045-0.080-0.028-0.164-0.079-0.243-0.113-0.052-0.023-0.093-0.063-0.145-0.084-0.056-0.024-0.12-0.025-0.176-0.051-0.046-0.022-0.077-0.062-0.128-0.076-0.105-0.029-0.218 0.006-0.322-0.032-0.058-0.021-0.092-0.069-0.145-0.098-0.085-0.047-0.15-0.037-0.181-0.142h-0.122c-0.017-0.081-0.084-0.134-0.153-0.185l-0.026-0.019c-0.026-0.018-0.052-0.037-0.074-0.057-0.084-0.075-0.163-0.163-0.24-0.243-0.036-0.037-0.048-0.090-0.098-0.112-0.123-0.053-0.23-0.008-0.335 0.041l-0.029 0.014c-0.033 0.016-0.067 0.032-0.1 0.043-0.101 0.037-0.219 0.032-0.325 0.032-0.041 0.125-0.214 0.105-0.325 0.123-0.107 0.018-0.199 0.073-0.305 0.091-0.186 0.032-0.381 0.018-0.568 0.032-0.242 0.017-0.487 0.059-0.731 0.059-0.13 0-0.259-0.013-0.388-0.026l-0.129-0.014c-0.064-0.007-0.129-0.014-0.193-0.018-0.182-0.013-0.368 0.001-0.548-0.032-0.080-0.014-0.145-0.062-0.224-0.080-0.098-0.022-0.208-0.015-0.302-0.045-0.055-0.017-0.088-0.069-0.146-0.084-0.079-0.020-0.163-0.005-0.24-0.041-0.048-0.022-0.077-0.069-0.127-0.090-0.064-0.026-0.136-0.013-0.201-0.040-0.099-0.042-0.204-0.085-0.301-0.13-0.107-0.050-0.162-0.106-0.287-0.111-0.043-0.143-0.277-0.137-0.406-0.142v-0.061c-0.287-0.001-0.622-0.001-0.878-0.124-0.104-0.050-0.215-0.022-0.238-0.161h-0.142v-0.101c-0.14-0.028-0.247-0.15-0.353-0.239-0.059-0.049-0.1-0.067-0.113-0.146-0.102-0.005-0.14-0.055-0.224-0.103-0.136-0.077-0.249-0.152-0.405-0.181-0.033-0.107-0.112-0.086-0.194-0.139-0.163-0.104-0.337-0.191-0.499-0.297-0.094-0.061-0.189-0.041-0.2-0.172h-0.142v-0.101c-0.165-0.033-0.279-0.191-0.371-0.322-0.029-0.042-0.075-0.075-0.090-0.126-0.017-0.062-0.006-0.137-0.006-0.2h0.223c-0.002-0.094-0.057-0.252 0.001-0.335 0.042-0.061 0.139-0.047 0.201-0.075 0.043-0.020 0.079-0.054 0.125-0.067 0.072-0.020 0.149-0.008 0.221-0.032 0.066-0.022 0.115-0.075 0.183-0.092 0.066-0.017 0.136-0.010 0.202-0.034 0.057-0.021 0.091-0.072 0.146-0.094 0.077-0.031 0.164-0.005 0.24-0.033 0.055-0.020 0.091-0.069 0.145-0.092 0.081-0.033 0.176-0.019 0.259-0.049 0.052-0.019 0.093-0.057 0.146-0.074 0.092-0.030 0.193-0.025 0.283-0.057 0.057-0.020 0.104-0.058 0.162-0.075 0.079-0.022 0.165-0.014 0.243-0.035 0.067-0.018 0.115-0.071 0.184-0.086 0.080-0.018 0.164-0.014 0.243-0.040 0.025-0.008 0.048-0.021 0.069-0.035l0.044-0.028c0.022-0.014 0.045-0.026 0.069-0.035 0.065-0.022 0.137-0 0.2-0.033 0.045-0.024 0.077-0.067 0.126-0.086 0.064-0.025 0.136-0.006 0.2-0.033 0.045-0.019 0.069-0.060 0.11-0.084 0.069-0.042 0.161-0.039 0.239-0.040v-0.081c0.118-0.009 0.228-0.050 0.345-0.061 0.033-0.092 0.117-0.082 0.201-0.105 0.061-0.016 0.107-0.056 0.164-0.080s0.122-0.023 0.182-0.040c0.071-0.020 0.116-0.076 0.184-0.103 0.071-0.028 0.149-0.005 0.221-0.029 0.067-0.022 0.116-0.076 0.184-0.098 0.093-0.029 0.191-0.017 0.283-0.042 0.068-0.018 0.113-0.075 0.184-0.088 0.105-0.020 0.22-0.005 0.322-0.032 0.067-0.017 0.116-0.067 0.184-0.082 0.146-0.033 0.301-0.016 0.446-0.053 0.067-0.017 0.115-0.068 0.184-0.079 0.172-0.026 0.354-0.004 0.528-0.032 0.106-0.017 0.2-0.077 0.305-0.090 0.241-0.028 0.489-0.003 0.731-0.026 0.22-0.021 0.427-0.108 0.649-0.118 0.66-0.029 1.328-0.001 1.989-0.001 0.198 0 0.414 0.034 0.609 0.017 0.050-0.004 0.114-0.010 0.158-0.037 0.080-0.049 0.082-0.113 0.187-0.121 0.008-0.142 0.132-0.206 0.142-0.345l0.122-0.020v-0.121c0.081-0.013 0.109-0.041 0.122-0.121 0.096-0.029 0.122-0.125 0.223-0.142 0.018-0.088 0.054-0.124 0.142-0.142 0.025-0.15 0.221-0.2 0.264-0.345 0.111-0.018 0.133-0.124 0.243-0.142 0.017-0.079 0.054-0.086 0.111-0.135 0.078-0.068 0.153-0.135 0.24-0.195 0.067-0.046 0.119-0.060 0.157-0.135 0.146-0.023 0.206-0.14 0.365-0.142 0.028-0.135 0.143-0.139 0.264-0.142 0.017-0.097 0.105-0.113 0.193-0.125l0.023-0.003c0.031-0.004 0.061-0.009 0.088-0.017 0.055-0.017 0.104-0.047 0.162-0.055 0.151-0.021 0.319-0.006 0.466-0.052 0.056-0.018 0.089-0.071 0.146-0.087 0.074-0.020 0.147-0.009 0.22-0.043 0.049-0.023 0.079-0.072 0.128-0.093 0.042-0.018 0.092-0.009 0.134-0.027 0.048-0.021 0.067-0.072 0.113-0.095 0.041-0.020 0.090-0.017 0.131-0.038s0.067-0.064 0.11-0.084c0.064-0.030 0.148-0.030 0.218-0.032 0.019-0.113 0.11-0.098 0.203-0.126 0.059-0.018 0.105-0.060 0.162-0.082 0.064-0.025 0.138-0.018 0.201-0.046 0.042-0.019 0.067-0.060 0.11-0.078 0.080-0.035 0.175-0.021 0.256-0.061 0.041-0.021 0.068-0.060 0.11-0.078 0.049-0.021 0.105-0.008 0.155-0.027s0.079-0.069 0.128-0.092c0.080-0.036 0.174-0.025 0.259-0.045 0.13-0.030 0.227-0.086 0.367-0.099 0.176-0.017 0.369-0.052 0.528 0.044-0.051 0.068-0.092 0.115-0.101 0.203-0.105 0.032-0.11 0.135-0.116 0.24l-0.002 0.029c-0.007 0.095-0.023 0.185-0.125 0.218-0.003 0.214-0.248 0.319-0.264 0.528-0.124 0.040-0.046 0.155 0.060 0.138 0.062-0.010 0.068-0.066 0.093-0.112 0.023-0.042 0.067-0.067 0.090-0.109 0.029-0.053 0.021-0.121 0.021-0.18 0.099-0.016 0.114-0.074 0.167-0.151 0.064-0.094 0.135-0.215 0.181-0.318 0.074-0.169 0.062-0.279 0.281-0.281 0 0.093 0.026 0.233-0.013 0.319-0.018 0.042-0.064 0.058-0.090 0.095-0.027 0.040-0.029 0.090-0.049 0.133-0.060 0.126-0.151 0.209-0.011 0.325 0.030-0.093 0.112-0.122 0.147-0.205 0.022-0.052-0.001-0.14 0.062-0.167 0.069-0.030 0.181 0.011 0.258 0.004 0.104-0.010 0.142-0.066 0.228-0.108 0.057-0.028 0.356-0.078 0.337 0.046-0.005 0.037-0.047 0.052-0.074 0.071-0.038 0.026-0.068 0.064-0.109 0.087s-0.092 0.024-0.132 0.050c-0.128 0.081-0.232 0.222-0.34 0.327-0.103 0.099-0.242 0.205-0.314 0.327-0.134 0.226 0.189 0.365 0.228 0.543 0.030 0.136 0.038 0.331-0.011 0.463-0.020 0.053-0.068 0.080-0.094 0.128-0.029 0.053-0.021 0.12-0.021 0.178h0.264c0.025-0.076 0.12-0.114 0.186-0.049 0.049 0.048 0.054 0.127 0.057 0.19h0.101c0.008 0.121 0.090 0.164 0.13 0.267 0.038 0.096 0.013 0.239 0.013 0.342-0.091 0.014-0.128 0.052-0.142 0.142-0.091 0.007-0.138 0.062-0.18 0.121l-0.017 0.023c-0.038 0.055-0.077 0.107-0.149 0.119v0.223c0.137 0.011 0.239 0.222 0.345 0.020 0.173-0.022 0.325-0.133 0.47-0.223 0.080-0.049 0.144-0.046 0.18-0.142 0.061-0.005 0.126-0.011 0.18-0.043 0.040-0.024 0.066-0.068 0.11-0.086 0.049-0.021 0.106-0.006 0.156-0.024 0.054-0.018 0.093-0.063 0.145-0.087 0.143-0.065 0.348-0.114 0.424-0.267 0.164-0.022 0.276-0.165 0.412-0.243 0.047-0.027 0.105-0.014 0.151-0.041 0.037-0.022 0.053-0.067 0.093-0.086 0.048-0.023 0.106-0.010 0.156-0.026 0.066-0.022 0.116-0.075 0.183-0.096 0.128-0.041 0.311 0.014 0.365-0.135 0.15-0.008 0.227-0.126 0.365-0.142 0.019-0.088 0.071-0.095 0.139-0.146 0.131-0.098 0.285-0.165 0.427-0.247 0.080-0.045 0.108-0.103 0.205-0.114 0.017-0.101 0.139-0.186 0.224-0.237 0.134-0.081 0.248-0.187 0.377-0.269 0.092-0.058 0.134-0.114 0.251-0.122 0.018-0.106 0.156-0.186 0.243-0.242 0.184-0.117 0.346-0.267 0.518-0.397 0.43-0.324 0.889-0.67 1.409-0.811 0.112-0.030 0.184 0.041 0.285 0.065 0.111 0.026 0.252 0.019 0.364 0.003 0.034-0.005 0.064-0.019 0.094-0.035l0.036-0.019c0.024-0.013 0.048-0.025 0.074-0.032 0.099-0.028 0.205-0.015 0.303-0.039 0.061-0.015 0.104-0.063 0.164-0.080 0.077-0.023 0.165-0.013 0.24-0.046 0.048-0.021 0.076-0.068 0.127-0.086 0.071-0.025 0.149-0.018 0.219-0.045 0.047-0.018 0.079-0.061 0.128-0.074 0.115-0.031 0.243 0.003 0.361-0.026 0.071-0.017 0.119-0.064 0.183-0.095 0.114-0.056 0.232-0.004 0.284-0.149 0.098-0.009 0.186-0.075 0.282-0.074zM2.779 13.233c-0.322 0-0.584 0.261-0.584 0.584s0.261 0.584 0.584 0.584c0.322 0 0.584-0.261 0.584-0.584s-0.261-0.584-0.584-0.584z"></path>
</svg>
