<!--
SPDX-FileCopyrightText: Copyright © 2022-Present, Goldfish developers
<https://github.com/Goldfish-Social/Goldfish>

SPDX-License-Identifier: AGPL-3.0-only
-->
<svg version="1.1" xmlns="http://www.w3.org/2000/svg" width="32" height="32" viewBox="0 0 32 32">
<title>ds-goldfish</title>
<path fill="#000" d="M16.585 7.999l-0.353 0.242v1.862l0.335 0.616c0.188 0.333 0.474 0.804 0.639 1.046l0.298 0.441-0.529 0.399c-0.925 0.689-1.411 0.967-2.007 1.155l-0.559 0.181-0.711-0.339c-0.396-0.187-1.058-0.441-1.478-0.562-1.307-0.387-3.272-1.112-4.342-1.608l-1.028-0.477h-1.344c-0.742 0-1.849 0.030-2.469 0.067-1.022 0.054-1.204 0.085-1.977 0.302-0.468 0.133-0.888 0.254-0.931 0.266-0.049 0.018 0.091 0.272 0.408 0.737 0.778 1.148 0.918 1.288 1.916 1.928 0.845 0.544 0.967 0.599 2.092 0.985 0.657 0.223 1.611 0.526 2.11 0.671 0.882 0.248 0.931 0.272 1.484 0.677 0.31 0.236 0.541 0.441 0.517 0.466-0.030 0.024-0.274 0.121-0.541 0.218-1.557 0.544-2.293 0.919-3.229 1.662-0.298 0.242-0.76 0.677-1.028 0.967-0.268 0.296-0.699 0.689-0.961 0.876s-0.876 0.665-1.362 1.064c-0.778 0.641-0.864 0.726-0.681 0.695 0.328-0.048 2.731-0.115 2.731-0.073 0 0.024-0.152 0.181-0.341 0.356-0.28 0.26-0.377 0.405-0.572 0.876-0.128 0.302-0.219 0.556-0.201 0.556 0.158 0 2.214-0.846 2.962-1.221 0.991-0.496 1.685-0.774 3.74-1.505 0.645-0.23 1.235-0.453 1.307-0.489 0.067-0.036 0.517-0.356 0.991-0.713 0.742-0.556 0.937-0.737 1.417-1.336 0.31-0.381 0.62-0.743 0.699-0.81 0.073-0.067 0.347-0.308 0.608-0.544l0.468-0.417 0.523-0.073c0.292-0.042 0.876-0.079 1.307-0.079 0.736-0.006 0.784 0 1.034 0.157 0.14 0.085 0.365 0.223 0.492 0.308 0.286 0.175 0.286 0.175-0.511 0.405-0.316 0.091-0.925 0.339-1.344 0.55l-0.766 0.375-0.347 0.804c-0.347 0.786-0.353 0.804-0.365 1.427-0.012 0.393 0.006 0.647 0.049 0.677 0.037 0.030 0.316 0.163 0.62 0.296 0.541 0.242 0.572 0.248 1.277 0.254 0.694 0.012 0.754 0 1.423-0.23 1.009-0.339 1.867-0.816 2.487-1.372 0.316-0.29 0.535-0.447 0.596-0.429 0.419 0.163 1.137 0.272 1.995 0.314l0.973 0.042 0.669 0.52 0.608-0.212 0.614-0.212 0.328-0.599 0.335-0.599 0.76-0.363c0.419-0.2 0.912-0.417 1.095-0.489s0.858-0.375 1.502-0.677l1.162-0.544 0.347-0.483 0.353-0.483-0.037-0.526-0.037-0.52-0.62-0.586c-0.523-0.489-0.815-0.701-1.879-1.342-1.32-0.798-3.235-1.753-4.305-2.152-0.633-0.242-1.521-0.429-2.567-0.544l-0.578-0.067-0.413-0.405c-0.231-0.223-0.608-0.641-0.839-0.925l-0.425-0.52-1.149-0.58-1.149-0.586-0.474 0.006c-0.45 0-0.492 0.012-0.821 0.242z"></path>
</svg>
