<!--
SPDX-FileCopyrightText: Copyright © 2023, Gitea Ltd  <media@gitea.com>

SPDX-License-Identifier: CC-BY-SA-4.0
-->
<svg version="1.1" xmlns="http://www.w3.org/2000/svg" width="32" height="32" viewBox="0 0 32 32">
<title>ds-gitea</title>
<path fill="#000" d="M31.44 6.468c-0.209-0.209-0.49-0.204-0.49-0.204s-5.978 0.336-9.074 0.408c-0.678 0.015-1.352 0.031-2.020 0.036 0 1.993 0 3.985 0 5.973-0.281-0.133-0.566-0.27-0.847-0.403 0-1.855-0.005-5.565-0.005-5.565-1.479 0.020-4.55-0.112-4.55-0.112s-7.212-0.362-7.997-0.433c-0.5-0.031-1.148-0.107-1.989 0.076-0.444 0.092-1.709 0.377-2.744 1.371-2.295 2.044-1.709 5.295-1.637 5.784 0.087 0.596 0.352 2.253 1.617 3.695 2.336 2.859 7.365 2.793 7.365 2.793s0.617 1.473 1.561 2.829c1.275 1.687 2.586 3.002 3.861 3.16 3.213 0 9.635-0.005 9.635-0.005s0.612 0.005 1.443-0.525c0.714-0.433 1.352-1.193 1.352-1.193s0.658-0.703 1.576-2.309c0.281-0.494 0.515-0.973 0.719-1.427 0 0 2.815-5.968 2.815-11.778-0.056-1.758-0.49-2.069-0.592-2.171zM6.086 16.869c-1.321-0.433-1.882-0.953-1.882-0.953s-0.974-0.683-1.464-2.028c-0.842-2.253-0.071-3.629-0.071-3.629s0.428-1.147 1.964-1.529c0.704-0.189 1.581-0.158 1.581-0.158s0.362 3.027 0.801 4.801c0.367 1.488 1.265 3.96 1.265 3.96s-1.331-0.158-2.193-0.464zM17.873 12.15l1.16 0.562-0.151 0.307c-0.185 0.376-0.372 0.753-0.555 1.128-0.342-0.005-0.658 0.178-0.821 0.479-0.173 0.321-0.138 0.719 0.097 1.009-0.418 0.856-0.836 1.712-1.255 2.569-0.418 0.005-0.785 0.296-0.882 0.703s0.102 0.831 0.464 1.019c0.393 0.204 0.893 0.092 1.158-0.275 0.26-0.362 0.219-0.861-0.092-1.177l1.224-2.502c0.076 0.005 0.189 0.010 0.316-0.025 0.209-0.046 0.362-0.183 0.362-0.183 0.214 0.092 0.439 0.194 0.673 0.311 0.245 0.122 0.474 0.25 0.683 0.372 0.046 0.025 0.092 0.056 0.143 0.097 0.082 0.066 0.173 0.158 0.24 0.28 0.097 0.28-0.097 0.759-0.097 0.759-0.050 0.167-0.231 0.572-0.421 0.981l-0.040 0.085c-0.004 0.009-0.009 0.019-0.013 0.028l-0.026 0.057c-0.216 0.461-0.422 0.883-0.437 0.916l-0.001 0.002c-0.413-0.010-0.78 0.255-0.903 0.637-0.133 0.413 0.056 0.882 0.454 1.086s0.887 0.087 1.148-0.27c0.255-0.347 0.235-0.831-0.056-1.152 0.097-0.189 0.189-0.377 0.286-0.576 0.063-0.131 0.137-0.292 0.213-0.46l0.020-0.044c0.023-0.052 0.046-0.103 0.069-0.155l0.020-0.044c0.193-0.435 0.367-0.846 0.367-0.846 0.046-0.087 0.291-0.525 0.138-1.086-0.128-0.581-0.643-0.851-0.643-0.851-0.114-0.074-0.236-0.146-0.359-0.216l-0.044-0.024c-0.538-0.299-1.087-0.535-1.087-0.535l-0-0.005c-0-0.032-0.005-0.218-0.056-0.357-0.056-0.158-0.143-0.26-0.199-0.321 0.23-0.474 0.46-0.944 0.69-1.417l3.86 1.871c0 0 0.643 0.29 0.78 0.826 0.097 0.377-0.026 0.714-0.092 0.877-0.145 0.353-0.727 1.556-1.324 2.772l-0.080 0.162c-0.637 1.297-1.27 2.566-1.383 2.794l-0.011 0.023c-0.001 0.003-0.003 0.005-0.004 0.007l-0.003 0.006c0 0-0.311 0.739-1 0.785-0.296 0.020-0.525-0.061-0.525-0.061-0.002-0.001-0.027-0.010-0.27-0.107l-5.758-2.803c0 0-0.556-0.291-0.653-0.795-0.112-0.413 0.138-0.922 0.138-0.922l2.77-5.703c0 0 0-0.001 0.001-0.002l0.002-0.005c0.030-0.058 0.267-0.499 0.619-0.656 0.031-0.015 0.117-0.051 0.23-0.076 0.413-0.107 0.918 0.143 0.918 0.143z"></path>
</svg>
