<!--
SPDX-FileCopyrightText: Copyright © 2022-Present, GreateApe Project

SPDX-License-Identifier: AGPL-3.0-only
-->
<svg version="1.1" xmlns="http://www.w3.org/2000/svg" width="32" height="32" viewBox="0 0 32 32">
<title>ds-greatape</title>
<path d="M18.582 1.797c-0.498 0.070-1.365 0.188-2.434 0.331-0.307 0.041-1.126 0.151-1.821 0.245s-1.439 0.193-1.654 0.221c-1.688 0.218-2.217 0.29-3.974 0.537-0.131 0.018-0.259 0.055-0.283 0.082-0.613 0.67-1.253 1.377-1.485 1.641-0.163 0.186-0.415 0.463-0.56 0.617s-0.436 0.471-0.648 0.706c-0.366 0.407-1.081 1.182-1.32 1.431-0.061 0.064-0.287 0.306-0.502 0.539s-0.509 0.549-0.653 0.703-0.37 0.397-0.5 0.54c-0.13 0.143-0.347 0.377-0.483 0.52-0.307 0.325-0.716 0.764-1.245 1.336-0.225 0.243-0.546 0.586-0.714 0.761s-0.306 0.347-0.307 0.383c-0.001 0.036 0.195 0.262 0.436 0.503 0.407 0.408 1.426 1.473 1.979 2.069 0.133 0.143 0.36 0.386 0.505 0.539s0.37 0.396 0.5 0.539 0.271 0.294 0.313 0.336c0.042 0.042 0.184 0.192 0.315 0.334s0.401 0.434 0.601 0.648c0.199 0.215 0.61 0.657 0.912 0.984s0.56 0.603 0.572 0.613c0.013 0.010 0.372 0.395 0.798 0.854s0.91 0.978 1.076 1.153c0.773 0.817 3.399 3.643 4.533 4.88 0.186 0.203 0.38 0.413 0.431 0.466s0.327 0.355 0.613 0.67c0.573 0.631 0.936 1.026 1.227 1.337 0.105 0.112 0.456 0.497 0.779 0.854 0.669 0.74 1.021 1.114 1.048 1.114 0.010 0 0.11-0.196 0.223-0.436s0.268-0.57 0.346-0.734c0.077-0.163 0.253-0.548 0.39-0.854s0.33-0.733 0.429-0.947c0.099-0.215 0.225-0.499 0.282-0.631 0.131-0.307 0.155-0.337 0.252-0.318 0.166 0.033 0.872 0.182 2.291 0.483 1.449 0.307 1.838 0.389 2.676 0.562 0.235 0.049 0.62 0.129 0.855 0.179 2.588 0.55 3.728 0.798 4.157 0.908 0.187 0.048 0.277 0.057 0.286 0.029 0.007-0.022 0.046-0.158 0.086-0.301 0.115-0.411 0.45-1.521 0.638-2.117 0.192-0.608 0.334-1.063 0.406-1.3 0.181-0.595 0.617-2.012 0.727-2.359 0.068-0.215 0.177-0.586 0.242-0.825l0.119-0.435 0.94-0.021 0.019-2.718-0.112-0.145c-0.112-0.145-0.304-0.369-1.357-1.58-0.307-0.353-0.599-0.695-0.65-0.759-0.111-0.141-0.621-0.747-0.715-0.849-0.087-0.095-0.085-0.108 0.044-0.255 0.102-0.116 0.187-0.281 0.187-0.361 0-0.063-0.206-0.227-0.892-0.713-0.378-0.268-0.933-0.664-1.233-0.88s-0.757-0.543-1.016-0.727c-0.259-0.184-0.59-0.422-0.737-0.53s-0.308-0.225-0.359-0.26c-0.457-0.315-1.375-1.022-1.375-1.059-0.001-0.124 0.681-0.846 1.146-1.212l0.295-0.232 0.194-0.804c0.107-0.442 0.219-0.905 0.249-1.027s0.088-0.357 0.127-0.52c0.040-0.163 0.082-0.335 0.093-0.381 0.016-0.063 0.005-0.084-0.043-0.084-0.035 0-0.242-0.043-0.46-0.095s-0.629-0.152-0.916-0.221c-1.357-0.327-1.807-0.435-2.081-0.501-0.642-0.153-1.083-0.255-1.196-0.278-0.124-0.025-0.186-0.136-1.526-2.721l-0.274-0.529-0.156 0.004c-0.086 0.002-0.382 0.036-0.658 0.074zM21.055 5.534c0.13 0.040 0.787 0.207 1.46 0.371s1.349 0.332 1.502 0.373c0.153 0.040 0.442 0.111 0.643 0.158l0.364 0.085-0.024 0.167c-0.034 0.242-0.145 0.715-0.322 1.382l-0.155 0.584-0.151 0.036c-0.083 0.020-0.223 0.056-0.31 0.081s-0.166 0.038-0.174 0.029c-0.008-0.008-0.029-0.165-0.045-0.349l-0.030-0.333-0.946 0.014c-0.52 0.008-1.641 0.024-2.492 0.037l-1.546 0.023-0.012 1.559-0.012 1.559 0.76 0.194c0.418 0.107 1.178 0.299 1.688 0.428l0.927 0.234 1.667 1.663c1.651 1.646 1.668 1.662 1.799 1.645 0.073-0.010 0.574-0.044 1.115-0.076s1.116-0.072 1.28-0.088c0.163-0.016 0.313-0.022 0.334-0.014s0.104 0.101 0.185 0.205c0.082 0.105 0.215 0.268 0.297 0.363s0.265 0.312 0.408 0.482 0.491 0.578 0.773 0.907c0.283 0.329 0.627 0.732 0.765 0.895s0.295 0.338 0.349 0.387l0.097 0.090v2.105l-0.714 0c-0.393 0-2.814 0.011-5.381 0.025l-4.667 0.025 0.022-0.22c0.012-0.121 0.055-0.68 0.095-1.241 0.127-1.774 0.239-3.244 0.354-4.631 0.019-0.236 0.014-0.268-0.046-0.287-0.037-0.011-0.735-0.197-1.551-0.414s-1.692-0.449-1.947-0.517-0.672-0.179-0.927-0.245c-0.255-0.067-0.485-0.138-0.51-0.158-0.037-0.029-0.045-0.733-0.037-3.38l0.009-3.343 1.354-0.271c0.745-0.149 1.629-0.322 1.966-0.385s0.737-0.138 0.89-0.167c0.39-0.074 0.623-0.071 0.896 0.012zM9.678 9.779c1.213 0.526 1.533 0.662 1.555 0.662 0.012 0 0.127 0.048 0.255 0.106s0.303 0.136 0.389 0.174l0.156 0.068v0.885h-2.466l0.019 2.633 0.791 0.021v-1.085h2.061v2.977l-2.254-0.015c-1.24-0.008-2.272-0.021-2.295-0.029s-0.053-0.095-0.067-0.194c-0.014-0.099-0.084-0.483-0.154-0.852s-0.158-0.832-0.195-1.027c-0.151-0.797-0.381-1.921-0.522-2.558l-0.075-0.336 0.247-0.224c0.136-0.123 0.589-0.52 1.006-0.882 0.619-0.536 0.772-0.653 0.832-0.63 0.040 0.016 0.363 0.154 0.717 0.308z"></path>
</svg>
