<!--
SPDX-FileCopyrightText: Copyright © 2019-Present, Mastodon GlitchSoc developers
<https://glitch-soc.github.io/docs/>

SPDX-License-Identifier: AGPL-3.0-only
-->
<svg version="1.1" xmlns="http://www.w3.org/2000/svg" width="32" height="32" viewBox="0 0 32 32">
<title>ds-glitchsoc</title>
<path d="M10.613 9.312h-3.289c-0.352 0-0.637 0.288-0.637 0.643v2.776c0 0.355 0.285 0.643 0.637 0.643h3.289c0.352 0 0.637-0.288 0.637-0.643v-2.776c0-0.355-0.285-0.643-0.637-0.643zM22.363-0h-10.352c-0.352 0-0.637 0.288-0.637 0.643v2.776c0 0.355 0.285 0.643 0.637 0.643h10.352c0.352 0 0.637-0.288 0.637-0.643v-2.776c0-0.355-0.285-0.643-0.637-0.643zM24.676 14h-6.853c-0.351 0-0.636 0.288-0.636 0.643v2.776c0 0.355 0.285 0.643 0.636 0.643h6.853c0.351 0 0.636-0.288 0.636-0.643v-2.776c0-0.355-0.285-0.643-0.636-0.643zM12.988 4.687h-3.289c-0.352 0-0.637 0.288-0.637 0.643v2.776c0 0.355 0.285 0.643 0.637 0.643h3.289c0.352 0 0.637-0.288 0.637-0.643v-2.776c0-0.355-0.285-0.643-0.637-0.643zM24.676 4.687h-3.289c-0.352 0-0.637 0.288-0.637 0.643v2.776c0 0.355 0.285 0.643 0.637 0.643h3.289c0.352 0 0.637-0.288 0.637-0.643v-2.776c0-0.355-0.285-0.643-0.637-0.643zM22.363 27.937h-10.352c-0.352 0-0.637 0.288-0.637 0.643v2.776c0 0.355 0.285 0.643 0.637 0.643h10.352c0.352 0 0.637-0.288 0.637-0.643v-2.776c0-0.355-0.285-0.643-0.637-0.643zM12.988 23.25h-3.289c-0.352 0-0.637 0.288-0.637 0.643v2.776c0 0.355 0.285 0.643 0.637 0.643h3.289c0.352 0 0.637-0.288 0.637-0.643v-2.776c0-0.355-0.285-0.643-0.637-0.643zM24.676 23.25h-3.289c-0.352 0-0.637 0.288-0.637 0.643v2.776c0 0.355 0.285 0.643 0.637 0.643h3.289c0.352 0 0.637-0.288 0.637-0.643v-2.776c0-0.355-0.285-0.643-0.637-0.643zM24.676 18.687h-3.289c-0.352 0-0.637 0.288-0.637 0.643v2.776c0 0.355 0.285 0.643 0.637 0.643h3.289c0.352 0 0.637-0.288 0.637-0.643v-2.776c0-0.355-0.285-0.643-0.637-0.643zM10.613 18.687h-3.289c-0.352 0-0.637 0.288-0.637 0.643v2.776c0 0.355 0.285 0.643 0.637 0.643h3.289c0.352 0 0.637-0.288 0.637-0.643v-2.776c0-0.355-0.285-0.643-0.637-0.643zM10.613 14h-3.289c-0.352 0-0.637 0.288-0.637 0.643v2.776c0 0.355 0.285 0.643 0.637 0.643h3.289c0.352 0 0.637-0.288 0.637-0.643v-2.776c0-0.355-0.285-0.643-0.637-0.643z"></path>
</svg>
