<!--- SPDX-FileCopyrightText: 2019 to Present, Hometown Project <https://github.com/hometown-fork/hometown>

SPDX-License-Identifier:  LicenseRef-AllRightsReserved -->
<svg version="1.1" xmlns="http://www.w3.org/2000/svg" width="32" height="32" viewBox="0 0 32 32">
<title>ds-hometown</title>
<path d="M21.065 19.366h-17.841c-0.606 0-1.126 0.514-1.126 1.113s0.52 1.113 1.126 1.113h17.841c0.606 0 1.126-0.514 1.126-1.113s-0.52-1.113-1.126-1.113z"></path>
<path d="M21.065 23.113h-17.841c-0.606 0-1.126 0.514-1.126 1.113s0.52 1.113 1.126 1.113h17.841c0.606 0 1.126-0.514 1.126-1.113s-0.52-1.113-1.126-1.113z"></path>
<path d="M21.065 26.915h-17.841c-0.606 0-1.126 0.514-1.126 1.113s0.52 1.113 1.126 1.113h17.841c0.606 0 1.126-0.514 1.126-1.113s-0.52-1.113-1.126-1.113z"></path>
<path d="M28.789 19.366c-0.599 0-1.113 0.52-1.113 1.127v7.629c0 0.607 0.514 1.127 1.113 1.127s1.113-0.52 1.113-1.127v-7.629c-0.086-0.693-0.599-1.127-1.113-1.127z"></path>
<path d="M24.987 19.366c-0.599 0-1.113 0.52-1.113 1.127v7.629c0 0.607 0.514 1.127 1.113 1.127s1.113-0.52 1.113-1.127v-7.629c-0.086-0.693-0.514-1.127-1.113-1.127z"></path>
<path d="M27.794 14.53c1.123-0.607 1.728-2.167 1.728-4.855 0-3.121-0.778-6.762-2.851-6.762s-2.851 3.641-2.851 6.762c0 2.687 0.605 4.248 1.728 4.855v2.081c0 0.607 0.518 1.127 1.123 1.127s1.123-0.52 1.123-1.127v-2.081zM26.671 5.427c0.345 0.693 0.691 2.167 0.691 4.248 0 2.167-0.432 2.947-0.691 2.947s-0.691-0.78-0.691-2.947c0.086-2.081 0.432-3.555 0.691-4.248z"></path>
<path d="M21.931 9.507l-2.771-3.552c-0.173-0.26-0.52-0.433-0.866-0.433h-1.386v-1.646c0-0.607-0.52-1.126-1.126-1.126s-1.126 0.52-1.126 1.126v1.733h-8.834c-0.346 0-0.606 0.173-0.866 0.433l-2.771 3.552c-0.064 0.075-0.092 0.103-0.087 0.173 0 0 0 2.281 0 6.844 0 0.607 0.52 1.126 1.126 1.126h17.84c0.606 0 1.126-0.52 1.126-1.126v-6.411c0.001-0.476-0.081-0.476-0.26-0.693zM8.767 15.572h-4.503v-4.245h8.834v4.245h-4.33zM14.656 9.161l-1.039-1.386h4.157l1.039 1.386h-4.157zM10.846 7.774l1.039 1.386h-6.495l1.039-1.386h4.417zM15.262 11.326h4.763v4.245h-4.763v-4.245z"></path>
</svg>
