<!--
SPDX-FileCopyrightText: Copyright © 2014-2023, Mike Macgirvin <mike@macgirvin.com>

SPDX-License-Identifier: CC0-1.0
-->
<svg version="1.1" xmlns="http://www.w3.org/2000/svg" width="32" height="32" viewBox="0 0 32 32">
<title>ds-hubzilla</title>
<path d="M16 3.121l-15.697 9.121h4.394v16.636h22.606v-16.636h4.394zM19.758 10.515q0.909 0 1.758 0.333t1.485 0.985 0.985 1.485 0.349 1.742q0 1.242-0.621 2.288t-1.667 1.651-2.288 0.606q-0.242 0-0.515-0.030l-0.515 2.394q0.697 0.273 1.106 0.864t0.409 1.318q0 1-0.697 1.682t-1.667 0.682-1.667-0.682-0.697-1.682q0-0.485 0.212-0.939l-2.667-1.727q-0.455 0.515-1.076 0.818t-1.318 0.303q-1.303 0-2.227-0.924t-0.924-2.227 0.924-2.227 2.227-0.924q0.788 0 1.485 0.394t1.152 1.061l2.212-1.091q-0.303-0.788-0.303-1.606 0-0.909 0.348-1.742t0.985-1.485 1.47-0.985 1.742-0.333zM15.848 17.394l-2.212 1.061q0.152 0.485 0.152 1 0 0.727-0.303 1.364l2.667 1.758q0.697-0.758 1.727-0.758h0.091l0.485-2.394q-0.818-0.242-1.485-0.773t-1.121-1.258z"></path>
</svg>
