<!--- SPDX-FileCopyrightText: 2019 to Present, Immers Space Project <https://web.immers.space/>

SPDX-License-Identifier:  LicenseRef-AllRightsReserved -->
<svg version="1.1" xmlns="http://www.w3.org/2000/svg" width="42" height="32" viewBox="0 0 42 32">
<title>ds-immerspace</title>
<path fill="#000" d="M21.495 11.874l1.639 0.951c0.001 0.001 0.003 0.002 0.004 0.002l1.642 0.944c0.38 0.218 0.614 0.624 0.613 1.062l-0.003 1.324v0.006l0.004 1.894c0.001 0.438-0.233 0.843-0.613 1.061l-1.643 0.944c-0.001 0.001-0.003 0.002-0.004 0.003l-1.639 0.951c-0.379 0.22-0.847 0.22-1.226 0l-1.639-0.951c-0.001-0.001-0.003-0.002-0.004-0.003l-1.643-0.944c-0.38-0.218-0.614-0.623-0.613-1.061l0.004-1.894v-0.006l-0.003-1.324c-0.001-0.438 0.233-0.844 0.613-1.062l1.642-0.944c0.001-0.001 0.003-0.002 0.004-0.002l1.639-0.951c0.379-0.22 0.847-0.22 1.226 0zM21.324 13.413c-0.253-0.147-0.564-0.147-0.817 0l-1.098 0.637-1.098 0.631c-0.253 0.146-0.409 0.416-0.409 0.708l0.002 0.885v0.004l-0.003 1.266c-0.001 0.292 0.155 0.562 0.409 0.708l1.101 0.633 1.096 0.636c0.253 0.147 0.564 0.147 0.817 0l1.098-0.637 1.098-0.631c0.253-0.146 0.409-0.416 0.409-0.708l-0.003-1.266v-0.004l0.002-0.885c0.001-0.292-0.155-0.563-0.409-0.708l-1.101-0.633z"></path>
<path fill="#000" d="M8.875 6.826l1.639 0.951c0.001 0.001 0.003 0.002 0.004 0.003l1.642 0.944c0.38 0.218 0.614 0.624 0.613 1.062l-0.003 1.324v0.006l0.004 1.894c0.001 0.438-0.233 0.843-0.613 1.062l-1.643 0.944c-0.001 0.001-0.003 0.002-0.004 0.002l-1.639 0.951c-0.379 0.22-0.847 0.22-1.226 0l-1.639-0.951c-0.001-0.001-0.003-0.002-0.004-0.002l-1.643-0.944c-0.38-0.218-0.614-0.623-0.613-1.062l0.004-1.894v-0.006l-0.003-1.324c-0.001-0.438 0.233-0.844 0.613-1.062l1.642-0.944c0.001-0.001 0.003-0.002 0.004-0.003l1.639-0.951c0.379-0.22 0.847-0.22 1.226 0zM8.703 8.365c-0.253-0.147-0.564-0.147-0.817 0l-1.098 0.637-1.098 0.631c-0.253 0.146-0.409 0.416-0.409 0.708l0.002 0.885v0.004l-0.003 1.266c-0.001 0.292 0.155 0.562 0.409 0.708l1.101 0.633 1.096 0.636c0.253 0.147 0.564 0.147 0.817 0l1.098-0.637 1.098-0.631c0.253-0.146 0.409-0.416 0.409-0.708l-0.003-1.266v-0.004l0.002-0.885c0.001-0.292-0.155-0.563-0.409-0.708l-1.101-0.633z"></path>
<path fill="#000" d="M34.116 6.744l1.639 0.951c0.001 0.001 0.003 0.002 0.004 0.003l1.642 0.944c0.38 0.218 0.614 0.624 0.613 1.062l-0.003 1.324v0.006l0.004 1.894c0.001 0.438-0.233 0.843-0.613 1.062l-1.643 0.944c-0.001 0.001-0.003 0.002-0.004 0.002l-1.639 0.951c-0.379 0.22-0.847 0.22-1.226 0l-1.639-0.951c-0.001-0.001-0.003-0.002-0.004-0.002l-1.643-0.944c-0.38-0.218-0.614-0.623-0.613-1.062l0.004-1.894v-0.006l-0.003-1.324c-0.001-0.438 0.233-0.844 0.613-1.062l1.642-0.944c0.001-0.001 0.003-0.002 0.004-0.003l1.639-0.951c0.379-0.22 0.847-0.22 1.226 0zM33.945 8.283c-0.253-0.147-0.564-0.147-0.817 0l-1.098 0.637-1.098 0.631c-0.253 0.146-0.409 0.416-0.409 0.708l0.002 0.885v0.004l-0.003 1.266c-0.001 0.292 0.155 0.562 0.409 0.708l1.101 0.633 1.096 0.636c0.253 0.147 0.564 0.147 0.817 0l1.098-0.637 1.098-0.631c0.253-0.146 0.409-0.416 0.409-0.708l-0.003-1.266v-0.004l0.002-0.885c0.001-0.292-0.155-0.563-0.409-0.708l-1.101-0.633z"></path>
<path fill="#000" d="M21.577 0.23l1.639 0.951c0.001 0.001 0.003 0.002 0.004 0.002l1.642 0.944c0.38 0.218 0.614 0.624 0.613 1.062l-0.003 1.324v0.006l0.004 1.894c0.001 0.438-0.233 0.843-0.613 1.062l-1.643 0.944c-0.001 0.001-0.003 0.002-0.004 0.002l-1.639 0.951c-0.379 0.22-0.847 0.22-1.226 0l-1.639-0.951c-0.001-0.001-0.003-0.002-0.004-0.002l-1.643-0.944c-0.38-0.218-0.614-0.623-0.613-1.061l0.004-1.894v-0.006l-0.003-1.324c-0.001-0.438 0.233-0.844 0.613-1.062l1.642-0.944c0.001-0.001 0.003-0.002 0.004-0.002l1.639-0.951c0.379-0.22 0.847-0.22 1.226 0zM21.406 1.769c-0.253-0.147-0.564-0.147-0.817 0l-1.098 0.637-1.098 0.631c-0.253 0.146-0.409 0.416-0.409 0.708l0.002 0.885v0.004l-0.003 1.266c-0.001 0.292 0.155 0.562 0.409 0.708l1.101 0.633 1.096 0.636c0.253 0.147 0.564 0.147 0.817 0l1.098-0.637 1.098-0.631c0.253-0.146 0.409-0.416 0.409-0.708l-0.003-1.266v-0.004l0.002-0.885c0.001-0.292-0.155-0.563-0.409-0.708l-1.101-0.633z"></path>
<path fill="#000" d="M28.417 20.601c0.427 0 0.774 0.346 0.774 0.774v5.374c0 0.132-0.033 0.256-0.091 0.365-0.063 0.149-0.174 0.279-0.325 0.366l-7.545 4.356c-0.119 0.069-0.248 0.102-0.377 0.104h-0.032c-0.128-0.002-0.258-0.035-0.377-0.104l-7.545-4.356c-0.204-0.118-0.334-0.315-0.374-0.53-0.017-0.064-0.026-0.131-0.026-0.201v-5.374c0-0.427 0.346-0.774 0.774-0.774s0.774 0.346 0.774 0.774v4.981l6.791 3.921 6.807-3.93v-4.972c0-0.42 0.334-0.762 0.752-0.773z"></path>
<path fill="#000" d="M0.814 15.796c0.427 0 0.774 0.346 0.774 0.774v4.981l6.791 3.921 4.273-2.467c0.363-0.21 0.826-0.091 1.045 0.264l0.012 0.020c0.214 0.37 0.087 0.843-0.283 1.057l-4.654 2.687c-0.119 0.069-0.248 0.102-0.377 0.104h-0.032c-0.128-0.002-0.258-0.035-0.377-0.104l-7.545-4.356c-0.204-0.118-0.334-0.315-0.374-0.53-0.017-0.064-0.026-0.131-0.026-0.201v-5.374c0-0.427 0.346-0.774 0.774-0.774z"></path>
<path fill="#000" d="M41 15.796c-0.427 0-0.774 0.346-0.774 0.774v4.981l-6.791 3.921-4.273-2.467c-0.363-0.21-0.826-0.091-1.045 0.264l-0.012 0.020c-0.214 0.37-0.087 0.843 0.283 1.057l4.654 2.687c0.119 0.069 0.248 0.102 0.377 0.104h0.032c0.128-0.002 0.258-0.035 0.377-0.104l7.545-4.356c0.204-0.118 0.334-0.315 0.374-0.53 0.017-0.064 0.026-0.131 0.026-0.201v-5.374c0-0.427-0.346-0.774-0.774-0.774z"></path>
</svg>
