<!--
SPDX-FileCopyrightText: Copyright © 2008-Present, Juick https://juick.com>

SPDX-License-Identifier: LicenseRef-AllRightsReserved
-->
<svg version="1.1" xmlns="http://www.w3.org/2000/svg" width="32" height="32" viewBox="0 0 32 32">
<title>ds-juick</title>
<path d="M19.011 0.060c-0.263 1.506-0.525 3.012-0.787 4.506 3.057 0.012 6.114-0.012 9.184-0.069 0.251-1.494 0.513-3 0.775-4.494-3.057-0.012-6.115 0.012-9.172 0.057z"></path>
<path d="M17.563 6.871c-1.027 7.050-2.099 14.181-4.129 21.025-3.012 1.346-6.4 0.364-9.503-0.035-0.046 1.357-0.080 2.703-0.114 4.051 4.882-0.069 9.811 0.388 14.682-0.285 2.772-0.321 4.164-3.070 4.621-5.522 1.415-6.389 2.543-12.834 3.833-19.245-3.137-0.023-6.263-0.023-9.389 0.012v0z"></path>
</svg>
