<!--- SPDX-FileCopyrightText: 2023 to Present, Michał Rzeszutek <https://rzeszutek.pl/>

SPDX-License-Identifier: CC0-1.0 -->
<svg version="1.1" xmlns="http://www.w3.org/2000/svg" width="32" height="32" viewBox="0 0 32 32">
<title>ds-kbin</title>
<path d="M6.775 31.998q0.206-0.348 0.449-0.668c0.678-0.893 1.12-2.037 1.436-3.107q2.462-8.35 4.945-16.705 1.259-4.144 2.478-8.312c0.414-1.418 0.975-2.594 2.438-3.029q0.545-0.162 2.177-0.167 4.366-0.010 8.733-0.010 0.981 0 1.552 0.534c0.541 0.504 0.446 1.17 0.232 1.888q-3.928 13.192-7.862 26.382c-0.662 2.219-1.534 3.19-3.98 3.183q-6.27-0.020-12.598 0.011z"></path>
<path d="M13.605 11.518q-2.484 8.354-4.945 16.705c-0.316 1.070-0.757 2.214-1.436 3.107q-0.243 0.32-0.449 0.668c-0.814 0.036-1.102-0.514-1.424-1.169-0.471-0.954-0.772-2.25-1.060-3.527q-1.797-7.957-3.584-15.917c-0.216-0.962-0.107-2.019 1-2.352 0.253-0.077 0.458-0.15 0.731-0.15q2.144 0.002 4.286 0 0.656 0 1.006 0.146c0.99 0.415 1.318 1.507 1.674 2.434q0.021 0.053 0.077 0.053l4.124 0.002z"></path>
</svg>
