<!--- SPDX-FileCopyrightText: 2023 to Present, Todd Sundsted <https://epiktistes.com/@toddsundsted>

SPDX-License-Identifier: CC0-1.0 -->
<svg version="1.1" xmlns="http://www.w3.org/2000/svg" width="32" height="32" viewBox="0 0 32 32">
<title>ds-ktistec</title>
<path d="M23.75 0c2.727 0 4.938 2.211 4.938 4.938s-2.211 4.938-4.938 4.938c-0.512 0-1.007-0.078-1.471-0.223l-4.722 4.722 7.988 7.988c0.478-0.154 0.988-0.238 1.518-0.238 2.727 0 4.938 2.211 4.938 4.938s-2.211 4.938-4.938 4.938c-2.727 0-4.938-2.211-4.938-4.938 0-0.53 0.083-1.040 0.238-1.518l-7.988-7.988-5.98 5.98c0.914 0.896 1.481 2.145 1.481 3.526 0 2.727-2.211 4.938-4.938 4.938s-4.938-2.211-4.938-4.938c0-1.916 1.092-3.578 2.688-4.396v-13.333c-1.596-0.818-2.688-2.48-2.688-4.396 0-2.727 2.211-4.938 4.938-4.938s4.938 2.211 4.938 4.938c0 1.916-1.092 3.578-2.687 4.396l-0 9.046 11.878-11.878c-0.164-0.492-0.253-1.017-0.253-1.564 0-2.727 2.211-4.938 4.938-4.938zM4.958 25.438c-0.909 0-1.646 0.737-1.646 1.646s0.737 1.646 1.646 1.646c0.909 0 1.646-0.737 1.646-1.646s-0.737-1.646-1.646-1.646zM27.083 25.438c-0.909 0-1.646 0.737-1.646 1.646s0.737 1.646 1.646 1.646c0.909 0 1.646-0.737 1.646-1.646s-0.737-1.646-1.646-1.646zM4.958 3.313c-0.909 0-1.646 0.737-1.646 1.646s0.737 1.646 1.646 1.646c0.909 0 1.646-0.737 1.646-1.646s-0.737-1.646-1.646-1.646zM23.771 3.313c-0.909 0-1.646 0.737-1.646 1.646s0.737 1.646 1.646 1.646c0.909 0 1.646-0.737 1.646-1.646s-0.737-1.646-1.646-1.646z"></path>
</svg>
