<!--- SPDX-FileCopyrightText: 2020 to Present, Librecast Project <https://librecast.net>

SPDX-License-Identifier: GPL-2.0-only OR GPL-3.0-only -->
<svg version="1.1" xmlns="http://www.w3.org/2000/svg" width="32" height="32" viewBox="0 0 32 32">
<title>ds-librecast-live</title>
<path d="M11.025 6.279l-4.672-3.507q-0.030-0.023-0.068-0.023-0.179-0.003-0.354-0.018c-0.784-0.067-1.273-0.855-1.154-1.584 0.217-1.328 2.025-1.545 2.602-0.343q0.002 0.004 0.074 0.24c0.054 0.177 0.149 0.218 0.286 0.322q3.254 2.438 6.522 4.893c0.056 0.041 0.121 0.063 0.188 0.064l0.002-0h3.147q0.075 0 0.136-0.045 3.378-2.536 6.738-5.056c0.072-0.054 0.101-0.261 0.133-0.338 0.311-0.765 1.208-1.114 1.937-0.712 1.293 0.712 0.716 2.687-0.763 2.57-0.042-0.003-0.116 0.031-0.156 0.061q-2.318 1.743-4.628 3.471c-0.004 0.003-0.007 0.007-0.010 0.012-0.007 0.015-0 0.033 0.015 0.040 0.005 0.002 0.010 0.003 0.015 0.003h-0c1.274-0.071 2.569 0.088 3.74 0.606 2.217 0.98 3.733 3.087 4.036 5.475q0.054 0.424 0.055 1.232 0.007 5.459-0.001 10.918-0.001 0.844-0.044 1.233c-0.362 3.292-2.892 5.81-6.178 6.165q-0.4 0.043-1.233 0.043-5.561 0.002-11.122-0.004-3.172-0.004-5.246-2.213c-1.022-1.089-1.637-2.487-1.804-3.967q-0.044-0.393-0.046-1.234-0.008-5.156-0.002-10.308c0-0.115-0.002-0.249-0.006-0.385-0.003-0.089-0.007-0.177-0.012-0.264l0.001 0.012q-0.015-0.278 0.035-0.856c0.337-3.884 3.483-6.625 7.392-6.459q0.216 0.009 0.435-0.006 0.054-0.004 0.010-0.036zM26.886 13.221c0-0.002 0-0.006 0-0.008 0-2.708-2.192-4.903-4.899-4.908l-11.917-0.021c-0.002 0-0.006 0-0.008 0-2.708 0-4.903 2.192-4.908 4.899v0l-0.021 11.916c0 0.003 0 0.006 0 0.009 0 2.708 2.192 4.903 4.899 4.908l11.917 0.021c0.003 0 0.006 0 0.009 0 2.708 0 4.903-2.192 4.908-4.899v-0l0.021-11.916z"></path>
<path d="M14.051 12.444c0 0.928-0.752 1.68-1.68 1.68v0c-0.928 0-1.68-0.752-1.68-1.68v0c0-0.928 0.752-1.68 1.68-1.68v0c0.928 0 1.68 0.752 1.68 1.68v0zM13.894 12.445c0-0.839-0.68-1.518-1.518-1.518v0c-0.839 0-1.518 0.68-1.518 1.518v0c0 0.839 0.68 1.518 1.518 1.518v0c0.839 0 1.518-0.68 1.518-1.518v0z"></path>
<path d="M12.571 18.439c1.679-1.701 3.335-3.423 5.042-5.097q0.046-0.046 0.102-0.143 0.015-0.026 0.004-0.054c-0.532-1.362 0.584-2.717 2.030-2.305 1.14 0.326 1.549 1.782 0.767 2.693q-0.657 0.765-1.741 0.516c-0.28-0.064-0.51-0.243-0.735-0.415-0.036-0.027-0.086-0.024-0.118 0.008l-0 0-5.254 5.349c-0.036 0.037-0.055 0.085-0.056 0.134l0 0.001v0.89q0 0.031 0.025 0.050l5.392 4.176c0.012 0.009 0.027 0.014 0.043 0.014 0.018 0 0.034-0.007 0.047-0.018l-0 0c0.546-0.476 1.33-0.579 1.978-0.204 1.341 0.776 0.965 2.844-0.57 3.097-0.699 0.115-1.364-0.185-1.723-0.797q-0.433-0.74-0.044-1.657c0.011-0.026 0.003-0.056-0.019-0.074l-0-0-5.094-3.954c-0.004-0.003-0.008-0.004-0.013-0.004-0.012 0-0.021 0.009-0.021 0.021 0 0 0 0 0 0v0 3.124q0 0.032 0.031 0.038 0.667 0.136 1.046 0.617c1.146 1.454-0.628 3.462-2.204 2.464-1.267-0.802-0.949-2.63 0.458-3.051q0.028-0.009 0.058-0.005 0.056 0.007 0.103-0.020 0.030-0.017 0.030-0.051v-4.544c0-0.017-0.014-0.031-0.031-0.031v0h-1.785c-0.058-0-0.105 0.045-0.109 0.102v0c-0.037 0.546-0.579 1.056-1.040 1.225q-0.491 0.181-0.993 0.065c-1.323-0.305-1.712-2.057-0.676-2.909 1.005-0.828 2.453-0.316 2.721 0.952 0.011 0.050 0.055 0.086 0.107 0.086h1.885c0.021-0 0.041-0.007 0.056-0.019l0-0q0.159-0.127 0.3-0.27zM20.772 12.447c0-0.841-0.682-1.522-1.522-1.522v0c-0.841 0-1.522 0.682-1.522 1.522v0c0 0.841 0.682 1.522 1.522 1.522v0c0.841 0 1.522-0.682 1.522-1.522v0zM10.104 18.961c0-0.841-0.682-1.523-1.523-1.523v0c-0.841 0-1.523 0.682-1.523 1.523v0c0 0.841 0.682 1.523 1.523 1.523v0c0.841 0 1.523-0.682 1.523-1.523v0zM20.758 25.365c-0.041-1.155-1.443-1.794-2.363-1.136-0.998 0.714-0.859 2.193 0.284 2.663 0.646 0.267 1.324 0.072 1.762-0.475q0.34-0.425 0.317-1.052zM13.897 25.484c0-0.84-0.681-1.521-1.521-1.521v0c-0.84 0-1.521 0.681-1.521 1.521v0c0 0.84 0.681 1.521 1.521 1.521v0c0.84 0 1.521-0.681 1.521-1.521v0z"></path>
<path d="M11.305 11.576c0-0.010 0.008-0.018 0.018-0.018v0h1.994c0.080 0 0.146 0.034 0.146 0.076v0 0.044c0 0.042-0.065 0.076-0.146 0.076v0h-1.994c-0.010 0-0.018-0.008-0.018-0.018v-0.162z"></path>
<path d="M18.255 11.569l1.99-0.004c0.045-0 0.082 0.036 0.082 0.081l0 0.024c0 0.045-0.036 0.082-0.081 0.082l-1.99 0.004c-0.045 0-0.082-0.036-0.082-0.081l-0-0.024c-0-0.045 0.036-0.082 0.081-0.082z"></path>
<path d="M11.367 11.938h2.031c0.033 0 0.060 0.027 0.060 0.060v0.064c0 0.033-0.027 0.060-0.060 0.060h-2.031c-0.033 0-0.060-0.027-0.060-0.060v-0.064c0-0.033 0.027-0.060 0.060-0.060z"></path>
<path d="M18.231 11.94l2.037-0.004c0.032-0 0.058 0.026 0.058 0.057l0 0.072c0 0.032-0.026 0.057-0.057 0.058l-2.037 0.004c-0.032 0-0.058-0.026-0.058-0.057l-0-0.072c-0-0.032 0.026-0.057 0.057-0.058z"></path>
<path d="M11.401 12.355h1.972c0.046 0 0.083 0.037 0.083 0.083v0.033c0 0.046-0.037 0.083-0.083 0.083h-1.972c-0.046 0-0.083-0.037-0.083-0.083v-0.033c0-0.046 0.037-0.083 0.083-0.083z"></path>
<path d="M18.259 12.357l1.983 0.007c0.047 0 0.085 0.038 0.085 0.086l-0 0.024c-0 0.047-0.038 0.085-0.086 0.085l-1.983-0.007c-0.047-0-0.085-0.038-0.085-0.086l0-0.024c0-0.047 0.038-0.085 0.086-0.085z"></path>
<path d="M18.23 12.742l2.040-0.004c0.032-0 0.058 0.026 0.058 0.057l0 0.067c0 0.032-0.026 0.057-0.057 0.058l-2.040 0.004c-0.032 0-0.058-0.026-0.058-0.057l-0-0.067c-0-0.032 0.026-0.057 0.057-0.058z"></path>
<path d="M11.388 12.741h2c0.038 0 0.070 0.031 0.070 0.070v0.046c0 0.038-0.031 0.070-0.070 0.070h-2c-0.038 0-0.070-0.031-0.070-0.070v-0.046c0-0.038 0.031-0.070 0.070-0.070z"></path>
<path d="M18.224 13.36c-0 0-0 0-0.001 0-0.024 0-0.044-0.020-0.044-0.044 0 0 0 0 0 0v0-0.101c-0-0.034 0.007-0.061 0.017-0.062h0l2.11-0.007c0 0 0-0 0-0 0.010-0 0.017 0.028 0.018 0.062 0 0 0 0 0 0v0 0.101c0 0 0 0 0 0 0 0.024-0.020 0.044-0.044 0.044h-0l-2.056 0.007z"></path>
<path d="M11.41 13.141h1.942c0.052 0 0.094 0.042 0.094 0.094v0.027c0 0.052-0.042 0.094-0.094 0.094h-1.942c-0.052 0-0.094-0.042-0.094-0.094v-0.027c0-0.052 0.042-0.094 0.094-0.094z"></path>
<path d="M17.489 18.964c0 0.927-0.752 1.678-1.678 1.678v0c-0.927 0-1.678-0.752-1.678-1.678v0c0-0.927 0.752-1.678 1.678-1.678v0c0.927 0 1.678 0.752 1.678 1.678v0zM17.332 18.964c0-0.84-0.681-1.522-1.522-1.522v0c-0.84 0-1.522 0.681-1.522 1.522v0c0 0.84 0.681 1.522 1.522 1.522v0c0.84 0 1.522-0.681 1.522-1.522v0z"></path>
<path d="M24.72 18.962c0 0.927-0.752 1.679-1.679 1.679v0c-0.927 0-1.679-0.752-1.679-1.679v0c0-0.927 0.752-1.679 1.679-1.679v0c0.927 0 1.679 0.752 1.679 1.679v0zM24.56 18.964c0-0.84-0.681-1.521-1.521-1.521v0c-0.84 0-1.521 0.681-1.521 1.521v0c0 0.84 0.681 1.521 1.521 1.521v0c0.84 0 1.521-0.681 1.521-1.521v0z"></path>
<path d="M7.568 18.050h2.005c0.043 0 0.077 0.035 0.077 0.077v0.046c0 0.043-0.034 0.077-0.077 0.077h-2.005c-0.043 0-0.077-0.035-0.077-0.077v-0.046c0-0.043 0.035-0.077 0.077-0.077z"></path>
<path d="M14.8 18.049h1.993c0.044 0 0.080 0.036 0.080 0.080v0.040c0 0.044-0.036 0.080-0.080 0.080h-1.993c-0.044 0-0.080-0.036-0.080-0.080v-0.040c0-0.044 0.036-0.080 0.080-0.080z"></path>
<path d="M22.031 18.049l1.989 0.003c0.041 0 0.073 0.033 0.073 0.074l-0 0.052c-0 0.041-0.033 0.073-0.074 0.073l-1.989-0.003c-0.041-0-0.073-0.033-0.073-0.074l0-0.052c0-0.041 0.033-0.073 0.074-0.073z"></path>
<path d="M7.555 18.481h2.031c0.036 0 0.065 0.029 0.065 0.065v0.054c0 0.036-0.029 0.065-0.065 0.065h-2.031c-0.036 0-0.065-0.029-0.065-0.065v-0.054c0-0.036 0.029-0.065 0.065-0.065z"></path>
<path d="M14.787 18.484l2.027-0.004c0.031-0 0.056 0.025 0.056 0.056l0 0.074c0 0.031-0.025 0.056-0.056 0.056l-2.027 0.004c-0.031 0-0.056-0.025-0.056-0.056l-0-0.074c-0-0.031 0.025-0.056 0.056-0.056z"></path>
<path d="M22.023 18.484l2.011-0.004c0.038-0 0.069 0.031 0.069 0.068l0 0.048c0 0.038-0.031 0.069-0.068 0.069l-2.011 0.004c-0.038 0-0.069-0.031-0.069-0.068l-0-0.048c-0-0.038 0.031-0.069 0.068-0.069z"></path>
<path d="M7.564 18.852h2.018c0.042 0 0.076 0.034 0.076 0.076v0.047c0 0.042-0.034 0.076-0.076 0.076h-2.018c-0.042 0-0.076-0.034-0.076-0.076v-0.047c0-0.042 0.034-0.076 0.076-0.076z"></path>
<path d="M14.796 18.854l2.007-0.004c0.037-0 0.067 0.030 0.067 0.067l0 0.065c0 0.037-0.030 0.067-0.067 0.067l-2.008 0.004c-0.037 0-0.067-0.030-0.067-0.067l-0-0.065c-0-0.037 0.030-0.067 0.066-0.067z"></path>
<path d="M22.020 18.85l2.011 0.004c0.034 0 0.062 0.028 0.062 0.062l-0 0.074c-0 0.034-0.028 0.062-0.062 0.062l-2.011-0.004c-0.034-0-0.062-0.028-0.062-0.062l0-0.074c0-0.034 0.028-0.062 0.062-0.062z"></path>
<path d="M7.564 19.283h2.015c0.040 0 0.072 0.032 0.072 0.072v0.041c0 0.040-0.032 0.072-0.072 0.072h-2.015c-0.040 0-0.072-0.032-0.072-0.072v-0.041c0-0.040 0.032-0.072 0.072-0.072z"></path>
<path d="M14.806 19.284h1.993c0.042 0 0.076 0.034 0.076 0.076v0.033c0 0.042-0.034 0.076-0.076 0.076h-1.993c-0.042 0-0.076-0.034-0.076-0.076v-0.033c0-0.042 0.034-0.076 0.076-0.076z"></path>
<path d="M22.044 19.284h1.975c0.042 0 0.076 0.034 0.076 0.076v0.032c0 0.042-0.034 0.076-0.076 0.076h-1.975c-0.042 0-0.076-0.034-0.076-0.076v-0.032c0-0.042 0.034-0.076 0.076-0.076z"></path>
<path d="M14.799 19.651l2.005 0.004c0.037 0 0.067 0.030 0.067 0.067l-0 0.053c-0 0.037-0.030 0.067-0.067 0.067l-2.005-0.004c-0.037-0-0.067-0.030-0.066-0.067l0-0.053c0-0.037 0.030-0.067 0.067-0.067z"></path>
<path d="M24.053 19.652c0.024 0 0.043 0.020 0.043 0.044 0 0 0 0 0 0v0 0.026c0 0 0 0 0 0-0 0.073-0.064 0.131-0.142 0.131l-1.864-0.010c-0 0-0 0-0 0-0.078-0-0.141-0.060-0.141-0.132v0l0.001-0.026c0-0.024 0.020-0.044 0.044-0.044v0l2.059 0.011z"></path>
<path d="M7.557 19.654l2.019 0.004c0.042 0 0.076 0.034 0.076 0.077l-0 0.030c-0 0.042-0.034 0.076-0.077 0.076l-2.018-0.004c-0.042-0-0.076-0.034-0.076-0.077l0-0.030c0-0.042 0.034-0.076 0.077-0.076z"></path>
<path d="M18.224 24.59l2.057 0.004c0.027 0 0.049 0.022 0.049 0.049l-0 0.088c-0 0.027-0.022 0.049-0.049 0.049l-2.057-0.004c-0.027-0-0.049-0.022-0.049-0.049l0-0.088c0-0.027 0.022-0.049 0.049-0.049z"></path>
<path d="M11.386 24.593h1.994c0.037 0 0.067 0.030 0.067 0.067v0.051c0 0.037-0.030 0.067-0.067 0.067h-1.994c-0.037 0-0.067-0.030-0.067-0.067v-0.051c0-0.037 0.030-0.067 0.067-0.067z"></path>
<path d="M11.376 24.978h2.006c0.033 0 0.060 0.027 0.060 0.060v0.065c0 0.033-0.027 0.060-0.060 0.060h-2.006c-0.033 0-0.060-0.027-0.060-0.060v-0.065c0-0.033 0.027-0.060 0.060-0.060z"></path>
<path d="M18.224 24.978h2.054c0.029 0 0.052 0.024 0.052 0.052v0.080c0 0.029-0.024 0.052-0.052 0.052h-2.054c-0.029 0-0.052-0.024-0.052-0.052v-0.080c0-0.029 0.024-0.052 0.052-0.052z"></path>
<path d="M11.365 25.395h2.031c0.025 0 0.046 0.020 0.046 0.046v0.094c0 0.025-0.020 0.046-0.046 0.046h-2.031c-0.025 0-0.046-0.020-0.046-0.046v-0.094c0-0.025 0.020-0.046 0.046-0.046z"></path>
<path d="M18.236 25.396h2.031c0.034 0 0.062 0.028 0.062 0.062v0.063c0 0.034-0.028 0.062-0.062 0.062h-2.031c-0.034 0-0.062-0.028-0.062-0.062v-0.063c0-0.034 0.028-0.062 0.062-0.062z"></path>
<path d="M18.223 25.779h2.054c0.028 0 0.050 0.022 0.050 0.050v0.086c0 0.028-0.022 0.050-0.050 0.050h-2.054c-0.028 0-0.050-0.022-0.050-0.050v-0.086c0-0.028 0.022-0.050 0.050-0.050z"></path>
<path d="M11.379 25.781h2c0.035 0 0.064 0.028 0.064 0.064v0.058c0 0.035-0.028 0.064-0.064 0.064h-2c-0.035 0-0.064-0.028-0.064-0.064v-0.058c0-0.035 0.028-0.064 0.064-0.064z"></path>
<path d="M11.385 26.197h1.99c0.038 0 0.068 0.031 0.068 0.068v0.048c0 0.038-0.031 0.068-0.068 0.068h-1.99c-0.038 0-0.068-0.031-0.068-0.068v-0.048c0-0.038 0.031-0.068 0.068-0.068z"></path>
<path d="M18.242 26.198h2.015c0.040 0 0.073 0.033 0.073 0.073v0.040c0 0.040-0.033 0.073-0.073 0.073h-2.015c-0.040 0-0.073-0.033-0.073-0.073v-0.040c0-0.040 0.033-0.073 0.073-0.073z"></path>
</svg>
