<!--
SPDX-FileCopyrightText: Copyright © 2019-Present, Lemmy project <https://join-lemmy.org>

SPDX-License-Identifier: AGPL-3.0-only
-->
<!-- Original logo designed by Andy Cuccaro -->
<svg version="1.1" xmlns="http://www.w3.org/2000/svg" width="32" height="32" viewBox="0 0 32 32">
<title>ds-lemmy</title>
<path d="M3.853 14.429c-1.885-0.682-3.841-2.472-3.852-4.654-0.012-2.469 2.099-4.562 4.621-4.139q2.785 0.467 4.647 2.823c0.021 0.026 0.053 0.043 0.089 0.043 0.019 0 0.037-0.005 0.053-0.013l-0.001 0c1.95-1.010 4.188-1.389 6.377-1.418 2.457-0.031 4.641 0.204 6.814 1.307 0.028 0.015 0.061 0.023 0.096 0.023 0.067 0 0.126-0.031 0.164-0.080l0-0q1.692-2.131 4.335-2.655c2.396-0.476 4.49 1.207 4.774 3.587 0.362 3.031-2.68 5.146-5.286 5.619-0.091 0.017-0.159 0.096-0.159 0.191 0 0.007 0 0.015 0.001 0.022l-0-0.001c0.193 1.795-0.413 3.458-1.336 4.937-0.001 0.002-0.002 0.004-0.003 0.006-0.023 0.043-0.006 0.097 0.038 0.121 0.002 0.001 0.004 0.002 0.006 0.003l-0-0q1.198 0.517 2.369 0.979c0.834 0.329 0.375 1.262-0.184 1.071q-1.448-0.492-2.576-1.031c-0.201-0.097-0.343-0.104-0.515 0.065q-0.828 0.818-1.759 1.518-0.044 0.035-0.010 0.079l1.867 2.365c0.028 0.035 0.046 0.081 0.046 0.131 0 0.008-0 0.016-0.001 0.024l0-0.001q-0.039 0.37-0.314 0.523c-0.531 0.297-0.874-0.355-1.14-0.68q-0.692-0.845-1.321-1.739-0.043-0.064-0.108-0.022-1.272 0.799-2.692 1.296-0.068 0.025-0.112 0.082c-1.505 1.964-4.131 2.307-5.55 0.024-0.024-0.039-0.061-0.068-0.104-0.083l-0.001-0c-0.952-0.32-1.961-0.687-2.753-1.315q-0.056-0.044-0.094 0.014-1.307 1.925-1.778 2.366-0.365 0.341-0.746-0.007c-0.394-0.358-0.028-0.775 0.214-1.081q0.716-0.909 1.404-1.839 0.031-0.042-0.008-0.076l-1.863-1.723q-0.053-0.047-0.119-0.022-1.431 0.565-2.859 1.119c-0.63 0.244-1.147-0.67-0.234-1.056q1.13-0.479 2.311-0.999c0.004-0.002 0.009-0.004 0.014-0.007 0.097-0.052 0.134-0.173 0.082-0.269-0.003-0.005-0.006-0.010-0.009-0.014l0 0.001q-1.409-2.208-1.247-4.842c0-0.003 0-0.006 0-0.009 0-0.075-0.056-0.136-0.129-0.145l-0.001-0c-0.505-0.057-0.889-0.214-1.455-0.418zM8.399 8.929c-1.147-1.452-3.476-2.878-5.374-2.194-1.147 0.413-1.921 1.434-2.052 2.651-0.233 2.164 1.715 3.57 3.529 4.283q0.488 0.191 0.952 0.212c0.002 0 0.005 0 0.007 0 0.080 0 0.146-0.057 0.161-0.132l0-0.001q0.526-2.821 2.752-4.6c0.036-0.029 0.059-0.073 0.059-0.122 0-0.037-0.013-0.071-0.034-0.097l0 0zM31.062 9.842c0.082-1.855-1.581-3.508-3.45-3.271q-1.601 0.203-3 1.307c-0.329 0.261-0.584 0.671-0.949 0.953-0.003 0.002-0.006 0.005-0.009 0.008-0.053 0.049-0.055 0.132-0.006 0.185 0.003 0.003 0.006 0.006 0.009 0.008l-0-0c0.799 0.717 1.504 1.455 1.984 2.414q0.549 1.096 0.802 2.293c0 0.002 0.001 0.004 0.002 0.007 0.029 0.118 0.148 0.191 0.265 0.162 0.003-0.001 0.005-0.001 0.008-0.002l-0 0c1.866-0.531 4.246-1.788 4.346-4.063zM23.854 10.606q-0.989-1.071-1.895-1.504c-1.991-0.952-4.354-1.15-6.589-1.079-4.061 0.128-8.529 1.823-8.871 6.558-0.153 2.108 0.147 3.856 1.567 5.571q1.909 2.303 4.651 3.448c0.018 0.008 0.039 0.012 0.061 0.012 0.087 0 0.158-0.071 0.158-0.158 0-0 0-0.001 0-0.001v0c-0.022-3.977 6.245-3.921 6.11 0.067-0 0.007 0 0.014 0.002 0.021 0.010 0.054 0.061 0.090 0.115 0.081 0.008-0.001 0.015-0.004 0.022-0.007l-0.001 0c2.783-1.155 5.641-3.548 6.26-6.654 0.226-1.137 0.154-2.706-0.135-3.826q-0.343-1.322-1.456-2.53zM16.924 21.616c-1.828-0.831-3.658 0.868-2.758 2.783 0.498 1.061 1.914 1.291 2.844 0.78 1.448-0.798 1.473-2.855-0.086-3.562z"></path>
<path d="M12.621 18.587c0 0.808-0.655 1.463-1.463 1.463s-1.463-0.655-1.463-1.463c0-0.808 0.655-1.463 1.463-1.463s1.463 0.655 1.463 1.463z"></path>
<path d="M22.307 18.588c0 0.795-0.645 1.44-1.44 1.44s-1.44-0.645-1.44-1.44c0-0.795 0.645-1.44 1.44-1.44s1.44 0.645 1.44 1.44z"></path>
</svg>
