<!--
SPDX-FileCopyrightText: Copyright © 2021-Present, John Spurlock <https://skymethod.com>

SPDX-License-Identifier: LicenseRef-AllRightsReserved
-->
<svg version="1.1" xmlns="http://www.w3.org/2000/svg" width="32" height="32" viewBox="0 0 32 32">
<title>ds-minipub</title>
<path d="M16 0.251c-8.692 0-15.749 7.057-15.749 15.749s7.057 15.749 15.749 15.749 15.749-7.057 15.749-15.749c0-8.692-7.057-15.749-15.749-15.749zM22.363 21.275h-2.753v-10.591h4.382c1.189 0 2.1 0.309 2.732 0.927s0.948 1.489 0.948 2.613-0.316 1.995-0.948 2.613c-0.632 0.618-1.543 0.927-2.732 0.927h-1.629v3.512zM4.595 21.275l1.798-10.591h2.725l2.121 5.647 2.107-5.647h2.725l1.798 10.591h-2.739l-0.913-6.096-2.5 6.096h-1.096l-2.374-6.096-0.913 6.096h-2.739zM22.363 15.544h0.913c1.011 0 1.517-0.44 1.517-1.32s-0.506-1.32-1.517-1.32h-0.913v2.641z"></path>
</svg>
