<!--
SPDX-FileCopyrightText: Copyright © 2021-Present, Mitra Contributors https://mitra.social>

SPDX-License-Identifier: AGPL-3.0-only
-->
<svg version="1.1" xmlns="http://www.w3.org/2000/svg" width="32" height="32" viewBox="0 0 32 32">
<title>ds-mitra</title>
<path d="M27.447 11.325l4.636 4.634c0.009 0.009 0.015 0.022 0.015 0.035s-0.006 0.026-0.015 0.035v0l-4.619 4.617c-0.027 0.027-0.041 0.062-0.041 0.098l0 0.001v6.551c0 0.019-0.016 0.035-0.035 0.035v0h-6.573q-0.034 0-0.060 0.025l-4.622 4.622q-0.031 0.030-0.062 0l-4.622-4.622q-0.025-0.025-0.060-0.025h-6.573c-0.019 0-0.035-0.016-0.035-0.035v0-6.42c-0.001-0.121-0.048-0.235-0.13-0.319l-0.002-0.002-4.54-4.54c-0-0-0-0-0-0-0.012-0.012-0.012-0.032 0-0.044v0l4.653-4.651c0.013-0.013 0.020-0.030 0.020-0.049v0-6.563c0-0.019 0.016-0.035 0.035-0.035v0h6.562c0.019 0 0.037-0.008 0.049-0.020l4.631-4.63c0.011-0.011 0.027-0.018 0.044-0.018s0.032 0.007 0.044 0.018v0l4.626 4.626q0.025 0.025 0.060 0.025h6.556c0.019 0 0.035 0.016 0.035 0.035v0 6.557q0 0.035 0.025 0.060zM16.071 1.097l-4.312 4.305c-0.017 0.017-0.039 0.026-0.062 0.026l-0.001-0h-6.125q-0.035 0-0.035 0.035v6.137q0 0.032-0.022 0.053l-4.325 4.318c-0.007 0.008-0.012 0.018-0.012 0.029s0.005 0.022 0.012 0.029v0q2.146 2.137 4.205 4.208c0.109 0.11 0.147 0.226 0.147 0.371q-0.012 2.961-0.002 5.919 0 0.032 0.032 0.032l6.087-0.001c0.042 0 0.081 0.016 0.109 0.044l0.001 0.001 4.312 4.312q0.022 0.022 0.044 0l4.332-4.33q0.026-0.026 0.063-0.026l6.115-0.002c0.019 0 0.035-0.015 0.035-0.034v0-6.115c0-0.024 0.010-0.047 0.026-0.063l0-0 4.313-4.312c0.010-0.010 0.016-0.024 0.016-0.039s-0.006-0.029-0.016-0.039v0l-4.313-4.314q-0.027-0.027-0.027-0.064v-6.114c0-0.019-0.016-0.035-0.035-0.035v0h-6.117q-0.034 0-0.060-0.025l-4.306-4.306q-0.039-0.039-0.079 0z"></path>
<path d="M12.244 6.662l3.825-3.825c0.008-0.008 0.020-0.013 0.032-0.013s0.024 0.005 0.032 0.013v0l3.83 3.829c0.008 0.008 0.020 0.013 0.032 0.013 0 0 0 0 0 0v0l5.397-0.017c0.025 0 0.046 0.020 0.046 0.046v0 5.414c0 0 0 0 0 0 0 0.013 0.005 0.024 0.013 0.032v0l3.816 3.816c0.008 0.008 0.013 0.020 0.013 0.032s-0.005 0.024-0.013 0.032v0l-3.816 3.816c-0.008 0.008-0.013 0.020-0.013 0.032 0 0 0 0 0 0v0 5.402c0 0.025-0.020 0.046-0.046 0.046v0h-5.403c0 0-0 0-0 0-0.013 0-0.024 0.005-0.032 0.013v0l-3.824 3.825c-0.008 0.008-0.020 0.013-0.032 0.013s-0.024-0.005-0.032-0.013v0l-3.825-3.825c-0.008-0.008-0.020-0.013-0.032-0.013-0 0-0 0-0 0h-5.402c-0.025 0-0.046-0.020-0.046-0.046v0-5.402c0 0 0-0 0-0 0-0.013-0.005-0.024-0.013-0.032v0l-3.816-3.816c-0.008-0.008-0.013-0.020-0.013-0.032s0.005-0.024 0.013-0.032v0l3.816-3.815c0.008-0.008 0.013-0.020 0.013-0.032 0-0 0-0 0-0v0-5.404c0-0.025 0.020-0.046 0.046-0.046v0l5.402 0.001c0 0 0 0 0 0 0.013 0 0.024-0.005 0.032-0.013v0zM19.624 7.462c0.008-0.008 0.013-0.020 0.013-0.032s-0.005-0.024-0.013-0.032l-3.49-3.49c-0.008-0.008-0.020-0.013-0.032-0.013s-0.024 0.005-0.032 0.013l-3.484 3.484c-0.008 0.008-0.013 0.020-0.013 0.032s0.005 0.024 0.013 0.032l3.49 3.49c0.008 0.008 0.020 0.013 0.032 0.013s0.024-0.005 0.032-0.013l3.484-3.484zM12.555 7.492c0-0.035-0.028-0.063-0.063-0.063v0h-4.912c-0.035 0-0.063 0.028-0.063 0.063v0 4.895c0 0.034 0.028 0.063 0.063 0.063h4.912c0.034 0 0.063-0.028 0.063-0.063v0-4.895zM24.684 7.478c0-0.027-0.022-0.048-0.048-0.048h-4.94c-0.027 0-0.048 0.022-0.048 0.048v0 4.923c0 0.027 0.022 0.048 0.048 0.048h4.94c0.027 0 0.048-0.022 0.048-0.048v0-4.923zM23.053 18.856l-2.82-2.815c-0.022-0.022-0.023-0.057-0.001-0.079v0l2.803-2.801c0.007-0.007 0.011-0.016 0.011-0.026 0-0.020-0.016-0.037-0.037-0.037-0 0-0 0-0 0l-3.975 0.001q-0.036 0-0.036-0.036v-4.009c0-0 0-0 0-0.001 0-0.009-0.007-0.015-0.015-0.015-0.004 0-0.008 0.002-0.011 0.005v0l-2.833 2.834q-0.034 0.034-0.069 0l-2.829-2.831c-0.004-0.003-0.009-0.006-0.014-0.006-0.011 0-0.020 0.009-0.020 0.020v4.002q0 0.035-0.034 0.035l-3.998 0.002c-0.015 0-0.027 0.012-0.027 0.027 0 0.008 0.003 0.015 0.008 0.020v0l2.827 2.825c0.017 0.018 0.017 0.045 0 0.062l-2.841 2.838c-0.001 0.001-0.002 0.002-0.002 0.003-0.003 0.006 0 0.013 0.006 0.015 0.001 0.001 0.003 0.001 0.004 0.001l4.021-0.003c0.020 0 0.036 0.016 0.036 0.035v0 4.033c0 0.007 0.006 0.013 0.013 0.013 0.004 0 0.007-0.001 0.009-0.004v0l2.834-2.836c0.022-0.022 0.058-0.022 0.079 0l2.811 2.812c0.002 0.002 0.005 0.004 0.009 0.006 0.014 0.006 0.030-0.001 0.036-0.014 0.001-0.004 0.002-0.007 0.002-0.011v0l-0.001-4c0-0.020 0.016-0.036 0.035-0.036v0l4.005 0.002c0.012-0 0.021-0.010 0.021-0.021 0-0.006-0.002-0.011-0.006-0.015v0zM11.059 16.025c0.006-0.006 0.009-0.014 0.009-0.022s-0.004-0.017-0.009-0.022l-3.51-3.51c-0.006-0.006-0.014-0.009-0.022-0.009s-0.017 0.004-0.022 0.009l-3.51 3.51c-0.006 0.006-0.009 0.014-0.009 0.022s0.004 0.017 0.009 0.022l3.51 3.51c0.006 0.006 0.014 0.009 0.022 0.009s0.017-0.004 0.022-0.009l3.51-3.51zM28.201 16.033c0.008-0.008 0.012-0.018 0.012-0.029s-0.005-0.022-0.012-0.029l-3.496-3.496c-0.008-0.008-0.018-0.012-0.029-0.012s-0.022 0.005-0.029 0.012l-3.49 3.49c-0.008 0.008-0.012 0.018-0.012 0.029s0.005 0.022 0.012 0.029l3.496 3.496c0.008 0.008 0.018 0.012 0.029 0.012s0.022-0.005 0.029-0.012l3.49-3.49zM12.555 19.616c0-0.032-0.026-0.058-0.058-0.058v0h-4.92c-0.032 0-0.058 0.026-0.058 0.058v0 4.903c0 0.032 0.026 0.058 0.058 0.058v0h4.92c0.032 0 0.058-0.026 0.058-0.058v0-4.903zM24.684 19.597c0-0.022-0.018-0.040-0.040-0.040v0h-4.957c-0.022 0-0.040 0.018-0.040 0.040v0 4.94c0 0.022 0.018 0.040 0.040 0.040v0h4.957c0.022 0 0.040-0.018 0.040-0.040v0-4.94zM12.573 24.551c-0.007 0.007-0.011 0.016-0.011 0.026s0.004 0.019 0.011 0.026v0l3.503 3.502c0.007 0.007 0.016 0.011 0.026 0.011s0.019-0.004 0.026-0.011v0l3.503-3.502c0.007-0.007 0.011-0.016 0.011-0.026s-0.004-0.019-0.011-0.026v0l-3.503-3.502c-0.007-0.007-0.016-0.011-0.026-0.011s-0.019 0.004-0.026 0.011v0l-3.503 3.502z"></path>
<path d="M14.276 20.348v-2.503c0-0.014-0.011-0.025-0.025-0.025v0h-2.485c-0 0-0 0-0 0-0.014 0-0.025-0.011-0.025-0.025 0-0.007 0.003-0.013 0.007-0.018v0l1.758-1.758c0.004-0.004 0.007-0.011 0.007-0.017s-0.003-0.013-0.007-0.018v0l-1.763-1.758c-0.004-0.005-0.007-0.011-0.007-0.018 0-0.014 0.011-0.025 0.025-0.025 0 0 0 0 0 0v0l2.49-0.008c0.014 0 0.025-0.011 0.025-0.025v0-2.491c0-0 0-0 0-0 0-0.014 0.011-0.025 0.025-0.025 0.007 0 0.013 0.003 0.018 0.007v0l1.765 1.765c0.005 0.004 0.011 0.007 0.018 0.007s0.013-0.003 0.018-0.007v0l1.765-1.764c0.005-0.004 0.011-0.007 0.018-0.007 0.014 0 0.025 0.011 0.025 0.025 0 0 0 0 0 0v0 2.504c0 0.014 0.011 0.025 0.025 0.025v0l2.489-0.005c0 0 0 0 0 0 0.014 0 0.025 0.011 0.025 0.025 0 0.007-0.003 0.014-0.008 0.018v0l-1.761 1.758c-0.004 0.005-0.007 0.011-0.007 0.018s0.003 0.013 0.007 0.018v0l1.757 1.757c0.004 0.005 0.007 0.011 0.007 0.018 0 0.014-0.011 0.025-0.025 0.025-0 0-0 0-0 0v0h-2.485c-0.014 0-0.025 0.011-0.025 0.025v0 2.501c-0 0.014-0.012 0.025-0.025 0.025-0.007 0-0.013-0.003-0.018-0.007v0l-1.764-1.765c-0.005-0.004-0.011-0.007-0.018-0.007s-0.013 0.003-0.018 0.007v0l-1.766 1.767c-0.005 0.004-0.011 0.007-0.018 0.007-0.014 0-0.025-0.011-0.025-0.025 0-0 0-0 0-0v0zM14.901 14.837l-1.551-0.004c-0.015 0-0.028 0.013-0.028 0.028 0 0.008 0.003 0.015 0.008 0.020v0l1.090 1.091c0 0 0 0 0 0 0.017 0.017 0.017 0.044-0 0.061v0l-1.095 1.095c-0.002 0.002-0.004 0.005-0.005 0.008-0.005 0.013 0 0.027 0.013 0.032 0.003 0.001 0.006 0.002 0.010 0.002h1.565c0.020 0 0.036 0.016 0.036 0.036v0l-0.004 1.566c0 0 0 0 0 0 0 0.010 0.008 0.018 0.018 0.018 0.005 0 0.009-0.002 0.013-0.005v0l1.1-1.1q0.030-0.031 0.061 0l1.105 1.102c0.003 0.003 0.007 0.005 0.011 0.005 0.009 0 0.016-0.007 0.016-0.016v-0l-0.006-1.568c0-0.020 0.016-0.036 0.037-0.036v0h1.565c0.013-0 0.024-0.011 0.024-0.025 0-0.007-0.003-0.012-0.007-0.017v0l-1.095-1.095c-0-0-0-0-0-0-0.017-0.017-0.017-0.044 0-0.061v0l1.080-1.080c0.006-0.006 0.010-0.014 0.010-0.023 0-0.018-0.015-0.033-0.033-0.033h-1.542c-0.020 0-0.036-0.016-0.036-0.037v0c-0.001-0.459-0.069-1.106 0.025-1.545 0-0.002 0.001-0.005 0.001-0.007 0-0.018-0.014-0.032-0.032-0.032-0.009 0-0.017 0.004-0.023 0.010v0l-1.090 1.088c-0.010 0.010-0.024 0.016-0.039 0.016s-0.029-0.006-0.039-0.016v0l-1.092-1.091c-0.003-0.003-0.008-0.005-0.013-0.005-0.010 0-0.017 0.008-0.018 0.017v0l0.004 1.56q0 0.043-0.043 0.043z"></path>
</svg>
