<!--
SPDX-FileCopyrightText: Copyright © 2017-Present, Aaron Parecki <https://aaronparecki.com>

SPDX-License-Identifier: CC0-1.0
-->
<svg version="1.1" xmlns="http://www.w3.org/2000/svg" width="32" height="32" viewBox="0 0 32 32">
<title>ds-micropub</title>
<path d="M18.11 10.131q-0.427 0.261-0.735 0.711-0.686-2.845-0.877-5.738c-0.014-0.223-0.064-0.44-0.109-0.659-0.004-0.022-0.023-0.038-0.046-0.038s-0.040 0.015-0.045 0.036l-0 0q-0.153 0.612-0.189 1.276-0.030 0.544-0.3 2.176-0.262 1.589-0.313 1.829-0.23 1.073-0.659 2.125 0.302-1.542-0.313-2.756 0.852-2.646 1.345-5.216c0.055-0.283 0.212-0.5 0.269-0.729q0.186-0.747 0.201-1.518 0-0.033 0.033-0.029c0.060 0.007 0.408 2.766 0.428 3 0.091 1.084 0.386 4.921 1.311 5.53z"></path>
<path d="M22.036 7.047q-0.047-0.263-0.574-0.104 0.3-0.586 0.449-1.186c0-0.005-0.004-0.009-0.009-0.009-0.003 0-0.006 0.001-0.007 0.004l-0 0-0.505 1.177-0.495 0.311q0.745-1.53 1.454-3.065c0.086-0.187 0.185-0.518 0.327-0.748 0.004-0.006 0.010-0.011 0.017-0.014 0.019-0.008 0.041 0.001 0.049 0.019 0.003 0.008 0.004 0.016 0.002 0.023l0-0c-0.27 1.201-0.556 2.275-0.709 3.592z"></path>
<path d="M9.761 8.532q-0.872 0.8-1.123 2.173c-0.974-2.303-1.944-4.002-3.318-6.299-0.003-0.006-0.005-0.013-0.004-0.021 0.002-0.018 0.018-0.031 0.036-0.029 0.008 0.001 0.014 0.004 0.019 0.010l-0-0c1.39 1.395 2.604 2.641 4.040 3.794q0.217 0.174 0.35 0.373z"></path>
<path d="M17.375 10.843l-0.541 0.638q-0.329-2.23-0.497-4.471c-0.015-0.196 0.002-0.519-0.042-0.778q-0.015-0.090-0.035-0.001c-0.063 0.271 0.006 0.53-0.060 0.812q-0.038 0.16-0.045 0.294c-0.090 1.591-0.221 3.202-0.503 4.771q-0.109 0.609-0.223 1.264l-0.147 0.245q-0.023 0.040-0.038-0.004-0.3-0.925-0.409-1.763 0.429-1.052 0.659-2.125 0.051-0.24 0.313-1.829 0.27-1.632 0.3-2.176 0.036-0.664 0.189-1.276c0.005-0.021 0.023-0.036 0.045-0.036s0.042 0.016 0.046 0.038l0 0c0.045 0.22 0.096 0.437 0.109 0.659q0.191 2.893 0.877 5.738z"></path>
<path d="M21.462 6.944q0.020-0.019-0.072-0.015l0.505-1.177c0.002-0.002 0.004-0.004 0.007-0.004 0.005 0 0.009 0.004 0.009 0.009v0q-0.149 0.6-0.449 1.186z"></path>
<path d="M16.835 11.481l-1.405 1.891q0.113-0.655 0.223-1.264c0.282-1.569 0.413-3.18 0.503-4.771q0.007-0.134 0.045-0.294c0.067-0.282-0.003-0.541 0.060-0.812q0.020-0.089 0.035 0.001c0.044 0.259 0.027 0.583 0.042 0.778q0.168 2.241 0.497 4.471z"></path>
<path d="M22.036 7.047q1.331 0.586 2.374 1.166c0.628 0.35 1.263 1 0.632 1.728-0.214 0.248-0.198 0.572-0.3 0.849q-0.147 0.399-0.164 0.476-0.145 0.659-0.058 1.321 0.044 0.070 0.045 0.243l-0.144 1.016-0.283 2.349-0.081 0.807 0.002 0.074-0.098 0.668-0.165 1.254q-0.116-0.034-0.121 0.062c-0.036 0.669-0.167 1.369-0.044 2.043q0.122 0.836-0.298 1.325-0.333 0.326-0.661 0.367-0.383 0.095-0.788-0.006l-2.536-1.074q-1.012-0.278-1.101-1.748l0.007-1.409v-0.703q0-0.069-0.040-0.012l-0.387 0.54q-0.33 0.556-0.418 1.189l-0.341 0.998-0.288 0.614q-0.703 1.018-1.892 1.093l-0.702-0.005-0.219-0.010-0.505-0.115q-1.469-0.476-1.848-1.925l-0.146-0.753q0.044-0.208-0.042-0.417c-0.031-0.578-0.002-1.143-0.070-1.725-0.001-0.011-0.006-0.021-0.014-0.030-0.020-0.023-0.055-0.025-0.078-0.005-0.009 0.008-0.015 0.018-0.017 0.029l0-0-0.526 2.239-0.091 0.447-0.222 0.808-0.344 1.257q-0.211 0.148-0.409 0.353c-0.39 0.403-0.784 0.562-1.348 0.539-0.616 0.083-1.399-0.745-1.682-1.185-0.239-0.838-0.828-1.709-0.693-2.603q0.114-0.748 0.553-2.318-0.051-0.37 0.12-0.812 0.2-0.518 0.541-1.521c0.113-0.081 0.199-0.124 0.251-0.264q0.678-1.822 1.236-3.554 0.251-1.373 1.123-2.173 0.399-0.121 0.774-0.235c1.082-0.327 2.927-0.363 3.697 0.656 0.077 0.101 0.174 0.136 0.291 0.141q0.616 1.213 0.313 2.756 0.108 0.838 0.409 1.763 0.015 0.044 0.038 0.004l0.147-0.245 1.405-1.891 0.541-0.638q0.308-0.451 0.735-0.711 0.815-0.806 1.639-1.646c0.351-0.357 0.849-0.691 1.145-1.246l0.495-0.311q0.093-0.004 0.072 0.015 0.527-0.16 0.574 0.104zM11.18 14.183c0.607-0.097 0.929 0.406 1.018 0.935 0.233 1.388 0.284 2.897 0.414 4.357 0.119 1.343 0.996 1.85 2.294 1.697q0.784-0.093 1.056-0.832c0.362-0.981 0.523-2.012 1.156-2.874q0.985-1.34 2.078-2.615c0.015-0.017 0.036-0.028 0.060-0.028 0.020 0 0.038 0.007 0.052 0.019l-0-0 0.391 0.331q0.033 0.029 0.027 0.073-0.293 1.897-0.401 3.812c-0.030 0.533-0.083 1.35 0.427 1.676 0.75 0.48 1.749 1.022 2.599 1.013 0.113-0.002 0.205-0.091 0.209-0.203v-0c0.11-3.041 0.555-6.124 0.953-9.141 0.128-0.976 0.279-2.464 0.773-3.048 0.009-0.011 0.015-0.026 0.015-0.041s-0.005-0.029-0.014-0.040l0 0q-0.090-0.109-0.222-0.184-1.093-0.614-2.269-1.104c-0.009-0.004-0.019-0.006-0.030-0.006-0.019 0-0.037 0.007-0.050 0.018l0-0c-2.766 2.254-4.967 5.228-6.832 8.238-0.007 0.012-0.021 0.020-0.036 0.020-0.019 0-0.035-0.013-0.040-0.030l-0-0q-0.639-2.226-1.156-4.494c-0.035-0.155-0.002-0.224 0.098-0.332q0.032-0.033 0.041-0.079c0.121-0.632 0.029-1.913-0.757-2.117q-0.857-0.222-1.781-0.103c-0.642 0.083-1.022 0.352-1.259 0.935q-1.618 4.001-2.799 7.909-0.209 0.691-0.257 1.204c-0.096 1.018 0.473 2.391 1.48 2.785 0.392 0.153 0.608-0.113 0.698-0.474q0.651-2.566 1.289-5.136c0.168-0.673 0.328-1.499 0.697-2.092q0.028-0.044 0.079-0.053z"></path>
<path d="M27.868 17.027q-0.043 0.176 0.148 0.133l0.563 0.331 0.637 0.323 2.783 1.227q0 0.022 0 0.045c-0.748 0.006-1.515-0.094-2.227-0.094q-1.672-0.001-4.057-0.165-0.853-0.059-1.919 0.171l0.165-1.254 6.581 0.968c0.001 0 0.001 0 0.002 0 0.014 0 0.025-0.011 0.025-0.025 0-0.010-0.006-0.019-0.016-0.023l-0-0q-1.106-0.396-2.212-0.779c-0.458-0.159-1.2-0.351-1.784-0.596q-1.197-0.506-2.419-1.094l0.283-2.349 2.426-1.744q0.153-0.11-0.025-0.162-0.014-0.004-0.123 0.042-1.023 0.424-2.134 0.849-0.001-0.173-0.045-0.243c0.069 0.037 0.071 0.031 0.146-0.004q2.122-0.96 4.332-2.005 0.143-0.067 0.081 0.078c-0.050 0.118-0.241 0.233-0.328 0.334q-0.332 0.386-0.679 0.758c-0.136 0.146-0.142 0.329-0.288 0.441-0.818 0.626-1.823 1.398-2.403 2.255q-0.467 0.691 0.313 1.253 1.118 0.808 2.177 1.33z"></path>
<path d="M24.422 13.845l0.144-1.016q1.111-0.425 2.134-0.849 0.109-0.045 0.123-0.042 0.178 0.052 0.025 0.162l-2.426 1.744zM24.584 13.44l0.583-0.21c0.004-0.002 0.007-0.006 0.007-0.011 0-0.002-0-0.003-0.001-0.005l0 0-0.001-0.004c-0-0-0-0-0-0.001-0.020-0.055-0.134-0.064-0.255-0.021l-0.168 0.060c-0.121 0.044-0.203 0.123-0.183 0.178 0 0 0 0.001 0 0.001l-0-0 0.001 0.004c0.002 0.005 0.006 0.008 0.011 0.008 0.002 0 0.003-0 0.004-0.001l-0 0z"></path>
<path d="M24.584 13.44c-0.001 0.001-0.003 0.001-0.004 0.001-0.005 0-0.010-0.003-0.011-0.008l-0-0-0.001-0.004c-0-0-0-0-0-0.001-0.020-0.055 0.062-0.135 0.183-0.178v0l0.168-0.060c0.121-0.044 0.235-0.034 0.255 0.021 0 0 0 0 0 0.001v-0l0.001 0.004c0.001 0.001 0.001 0.003 0.001 0.005 0 0.005-0.003 0.009-0.007 0.011l-0 0-0.583 0.21z"></path>
<path d="M7.15 14.524q-0.34 1.003-0.541 1.521-0.171 0.442-0.12 0.812-3.332 0.031-6.489-0.183v-0.047q1.335-0.281 2.662-0.586c1.554-0.356 3.027-0.917 4.487-1.517zM6.481 16.044c-0-0.016-0.319-0.023-0.711-0.015v0c-0.392 0.008-0.71 0.028-0.71 0.045v0c0 0.016 0.319 0.023 0.711 0.015v0c0.392-0.008 0.71-0.028 0.71-0.045v0z"></path>
<path d="M6.481 16.044c0 0.016-0.317 0.036-0.71 0.045s-0.711 0.002-0.711-0.015c-0-0.016 0.317-0.036 0.71-0.045s0.711-0.002 0.711 0.015z"></path>
<path d="M23.962 17.744l0.098-0.668 1.305 0.217q0.115 0.019 0.012-0.034c-0.033-0.019-1.173-0.34-1.319-0.257l0.081-0.807q1.222 0.588 2.419 1.094c0.583 0.246 1.325 0.438 1.784 0.596q1.107 0.383 2.212 0.779c0.009 0.004 0.016 0.013 0.016 0.023 0 0.014-0.011 0.025-0.025 0.025-0.001 0-0.001-0-0.002-0h0l-6.581-0.968z"></path>
<path d="M24.060 17.076l-0.002-0.074c0.146-0.083 1.286 0.238 1.319 0.257q0.103 0.054-0.012 0.034l-1.305-0.217z"></path>
<path d="M27.868 17.027q0.118 0.038 0.148 0.133-0.191 0.044-0.148-0.133z"></path>
<path d="M11.428 19.051l-0.704 0.507 0.526-2.239c0.002-0.011 0.008-0.021 0.017-0.029 0.023-0.020 0.057-0.018 0.078 0.005 0.008 0.009 0.012 0.019 0.014 0.030l-0-0c0.068 0.582 0.039 1.147 0.070 1.725z"></path>
<path d="M28.58 17.49q0.432 0.088 0.637 0.323l-0.637-0.323z"></path>
<path d="M18.255 18.559q-0.233-0.034-0.427-0.175l0.387-0.54q0.040-0.057 0.040 0.012v0.703z"></path>
<path d="M17.828 18.384q0.194 0.141 0.427 0.175l-0.007 1.409q-0.129 0.963-0.048 1.875 0.182 2.050 0.515 4.081 0.044 0.271-0.068 0.525-0.024 0.056-0.061 0.007-0.107-0.138-0.146-0.283c-0.486-1.805-0.998-3.397-1.658-4.988l0.288-0.614c0.516 1.468 0.761 2.624 1.147 3.942 0.003 0.010 0.012 0.018 0.023 0.018 0.013 0 0.023-0.010 0.023-0.023 0-0.002-0-0.004-0.001-0.006l0 0-0.851-4.929q0.088-0.633 0.418-1.189z"></path>
<path d="M11.428 19.051q0.086 0.21 0.042 0.417l-0.837 0.537 0.091-0.447 0.704-0.507z"></path>
<path d="M11.47 19.469l0.146 0.753-1.204 0.592 0.222-0.808 0.837-0.537z"></path>
<path d="M17.41 19.573l0.851 4.929c0 0.002 0.001 0.004 0.001 0.006 0 0.013-0.010 0.023-0.023 0.023-0.011 0-0.020-0.008-0.023-0.018l-0-0c-0.387-1.318-0.632-2.474-1.147-3.942l0.341-0.998z"></path>
<path d="M18.247 19.968q0.089 1.47 1.101 1.748c-0.331 0.479-0.262 1.055-0.256 1.657q0.019 1.894 0.152 3.476-0.106 0.254 0.011 0.447c-0.040 1.005 0.141 2.095 0.228 3.103h-0.081q-0.514-1.589-1.15-3.136-0.054-0.131 0.008-0.339 0.014-0.045-0.001-0.091-0.534-1.695-1.278-3.304c-0.165-0.357-0.389-0.752-0.629-0.999-0.368-0.378-0.841 0.261-1.031 0.532-1.013 1.453-1.725 3.034-2.584 4.574q-0.577 1.034-1.077 2.090c-0.004 0.007-0.011 0.012-0.019 0.012-0.012 0-0.021-0.010-0.021-0.021 0-0.001 0-0.003 0-0.004l-0 0c0.216-0.94 0.409-1.835 0.534-2.827 0.112-0.889 0.765-4.799 0.087-5.235-0.454-0.292-1.698 0.212-2.175 0.42l0.344-1.257 1.204-0.592q0.378 1.45 1.848 1.925-0.304 2.15-0.804 4.389-0.027 0.12 0.094 0.096 0.128-0.025 0.221-0.231 0.918-2.041 1.915-4.125 1.189-0.075 1.892-1.093c0.66 1.592 1.172 3.183 1.658 4.988q0.039 0.145 0.146 0.283 0.037 0.048 0.061-0.007 0.111-0.254 0.068-0.525-0.333-2.031-0.515-4.081-0.081-0.912 0.048-1.875z"></path>
<path d="M23.632 21.103c0.278 0.413 0.524 0.945 0.722 1.284q1.411 2.411 2.985 4.717 0.045 0.067-0.033 0.050-0.125-0.027-0.25-0.134c-1.687-1.457-3.427-2.841-5.171-4.229q0.405 0.1 0.788 0.006l2.219 1.937c0.016 0.014 0.037 0.023 0.060 0.023 0.044 0 0.081-0.032 0.089-0.074l0-0.001c0.020-0.11-0.051-0.264-0.131-0.36q-0.785-0.938-1.576-1.892 0.419-0.49 0.298-1.325z"></path>
<path d="M6.629 21.777c0.283 0.441 1.066 1.268 1.682 1.185q-1.371 0.679-3.032 1.745c-0.376 0.241-0.942 0.526-1.39 0.815q-0.985 0.637-1.961 1.26c-0.007 0.004-0.015 0.007-0.024 0.006-0.020-0.002-0.034-0.019-0.033-0.039 0.001-0.009 0.005-0.016 0.011-0.022l-0 0q1.266-1.304 2.476-2.669c0.194-0.219 0.479-0.407 0.704-0.658q0.659-0.734 1.567-1.624z"></path>
<path d="M13.463 22.147l0.505 0.115-0.504 1.864c-0.001 0.003-0.001 0.007 0.001 0.011 0.004 0.007 0.013 0.010 0.021 0.007 0.004-0.002 0.006-0.004 0.008-0.007l-0 0q0.405-0.898 0.694-1.864l0.702 0.005q-0.997 2.083-1.915 4.125-0.093 0.206-0.221 0.231-0.121 0.023-0.094-0.096 0.5-2.239 0.804-4.389z"></path>
<path d="M13.968 22.262l0.219 0.010q-0.288 0.966-0.694 1.864c-0.002 0.003-0.004 0.006-0.008 0.007-0.008 0.004-0.017 0.001-0.021-0.007-0.002-0.004-0.002-0.007-0.001-0.011v0l0.504-1.864z"></path>
<path d="M23.334 22.428q0.791 0.954 1.576 1.892c0.080 0.096 0.151 0.25 0.131 0.36-0.008 0.043-0.045 0.074-0.089 0.074-0.023 0-0.044-0.009-0.060-0.023l0 0-2.219-1.937q0.328-0.042 0.661-0.367zM23.044 22.863l0.139 0.158q0.070 0.080 0.038-0.021-0.047-0.147-0.169-0.152-0.023-0.001-0.008 0.016z"></path>
<path d="M23.044 22.863q-0.015-0.017 0.008-0.016 0.122 0.006 0.169 0.152 0.032 0.101-0.038 0.021l-0.139-0.158z"></path>
<path d="M19.244 26.849q0.052 0.216 0.011 0.447-0.117-0.193-0.011-0.447z"></path>
</svg>
