<!--
SPDX-FileCopyrightText: Copyright © 2016-Present, Mastodon GmbH

SPDX-License-Identifier: AGPL-3.0-only
-->
<svg version="1.1" xmlns="http://www.w3.org/2000/svg" width="32" height="32" viewBox="0 0 32 32">
<title>ds-mastodon</title>
<path d="M28.984 8.312c-0.403-2.965-3.016-5.302-6.112-5.754-0.522-0.077-2.502-0.355-7.088-0.355h-0.034c-4.587 0-5.571 0.279-6.093 0.355-3.011 0.44-5.76 2.54-6.427 5.54-0.321 1.477-0.355 3.116-0.296 4.618 0.085 2.155 0.101 4.306 0.299 6.452 0.137 1.425 0.375 2.84 0.714 4.232 0.634 2.571 3.201 4.711 5.715 5.584 2.692 0.91 5.588 1.062 8.362 0.436 0.305-0.070 0.607-0.152 0.905-0.245 0.674-0.212 1.463-0.449 2.044-0.865 0.008-0.006 0.015-0.013 0.019-0.022s0.007-0.018 0.008-0.028v-2.079c-0-0.009-0.002-0.018-0.006-0.026s-0.010-0.015-0.017-0.021-0.016-0.010-0.025-0.012c-0.009-0.002-0.018-0.002-0.027 0-1.777 0.42-3.599 0.63-5.426 0.627-3.145 0-3.991-1.476-4.233-2.091-0.195-0.531-0.318-1.085-0.368-1.648-0.001-0.009 0.001-0.019 0.005-0.028s0.010-0.016 0.017-0.022 0.016-0.010 0.025-0.012c0.009-0.002 0.019-0.002 0.028 0.001 1.748 0.417 3.54 0.628 5.338 0.627 0.432 0 0.863 0 1.296-0.011 1.808-0.050 3.714-0.142 5.494-0.485 0.044-0.009 0.089-0.016 0.127-0.028 2.806-0.533 5.477-2.206 5.748-6.443 0.010-0.167 0.035-1.747 0.035-1.92 0.001-0.588 0.192-4.173-0.028-6.375zM24.665 18.884h-2.951v-7.149c0-1.505-0.634-2.273-1.924-2.273-1.418 0-2.128 0.908-2.128 2.702v3.913h-2.933v-3.913c0-1.793-0.711-2.702-2.129-2.702-1.282 0-1.922 0.768-1.924 2.273v7.149h-2.948v-7.366c0-1.505 0.389-2.701 1.165-3.587 0.801-0.884 1.853-1.338 3.158-1.338 1.51 0 2.652 0.574 3.412 1.722l0.734 1.219 0.736-1.219c0.761-1.148 1.902-1.722 3.41-1.722 1.304 0 2.355 0.454 3.159 1.338 0.777 0.886 1.165 2.081 1.165 3.587l-0.003 7.366z"></path>
</svg>
