<!--
SPDX-FileCopyrightText: Copyright © 2014-2023 syuilo and contributers https://misskey-hub.net>

SPDX-License-Identifier: CC-BY-NC-SA-4.0
-->
<svg version="1.1" xmlns="http://www.w3.org/2000/svg" width="32" height="32" viewBox="0 0 32 32">
<title>ds-misskey</title>
<path d="M15.823 20.364q-0.117-0.132-0.281-0.071c-0.444 0.165-0.599 0.538-0.863 0.859-1.382 1.673-3.855 1.696-5.356 0.2-0.253-0.251-0.57-0.794-0.92-1.004-0.355-0.214-0.563 0.070-0.554 0.414 0.027 1.164 0.144 2.761-0.255 3.836-1.527 4.134-7.595 3.084-7.594-1.417q0.002-6.893 0.013-13.784c0-0.623-0.017-1.292 0.185-1.869 1.033-2.954 4.647-3.665 6.713-1.295q2.68 3.076 4.101 4.742c0.595 0.699 1.364 0.499 1.902-0.138q2.461-2.909 3.968-4.632c2.053-2.348 5.967-1.577 6.766 1.538q0.138 0.536 0.138 2.005 0.001 6.148 0.002 12.293 0 1.765-0.18 2.398c-0.734 2.583-3.979 3.606-6.143 1.941-1.797-1.382-1.51-3.423-1.528-5.409-0.001-0.231 0.052-0.421-0.113-0.608z"></path>
<path d="M31.985 8.158c0.007 1.861-1.501 3.376-3.367 3.382s-3.384-1.497-3.39-3.358c-0.007-1.861 1.501-3.376 3.367-3.382s3.384 1.497 3.39 3.358z"></path>
<path d="M29.223 12.254c1.444 0.211 2.769 1.733 2.769 3.187q-0.001 3.645 0.007 7.288 0.002 1.558-0.185 2.166c-0.944 3.070-5.409 3.058-6.4 0.062q-0.176-0.532-0.177-1.7-0.005-3.941-0.001-7.884 0-0.879 0.68-1.767 1.263-1.651 3.307-1.352z"></path>
</svg>
