<!--
SPDX-FileCopyrightText: Copyright © 2019-Present, Mobilizon Contributors https://joinmobilizon.org>

SPDX-License-Identifier: CC-BY-SA-4.0
-->
<svg version="1.1" xmlns="http://www.w3.org/2000/svg" width="32" height="32" viewBox="0 0 32 32">
<title>ds-mobilizon</title>
<path d="M28.218-0c2.089 0 3.782 1.693 3.782 3.782v24.436c0 2.089-1.693 3.782-3.782 3.782h-24.436c-2.089 0-3.782-1.693-3.782-3.782v-24.436c0-2.089 1.693-3.782 3.782-3.782h24.436zM21.009 12.191c-2.813-2.491-7.039-2.491-9.852 0-1.549 1.555-2.324 3.796-2.324 6.723s0.775 5.167 2.324 6.718c2.813 2.491 7.039 2.491 9.852 0 1.549-1.566 2.324-3.805 2.324-6.718 0-2.927-0.775-5.168-2.324-6.723zM16.083 13.816c1.933 0 2.9 1.795 2.9 5.386s-0.967 5.386-2.9 5.386c-1.933 0-2.9-1.795-2.9-5.386s0.967-5.386 2.9-5.386zM18.085 4.98c-0.599-0.346-1.274-0.511-1.954-0.476-0.71-0.025-1.414 0.138-2.050 0.476-0.216 0.537-0.324 1.116-0.318 1.7-0.006 0.584 0.102 1.164 0.318 1.7 0.593 0.363 1.273 0.529 1.954 0.476 0.711 0.042 1.419-0.123 2.050-0.476 0.216-0.537 0.324-1.116 0.318-1.7 0.006-0.584-0.102-1.164-0.318-1.7z"></path>
</svg>
