<!--
SPDX-FileCopyrightText: Copyright © 2018-Present, New Vector Ltd <contact@element.io>

SPDX-License-Identifier: LicenseRef-AllRightsReserved
-->
<svg version="1.1" xmlns="http://www.w3.org/2000/svg" width="32" height="32" viewBox="0 0 32 32">
<title>ds-matrix</title>
<path d="M29.082 31.234v-30.5h-2.19v-0.732h3.040v32h-3.040v-0.732z"></path>
<path d="M10.212 10.434v1.54h0.044c0.385-0.564 0.893-1.030 1.49-1.37 0.58-0.323 1.25-0.485 1.99-0.485 0.72 0 1.38 0.14 1.97 0.42 0.595 0.279 1.050 0.771 1.36 1.48 0.338-0.5 0.796-0.941 1.38-1.32 0.58-0.383 1.27-0.574 2.060-0.574 0.602 0 1.16 0.074 1.67 0.22 0.514 0.148 0.954 0.383 1.32 0.707s0.653 0.746 0.859 1.27c0.205 0.522 0.308 1.15 0.308 1.89v7.63h-3.13v-6.46c0-0.383-0.015-0.743-0.044-1.080-0.021-0.307-0.103-0.607-0.242-0.882-0.133-0.251-0.336-0.458-0.584-0.596-0.257-0.146-0.606-0.22-1.050-0.22-0.44 0-0.796 0.085-1.070 0.253-0.272 0.17-0.485 0.39-0.639 0.662-0.159 0.287-0.264 0.602-0.308 0.927-0.052 0.347-0.078 0.697-0.078 1.050v6.35h-3.13v-6.4c0-0.338-0.007-0.673-0.021-1-0.011-0.314-0.075-0.623-0.188-0.916-0.108-0.277-0.3-0.512-0.55-0.673-0.258-0.168-0.636-0.253-1.14-0.253-0.198 0.008-0.394 0.042-0.584 0.1-0.258 0.075-0.498 0.202-0.705 0.374-0.228 0.184-0.422 0.449-0.584 0.794s-0.242 0.798-0.242 1.36v6.62h-3.13v-11.4z"></path>
<path d="M2.918 0.766v30.5h2.19v0.732h-3.040v-32h3.030v0.732z"></path>
</svg>
