<!--
SPDX-FileCopyrightText: Copyright © 2012-Present, Evan Prodromou <https://evanp.me/>

SPDX-License-Identifier: CC-BY-3.0
-->
<svg version="1.1" xmlns="http://www.w3.org/2000/svg" width="32" height="32" viewBox="0 0 32 32">
<title>ds-ostatus</title>
<path d="M17.716 0.887c4.69 0.676 8.571 4.367 9.543 9.001q0.225 1.068 0.225 3.106-0.003 5.433-0.002 10.857c0 0.052-0.042 0.094-0.094 0.094v0q-5.21 0-10.452 0-2.192 0-3.267-0.208c-5.719-1.111-9.593-6.467-9.2-12.194 0.468-6.802 6.533-11.625 13.246-10.655zM20.105 7.364c-2.906-2.391-7.335-1.905-9.457 1.267-2.716 4.062-0.448 9.237 4.281 10.212 1.063 0.22 2.578 0.015 3.707-0.517 4.329-2.043 5.235-7.867 1.469-10.962z"></path>
<path d="M6.519 30.399c0.655-0.261 0.433-0.955-0.139-1.193-0.717-0.299-1.487-0.522-1.595-1.25-0.253-1.705 1.469-1.95 2.673-1.431q0.079 0.034 0.113 0.113 0.135 0.305 0.020 0.628c-0.002 0.006-0.005 0.012-0.008 0.018-0.040 0.078-0.135 0.11-0.213 0.071-0.006-0.003-0.012-0.007-0.018-0.011l0.001 0q-0.676-0.458-1.467-0.253-0.082 0.021-0.12 0.095-0.366 0.694 0.3 0.906c0.801 0.254 1.582 0.52 1.708 1.408q0.205 1.439-1.103 1.69c-0.594 0.115-2.271 0.057-1.881-1.062 0.002-0.005 0.004-0.011 0.007-0.016 0.033-0.067 0.115-0.093 0.182-0.060 0.005 0.003 0.011 0.006 0.015 0.009l-0.001-0c0.396 0.264 1.065 0.52 1.524 0.336z"></path>
<path d="M26.397 30.328c0.441-0.281 0.248-0.873-0.182-1.067-0.694-0.31-1.626-0.52-1.712-1.423-0.158-1.634 1.597-1.864 2.716-1.28q0.072 0.038 0.077 0.12l0.044 0.55c0.002 0.017-0 0.036-0.005 0.055-0.024 0.084-0.112 0.132-0.196 0.108-0.019-0.005-0.036-0.014-0.050-0.024l0.001 0.001c-0.387-0.284-1.433-0.597-1.695 0.010-0.432 0.994 2.601 0.745 2.109 2.791-0.295 1.236-1.759 1.15-2.77 0.83q-0.082-0.026-0.125-0.102-0.208-0.387-0.048-0.837 0.030-0.082 0.102-0.031c0.43 0.305 1.246 0.61 1.735 0.299z"></path>
<path d="M10.704 27.324l-0.003 3.648c0 0 0 0 0 0 0 0.090-0.071 0.164-0.161 0.167h-0l-0.607 0.026c-0.002 0-0.004 0-0.007 0-0.092 0-0.167-0.075-0.167-0.167 0-0 0-0 0-0v0-3.676c0 0 0-0 0-0 0-0.091-0.073-0.166-0.164-0.167h-0l-0.816-0.015c-0.091-0.002-0.164-0.076-0.164-0.167 0 0 0-0 0-0v0-0.399c0-0.092 0.075-0.167 0.167-0.167v0h2.933c0 0 0 0 0 0 0.092 0 0.167 0.075 0.167 0.167 0 0.003-0 0.007-0 0.010l0-0-0.023 0.399c-0.005 0.087-0.075 0.155-0.162 0.158h-0l-0.829 0.016c-0.091 0.002-0.164 0.076-0.164 0.167 0 0 0 0 0 0v0z"></path>
<path d="M13.5 30.026l-0.246 0.971q-0.016 0.067-0.080 0.094-0.373 0.158-0.722 0.012-0.113-0.048-0.080-0.166l1.18-4.429q0.028-0.105 0.138-0.103l0.924 0.007q0.13 0.002 0.164 0.126l1.211 4.511c0.001 0.004 0.002 0.009 0.003 0.014 0.006 0.049-0.029 0.093-0.079 0.099-0.005 0.001-0.010 0.001-0.015 0.001h0.001l-0.663-0.021q-0.103-0.003-0.133-0.102l-0.305-1.012q-0.034-0.116-0.154-0.116l-0.978-0.010c-0 0-0 0-0.001 0-0.078 0-0.144 0.053-0.163 0.125l-0 0.001zM13.709 29.091c-0.001 0.005-0.002 0.012-0.002 0.018 0 0.048 0.039 0.087 0.087 0.087 0.001 0 0.001 0 0.002-0h-0l0.743-0.007c0.048-0 0.086-0.039 0.086-0.087 0-0.008-0.001-0.015-0.003-0.022l0 0.001-0.389-1.588c-0.010-0.038-0.044-0.066-0.084-0.066s-0.075 0.028-0.085 0.067l-0 0.001-0.356 1.597z"></path>
<path d="M19.761 26.597l-0.031 0.386c-0.008 0.090-0.083 0.16-0.174 0.161l-0.76 0.003c-0.097 0-0.176 0.079-0.176 0.176v0 3.614c0 0 0 0.001 0 0.001 0 0.091-0.069 0.165-0.157 0.175l-0.001 0-0.633 0.064c-0.005 0.001-0.012 0.001-0.018 0.001-0.097 0-0.175-0.078-0.176-0.175v-3.681c0-0.097-0.079-0.176-0.176-0.176v0h-0.788c0 0-0 0-0 0-0.096 0-0.174-0.077-0.176-0.172v-0l-0.005-0.387c-0-0.001-0-0.002-0-0.003 0-0.097 0.079-0.176 0.176-0.176 0 0 0 0 0 0h2.919c0.097 0.001 0.175 0.079 0.175 0.176 0 0.005-0 0.010-0.001 0.015l0-0.001z"></path>
<path d="M21.614 30.254c0.691 0.34 1.119-0.072 1.114-0.783q-0.013-1.485-0.002-2.975 0-0.090 0.092-0.090h0.756c0 0 0 0 0 0 0.061 0 0.11 0.048 0.113 0.108v0q0.059 1.231-0.002 2.452c-0.069 1.369-0.369 2.519-2.022 2.225-1.705-0.304-1.264-3.042-1.221-4.711q0.002-0.074 0.076-0.074h0.76q0.087 0 0.087 0.087c0.005 0.86-0.194 2.947 0.138 3.648 0.024 0.049 0.062 0.088 0.109 0.113l0.001 0.001z"></path>
</svg>
