<!--- SPDX-FileCopyrightText: 2023 to Present, Ocelot Social <npub:npub1fl7pr0azlpgk469u034lsgn46dvwguz9g339p03dpetp9cs5pq5qxzeknp>

SPDX-License-Identifier: MIT -->
<svg version="1.1" xmlns="http://www.w3.org/2000/svg" width="32" height="32" viewBox="0 0 32 32">
<title>ds-ocelot</title>
<path d="M30.246 9.083l0.092 0.060q0.029 0.019 0.037 0.051c0.481 1.829-0.16 3.735-1.416 5.082-0.402 0.432-0.824 0.736-0.801 1.39q0.027 0.774 0.181 1.633 0.069 0.388 0.053 0.682c-0.094 1.667-0.638 3.325-1.621 4.671q-0.282 0.388-0.936 1.155c-0.823 0.966-1.708 1.907-2.862 2.481q-0.087 0.044-0.137 0.127-0.84 1.414-2.262 2.241c-0.021 0.012-0.036 0.031-0.043 0.054l-0 0.001c-0.336 1.080-1.11 1.993-2.188 2.336q-0.445 0.141-1.455 0.175-1.628 0.053-2.289 0.011c-1.489-0.095-2.503-1.135-2.953-2.494-0.009-0.025-0.025-0.045-0.046-0.058l-0-0q-1.444-0.866-2.298-2.318-0.020-0.033-0.054-0.050-0.988-0.49-1.812-1.324c-0.751-0.759-1.522-1.629-2.071-2.39-1.003-1.392-1.796-3.657-1.517-5.369q0.132-0.808 0.166-1.54c0.037-0.799-0.648-1.112-1.088-1.661-1.115-1.392-1.627-3.209-1.144-4.976 0.005-0.018-0.001-0.036-0.013-0.049l-0-0c-0.672-0.671-0.955-1.583-0.932-2.509 0.043-1.742 1.1-5.681 3.402-5.736 0.489-0.012 1.365 0.211 1.77 0.489q0.733 0.502 1.403 1.085 1.469 1.277 2.899 2.597c0.842 0.777 1.278 1.101 1.562 1.999q0.013 0.043 0.056 0.026 1.392-0.558 2.671-0.568c1.866-0.013 3.621-0.15 5.399 0.562q0.063 0.024 0.082-0.040 0.22-0.749 0.801-1.284 1.835-1.689 3.728-3.313 0.537-0.46 1.106-0.877c0.514-0.376 1.076-0.553 1.679-0.651 1.768-0.288 2.82 1.792 3.295 3.137 0.573 1.618 0.844 3.714-0.453 5.083-0.001 0.001-0.002 0.003-0.004 0.004-0.019 0.024-0.014 0.059 0.010 0.078 0.001 0.001 0.003 0.002 0.004 0.003l-0-0zM21.559 9.538q-0.036-0.019-0.078-0.067c-0.674-0.75-1.272-1.648-2.33-1.865-0.001-0-0.003-0-0.005-0-0.013 0-0.024 0.011-0.024 0.024 0 0.002 0 0.005 0.001 0.007l-0-0q0.154 0.549 0.418 1.066c0.707 1.383 1.39 2.836 1.641 4.331 0.199 1.193-0.618 2.477-1.443 3.261-0.016 0.015-0.040 0.020-0.061 0.013l-0-0c-0.235-0.085-0.823-0.46-0.616-0.785 0.346-0.54 0.425-1.16 0.597-1.768 0.098-0.348 0.356-0.655 0.533-0.974 0.017-0.029 0.026-0.064 0.026-0.101 0-0.036-0.009-0.070-0.026-0.1l0.001 0.001c-0.633-1.173-1.243-2.265-1.991-3.923-0.186-0.409-0.274-0.803-0.334-1.229-0.004-0.026-0.025-0.046-0.051-0.049l-0-0c-0.705-0.076-1.369 0.003-2.063-0.043q-0.714-0.048-1.432 0.042-0.039 0.005-0.044 0.044c-0.103 0.828-0.357 1.297-0.809 2.25q-0.671 1.415-1.448 2.778c-0.090 0.158-0.161 0.259-0.028 0.435 0.366 0.483 0.534 0.876 0.652 1.495q0.107 0.561 0.387 1.060c0.222 0.396-0.249 0.713-0.53 0.862-0.040 0.021-0.088 0.014-0.12-0.017l-0-0q-0.629-0.62-1.039-1.397c-0.427-0.811-0.522-1.477-0.294-2.347 0.403-1.537 1.034-2.821 1.729-4.177q0.119-0.232 0.216-0.719 0.007-0.036-0.029-0.028-0.765 0.19-1.316 0.753c-0.101 0.104-0.974 1.022-1.019 1.019q-0.067-0.005-0.046-0.069 0.261-0.795 0.458-1.601c0.152-0.617-0.121-1.086-0.562-1.492q-2.128-1.959-4.145-3.646c-0.584-0.488-1.124-0.852-1.806-0.917q-0.607-0.057-1.042 0.368c-1.274 1.249-2.367 4.582-1.174 6.138 0.32 0.417 1.034 1.258 0.29 1.675q-0.034 0.019-0.038 0.057-0.136 1.268 0.39 2.423 0.381 0.838 0.755 1.23c0.331 0.347 0.829 0.766 1.014 1.198 0.378 0.883 0.118 2.015-0.018 2.938q-0.006 0.042 0.024 0.013c0.317-0.3 0.538-0.625 0.808-0.907 0.253-0.264 0.531-0.19 0.801-0.001q0.496 0.346 0.974 0.722c0.129 0.101 0.162 0.233 0.235 0.376q0.021 0.041 0.056 0.012 0.61-0.487 1.358-0.703 0.148-0.043 0.256-0.138c0.221-0.195 0.284-0.294 0.607-0.376 0.848-0.213 2.054-0.253 2.726 0.397 0.335 0.324 0.8 0.839 0.876 1.296 0.154 0.928-0.321 1.861-0.905 2.606q-0.849 1.082-1.708 2.148c-0.004 0.005-0.007 0.012-0.007 0.019 0 0.016 0.013 0.028 0.028 0.028 0.003 0 0.007-0.001 0.009-0.002l-0 0c0.452-0.139 1.074-0.179 1.432 0.155q0.383 0.359 0.048 0.964-0.158 0.284-0.425 0.126c-0.27-0.16-0.409-0.21-0.742-0.169q-0.567 0.071-1.138 0.077-0.045 0-0.056 0.043l-0.149 0.583c-0.001 0.003-0.001 0.006-0.001 0.009 0 0.018 0.013 0.033 0.031 0.035l0 0c0.386 0.047 0.733 0.125 1.135 0.114q0.972-0.027 1.879 0.319c0.038 0.014 0.058 0.055 0.048 0.094l-0 0q-0.163 0.597-0.802 0.479c-0.48-0.089-0.901-0.192-1.406-0.16q-0.328 0.021-0.727-0.098-0.049-0.014-0.025 0.030c0.358 0.661 1.199 1.722 1.965 1.991 0.533 0.187 0.812 0.652 1.453 0.35q0.892-0.421 1.75-0.912 0.511-0.294 0.515-0.884c0-0.001-0-0.003-0-0.004-0.002-0.021-0.021-0.037-0.042-0.035-0.001 0-0.003 0-0.004 0.001l0-0c-0.811 0.171-1.444-0.168-1.498-1.043-0-0.001-0-0.002-0-0.003 0-0.021 0.017-0.039 0.039-0.039 0.012 0 0.024 0.006 0.031 0.015l0 0c0.173 0.218 0.386 0.113 0.415-0.134q0.055-0.482-0.244-0.88c-0.014-0.018-0.034-0.030-0.057-0.033l-0.001-0c-0.305-0.035-0.575-0.106-0.499-0.491 0.201-1.008 1.719-0.413 2.307-0.218q0.035 0.011 0.070 0.001c0.633-0.192 2.092-0.77 2.298 0.199 0.066 0.312-0.117 0.506-0.427 0.495-0.336-0.013-0.578 1.031-0.198 1.181q0.036 0.014 0.070-0.005l0.197-0.106c0.003-0.001 0.006-0.003 0.009-0.003 0.017-0.003 0.033 0.008 0.037 0.025 0.001 0.003 0.001 0.006 0 0.009v-0c-0.088 0.878-0.677 1.192-1.502 1.033q-0.033-0.006-0.034 0.028-0.010 0.555 0.385 0.826 0.475 0.325 1.843 0.961c0.546 0.253 0.82 0.055 1.335-0.263q1.204-0.744 1.935-1.976c0.003-0.005 0.005-0.011 0.005-0.017 0-0.019-0.016-0.035-0.035-0.035-0.003 0-0.006 0-0.009 0.001l0-0c-0.43 0.111-0.828 0.016-1.237 0.071-0.588 0.080-1.361 0.443-1.645-0.281q-0.043-0.111 0.069-0.152c0.424-0.151 0.804-0.251 1.288-0.253q0.867-0.004 1.727-0.163 0.038-0.007 0.026-0.044l-0.183-0.572c-0.008-0.025-0.030-0.043-0.056-0.045l-0-0c-0.552-0.061-1.49-0.252-1.939 0.126-0.019 0.016-0.042 0.025-0.065 0.027l-0.001 0c-0.34 0.033-0.459-0.597-0.423-0.819 0.122-0.736 1.122-0.653 1.616-0.514 0.004 0.001 0.009 0.001 0.014 0 0.016-0.003 0.027-0.019 0.024-0.035-0.001-0.005-0.003-0.009-0.006-0.013l0 0c-0.894-1.121-3.281-3.457-2.503-5.050q0.808-1.654 2.709-1.502c0.611 0.050 1.092 0.108 1.459 0.583 0.014 0.018 0.034 0.031 0.057 0.036l0.001 0q0.818 0.196 1.476 0.716 0.031 0.024 0.046-0.012c0.176-0.427 0.853-0.846 1.224-1.117 0.407-0.296 0.633-0.186 0.942 0.173q0.335 0.389 0.675 0.785c0.003 0.003 0.006 0.005 0.010 0.007 0.012 0.004 0.026-0.002 0.030-0.014 0.001-0.004 0.002-0.008 0.001-0.012l0 0q-0.198-0.994-0.232-2.020c-0.036-1.121 0.599-1.401 1.248-2.19 0.82-0.996 1.227-2.243 1.098-3.525-0.021-0.205-0.239-0.243-0.313-0.418-0.263-0.624 0.6-1.294 0.838-1.822q0.227-0.503 0.229-1.112c0.006-1.562-0.476-3.197-1.469-4.414-0.676-0.829-1.828-0.626-2.59-0.042-1.652 1.263-3.196 2.73-4.727 4.136-0.487 0.448-0.578 1.037-0.374 1.663q0.246 0.755 0.508 1.503c0.001 0.003 0.002 0.006 0.002 0.010 0 0.017-0.014 0.030-0.030 0.030-0.006 0-0.011-0.001-0.015-0.004l0 0zM12.275 18.452c-0.172-0.461-0.438-0.895-0.99-0.924-0 0-0.001 0-0.001 0-0.015 0-0.027 0.012-0.027 0.027 0 0.004 0.001 0.008 0.003 0.011l-0-0q0.37 0.803 0.126 1.667c-0.115 0.408-0.619 0.88-0.898 0.269q-0.449-0.981 0.048-1.965 0.019-0.036-0.022-0.037c-0.863-0.016-1.176 0.846-1.124 1.56 0.14 1.91 3.55 1.167 2.887-0.608zM19.753 19.403c0.289 0.58 1.109 0.803 1.7 0.754 1.869-0.152 1.199-2.788 0.097-2.615q-0.042 0.006-0.024 0.045 0.398 0.87 0.066 1.784c-0.196 0.542-0.678 0.547-0.903 0.024q-0.393-0.912 0.039-1.834 0.014-0.030-0.018-0.028c-0.857 0.068-1.314 1.153-0.957 1.869zM9.44 23.408q0.855-1.192 1.818-2.3c0.005-0.006 0.009-0.014 0.009-0.023 0-0.020-0.016-0.036-0.036-0.036-0.003 0-0.005 0-0.008 0.001l0-0c-1.874 0.399-3.141-1.024-2.653-2.85q0.055-0.207-0.121-0.085c-0.343 0.239-1.788 1.488-2.077 1.286q-0.338-0.237-0.226-0.642c0.064-0.23 0.218-0.562-0.172-0.629-0.472-0.082-0.614 0.51-0.759 0.952q-0.053 0.161-0.328 0.458c-0.013 0.014-0.021 0.032-0.021 0.053 0 0.006 0.001 0.013 0.002 0.018l-0-0.001q0.372 1.471 1.421 2.804c0.846 1.076 1.539 1.881 2.473 2.609 0.008 0.006 0.017 0.010 0.028 0.010 0.021 0 0.039-0.014 0.043-0.034l0-0 0.2-0.812q0.010-0.042-0.028-0.063c-0.375-0.197-0.785-0.49-0.318-0.915 0.023-0.021 0.056-0.026 0.084-0.014l0.539 0.248c0.013 0.006 0.028 0.010 0.044 0.010 0.035 0 0.066-0.017 0.085-0.044l0-0zM23.304 25.006c0.979-0.884 1.899-1.869 2.639-2.885q0.84-1.153 1.254-2.544c0.006-0.023-0.004-0.047-0.025-0.059l-0-0c-0.531-0.281-0.262-1.077-0.855-1.376-0.152-0.077-0.334-0.043-0.415 0.106-0.1 0.184 0.059 0.523 0.059 0.693q-0.002 0.334-0.283 0.422c-0.307 0.096-0.71-0.207-0.939-0.394-0.372-0.305-0.76-0.594-1.141-0.876-0.009-0.007-0.020-0.011-0.033-0.011-0.030 0-0.055 0.025-0.055 0.055 0 0.003 0 0.007 0.001 0.010l-0-0c0.141 0.785 0.163 1.586-0.357 2.22-0.548 0.669-1.483 0.866-2.323 0.681q-0.062-0.013-0.032 0.042 0.099 0.185 0.306 0.422 0.78 0.89 1.458 1.885c0.039 0.057 0.114 0.077 0.177 0.048l0-0 0.519-0.249c0.027-0.013 0.057-0.011 0.081 0.003l0.001 0q0.233 0.145 0.24 0.438c0.005 0.218-0.419 0.421-0.582 0.537-0.013 0.009-0.021 0.024-0.021 0.041 0 0.008 0.002 0.015 0.005 0.022l-0-0q0.162 0.349 0.221 0.733c0.005 0.029 0.029 0.050 0.059 0.050 0.015 0 0.030-0.006 0.040-0.016l-0 0zM15.16 28.275l1.667 0.005c0 0 0 0 0 0 0.022 0 0.040-0.018 0.040-0.040 0-0.015-0.008-0.028-0.020-0.035l-0-0c-0.262-0.146-0.621-0.322-0.795-0.579q-0.022-0.032-0.050-0.005-0.383 0.357-0.859 0.584c-0.006 0.003-0.011 0.007-0.015 0.014-0.011 0.017-0.005 0.040 0.012 0.051 0.006 0.004 0.013 0.006 0.020 0.006h-0zM19.23 29.178q-0.524-0.013-0.976-0.282c-0.020-0.012-0.043-0.014-0.064-0.006l-0.001 0q-0.435 0.163-0.889 0.25c-0.662 0.126-1.457 0.070-2.162 0.067q-0.467-0.002-1.227-0.309-0.039-0.016-0.076 0.004-0.476 0.251-1.016 0.28-0.045 0.002-0.021 0.041c0.864 1.37 2.338 1.109 3.719 1.1 1.246-0.008 2.057-0.106 2.726-1.118q0.017-0.025-0.013-0.026z"></path>
</svg>
