<!--- SPDX-FileCopyrightText: 2019-Present, Open Engiadina Project <https://codeberg.org/openEngiadina>

SPDX-License-Identifier: LicenseRef-AllRightsReserved -->
<svg version="1.1" xmlns="http://www.w3.org/2000/svg" width="32" height="32" viewBox="0 0 32 32">
<title>ds-openengiadina</title>
<path d="M16-0c8.837 0 16 7.163 16 16s-7.163 16-16 16c-8.837 0-16-7.163-16-16s7.163-16 16-16zM15.68 16.509c-3.119 3.774-3.364 7.939-0.734 12.494 1.926 0.618 4.426 0.114 7.498-1.513-2.24-1.554-3.819-3.124-4.734-4.71-0.897-1.553-1.564-3.59-2.002-6.11zM16.46 25.233c0.607-0.351 1.383-0.142 1.734 0.465s0.142 1.383-0.465 1.734c-0.607 0.351-1.383 0.142-1.734-0.465s-0.143-1.383 0.465-1.734zM15.218 15.811c-4.828-0.815-8.557 1.056-11.187 5.612 0.428 1.977 2.114 3.889 5.059 5.736 0.225-2.717 0.796-4.869 1.712-6.455 0.897-1.553 2.327-3.149 4.29-4.789zM15.224 18.7l0.024 0.096c0.43 1.736 0.994 3.212 1.695 4.427 0.138 0.23 0.239 0.394 0.303 0.491-0.469-0.057-1.008 0.091-1.618 0.443-0.914 0.528-1.116 1.726-1.12 1.714-0.023-0.066-0.071-0.22-0.146-0.461-0.639-2.348-0.363-4.55 0.824-6.644l0.038-0.067zM29.187 16.125c-2.462 1.163-4.608 1.745-6.438 1.745-1.791 0-3.886-0.44-6.284-1.321l-0.154-0.057c1.706 4.589 5.186 6.883 10.44 6.883 1.496-1.359 2.308-3.776 2.435-7.25zM6.319 21.313c0.351-0.607 1.127-0.815 1.734-0.465s0.815 1.127 0.465 1.734c-0.351 0.607-1.127 0.815-1.734 0.465s-0.815-1.127-0.465-1.734zM17.979 17.983l0.095 0.028c1.716 0.496 3.274 0.745 4.675 0.745 0.268-0.005 0.46-0.010 0.576-0.017-0.283 0.378-0.425 0.919-0.425 1.623 0 0.824 0.569 1.476 0.814 1.722l0.018 0.018c0.047 0.046 0.079 0.075 0.088 0.084l0.003 0.003c0 0.001 0.001 0.001 0 0.001-0.069-0.013-0.226-0.048-0.472-0.104-2.35-0.621-4.116-1.96-5.335-4.035l-0.039-0.067zM25.514 18.909c0.7 0 1.268 0.568 1.268 1.269s-0.568 1.269-1.268 1.269c-0.7 0-1.268-0.568-1.268-1.269s0.568-1.269 1.268-1.269zM13.092 16.511l-0.071 0.068c-1.289 1.24-2.285 2.466-2.986 3.682-0.13 0.235-0.221 0.404-0.274 0.508-0.185-0.435-0.583-0.828-1.192-1.18-0.914-0.528-2.053-0.104-2.045-0.113 0.046-0.053 0.155-0.172 0.326-0.357 1.715-1.727 3.759-2.589 6.166-2.608l0.077-0zM22.826 4.635c-0.178 2.721-0.711 4.882-1.599 6.484-0.869 1.569-2.272 3.19-4.206 4.863l-0.124 0.107c4.841 0.73 8.537-1.205 11.088-5.806-0.462-1.97-2.182-3.852-5.159-5.647zM5.247 8.437c-1.496 1.359-2.308 3.776-2.435 7.25 2.462-1.164 4.608-1.745 6.437-1.745 1.791 0 3.886 0.44 6.284 1.321l0.153 0.057c-1.706-4.589-5.186-6.883-10.44-6.883zM17.25 3.048c-1.915-0.651-4.423-0.191-7.523 1.382 2.213 1.593 3.763 3.19 4.651 4.792 0.869 1.569 1.501 3.617 1.895 6.144l0.025 0.162c3.185-3.719 3.502-7.879 0.952-12.48zM22.267 11.035c0.193 0.431 0.597 0.818 1.213 1.159 0.923 0.512 2.054 0.068 2.047 0.077-0.045 0.054-0.152 0.175-0.32 0.363-1.684 1.757-3.713 2.655-6.119 2.716l-0.077 0.001 0.070-0.070c1.267-1.263 2.241-2.506 2.922-3.733 0.126-0.237 0.214-0.408 0.265-0.513zM8.175 9.623c0.069 0.013 0.226 0.048 0.472 0.104 2.35 0.621 4.116 1.96 5.335 4.035l0.039 0.067-0.095-0.028c-1.716-0.496-3.274-0.745-4.675-0.745-0.268 0.005-0.46 0.010-0.576 0.017 0.283-0.378 0.425-0.919 0.425-1.623 0-0.824-0.569-1.476-0.814-1.722l-0.018-0.018c-0.047-0.046-0.079-0.075-0.088-0.084l-0.003-0.003c-0.001-0.001-0.001-0.001-0-0.001zM17.634 6.187c0.022 0.067 0.068 0.221 0.138 0.464 0.598 2.359 0.284 4.555-0.94 6.628l-0.039 0.066-0.022-0.096c-0.4-1.743-0.937-3.228-1.618-4.456-0.134-0.232-0.232-0.398-0.295-0.496 0.468 0.065 1.010-0.073 1.625-0.414 0.923-0.512 1.146-1.706 1.15-1.695zM6.485 10.364c0.7 0 1.268 0.568 1.268 1.269s-0.568 1.269-1.268 1.269c-0.7 0-1.268-0.568-1.268-1.269s0.568-1.269 1.268-1.269zM23.478 9.201c0.34-0.613 1.112-0.835 1.726-0.495s0.835 1.112 0.495 1.726c-0.34 0.613-1.112 0.835-1.726 0.495s-0.835-1.112-0.495-1.726zM14.44 4.571c0.613-0.34 1.386-0.118 1.726 0.495s0.118 1.386-0.495 1.726c-0.613 0.34-1.386 0.118-1.726-0.495s-0.118-1.386 0.495-1.726z"></path>
<path d="M16-0c8.837 0 16 7.163 16 16s-7.163 16-16 16c-8.837 0-16-7.163-16-16s7.163-16 16-16zM16 2.952c-7.206 0-13.048 5.842-13.048 13.048s5.842 13.048 13.048 13.048c7.206 0 13.048-5.842 13.048-13.048s-5.842-13.048-13.048-13.048z"></path>
</svg>
