<!--
SPDX-FileCopyrightText: Copyright © 2022-Present, Owncast Contributors

SPDX-License-Identifier: LicenseRef-AllRightsReserved
-->
<svg version="1.1" xmlns="http://www.w3.org/2000/svg" width="32" height="32" viewBox="0 0 32 32">
<title>ds-owncast</title>
<path d="M30.396 24.097c0.331-0.899 0.347-1.717 0.048-2.455-0.277-0.685-0.811-1.262-1.6-1.733-0.736-0.428-1.627-0.738-2.672-0.931-0.949-0.171-1.984-0.246-3.104-0.225-1.077 0.032-2.123 0.15-3.136 0.353-0.971 0.203-1.824 0.46-2.56 0.77-0.725 0.31-1.291 0.647-1.696 1.011-0.405 0.385-0.619 0.781-0.64 1.187-0.032 0.481 0.213 1 0.736 1.556 0.48 0.513 1.152 1.016 2.016 1.508s1.819 0.915 2.864 1.268c1.12 0.374 2.224 0.615 3.312 0.722 0.704 0.064 1.36 0.075 1.968 0.032 0.661-0.064 1.275-0.203 1.84-0.417 0.608-0.235 1.125-0.562 1.552-0.979 0.48-0.46 0.837-1.016 1.072-1.669zM23.707 21.578c0.363 0.193 0.629 0.428 0.8 0.706 0.171 0.31 0.208 0.663 0.112 1.059-0.075 0.278-0.197 0.519-0.368 0.722-0.16 0.182-0.373 0.326-0.64 0.433-0.224 0.096-0.496 0.166-0.816 0.209-0.309 0.032-0.619 0.037-0.928 0.016-0.544-0.032-1.141-0.139-1.792-0.321-0.565-0.171-1.109-0.385-1.632-0.642-0.48-0.235-0.875-0.481-1.184-0.738-0.299-0.267-0.443-0.503-0.432-0.706 0.021-0.171 0.144-0.337 0.368-0.497 0.224-0.15 0.533-0.284 0.928-0.401 0.395-0.128 0.832-0.225 1.312-0.289 0.544-0.064 1.061-0.096 1.552-0.096 0.544 0.011 1.035 0.053 1.472 0.128 0.469 0.096 0.885 0.235 1.248 0.417z"></path>
<path d="M22.402 4.801c-0.043-1.153-0.33-2.114-0.862-2.882-0.564-0.843-1.394-1.42-2.491-1.729-0.245-0.075-0.506-0.128-0.782-0.16-0.245-0.032-0.495-0.037-0.75-0.016-0.234 0-0.468 0.027-0.703 0.080-0.202 0.043-0.426 0.112-0.671 0.208-0.788 0.31-1.501 0.854-2.139 1.633-0.596 0.705-1.107 1.58-1.533 2.626-0.373 0.886-0.671 1.857-0.894 2.914-0.213 0.993-0.357 2.002-0.431 3.026-0.064 0.929-0.069 1.82-0.016 2.674 0.064 0.843 0.181 1.607 0.351 2.29 0.341 1.398 0.862 2.258 1.565 2.578 0.064 0.032 0.128 0.059 0.192 0.080l0.415 0.064c0.053 0 0.133-0.005 0.239-0.016 0.447-0.043 0.953-0.23 1.517-0.56 0.543-0.331 1.112-0.785 1.708-1.361 0.639-0.619 1.256-1.34 1.852-2.162 0.628-0.854 1.187-1.756 1.676-2.706 0.575-1.121 1.017-2.22 1.325-3.299 0.319-1.185 0.463-2.279 0.431-3.283zM16.319 7.395c0.106 0.021 0.197 0.048 0.271 0.080 0.862 0.299 1.304 0.987 1.325 2.066 0.011 0.886-0.261 1.906-0.814 3.058-0.458 0.961-1.006 1.804-1.644 2.53-0.596 0.683-1.096 1.046-1.501 1.089l-0.080 0.016-0.144-0.016-0.080-0.032c-0.298-0.139-0.506-0.592-0.623-1.361-0.117-0.779-0.112-1.671 0.016-2.674 0.138-1.121 0.399-2.103 0.782-2.946 0.458-1.003 1.022-1.596 1.692-1.777 0.117-0.032 0.202-0.048 0.255-0.048 0.085-0.011 0.17-0.016 0.255-0.016s0.181 0.011 0.287 0.032z"></path>
<path d="M1.981 10.722c-0.128 0.171-0.235 0.357-0.32 0.559-0.096 0.245-0.165 0.496-0.208 0.751-0.224 1.044-0.101 2.057 0.368 3.037 0.384 0.81 1.003 1.572 1.857 2.286 0.758 0.629 1.612 1.14 2.562 1.535 0.961 0.394 1.799 0.575 2.514 0.544 0.139 0 0.288-0.016 0.448-0.048s0.294-0.075 0.4-0.128c0.107-0.053 0.208-0.123 0.304-0.208s0.171-0.181 0.224-0.288c0.256-0.49 0.187-1.247-0.208-2.27-0.406-0.991-1.019-2.009-1.841-3.053-0.854-1.087-1.745-1.945-2.674-2.574-1.003-0.671-1.852-0.922-2.546-0.751-0.171 0.043-0.331 0.117-0.48 0.224-0.149 0.096-0.283 0.224-0.4 0.384zM4.35 13.903c0.053-0.096 0.107-0.171 0.16-0.224s0.117-0.101 0.192-0.144c0.085-0.032 0.16-0.053 0.224-0.064 0.342-0.064 0.774 0.085 1.297 0.448 0.47 0.309 0.939 0.746 1.409 1.311 0.427 0.512 0.768 1.012 1.025 1.503 0.245 0.501 0.32 0.853 0.224 1.055-0.021 0.043-0.048 0.075-0.080 0.096-0.032 0.043-0.069 0.069-0.112 0.080-0.021 0.021-0.064 0.037-0.128 0.048l-0.176 0.032c-0.342 0.021-0.784-0.075-1.329-0.288-0.534-0.213-1.035-0.496-1.505-0.847-0.502-0.373-0.875-0.778-1.121-1.215-0.277-0.501-0.342-1.002-0.192-1.503 0.032-0.107 0.069-0.202 0.112-0.288z"></path>
<path d="M12.302 23.751h-0.064c-0.33-0.011-0.633 0.101-0.91 0.335-0.255 0.223-0.474 0.542-0.655 0.957-0.16 0.372-0.271 0.792-0.335 1.26s-0.075 0.941-0.032 1.419c0.085 1.010 0.383 1.866 0.894 2.567 0.596 0.808 1.426 1.34 2.49 1.595h0.032l0.096 0.032h0.048c1.16 0.223 1.937 0.005 2.331-0.654 0.181-0.308 0.271-0.702 0.271-1.18-0.011-0.457-0.096-0.957-0.255-1.499-0.16-0.553-0.383-1.106-0.67-1.658-0.287-0.563-0.612-1.074-0.974-1.531-0.383-0.478-0.766-0.861-1.149-1.148-0.404-0.298-0.777-0.462-1.117-0.494zM11.855 25.728c0.17-0.468 0.388-0.691 0.655-0.67h0.016c0.266 0.032 0.58 0.308 0.942 0.829s0.633 1.068 0.814 1.642c0.202 0.627 0.245 1.127 0.128 1.499-0.138 0.393-0.479 0.553-1.022 0.478h-0.016l-0.016-0.016h-0.048c-0.532-0.106-0.942-0.383-1.229-0.829-0.245-0.404-0.383-0.893-0.415-1.467-0.032-0.563 0.032-1.052 0.192-1.467z"></path>
<path d="M8.37 22.245c-0.097-0.075-0.215-0.139-0.354-0.193s-0.284-0.091-0.435-0.112c-0.14-0.032-0.29-0.053-0.451-0.064-0.462-0.011-0.912 0.059-1.352 0.209-0.429 0.139-0.778 0.348-1.047 0.626-0.268 0.3-0.397 0.631-0.386 0.995 0.011 0.396 0.199 0.824 0.564 1.284 0.097 0.118 0.215 0.246 0.354 0.385 0.107 0.107 0.231 0.203 0.37 0.289 0.107 0.064 0.225 0.123 0.354 0.177 0.15 0.053 0.268 0.080 0.354 0.080 0.386 0.053 0.762-0.027 1.127-0.241 0.354-0.203 0.66-0.492 0.918-0.867 0.268-0.385 0.435-0.781 0.499-1.188 0.064-0.45-0.016-0.819-0.242-1.108-0.086-0.107-0.177-0.198-0.274-0.273zM8.048 22.903c0.097 0.128 0.118 0.3 0.064 0.514-0.043 0.203-0.14 0.412-0.29 0.626-0.15 0.203-0.322 0.364-0.515 0.482-0.204 0.128-0.403 0.182-0.596 0.161l-0.177-0.032c-0.064-0.021-0.123-0.053-0.177-0.096-0.043-0.021-0.102-0.064-0.177-0.128-0.043-0.043-0.097-0.102-0.161-0.177-0.193-0.246-0.268-0.471-0.225-0.674 0.021-0.182 0.134-0.342 0.338-0.482 0.182-0.128 0.403-0.225 0.66-0.289s0.505-0.091 0.741-0.080l0.177 0.016 0.145 0.032c0.043 0.021 0.080 0.043 0.113 0.064l0.081 0.064z"></path>
</svg>
