<!--
SPDX-FileCopyrightText: Copyright © 2018-2023, Mike Macgirvin <mike@macgirvin.com>

SPDX-License-Identifier: CC0-1.0
-->
<svg version="1.1" xmlns="http://www.w3.org/2000/svg" width="32" height="32" viewBox="0 0 32 32">
<title>ds-osada</title>
<path d="M31.461 14.447c-0.087-0.040-1.062-0.046-2.376-0.033-0.309-2.324-1.216-4.522-2.628-6.367 0.929-0.923 1.616-1.623 1.668-1.731 0.337-0.685-1.508-2.599-2.251-2.308-0.089 0.035-0.778 0.734-1.692 1.688-1.908-1.54-4.19-2.516-6.6-2.823 0.019-1.271 0.020-2.21-0.016-2.322-0.234-0.727-2.858-0.745-3.184 0-0.038 0.087-0.044 1.031-0.034 2.319-2.4 0.301-4.676 1.267-6.581 2.794-0.891-0.943-1.566-1.638-1.671-1.692-0.668-0.345-2.535 1.546-2.251 2.308 0.034 0.091 0.711 0.792 1.636 1.724-1.421 1.843-2.336 4.042-2.652 6.368-1.252-0.019-2.18-0.021-2.289 0.017-0.71 0.24-0.727 2.93 0 3.264 0.085 0.039 0.999 0.046 2.247 0.035 0.273 2.375 1.2 4.622 2.673 6.477-0.913 0.907-1.582 1.59-1.635 1.698-0.337 0.685 1.508 2.599 2.251 2.308 0.089-0.035 0.788-0.744 1.713-1.709 1.911 1.449 4.159 2.359 6.521 2.638-0.019 1.284-0.020 2.235 0.016 2.348 0.234 0.727 2.858 0.745 3.184 0 0.038-0.087 0.044-1.041 0.034-2.34 2.389-0.272 4.665-1.19 6.595-2.66 0.914 0.968 1.609 1.684 1.715 1.739 0.668 0.345 2.535-1.546 2.251-2.308-0.034-0.091-0.714-0.795-1.643-1.731 1.456-1.842 2.376-4.067 2.652-6.421 1.283 0.021 2.236 0.022 2.348-0.015 0.71-0.242 0.727-2.932 0-3.266zM26.813 14.447c-2.407 0.040-4.957 0.101-5.489 0.115-0.112-0.376-0.262-0.739-0.448-1.083 1.319-1.28 2.634-2.565 3.945-3.854 1.029 1.419 1.713 3.073 1.993 4.822v0zM22.563 7.341c-1.579 1.67-3.235 3.448-3.723 3.971-0.456-0.287-0.949-0.506-1.464-0.651 0.025-0.868 0.095-3.243 0.145-5.474 1.831 0.274 3.564 1.014 5.043 2.154zM14.393 5.188c0.035 2.259 0.087 4.667 0.107 5.537-0.505 0.147-0.987 0.366-1.433 0.65-1.226-1.349-2.456-2.694-3.692-4.033 1.472-1.141 3.197-1.881 5.018-2.154v0zM7.077 9.625c1.303 1.29 2.611 2.575 3.923 3.855-0.188 0.342-0.338 0.705-0.451 1.083-0.703-0.022-3.172-0.098-5.486-0.153 0.287-1.737 0.977-3.378 2.014-4.785v0zM5.063 17.676c2.308-0.037 4.787-0.097 5.509-0.113 0.119 0.41 0.282 0.8 0.491 1.164-0.499 0.483-2.319 2.244-4.007 3.899-1.070-1.444-1.757-3.15-1.993-4.949v0zM9.313 24.869c1.662-1.77 3.424-3.675 3.836-4.119 0.422 0.244 0.876 0.434 1.352 0.563-0.027 0.915-0.097 3.361-0.148 5.625-1.818-0.255-3.548-0.965-5.040-2.069v0zM17.485 26.938c-0.035-2.248-0.089-4.678-0.11-5.588 0.501-0.134 0.983-0.336 1.431-0.6 0.403 0.436 2.159 2.335 3.819 4.106-1.518 1.116-3.284 1.831-5.14 2.082v0zM24.894 22.563c-1.336-1.321-2.675-2.638-4.019-3.95 0.196-0.351 0.351-0.725 0.462-1.113 0.581 0.018 3.136 0.098 5.538 0.155-0.237 1.783-0.919 3.473-1.981 4.908v0z"></path>
</svg>
