<!--
SPDX-FileCopyrightText: Copyright © 2013-Present, Mathias Gebbe

SPDX-License-Identifier: CC-BY-SA-3.0
-->
<svg version="1.1" xmlns="http://www.w3.org/2000/svg" width="32" height="32" viewBox="0 0 32 32">
<title>ds-pumpio</title>
<path d="M16 0c-2.886 0-5.584 0.728-8.094 2.184-2.409 1.405-4.317 3.313-5.722 5.722-1.456 2.51-2.184 5.208-2.184 8.094s0.728 5.584 2.184 8.094c1.405 2.409 3.313 4.317 5.722 5.722 2.51 1.456 5.208 2.184 8.094 2.184s5.584-0.728 8.094-2.184c2.409-1.405 4.317-3.313 5.722-5.722 1.456-2.51 2.184-5.208 2.184-8.094s-0.728-5.584-2.184-8.094c-1.405-2.409-3.313-4.317-5.722-5.722-2.51-1.456-5.208-2.184-8.094-2.184zM16.023 3.063c2.334 0 4.506 0.577 6.514 1.731 1.958 1.154 3.514 2.709 4.669 4.666 1.155 2.007 1.732 4.177 1.732 6.51s-0.577 4.503-1.732 6.51c-1.155 1.957-2.711 3.512-4.669 4.666-2.008 1.154-4.179 1.731-6.514 1.731-0.904 0-1.807-0.088-2.711-0.263l14.646-12.643-14.608-12.643c0.879-0.176 1.77-0.263 2.673-0.263zM9.741 4.688l13.571 11.381-13.458 11.306c-2.055-1.131-3.684-2.688-4.887-4.673-1.228-2.060-1.842-4.29-1.842-6.689s0.602-4.617 1.804-6.652c1.203-1.985 2.807-3.543 4.812-4.673z"></path>
</svg>
