<!--
SPDX-FileCopyrightText: 2019-Present mbajur

SPDX-License-Identifier: AGPL-3.0-only
-->
<svg version="1.1" xmlns="http://www.w3.org/2000/svg" width="32" height="32" viewBox="0 0 32 32">
<title>ds-prismo</title>
<path d="M15.78 3.75l0.313 0.022 0.391 0.123 0.396 0.279 0.19 0.185 0.173 0.195 0.324 0.402 0.335 0.402 0.178 0.201 0.335 0.402 0.324 0.402 0.173 0.201 0.368 0.402 0.341 0.402 0.156 0.201 0.341 0.402 0.368 0.402 0.173 0.201 0.324 0.402 0.335 0.402 0.178 0.201 0.335 0.402 0.324 0.402 0.173 0.201 0.368 0.402 0.173 0.201 0.168 0.201 0.324 0.402 0.173 0.201 0.368 0.402 0.173 0.201 0.324 0.402 0.341 0.402 0.368 0.402 0.173 0.201 0.324 0.402 0.335 0.402 0.178 0.201 0.335 0.402 0.324 0.402 0.173 0.201 0.368 0.402 0.173 0.201 0.168 0.201 0.324 0.402 0.173 0.201 0.368 0.402 0.173 0.201 0.324 0.402 0.341 0.402 0.368 0.402 0.341 0.402 0.156 0.201 0.324 0.402 0.301 0.402 0.201 0.391 0.050 0.201 0.050 0.413-0.301 0.201-0.112 0.045-0.201 0.117-0.391 0.19-0.201 0.084-0.201 0.089-0.402 0.157-0.201 0.089-0.201 0.084-0.402 0.195-0.201 0.106-0.402 0.173-0.402 0.157-0.402 0.173-0.201 0.1-0.402 0.173-0.402 0.157-0.402 0.173-0.201 0.106-0.201 0.089-0.201 0.106-0.201 0.084-0.201 0.089-0.402 0.157-0.201 0.089-0.201 0.084-0.402 0.195-0.201 0.106-0.402 0.173-0.402 0.157-0.201 0.089-0.201 0.084-0.201 0.106-0.402 0.195-0.402 0.173-0.402 0.157-0.402 0.173-0.201 0.1-0.402 0.173-0.402 0.157-0.402 0.173-0.201 0.106-0.402 0.195-0.201 0.084-0.201 0.089-0.402 0.157-0.402 0.173-0.201 0.1-0.402 0.157-0.402 0.061-0.201-0.017-0.402-0.089-0.402-0.14-0.402-0.173-0.201-0.1-0.402-0.173-0.402-0.157-0.402-0.173-0.201-0.1-0.402-0.173-0.402-0.157-0.201-0.089-0.201-0.084-0.402-0.195-0.201-0.106-0.402-0.173-0.402-0.157-0.402-0.173-0.201-0.1-0.402-0.173-0.402-0.157-0.201-0.089-0.201-0.084-0.201-0.106-0.201-0.089-0.201-0.106-0.402-0.173-0.402-0.157-0.402-0.173-0.201-0.1-0.402-0.173-0.402-0.157-0.402-0.173-0.201-0.1-0.402-0.173-0.402-0.157-0.402-0.173-0.402-0.195-0.201-0.106-0.402-0.173-0.402-0.157-0.201-0.089-0.402-0.185-0.201-0.084-0.396-0.184-0.184-0.112-0.156-0.134-0.195-0.346-0.028-0.195 0.028-0.201 0.073-0.201 0.263-0.402 0.318-0.402 0.324-0.402 0.173-0.201 0.368-0.402 0.173-0.201 0.324-0.402 0.341-0.402 0.368-0.402 0.173-0.201 0.324-0.402 0.341-0.402 0.38-0.402 0.363-0.402 0.324-0.402 0.341-0.402 0.368-0.402 0.173-0.201 0.324-0.402 0.341-0.402 0.368-0.402 0.173-0.201 0.324-0.402 0.168-0.201 0.173-0.201 0.368-0.402 0.173-0.201 0.324-0.402 0.341-0.402 0.569-0.603 0.341-0.402 0.324-0.402 0.173-0.201 0.368-0.402 0.173-0.201 0.168-0.201 0.324-0.402 0.173-0.201 0.368-0.402 0.173-0.201 0.168-0.201 0.324-0.402 0.173-0.201 0.368-0.402 0.173-0.201 0.324-0.402 0.168-0.201 0.173-0.201 0.38-0.402 0.184-0.19 0.162-0.201 0.106-0.112 0.156-0.302h0.301zM16.713 6.354v15.091l0.301-0.005 0.312-0.045 0.189-0.045 0.401-0.162 0.384-0.24 0.317-0.324 0.2-0.386 0.050-0.19 0.045-0.313 0.005-0.302 0.2-0.201 0.301 0.022 0.306 0.123 0.323 0.279 0.111 0.185 0.056 0.397-0.039 0.201-0.139 0.402-0.1 0.201-0.117 0.201-0.317 0.386-0.384 0.335-0.2 0.145-0.401 0.257-0.2 0.106-0.2 0.095-0.2 0.078-0.39 0.123-0.2 0.039-0.111 0.028-0.301 0.017-0.2 0.201v3.42l0.301-0.056 0.312-0.117 0.189-0.078 0.2-0.106 0.401-0.195 0.401-0.173 0.401-0.157 0.401-0.173 0.2-0.1 0.401-0.173 0.401-0.157 0.401-0.173 0.2-0.106 0.401-0.195 0.2-0.084 0.2-0.090 0.401-0.157 0.2-0.090 0.2-0.084 0.401-0.195 0.2-0.106 0.401-0.173 0.401-0.157 0.2-0.090 0.2-0.084 0.2-0.106 0.401-0.195 0.2-0.084 0.2-0.090 0.401-0.157 0.401-0.173 0.2-0.1 0.401-0.173 0.401-0.157 0.401-0.173 0.2-0.106 0.401-0.195 0.2-0.084 0.39-0.168 0.111-0.039 0.301-0.162-0.106-0.302-0.195-0.313-0.317-0.391-0.368-0.402-0.339-0.402-0.156-0.201-0.334-0.402-0.178-0.201-0.334-0.402-0.323-0.402-0.172-0.201-0.368-0.402-0.339-0.402-0.323-0.402-0.172-0.201-0.368-0.402-0.339-0.402-0.323-0.402-0.172-0.201-0.368-0.402-0.172-0.201-0.323-0.402-0.334-0.402-0.178-0.201-0.334-0.402-0.323-0.402-0.172-0.201-0.368-0.402-0.172-0.201-0.323-0.402-0.339-0.402-0.368-0.402-0.339-0.402-0.156-0.201-0.339-0.402-0.368-0.402-0.172-0.201-0.323-0.402-0.334-0.402-0.178-0.201-0.334-0.402-0.312-0.38-0.172-0.162-0.1-0.106-0.295-0.157zM15.033 6.591l-0.395 0.413-0.328 0.391-0.323 0.402-0.172 0.201-0.367 0.402-0.172 0.201-0.323 0.402-0.34 0.402-0.568 0.603-0.34 0.402-0.323 0.402-0.172 0.201-0.367 0.402-0.172 0.201-0.323 0.402-0.34 0.402-0.367 0.402-0.172 0.201-0.323 0.402-0.167 0.201-0.172 0.201-0.568 0.603-0.34 0.402-0.323 0.402-0.172 0.201-0.367 0.402-0.172 0.201-0.167 0.201-0.323 0.402-0.172 0.201-0.367 0.402-0.172 0.201-0.167 0.201-0.323 0.402-0.172 0.201-0.367 0.402-0.172 0.201-0.323 0.402-0.167 0.201-0.172 0.201-0.189 0.201-0.373 0.402-0.156 0.19-0.195 0.313-0.072 0.301 0.301 0.162 0.111 0.039 0.39 0.167 0.2 0.084 0.2 0.1 0.401 0.173 0.401 0.156 0.401 0.173 0.2 0.1 0.401 0.173 0.401 0.156 0.401 0.173 0.2 0.106 0.2 0.089 0.2 0.106 0.401 0.173 0.401 0.156 0.401 0.173 0.2 0.1 0.401 0.173 0.401 0.156 0.401 0.173 0.2 0.1 0.401 0.173 0.401 0.156 0.401 0.173 0.2 0.106 0.401 0.195 0.401 0.173 0.401 0.156 0.401 0.173 0.2 0.1 0.401 0.173 0.401 0.156 0.401 0.173 0.189 0.1 0.2 0.084 0.111 0.067 0.301 0.1v-18.88l-0.005-0.396-0.005-0.184-0.039-0.162-0.005-0.106-0.145-0.156zM11.826 13.821l0.401 0.017 0.2 0.033 0.2 0.050 0.384 0.201 0.317 0.318 0.2 0.385 0.050 0.201 0.033 0.201-0.005 0.402-0.045 0.195-0.078 0.184-0.278 0.273-0.184 0.061h-0.189l-0.184-0.061-0.278-0.273-0.078-0.173-0.061-0.307-0.005-0.301-0.301 0.056-0.312 0.111-0.39 0.123-0.189 0.017-0.312-0.028-0.301-0.078v-0.301l0.022-0.312 0.045-0.19 0.2-0.379 0.156-0.156 0.379-0.201 0.2-0.045 0.401-0.022z"></path>
</svg>
