<!--- SPDX-FileCopyrightText: 2022 to Present, Pinetta Project <https://codeberg.org/pinetta/pinetta>

SPDX-License-Identifier: AGPL-3.0-only -->
<svg version="1.1" xmlns="http://www.w3.org/2000/svg" width="32" height="32" viewBox="0 0 32 32">
<title>ds-pinetta</title>
<path d="M9.602 9.438c0.429 0.269 0.905 0.478 1.42 0.612 0.11 0.029 0.221 0.054 0.333 0.075l-4.469-0 0.007 0.077c0.594 6.996-0.062 12.437-2.202 19.416l-0.002 0.007h19.878l0.020-0.052c0.733-1.937 1.217-4.371 1.482-7.187l0.012-0.128c0.309-3.38 0.288-6.995 0.066-10.412-0.031-0.482-0.064-0.923-0.098-1.317l-0.014-0.166-0.022-0.238h-8.644l-0.345-0.688h10.706c0.184 0 0.333 0.149 0.333 0.333v21.897c0 0.184-0.149 0.333-0.333 0.333h-20.451c-0.184 0-0.333-0.149-0.333-0.333v-1.36h-2.674c-0.22 0-0.379-0.209-0.322-0.42l0.004-0.013c2.267-7.272 2.935-12.794 2.27-20.075-0.018-0.195 0.136-0.363 0.332-0.363l3.047 0z"></path>
<path d="M12.345 1.384c2.046 0 3.705 1.653 3.705 3.693 0 1.143-0.521 2.164-1.339 2.842l2.157 4.279c0.159 0.327-0.299 0.597-0.509 0.297l-2.687-3.968c-0.412 0.158-0.859 0.244-1.327 0.244-2.046 0-3.705-1.653-3.705-3.693s1.659-3.693 3.705-3.693zM12.314 0c0.435 0 0.871 0.056 1.295 0.167 2.733 0.713 4.376 3.511 3.661 6.237-0.166 0.634-0.448 1.222-0.84 1.747l-0.035 0.047 0.962 1.91h-0.692l-1.023-2.030c0.477-0.518 0.821-1.14 1.010-1.827l0.013-0.047c0.623-2.374-0.809-4.812-3.191-5.433s-4.827 0.806-5.45 3.181c-0.623 2.374 0.809 4.812 3.191 5.433 0.708 0.184 1.436 0.193 2.139 0.028l0.47 0.694-2.581 0c-0.076-0.016-0.152-0.034-0.227-0.054-2.733-0.713-4.376-3.511-3.661-6.237 0.59-2.247 2.629-3.818 4.959-3.818z"></path>
<path d="M19.964 17.729c0 0.534-0.484 3.204-0.484 4.138 0 0.434 0.233 0.718 0.616 0.718 0.533 0 1.15-1.168 1.15-3.070 0-2.537-1.984-3.421-4.284-3.421-2.633 0-5.584 2.202-5.584 5.407 0 2.704 1.634 4.105 3.6 4.105 0.8 0 1.817-0.234 2.3-0.584 0.466 0.2 1.183 0.534 1.183 1.251 0 0.885-1.333 1.352-3.15 1.352-3.15 0-6-2.103-6-6.358 0-3.738 3.533-6.892 7.617-6.892 3.25 0 6.383 1.535 6.383 5.056s-1.733 5.34-4.034 5.34c-0.783 0-1.533-0.467-1.967-1.185-0.484 0.734-1.284 1.185-2.367 1.185-1.467 0-2.534-1.402-2.534-3.27 0-2.704 2.65-4.522 4.533-4.522 1.5 0 2.683 0.384 3.017 0.751l0.001-0.001zM15.5 21.679c0 0.567 0.219 0.884 0.522 0.884 0.287 0 0.522-0.266 0.691-0.966 0.135-0.55 0.287-1.4 0.287-1.95-0.101-0.050-0.253-0.083-0.387-0.083-0.64 0-1.112 1.2-1.112 2.116h-0.001z"></path>
</svg>
