<!--
SPDX-FileCopyrightText: 2018-Present Plume Contributors <https://joinplu.me>

SPDX-License-Identifier: AGPL-3.0-only
-->
<svg version="1.1" xmlns="http://www.w3.org/2000/svg" width="32" height="32" viewBox="0 0 32 32">
<title>ds-plume</title>
<path fill="#000" d="M31.237 0h0.46q0.225 0.081 0.303 0.31v0.401c-0.406 0.428-0.863 0.84-1.181 1.308q-0.412 0.607-0.626 1.136c-0.861 2.13-1.585 4.26-2.975 6.127-0.003 0.005-0.005 0.010-0.005 0.016 0 0.013 0.009 0.024 0.020 0.027l0 0c0.658 0.166 0.401 0.931 0.262 1.368-0.385 1.206-1 2.269-1.75 3.261q-1.459 1.928-3.252 3.548-3.998 3.612-8.816 6.029c-2.004 1.005-4.054 1.775-6.206 2.15-0.18 0.031-0.353 0.298-0.448 0.4q-1.958 2.113-3.917 4.225c-0.571 0.616-1.358 1.409-2.117 1.695h-0.477q-0.419-0.124-0.511-0.549v-0.654q0.254-1.174 0.805-2.12 1.284-2.204 2.566-4.409c0.095-0.163 0.198-0.363 0.26-0.543 2.472-7.26 6.128-14.458 12.682-18.884 0.412-0.278 0.971-0.236 0.972 0.381 0 0 0 0 0 0 0 0.014 0.011 0.025 0.025 0.025 0.008 0 0.015-0.004 0.020-0.010l0-0c1.295-1.664 3.133-2.646 5.103-3.298 2.829-0.937 5.963-1.514 8.804-1.939zM6.518 25.015c0.186-0.202 0.281-0.296 0.568-0.346 2.284-0.397 4.416-1.224 6.469-2.282q4.946-2.548 8.955-6.404c1.332-1.281 2.563-2.753 3.459-4.38q0.022-0.040-0.017-0.015c-1.855 1.152-3.805 1.944-5.932 2.433q-0.351 0.081-0.527 0.037c-0.433-0.108-0.531-0.838-0.099-0.984 3.443-1.165 6.289-2.772 8.021-6.119 0.955-1.843 1.445-3.889 2.57-5.642q0.026-0.040-0.021-0.032c-2.724 0.474-5.53 1.041-8.040 1.987q-1.335 0.503-2.497 1.387c-1.578 1.201-2.428 3.039-2.975 4.891-0.232 0.785-0.93 0.881-1.295 0.132-0.392-0.804-0.21-1.822 0.1-2.59q0.081-0.202-0.084-0.061c-4.674 3.965-7.764 9.372-9.816 15.083q-0.25 0.697-0.793 2.15-0.13 0.347-0.319 0.667-1.036 1.757-2.057 3.522c-0.513 0.886-0.809 1.384-1.039 2.187-0 0.001-0.001 0.003-0.001 0.004 0 0.007 0.006 0.013 0.013 0.013 0.003 0 0.007-0.001 0.009-0.003v0q0.758-0.646 1.437-1.384 1.956-2.124 3.908-4.25z"></path>
</svg>
