<!--
SPDX-FileCopyrightText: 2019-Present Alex Sleepy

SPDX-License-Identifier: AGPL-3.0-only
-->
<svg version="1.1" xmlns="http://www.w3.org/2000/svg" width="32" height="32" viewBox="0 0 32 32">
<title>ds-reel2bits</title>
<path d="M26.875 19.938l1.375 0.313-0.438 0.25-8.375 5.563-0.75-0.813 1.313-0.761 6.008-3.989z"></path>
<path d="M3 19.688h1.813l1.313 1c-0.418-0.294 0.090 0.035 1.525 0.987s2.864 1.909 4.287 2.87l0.313 0.205-0.188 1.063-0.125-0.063-7.563-5.063c-0.454-0.272-0.912-0.606-1.375-1z"></path>
<path d="M19.166 6.5h11.667c0.644 0 1.167 0.522 1.167 1.167v11.667c0 0.644-0.522 1.167-1.167 1.167h-11.667c-0.644 0-1.167-0.522-1.167-1.167v-11.667c0-0.644 0.522-1.167 1.167-1.167zM28.375 13.5l-5.875-4v8l5.875-4z"></path>
<path d="M2.172 14.934l2.305 0.461c-0.659-1.222-0.616-2.644-0.001-3.791l-2.304 0.461c-0.113 0.46-0.173 0.94-0.173 1.434s0.060 0.975 0.173 1.434v0zM9.671 7.736l-1.551 1.765c1.301 0.040 2.554 0.715 3.283 1.896l0.753-2.225c-0.69-0.663-1.539-1.163-2.484-1.436zM12.155 17.828l-0.752-2.224c-0.336 0.545-0.809 1.018-1.403 1.36s-1.239 0.516-1.88 0.535l1.551 1.765c0.945-0.273 1.794-0.773 2.484-1.436v0zM6.001 13.5c0 1.104 0.895 2 2 2s2-0.895 2-2c0-1.104-0.895-2-2-2s-2 0.895-2 2zM8 21.5c-4.418 0-8-3.582-8-8s3.582-8 8-8c4.418 0 8 3.582 8 8s-3.582 8-8 8z"></path>
<path d="M12.937 22.5h6c0.552 0 1 0.448 1 1v2.375l-1 0.625h-6l-1-0.625v-2.375c0-0.552 0.448-1 1-1z"></path>
</svg>
