<!--
SPDX-FileCopyrightText: 2015-Present Redaktor Project <https://github.com/redaktor>

SPDX-License-Identifier: LicenseRef-AllRightsReserved
-->
<svg version="1.1" xmlns="http://www.w3.org/2000/svg" width="32" height="32" viewBox="0 0 32 32">
<title>ds-redaktor</title>
<path d="M24 1.539l-2.114 4.027c-4.035-1.799-7.793-1.841-11.275-0.125-5.223 2.574-6.342 6.518-6.342 8.428v9.881h-4.269v-23.747h4.269v5.48c1.754-2.646 4.49-4.348 8.207-5.106s7.558-0.371 11.523 1.162zM15.969 10.063c3.4 0 6.156 2.756 6.156 6.156s-2.756 6.156-6.156 6.156c-3.4 0-6.156-2.756-6.156-6.156s2.756-6.156 6.156-6.156zM8 30.461l2.114-4.027c4.035 1.799 7.793 1.841 11.275 0.125 5.223-2.574 6.342-6.518 6.342-8.428 0-1.273 0-4.567 0-9.881h4.269v23.75h-4.269v-5.483c-1.754 2.646-4.49 4.348-8.207 5.106s-7.558 0.371-11.523-1.162z"></path>
</svg>
