<!--
SPDX-FileCopyrightText: Copyright © 2020-2023, Mike Macgirvin <mike@macgirvin.com>

SPDX-License-Identifier: CC0-1.0
-->
<svg version="1.1" xmlns="http://www.w3.org/2000/svg" width="32" height="32" viewBox="0 0 32 32">
<title>ds-streams</title>
<path d="M32 19.2c-1.544-5.632-4.734-8.448-9.57-8.448-1.544 0-3.17 0.597-4.876 1.792-1.707 1.152-3.373 2.325-4.998 3.52-1.625 1.152-3.088 1.728-4.389 1.728-3.413 0-5.73-2.325-6.949-6.976l-1.219 0.64c0.975 6.4 4.104 9.6 9.387 9.6 1.666 0 3.352-0.576 5.059-1.728 1.707-1.195 3.332-2.368 4.876-3.52s2.966-1.728 4.267-1.728c3.21 0 5.608 1.899 7.192 5.696l1.219-0.576z"></path>
<path d="M32 30.144c-1.544-5.632-4.734-8.448-9.57-8.448-1.544 0-3.17 0.597-4.876 1.792-1.707 1.152-3.373 2.325-4.998 3.52-1.625 1.152-3.088 1.728-4.389 1.728-3.413 0-5.73-2.325-6.949-6.976l-1.219 0.64c0.975 6.4 4.104 9.6 9.387 9.6 1.666 0 3.352-0.576 5.059-1.728 1.707-1.195 3.332-2.368 4.876-3.52s2.966-1.728 4.267-1.728c3.21 0 5.608 1.899 7.192 5.696l1.219-0.576z"></path>
<path d="M32 8.448c-1.544-5.632-4.734-8.448-9.57-8.448-1.544 0-3.17 0.597-4.876 1.792-1.707 1.152-3.373 2.325-4.998 3.52-1.625 1.152-3.088 1.728-4.389 1.728-3.413 0-5.73-2.325-6.949-6.976l-1.219 0.64c0.975 6.4 4.104 9.6 9.387 9.6 1.666 0 3.352-0.576 5.059-1.728 1.707-1.195 3.332-2.368 4.876-3.52s2.966-1.728 4.267-1.728c3.21 0 5.608 1.899 7.192 5.696l1.219-0.576z"></path>
</svg>
