<!--
SPDX-FileCopyrightText: Copyright © 2019-Present, Grishka & Smithereen Contributors <https://grishka.me/>

SPDX-License-Identifier: CC0-1.0
-->
<svg version="1.1" xmlns="http://www.w3.org/2000/svg" width="32" height="32" viewBox="0 0 32 32">
<title>ds-smithereen</title>
<path d="M29.392 0c1.44 0 2.607 1.142 2.607 2.552v20.646c0 1.409-1.167 2.552-2.607 2.552h-7.21l-6.308 6.25-6.308-6.25h-6.96c-1.44 0-2.607-1.142-2.607-2.552v-20.646c0-1.409 1.167-2.552 2.607-2.552h26.785zM16.031 19.063c-1.156 0-2.094 0.937-2.094 2.094s0.937 2.094 2.094 2.094c1.156 0 2.094-0.937 2.094-2.094s-0.937-2.094-2.094-2.094zM15.978 4.313c-1.156 0-2.041 1.012-2.041 2.154s0.858 9.971 2.014 9.971c1.156 0 2.173-8.829 2.173-9.971s-0.99-2.154-2.147-2.154z"></path>
</svg>
