<!--
SPDX-FileCopyrightText: 2008-Present StatusNet Contributors

SPDX-License-Identifier: AGPL-3.0-only
-->
<svg version="1.1" xmlns="http://www.w3.org/2000/svg" width="32" height="32" viewBox="0 0 32 32">
<title>ds-statusnet</title>
<path d="M25.052 12.572c3.36 0 6.084 2.726 6.084 6.089 0 1.502-0.543 2.877-1.444 3.939-0.164 0.193-0.277 0.331-0.39 0.458l-0.023 0.025-0.023 0.025c-0.25 0.275-0.531 0.525-1.373 1.218-0.747 0.614-1.242 1.124-1.972 2.5-0.346 0.652-0.633 1.709-0.86 3.172-0.149-1.287-0.423-2.344-0.822-3.172-0.869-1.806-1.707-2.3-1.954-2.5-1.291-1.049-1.291-1.049-1.865-1.726-0.901-1.062-1.444-2.437-1.444-3.939 0-3.363 2.724-6.089 6.084-6.089zM25.052 15.348c-1.86 0-3.367 1.507-3.367 3.367s1.507 3.367 3.367 3.367c1.86 0 3.367-1.507 3.367-3.367s-1.507-3.367-3.367-3.367z"></path>
<path d="M3.537 7.566c3.396-3.167 8.717-2.981 11.884 0.416 1.415 1.517 2.16 3.418 2.25 5.339 0.054 1.163 0.099 1.184-0.202 3.447-0.176 1.324-0.196 2.306 0.361 4.384 0.264 0.984 0.97 2.322 2.118 4.014-1.363-1.159-2.635-1.968-3.817-2.429-2.579-1.005-3.891-0.714-4.329-0.684-2.292 0.157-2.292 0.157-3.51 0.015-1.91-0.223-3.754-1.1-5.169-2.617-3.167-3.396-2.982-8.717 0.414-11.884zM6.113 10.34c-1.888 1.761-1.992 4.719-0.231 6.607s4.719 1.992 6.607 0.231c1.888-1.761 1.992-4.719 0.231-6.607s-4.719-1.992-6.607-0.231z"></path>
<path d="M17.917 4.877c0.71-2.185 3.058-3.38 5.244-2.67s3.383 3.058 2.673 5.242c-0.317 0.976-0.961 1.754-1.771 2.254-0.131 0.081-0.228 0.142-0.318 0.196l-0.021 0.012c-0.238 0.14-0.453 0.237-1.202 0.531-0.616 0.241-1.045 0.468-1.811 1.207-0.363 0.35-0.772 0.976-1.229 1.879 0.174-0.867 0.22-1.612 0.135-2.234-0.184-1.357-0.625-1.855-0.743-2.037-0.393-0.606-0.536-0.827-0.648-1.052l-0.011-0.022c-0.002-0.004-0.004-0.007-0.005-0.011l-0.011-0.022c-0.053-0.112-0.102-0.233-0.175-0.408-0.362-0.88-0.425-1.888-0.108-2.864zM19.662 5.475c-0.395 1.217 0.27 2.524 1.487 2.919s2.524-0.27 2.919-1.487c0.395-1.217-0.27-2.524-1.487-2.919s-2.524 0.27-2.919 1.487z"></path>
</svg>
