<!--
SPDX-FileCopyrightText: Copyright © 2016-Present, lostinlight <https://grishka.me/>

SPDX-License-Identifier: WTFPL
-->
<svg version="1.1" xmlns="http://www.w3.org/2000/svg" width="32" height="32" viewBox="0 0 32 32">
<title>ds-socialhome</title>
<path d="M2.983 9.003c-0.207-0.18-0.435-0.374-0.444-0.658-0.016-0.494 0.265-0.689 0.703-0.894q5.531-2.587 11.060-5.174 0.093-0.044 0.23-0.063c0.557-0.080 1.317-0.124 1.846 0.097q6.242 2.61 12.483 5.223c0.327 0.137 0.515 0.351 0.55 0.697 0.051 0.498-1.289 1.473-1.673 1.742q-0.021 0.014-0.046 0.014h-23.443c-0.019-0-0.037-0.006-0.052-0.016l-0-0q-0.522-0.363-1.214-0.967z"></path>
<path d="M4.205 11.4h5.684c0.025 0 0.045 0.020 0.045 0.045v11.15c0 0.025-0.020 0.045-0.045 0.045h-5.684c-0.025 0-0.045-0.020-0.045-0.045v-11.15c0-0.025 0.020-0.045 0.045-0.045z"></path>
<path d="M11.444 11.4h8.658c0.017 0 0.031 0.014 0.031 0.031v11.178c0 0.017-0.014 0.031-0.031 0.031h-8.658c-0.017 0-0.031-0.014-0.031-0.031v-11.178c0-0.017 0.014-0.031 0.031-0.031z"></path>
<path d="M21.597 11.4h6.113c0.013 0 0.023 0.011 0.023 0.023v4.993c0 0.013-0.011 0.023-0.023 0.023h-6.113c-0.013 0-0.023-0.011-0.023-0.023v-4.993c0-0.013 0.011-0.023 0.023-0.023z"></path>
<path d="M21.566 17.813h6.095c0.018 0 0.033 0.015 0.033 0.033v12.002c0 0.018-0.015 0.033-0.033 0.033h-6.095c-0.018 0-0.033-0.015-0.033-0.033v-12.002c0-0.018 0.015-0.033 0.033-0.033z"></path>
<path d="M4.228 23.999h15.932c0.008 0 0.014 0.006 0.014 0.014v5.853c0 0.008-0.006 0.014-0.014 0.014h-15.932c-0.008 0-0.014-0.006-0.014-0.014v-5.853c0-0.008 0.006-0.014 0.014-0.014z"></path>
</svg>
