<!--
SPDX-FileCopyrightText: 2019-Present StatusNet Contributors

SPDX-License-Identifier: LicenseRef-AllRightsReserved
-->
<svg version="1.1" xmlns="http://www.w3.org/2000/svg" width="32" height="32" viewBox="0 0 32 32">
<title>ds-swanye</title>
<path d="M3.062-0h25.9c1.809 0.401 2.676 1.226 3.038 3.062v25.933c-0.434 1.8-1.234 2.651-3.079 3.004h-25.866c-1.781-0.36-2.742-1.267-3.055-3.079v-25.964q0.512-2.545 3.062-2.957zM20.941 16.165c-1.831-1.41-4.161-2.077-6.242-3.014-1.037-0.467-2.198-1.173-2.669-2.288-0.377-0.891-0.334-1.91 0.174-2.742 1.050-1.721 3.38-1.941 5.168-1.675 1.542 0.229 3.019 0.791 4.41 1.502 0 0 0 0 0.001 0 0.037 0.018 0.082 0.003 0.101-0.034 0-0 0-0.001 0-0.001l-0 0q0.596-1.242 1.207-2.476c0.012-0.023 0.006-0.051-0.013-0.069l-0-0q-0.071-0.064-0.197-0.134c-2.357-1.306-4.896-1.998-7.575-1.876-3.199 0.145-6.481 2.083-6.935 5.521-0.737 5.576 3.884 6.902 7.946 8.59 1.382 0.574 3.035 1.544 3.45 3.11 0.412 1.554-0.115 3.299-1.525 4.161-3.035 1.856-6.907 0.578-9.56-1.328-0.019-0.014-0.043-0.022-0.069-0.022-0.043 0-0.081 0.023-0.102 0.058l-0 0.001q-0.668 1.17-1.304 2.326c-0.063 0.115-0.15 0.201 0.003 0.303 2.446 1.64 5.271 2.575 8.223 2.577 4.204 0.003 7.859-2.577 7.96-7.014 0.050-2.171-0.697-4.122-2.453-5.474z"></path>
</svg>
