<!--
SPDX-FileCopyrightText: 2016 Guillaume Baudusseau

SPDX-License-Identifier: CC-BY-4.0
-->
<svg version="1.1" xmlns="http://www.w3.org/2000/svg" width="32" height="32" viewBox="0 0 32 32">
<title>ds-solid</title>
<path d="M9.321 30.296c-1.030-0.106-1.979-0.692-2.505-1.601q-3.127-5.406-6.245-10.817-0.224-0.389-0.307-0.584c-0.431-1.014-0.319-2.095 0.232-3.049q3.112-5.389 6.223-10.78c0.58-1.004 1.429-1.621 2.595-1.756q0.215-0.025 0.659-0.025 6.139 0 12.277 0.003c1.316 0.001 2.358 0.616 3.012 1.749q3.074 5.325 6.147 10.65 0.223 0.386 0.308 0.584c0.466 1.081 0.338 2.12-0.243 3.129q-3.081 5.349-6.165 10.697-0.173 0.3-0.351 0.537c-0.524 0.696-1.315 1.135-2.174 1.254q-0.223 0.031-0.659 0.031-6.071 0.001-12.142 0-0.473 0-0.66-0.019zM14.068 18.051c0.439 0.439 0.86 0.897 1.3 1.335q1.749 1.739 3.491 3.488c0.002 0.001 0.003 0.003 0.003 0.006 0 0.004-0.003 0.008-0.008 0.008-0.002 0-0.004-0.001-0.005-0.002v0l-5.502-4.285c-0.021-0.016-0.046-0.025-0.072-0.025l-0.001 0q-2.222-0.001-4.454 0c-0.205 0-0.284 0.139-0.285 0.33q-0.002 1.143 0.002 2.285 0.001 0.442 0.035 0.658c0.198 1.272 1.233 2.247 2.506 2.386q0.182 0.020 0.66 0.020 3.634 0.002 7.267-0.002c1.154-0.001 2.161-0.312 3.022-1.085q1.341-1.204 1.426-3.057 0.021-0.459-0.183-0.819-0.091-0.16-0.377-0.447-4.875-4.878-9.751-9.754-0.031-0.031-0.065-0.061c-0.003-0.003-0.005-0.007-0.005-0.011 0-0.003 0.001-0.006 0.003-0.008l-0 0q0.007-0.010 0.018-0.002 2.947 2.205 5.885 4.398c0.015 0.011 0.034 0.017 0.052 0.018h0.001q2.005 0 4.019-0.001c0.246-0 0.409-0.047 0.41-0.321q0.007-1.070 0.002-2.14-0.002-0.439-0.033-0.659c-0.143-1.027-0.799-1.897-1.747-2.308-0.575-0.25-1.121-0.25-1.736-0.25q-3.638-0.002-7.275 0.002c-2.281 0.003-4.048 1.797-4.136 4.052-0.022 0.56 0.22 0.94 0.619 1.339q2.457 2.458 4.914 4.915z"></path>
</svg>
