<!--
SPDX-FileCopyrightText: Copyright © 2022-Present Spritely Intitute <contact@spritely.institute>

SPDX-License-Identifier: LicenseRef-AllRightsReserved
-->
<svg version="1.1" xmlns="http://www.w3.org/2000/svg" width="32" height="32" viewBox="0 0 32 32">
<title>ds-spritely</title>
<path d="M12.406 0.201c0.429 0.162 0.794 0.292 1.273 0.348 0.394 0.046 0.805 0.141 1.18 0.151q0.404 0.010 0.832-0.006c0.288 0.015 0.585 0.031 0.878 0.014q2.102-0.122 3.614-0.529c0.886-0.238 2.032-0.329 2.624 0.419q0.888 1.122 0.302 2.377-0.411 0.882-1.437 0.566-0.954-0.377-1.498 0.525-0.316 0.391-0.366 0.805-0.152 0.499-0.144 1.015-0.003 0.304-0.022 0.633c-0.048 0.832 0.124 1.532 0.512 2.279q4.040 7.761 7.923 14.61c0.704 1.241 1.374 2.789 1.037 4.218-0.223 0.944-0.943 1.256-1.73 1.631q-0.049 0.023-0.051 0.087l-0.505 0.204q-0.080 0.032 0.004 0.051l0.411 0.089c0.008 0.002 0.017 0.002 0.026-0.001 0.027-0.008 0.042-0.037 0.033-0.064-0.003-0.009-0.007-0.016-0.013-0.022l0 0q-0.013-0.012-0.024-0.024c-0.007-0.007-0.011-0.017-0.011-0.028 0-0.023 0.019-0.041 0.041-0.041 0.001 0 0.001 0 0.002 0h-0l0.375 0.016c0.012 0 0.026-0.003 0.039-0.009 0.034-0.016 0.052-0.049 0.040-0.073-0.005-0.009-0.013-0.016-0.023-0.020l0 0q-0.111-0.034-0.207 0.006-0.041 0.017-0.083-0.001-0.062-0.026-0.105-0.084l0.674-0.031q0.172 0.115 0.248 0.024l0.408 0.006q0.054 0.001 0.005 0.023c-0.176 0.078-0.444 0.021-0.53 0.149-0.007 0.011-0.012 0.024-0.012 0.038 0 0.037 0.030 0.068 0.068 0.068 0.002 0 0.004-0 0.007-0l-0 0q0.364-0.032 0.751 0.010c0.003-0 0.007 0.001 0.009 0.004 0.005 0.005 0.004 0.013-0.001 0.018-0.003 0.003-0.006 0.004-0.009 0.004v0q-0.52 0.040-1.038 0.066c-0.203 0.010-0.395-0.098-0.639 0.064l-0.308-0.016q-0.044-0.002-0.075-0.033c-0.231-0.238-0.958 0.141-1.254 0.248-0.015 0.006-0.026 0.021-0.026 0.038 0 0.022 0.018 0.040 0.040 0.041h0.036q0.030 0 0.014 0.025-0.007 0.010-0.021 0.021-0.558-0.029-1.145 0.181-0.604 0.077-1.217 0.18-0.548 0.093-1.267 0.12c-0.026 0.001-0.047 0.023-0.047 0.050 0 0.016 0.008 0.031 0.020 0.040l0 0q0.059 0.043-0.108 0.055l-0.544 0.034c-0.016 0.002-0.029 0.016-0.029 0.032 0 0.013 0.007 0.024 0.018 0.029l0 0q0.152 0.066 0.336 0.039c0.207 0.001 1.020-0.021 1.035-0.157q0.005-0.041 0.046-0.044 0.408-0.033 0.808-0.126c0.112-0.025 0.32-0.034 0.464-0.114q0.041-0.023 0.087-0.025l0.59-0.035q0.852-0.162 1.728-0.188 0.050-0.002 0.012-0.032-0.202-0.168-0.484-0.059l-0.184-0.010q-0.098-0.005-0.020-0.064 0.086-0.067 0.2-0.040 0.046 0.011 0.087-0.014c0.118-0.067 0.666-0.283 0.766-0.158 0.004 0.004 0.006 0.009 0.008 0.015 0.006 0.023-0.007 0.046-0.030 0.053-0.006 0.002-0.012 0.002-0.017 0.001l0 0c-0.072-0.009-0.433-0.039-0.405 0.103q0.009 0.047 0.056 0.040l0.549-0.078q0.197-0.015 0.375-0.060c0.223-0.056 0.345-0.019 0.554 0.013q0.051 0.008 0 0.015l-0.838 0.127c-0.028 0.005-0.050 0.029-0.050 0.059s0.021 0.053 0.048 0.058l0 0q0.144 0.024 0.253-0.053c0.026-0.019 0.057-0.029 0.088-0.031h0.001q0.468-0.019 0.935 0.020c0.008 0 0.015 0.003 0.021 0.009 0.011 0.012 0.010 0.030-0.002 0.041-0.006 0.006-0.013 0.008-0.021 0.008v0q-1.206 0.047-2.362 0.226c-0.215 0.034-0.437-0.018-0.67 0.033-0.241 0.052-0.9 0.057-1.019 0.165q-0.064 0.057 0.022 0.054 0.35-0.011 0.694-0.018c0.337-0.007 0.728-0.134 1.132-0.069q0.040 0.007 0.061 0.041 0.007 0.013 0.017 0.024c0.007 0.008 0.017 0.014 0.028 0.015h0c0.343 0.049 0.64-0.116 0.974-0.074 0.012 0.002 0.022 0.013 0.022 0.026s-0.009 0.023-0.021 0.026l-0 0q-0.829 0.132-1.611 0.090c-0.132-0.007-0.177 0.069-0.299 0.080q-0.593 0.051-1.187 0.026c-0.005-0-0.011 0-0.017 0.003-0.013 0.005-0.021 0.016-0.018 0.024 0.001 0.003 0.005 0.006 0.009 0.007h-0q0.009 0.003 0.020 0.005c0.009 0.002 0.018 0.006 0.024 0.014 0.014 0.018 0.009 0.046-0.011 0.062-0.009 0.007-0.019 0.011-0.029 0.011h0c-0.182 0.009-0.775-0.003-0.868 0.145q-0.053 0.084 0.044 0.063 0.747-0.161 1.492 0.004 0.102 0.023-0.003 0.023-1.141-0.003-1.825 0.088-0.854 0.114-1.207 0.132c-0.013-0.185 0.3-0.069 0.398-0.1 0.004-0.001 0.009-0.004 0.013-0.007 0.019-0.015 0.023-0.042 0.009-0.061-0.003-0.004-0.007-0.008-0.012-0.011l0 0-0.074-0.048q-0.051-0.032 0.009-0.040l0.143-0.019 1.561-0.215q0.055-0.008 0.059-0.063l0.003-0.036q0.004-0.048-0.044-0.042l-1.984 0.232q-0.353 0.023-0.698-0.044c-0.005-0.001-0.011-0.003-0.015-0.008-0.012-0.010-0.014-0.026-0.005-0.036 0.003-0.004 0.008-0.006 0.013-0.007h-0q0.111-0.014 0.051-0.11c-0.005-0.007-0.008-0.017-0.008-0.026 0-0.027 0.022-0.050 0.050-0.050 0.001 0 0.003 0 0.004 0h-0l0.181 0.014q0.020 0.001 0.020-0.019 0-0.013 0.001-0.027c0-0.001 0-0.001 0-0.002 0-0.016-0.013-0.029-0.029-0.029 0 0-0 0-0 0v0l-1.431 0.005-0.163-0.012-1.92 0.023c-1.872 0.044-3.744-0.060-5.62-0.028q-0.114 0.002-0.092 0.097 0.012 0.051-0.040 0.058l-0.631 0.085-0.598 0.076q-0.115-0.051-0.191-0.015-0.033 0.015-0.065-0.002-0.087-0.048-0.175 0.021c-0.021 0.016-0.047 0.027-0.075 0.029l-0 0c-0.055 0.004-0.408-0.004-0.379 0.086q0.012 0.036 0.050 0.031 0.325-0.045 0.589 0.162c0.021 0.016 0.047 0.021 0.072 0.016l0.001-0q0.238-0.062 0.333 0.071-0.023 0.046-0.036 0.029c-0.309 0.041-0.471-0.11-0.732-0.113q-0.148-0.001-0.299 0.002-0.050 0.001-0.067 0.047-0.032 0.088-0.139 0.086-0.036-0.002-0.041 0.035l-0.004 0.026q-0.005 0.035 0.031 0.036l1.329 0.043-0.599 0.114-0.503 0.021q-0.224-0.117-0.318 0.016-0.119-0.004-0.147 0.093-0.017 0.059-0.048 0.006l-0.018-0.030q-0.015-0.027 0.013-0.039c0.062-0.025 0.089-0.114 0-0.137q-0.050-0.014-0.072 0.032-0.074 0.153-0.263 0.116-0.048-0.009-0.089 0.015-0.175 0.101-0.374 0.081c-0.003 0-0.006-0.001-0.009-0.003-0.004-0.005-0.004-0.012 0.001-0.017 0.002-0.002 0.005-0.003 0.008-0.004v0q0.351-0.019 0.622-0.245 0.034-0.029 0.079-0.033l0.157-0.015c0.023-0.003 0.045-0.009 0.065-0.020l0.001-0q0.1-0.052-0.017-0.097-0.028-0.011-0.058-0.007l-1.353 0.169-0.088-0.119q-0.028-0.038-0.074-0.024l-0.333 0.103q-0.278-0.018-0.561-0.072c-0.010-0.003-0.017-0.011-0.017-0.022 0-0.012 0.009-0.021 0.020-0.022h0q0.275-0.005 0.547 0.047 0.033 0.006 0.065-0.006l0.313-0.127q0.044-0.017 0.081 0.013c0.087 0.070 0.84 0.023 1.005 0.020q0.041 0 0.041-0.041v-0.038c0 0 0-0 0-0 0-0.025-0.020-0.046-0.045-0.047h-0l-0.496-0.024q0.098-0.063 0.217-0.041 0.089 0.017 0.017-0.039-0.179-0.137-0.356 0.054-0.101 0.062-0.227 0.075-0.046 0.005-0.079-0.028-0.299-0.3-0.698-0.13-0.029 0.013-0.024 0.044 0.002 0.016 0.003 0.031 0.002 0.011-0.008 0.015-0.193 0.096-0.376 0.031c-0.012-0.004-0.020-0.015-0.020-0.027 0-0.016 0.013-0.029 0.029-0.029 0.002 0 0.003 0 0.005 0l-0-0q0.189 0.028 0.316-0.099c0.019-0.018 0.041-0.031 0.066-0.037l0.001-0 0.231-0.054c0.020-0.005 0.034-0.023 0.034-0.044 0-0.013-0.005-0.024-0.013-0.032v0q-0.069-0.068 0.017-0.112c0.006-0.003 0.013-0.004 0.020-0.004 0.025 0 0.045 0.020 0.045 0.045 0 0.011-0.004 0.020-0.010 0.028l0-0c-0.055 0.068 0.007 0.125 0.076 0.136 0.265 0.042 0.45 0.052 0.718-0.069q0.451-0.203 0.876-0.073 0.314 0.096 0.486 0.047 0.241 0.068 0.418-0.019 0.055-0.027 0.012-0.070l-0.025-0.024q-0.035-0.035 0.014-0.040l0.136-0.011 0.613 0.003c0.020-0.001 0.036-0.018 0.036-0.038 0-0.018-0.013-0.033-0.030-0.037l-0-0q-0.267-0.044-0.55-0.047c-0.321-0.003-0.675-0.071-1.026-0.023q-0.045 0.006-0.030 0.050c0.050 0.14 0.408 0.023 0.55 0.055l0.185 0.045q0.036 0.009 0.011 0.037-0.092 0.1-0.195 0.034-0.403 0.035-0.742-0.191-0.036-0.024-0.064 0.009c-0.058 0.067-0.585 0.052-0.72 0.074q-0.041 0.006-0.071-0.022-0.137-0.125-0.24 0.013c-0.010 0.013-0.025 0.021-0.043 0.021-0.014 0-0.027-0.006-0.037-0.015v0q-0.153-0.143-0.3 0.014c-0.016 0.017-0.040 0.023-0.063 0.016l-0-0-0.28-0.089c-0.029-0.009-0.059-0.005-0.084 0.009l-0.001 0q-0.104 0.060-0.217 0.023-0.038-0.012-0.072 0.007-0.164 0.089-0.35 0.106-0.114 0.010-0.012-0.041l0.215-0.109c0.012-0.007 0.020-0.019 0.020-0.033 0-0.021-0.017-0.038-0.038-0.038-0.003 0-0.006 0-0.008 0.001l0-0q-0.268 0.067-0.478 0.253-0.034 0.031-0.068-0.003l-0.054-0.054q-0.020-0.019-0.048-0.019h-0.373c-0.030 0-0.059 0.014-0.077 0.037l-0 0.001q-0.097 0.126-0.263 0.088c-0.005-0.001-0.011-0.004-0.014-0.008-0.010-0.011-0.009-0.029 0.003-0.039 0.004-0.004 0.010-0.006 0.015-0.007h-0q0.235-0.027 0.239-0.266c0-0.022 0.018-0.039 0.040-0.039 0.006 0 0.012 0.001 0.017 0.004l-0-0q0.255 0.123 0.528 0.016c0.026-0.009 0.044-0.033 0.044-0.061 0-0.036-0.029-0.065-0.065-0.065-0.004 0-0.008 0-0.012 0.001l0-0-0.385 0.052c-0.003 0.001-0.006 0.001-0.010 0.001-0.024 0-0.044-0.020-0.044-0.044 0-0.020 0.014-0.037 0.032-0.043l0-0 0.319-0.115c0.018-0.007 0.030-0.023 0.030-0.043 0-0.015-0.007-0.029-0.019-0.037l-0-0c-0.081-0.060-0.436 0.177-0.537 0.218-0.029 0.012-0.060 0.013-0.089 0.004l-0.001-0q-0.27-0.090-0.543-0.001c-0 0-0 0-0.001 0-0.021 0.007-0.044-0.005-0.051-0.027-0-0-0-0-0-0v0l-0.025-0.081q-0.016-0.051-0.069-0.043-0.241 0.032-0.484 0.014c-0 0-0 0-0 0-0.010 0-0.019-0.009-0.019-0.019s0.008-0.019 0.018-0.019h0q0.337-0.041 0.676-0.023c0.079 0.007 0.619 0.071 0.534-0.118-0.010-0.023-0.037-0.035-0.061-0.026l-0 0q-0.177 0.064-0.376 0.051-0.027 0.001-0.056-0.051 0.065-0.068 0.18-0.060c0.027 0.002 0.053-0.008 0.073-0.026l0-0 0.176-0.161c0.007-0.006 0.011-0.015 0.011-0.025 0-0.018-0.014-0.033-0.033-0.034h-0q-0.097-0.005-0.157 0.078-0.023 0.032-0.063 0.034-0.153 0.007-0.234 0.128-0.008 0.013-0.023 0.008c-0.039-0.011-0.066 0.032-0.053 0.065q-0.011 0.021-0.036 0.023-0.045 0.005-0.069-0.034c-0.147-0.241-0.766-0.006-0.933 0.011-0.001 0-0.002 0-0.003 0-0.013 0-0.024-0.011-0.024-0.024 0-0 0-0.001 0-0.001v0q0.001-0.012 0.001-0.023c0-0.013 0.009-0.024 0.021-0.026l0-0q0.161-0.031 0.189-0.183c0.001-0.003 0.001-0.007 0.001-0.011 0-0.033-0.027-0.060-0.060-0.060-0.018 0-0.034 0.008-0.045 0.020l-0 0q-0.145 0.161-0.35 0.225c-0.006 0.002-0.012 0.002-0.019-0.001-0.013-0.006-0.020-0.020-0.015-0.032 0.002-0.006 0.007-0.010 0.013-0.013v0q0.1-0.047 0.198-0.081c0.035-0.013 0.060-0.046 0.060-0.086 0-0.049-0.039-0.090-0.088-0.091h-0l-1.175-0.026q-0.014 0-0.014-0.014t0.003-0.025q0.001-0.001 0.003-0.001 0.901-0.060 1.211 0.009 0.281 0.063 0.463-0.023 0.041-0.019 0.086-0.022l0.288-0.014q0.089 0.002 0.096 0.078 0.004 0.050 0.047 0.024l0.088-0.051q0.039-0.023 0.013-0.059-0.116-0.161-0.29-0.092c-0.002 0.001-0.004 0.001-0.006 0.002-0.018 0.003-0.035-0.009-0.038-0.027-0-0.002-0.001-0.004-0.001-0.006v0-0.034c-0-0.002 0-0.005 0-0.007 0.004-0.025 0.028-0.042 0.053-0.038 0.002 0 0.005 0.001 0.007 0.002l-0-0 0.315 0.098q0.055 0.017 0.093 0.060 0.056 0.061 0.136 0.014c0.024-0.014 0.055-0.009 0.075 0.012l0 0 0.103 0.11q0.026 0.028 0.063 0.019 0.128-0.032 0.231 0.032 0.057 0.035 0.009 0.083l-0.097 0.097c-0.008 0.007-0.013 0.018-0.013 0.029 0 0.022 0.018 0.040 0.040 0.040 0.006 0 0.012-0.002 0.018-0.004l-0 0q0.229-0.097 0.345-0.103c0.007-0 0.014 0.002 0.020 0.006 0.014 0.009 0.018 0.028 0.010 0.040-0.004 0.006-0.010 0.009-0.016 0.011h0q-0.161 0.038-0.295 0.139-0.021 0.016 0 0.032 0.083 0.064 0.189-0.013 0.033-0.024 0.075-0.026 0.214-0.010 0.407-0.1 0.060-0.028 0-0.055c-0.125-0.056-0.275-0.070-0.388-0.122q-0.498-0.228-0.958-0.436c-1.001-0.59-1.636-0.813-1.736-2.112-0.101-1.314 0.396-2.496 1.026-3.614q3.778-6.712 7.806-14.382 0.406-0.774 0.617-1.441 0.102-0.090 0.061-0.242l0.030-0.245q0.144-0.421 0-0.825-0.005-0.236-0.060-0.271 0.115-0.494-0.040-0.843-0.044-0.249-0.21-0.739-0.256-0.752-0.905-1.054-0.276-0.168-0.664 0.004c-0.572 0.138-1.111 0.233-1.473-0.352q-0.544-0.878-0.245-1.774c0.487-1.46 1.724-1.589 3.021-1.182zM12.671 3.655l0.331 0.638q0.023 0.046 0.064 0.014l0.061-0.047 0.022 0.521 0.089 0.391c0.055 0.77 0.147 1.662 0.018 2.37-0.132 0.723-0.493 1.46-0.804 2.128q-0.060 0.002-0.080 0.111-1.107 2.030-2.083 4.099-0.074 0.033-0.073 0.138 0.001 0.045-0.032 0.078-0.126 0.127-0.17 0.302-0.124 0.196-0.342 0.62-2.402 4.68-4.15 8.212-0.456 0.923-0.948 2.299c-0.031 0.086-0.015 0.207-0.026 0.301q-0.057 0.031-0.079 0.113-0.211 0.769 0.425 1.28 0.166 0.252 0.404 0.38 0.178 0.061 0.298 0.179c-0.134-0.036-0.236-0.089-0.39-0.154q-0.177-0.074-0.269-0.264c-0.011-0.022-0.031-0.036-0.054-0.041l-0.001-0q-0.204-0.032-0.338-0.192c-0.015-0.018-0.039-0.030-0.064-0.030-0.046 0-0.084 0.038-0.084 0.084 0 0.002 0 0.005 0 0.007v-0q0.035 0.445 0.363 0.742 0.038 0.035 0.090 0.035h0.062q0.038 0 0.065 0.027 0.167 0.164 0.391 0.244c0.105 0.038 0.211 0.167 0.342 0.217q0.43 0.166 1.167 0.505 0.072 0.032 0.129-0.009 0.038-0.027-0.001-0.052-0.157-0.098-0.25-0.259-0.022-0.038-0.060-0.058-0.131-0.068-0.159-0.226c0.373 0.353 0.684 0.465 1.098 0.645 0.306 0.134 0.641 0.144 0.972 0.248 0.21 0.066 0.388 0.070 0.594 0.070q0.171-0.005 0.294 0.069 0.15 0.178 0.265-0.018l0.306 0.168q0.129-0.053 0.244 0.034c0.025 0.019 0.054 0.031 0.084 0.035l0.001 0c0.607 0.090 1.22 0.062 1.833 0.067 0.221 0.002 0.54 0.056 0.82 0.025 0.105-0.012 0.139 0.015 0.209 0.081q0.033 0.031 0.077 0.023 0.123-0.018 0.318 0.024 0.347 0.077 1.3 0.003l0.243 0.033 0.476 0.030q0.036 0.003 0.019-0.029-0.037-0.067 0.007-0.127l0.237 0.049c0.026 0.005 0.052-0.005 0.068-0.026l0-0q0.053-0.069 0.25-0.071l0.259-0.011c0.046 0.171 0.116 0.251 0.306 0.249q0.345-0.005 0.683-0.022c0.036-0.001 0.065-0.031 0.065-0.068 0-0.034-0.024-0.061-0.057-0.067l-0-0q-0.056-0.010-0.036-0.090 0.137-0.034 0.134 0.099 0.653 0.105 1.299 0.060 0.073-0.005 0.018-0.053c-0.097-0.084-0.639-0.135-0.701-0.049q-0.025 0.035-0.068 0.032-0.090-0.007-0.092-0.071l0.64-0.198 0.627 0.014q0.125 0.133 0.235 0.152c0.001 0 0.002 0 0.002 0 0.011 0 0.021-0.009 0.021-0.021 0-0.006-0.003-0.012-0.007-0.015v0l-0.179-0.139-0.799-0.456c-0.004-0.002-0.007-0.006-0.007-0.011 0-0.007 0.005-0.012 0.012-0.012 0.002 0 0.004 0 0.006 0.001l-0-0c0.493 0.214 0.834 0.495 1.392 0.514q0.084 0.023 0.191-0.038c0.013-0.007 0.028-0.012 0.044-0.012s0.032 0.004 0.045 0.012l-0-0q0.131 0.075 0.223 0.032l0.531 0.099c0.228 0.076 0.379 0.112 0.638 0.074 0.519-0.076 0.992 0.009 1.596-0.097l0.322-0.054 0.907-0.254q0.123 0.016 0.229-0.060l0.412-0.149q0.057 0.024 0.18-0.035l0.303-0.096 0.948-0.345q0.031-0.012 0.045-0.041l0.016-0.034 0.050-0.009q0.127 0.005 0.225-0.085l0.254-0.146c0.534-0.208 0.952-0.432 1.027-0.959q0.189-1.313-0.419-2.461l-0.21-0.521c-0.42-1.259-1.147-2.536-1.759-3.718q-0.363-0.698-0.566-0.988l-0.366-0.79q-0.052-0.232-0.22-0.389c-0.274-0.647-0.651-1.331-0.919-1.893-0.503-1.055-1.111-2.104-1.594-3.11-0.909-1.899-1.984-3.7-2.772-5.658q0.028-0.097-0.015-0.12c-0.118-1.332-0.156-4.415 1.706-4.674 0.364-0.051 1.211 0.224 1.409-0.119 0.245-0.425 0.224-0.767 0.085-1.24-0.34-1.158-1.243-0.962-2.322-0.85q-0.756 0.079-1.508 0.185c-0.863 0.123-1.933-0.023-2.876 0.027-1.347 0.072-2.641-0.115-3.976-0.268-0.529-0.060-1.229-0.104-1.558 0.426-0.325 0.522-0.496 1.153-0.157 1.702 0.112 0.18 0.273 0.213 0.469 0.186 0.908-0.122 1.393-0.098 2.050 0.592zM5.417 29.607q-0.104-0.032-0.183 0.032-0.051 0.041 0.013 0.059 0.132 0.034 0.235-0.032c0.011-0.007 0.018-0.019 0.018-0.033 0-0.012-0.006-0.023-0.015-0.031l-0-0q-0.035-0.027-0.067 0.005zM19.044 29.665q0.048-0.009 0.088-0.008 0.094 0.004 0.014-0.045-0.106-0.063-0.141 0.001c-0.003 0.005-0.004 0.011-0.004 0.017 0 0.020 0.016 0.036 0.036 0.036 0.002 0 0.005-0 0.007-0.001l-0 0zM27.698 29.671q0.079 0.052 0.134-0.032c0.003-0.005 0.005-0.011 0.005-0.017 0-0.018-0.015-0.033-0.033-0.033-0.005 0-0.010 0.001-0.014 0.003l0-0-0.090 0.043q-0.033 0.016-0.002 0.037zM4.522 29.719q-0.395 0.052 0.003 0.061 0.024 0 0.020-0.023l-0.004-0.023q-0.003-0.017-0.019-0.014zM6.674 30.102c-0.001 0.037-0.031 0.066-0.068 0.066-0.034 0-0.061-0.024-0.067-0.056l-0-0-0.005-0.041c-0.003-0.021-0.021-0.036-0.042-0.036-0.007 0-0.014 0.002-0.020 0.005l0-0-0.049 0.026q-0.058 0.031 0.007 0.041 0.090 0.014 0.109 0.105 0.009 0.044 0.055 0.038c0.28-0.044 0.397-0.114 0.697-0.084 0.028 0.003 0.053 0.014 0.073 0.032l0.001 0.001q0.092 0.087 0.199 0.033c0.016-0.008 0.027-0.024 0.027-0.043 0-0.024-0.017-0.043-0.039-0.047l-0-0c-0.289-0.055-0.487-0.217-0.805-0.104q-0.029 0.011-0.029-0.020v-0.045c0-0 0-0 0-0 0-0.024-0.020-0.044-0.044-0.044-0.001 0-0.003 0-0.004 0h0l-0.060 0.005c-0.011 0.001-0.022 0.006-0.029 0.015-0.014 0.018-0.009 0.046 0.012 0.062 0.010 0.008 0.022 0.011 0.034 0.011v0q0.013-0.001 0.023-0.001 0.023 0 0.023 0.023v0.061zM6.655 30.381q-0.020 0.013-0.044 0.015t-0.025 0.028l-0.004 0.101c-0.001 0.024-0.021 0.044-0.045 0.044-0.005 0-0.010-0.001-0.014-0.002l0 0q-0.069-0.022-0.128 0.006c-0.015 0.008-0.027 0.021-0.031 0.038-0.009 0.036 0.020 0.075 0.065 0.086 0.021 0.005 0.041 0.004 0.058-0.003l-0 0q0.088-0.039 0.166-0.118 0.032-0.033-0.001-0.065-0.058-0.056 0.004-0.131 0.169 0.080 0.332 0.030 0.040-0.013 0.080-0.005 0.506 0.105 0.99-0.064 0.053-0.019 0.016-0.061-0.073-0.085-0.185-0.044-0.421 0.152-0.779 0.037c-0.029-0.009-0.061-0.007-0.089 0.005l-0.001 0q-0.127 0.058-0.272 0.029c-0.004-0.001-0.008-0.001-0.013-0.001-0.024 0-0.045 0.013-0.057 0.032l-0 0-0.024 0.041zM7.916 30.554c0.001-0.001 0.003-0.002 0.004-0.003 0.006-0.007 0.004-0.018-0.003-0.025-0.001-0.001-0.003-0.002-0.004-0.003l0 0q-0.125-0.051-0.159 0.056c-0.001 0.004-0.002 0.008-0.002 0.012 0 0.023 0.019 0.042 0.042 0.042 0.009 0 0.018-0.003 0.024-0.008l-0 0 0.097-0.072zM9.18 31.018l-0.245 0.033c-0.007 0.001-0.013 0.003-0.019 0.008-0.015 0.013-0.016 0.035-0.004 0.050 0.005 0.005 0.011 0.009 0.017 0.011l-0-0q0.093 0.031 0.186 0.021c0.003-0 0.006-0.001 0.010-0.001 0.022 0 0.042 0.008 0.056 0.022l-0-0q0.114 0.106 0.267 0.060c0.015-0.005 0.026-0.019 0.026-0.035s-0.012-0.032-0.028-0.036l-0-0-0.156-0.039c-0.014-0.004-0.024-0.016-0.024-0.031 0-0.003 0-0.006 0.001-0.008l-0 0c0.013-0.049 0.502-0.021 0.581-0.026 0.001 0 0.001 0 0.002 0 0.025 0 0.045-0.020 0.045-0.045s-0.019-0.044-0.043-0.045h-0c-0.118-0.017-0.501-0.075-0.601 0.023-0.020 0.019-0.044 0.032-0.071 0.036l-0.001 0z"></path>
<path d="M12.406 0.201l0.364-0.015q0.049-0.002 0.084 0.033 0.083 0.083 0.215 0.052 0.046-0.011 0.089 0.010 0.493 0.247 1.048 0.161 0.048-0.007 0.091 0.014c0.282 0.137 0.523 0.058 0.805 0.133q0.265 0.070 0.589 0.106-0.428 0.016-0.832 0.006c-0.375-0.010-0.786-0.105-1.18-0.151-0.479-0.056-0.843-0.186-1.273-0.348z"></path>
<path d="M17.937 1.434q-0.511 0.198-0.911 0.228-1.038 0.078-2.209-0.126-0.095-0.017-0.121 0.082-1.166-0.071-1.693-0.173-1.229-0.236 0.019-0.146c1.57 0.114 3.021 0.234 4.916 0.135z"></path>
<path d="M14.696 1.618q0.026-0.099 0.121-0.082 1.171 0.204 2.209 0.126 0.401-0.030 0.911-0.228 1.226-0.060 1.901-0.156 0.187-0.027 0.306-0.005 0.087 0.016 0.004 0.047c-0.297 0.11-0.637 0.096-0.865 0.125q-0.364 0.047-0.424 0.048-0.302 0.006-0.599 0.063-1.777 0.344-3.563 0.062z"></path>
<path d="M11.768 3.505l-0.664 0.004q0.388-0.171 0.664-0.004z"></path>
<path d="M21.672 3.541q-0.349 0.106-0.735 0.063-0.047-0.005-0.086 0.021l-0.677 0.441q0.545-0.902 1.498-0.525z"></path>
<path d="M13.127 4.26l-0.061 0.047q-0.041 0.032-0.064-0.014l-0.331-0.638q0.229-0.073 0.418 0.064 0.036 0.027 0.036 0.071l0.003 0.469z"></path>
<path d="M13.238 5.172l-0.089-0.391q0.383-0.566 0.089 0.391z"></path>
<path d="M19.807 4.87q0.038 0.506-0.144 1.015-0.008-0.516 0.144-1.015z"></path>
<path d="M12.883 5.297q0.155 0.349 0.040 0.843c-0.032-0.204-0.267-0.682-0.040-0.843z"></path>
<path d="M12.983 6.411q0.144 0.404 0 0.825v-0.825z"></path>
<path d="M12.953 7.481q0.041 0.152-0.061 0.242-0.063-0.181 0.061-0.242z"></path>
<path d="M19.348 7.688q0.043 0.023 0.015 0.12c-0.097-0.041-0.226-0.298-0.079-0.294 0.001 0 0.002 0 0.002 0 0.023 0.002 0.040 0.022 0.038 0.046-0 0.001-0 0.001-0 0.002v-0q-0.011 0.087 0.023 0.126z"></path>
<path d="M15.373 17.778c-0.69-0.552-0.385-1.544 0.241-1.921 0.567-0.344 1.324-0.131 1.533 0.523 0.35 1.099-0.674 2.28-1.774 1.398z"></path>
<path d="M12.838 18.451l-0.085-0.021q-0.031-0.023-0.071-0.027-0.044-0.005-0.030 0.037 0.107 0.311 0.067 0.661c-0.36 1.243-2.089 1.070-2.019-0.217q0.014-0.253 0.184-0.452 0.68-0.792 1.675-0.13 0.024 0.055 0.278-0.025 0.001 0.014 0.016 0.027c0.013 0.010 0.030 0.013 0.045 0.008l0-0q1.098-0.318 2.14-0.788c0.003-0.002 0.006-0.003 0.009-0.003 0.011 0 0.019 0.009 0.019 0.019 0 0.007-0.004 0.013-0.010 0.017l-0 0q-0.972 0.661-2.142 0.799c-0.032 0.004-0.059 0.023-0.075 0.050l-0 0.001q-0.015 0.027-0.003 0.043z"></path>
<path d="M12.837 18.277q-0.253 0.080-0.278 0.025 0.049-0.322 0.25-0.482 0.043-0.033 0.041 0.021l-0.014 0.436z"></path>
<path d="M22.746 19.342c-0.385 1.592-3.014 0.822-2.078-0.944 0.585-1.103 2.386-0.324 2.078 0.944z"></path>
<path d="M15.25 18.062q0.106-0.125 0.017 0.013l-2.225 3.489c-0.003 0.005-0.007 0.009-0.013 0.010-0.011 0.003-0.023-0.004-0.026-0.015-0.002-0.006-0.001-0.011 0.002-0.016v0q0.898-1.885 2.245-3.481z"></path>
<path d="M17.798 20.496q0.13 0.192 0.205 0.323c0.001 0.003 0.002 0.006 0.002 0.009 0 0.011-0.009 0.021-0.021 0.021-0.005 0-0.010-0.002-0.014-0.005h0q-1.105-1.123-1.259-2.708-0.006-0.063 0.012-0.003 0.389 1.343 1.075 2.363z"></path>
<path d="M15.806 20.832c0.165-0.876 0.383-1.876 0.298-2.674q-0.007-0.061 0.031-0.013c0.261 0.33-0.166 2.256-0.308 2.692-0.002 0.004-0.005 0.007-0.010 0.007-0.006 0-0.011-0.005-0.011-0.011 0-0 0-0.001 0-0.001v0z"></path>
<path d="M12.753 18.431l0.010 0.668q-0.017 0.007-0.044 0.004 0.041-0.35-0.067-0.661-0.014-0.041 0.030-0.037 0.041 0.005 0.071 0.027z"></path>
<path d="M24.649 18.469q0.168 0.157 0.22 0.389-0.026-0.004-0.057 0.015l-0.163-0.404z"></path>
<path d="M20.597 19.939c0.001-0.001 0.002-0.001 0.003-0.001s0.003 0.001 0.004 0.002v0l0.002 0.002c0.033 0.047-0.277 0.325-0.692 0.62-0 0-0 0-0 0h0l-0.022 0.015c-0 0-0 0-0 0-0.415 0.295-0.779 0.496-0.813 0.45v0l-0.001-0.002c-0.001-0.001-0.001-0.002-0.001-0.003s0.001-0.003 0.002-0.004v0l1.519-1.080z"></path>
<path d="M12.489 21.272q0.064 0.344-0.069 0.020l-0.507-1.237c-0.001-0.002-0.001-0.004-0.001-0.006 0-0.011 0.009-0.021 0.021-0.021 0.006 0 0.011 0.003 0.015 0.007v0q0.413 0.554 0.54 1.237z"></path>
<path d="M21.839 20.298c-0.002-0.003-0.003-0.006-0.003-0.010 0-0.009 0.008-0.017 0.017-0.017 0.006 0 0.011 0.003 0.014 0.007l0 0q0.592 0.671 0.787 1.552 0.003 0.010-0.002 0.001l-0.813-1.534z"></path>
<path d="M18.513 22.554c-1.025 0.192-1.457-0.819-0.728-1.461 0.405-0.355 1.036-0.244 1.286 0.232 0.277 0.524 0.059 1.114-0.558 1.23z"></path>
<path d="M15.51 22.344q0.037 1.066-0.387 2.039c-0.002 0.005-0.007 0.009-0.013 0.009-0.008 0-0.014-0.006-0.014-0.014 0-0.002 0-0.003 0.001-0.005l-0 0q0.256-1.004 0.381-2.032c0.003-0.028-0.012-0.054-0.038-0.064l-0-0q-0.369-0.146-0.519-0.517-0.017-0.042-0.007-0.087 0.101-0.472 0.557-0.632c0.787-0.276 1.19 1.401 0.097 1.253-0.002-0-0.005-0-0.007-0-0.027 0-0.050 0.022-0.050 0.050 0 0 0 0.001 0 0.002v-0z"></path>
<path d="M13.005 22.905c-0.404 0.228-0.788 0.071-1.046-0.291-0.204-0.285 0.175-0.759 0.408-0.867 0.808-0.374 1.352 0.755 0.639 1.158z"></path>
<path d="M17.243 21.878c-0.002 0.006-0.007 0.009-0.013 0.009-0.001 0-0.002-0-0.003-0h0l-0.011-0.003c-0-0-0-0-0.001-0-0.401-0.103-0.724-0.196-0.725-0.21v0l0.006-0.023c0.008-0.011 0.336 0.062 0.736 0.165v0l0.012 0.003c0.006 0.002 0.009 0.007 0.009 0.013 0 0.001-0 0.002-0 0.003v-0l-0.011 0.042z"></path>
<path d="M13.587 22.124l1.237-0.39c0.013-0.004 0.027 0.003 0.032 0.017l0.009 0.029c0.004 0.013-0.003 0.027-0.017 0.032l-1.237 0.39c-0.013 0.004-0.027-0.003-0.032-0.017l-0.009-0.029c-0.004-0.013 0.003-0.027 0.017-0.032z"></path>
<path d="M19.476 22.070c-0.006-0.002-0.010-0.007-0.010-0.014 0-0.008 0.006-0.014 0.014-0.014 0 0 0.001 0 0.002 0h-0c0.217 0.041 2.513 0.609 2.482 0.742q-0.003 0.014-0.005 0.014l-2.483-0.727z"></path>
<path d="M23.804 22.954c0.058 1.092-1.595 1.026-1.684 0.119-0.092-0.936 1.62-1.322 1.684-0.119z"></path>
<path d="M10.509 23.235q-0.051 0.014-0.027-0.033c0.042-0.080 1.104-0.57 1.267-0.651q0.106-0.053 0.015 0.023-0.556 0.468-1.256 0.662z"></path>
<path d="M10.259 23.089c0.597 0.636 0.552 1.649-0.101 2.262s-1.666 0.595-2.264-0.041c-0.597-0.636-0.552-1.649 0.101-2.262s1.666-0.595 2.264 0.041z"></path>
<path d="M18.609 22.634l0.007-0.002c0.013-0.004 0.026 0.003 0.030 0.016l0.287 0.956c0.004 0.013-0.003 0.026-0.016 0.030l-0.007 0.002c-0.013 0.004-0.026-0.003-0.030-0.016l-0.287-0.956c-0.004-0.013 0.003-0.026 0.016-0.030z"></path>
<path d="M17.603 22.724c0-0 0.001-0 0.001-0s0.002 0.001 0.002 0.002c0 0 0 0 0 0v0q-0.715 1.413-2.11 2.133c-0.001 0-0.003 0.001-0.005 0.001-0.008 0-0.014-0.006-0.014-0.014 0-0.004 0.002-0.008 0.005-0.011v0q1.231-0.832 2.122-2.11z"></path>
<path d="M14.166 24.258c0.002 0.002 0.003 0.005 0.003 0.009 0 0.005-0.002 0.009-0.005 0.011l-0.006 0.006c0 0 0 0 0 0-0.035 0.028-0.238-0.164-0.453-0.428-0-0-0-0-0-0v0l-0.020-0.024c-0.215-0.265-0.361-0.502-0.327-0.53v0l0.007-0.005c0.002-0.002 0.006-0.003 0.009-0.003s0.008 0.002 0.011 0.005v0l0.781 0.961z"></path>
<path d="M19.613 24.365l2.296-0.822c0.012-0.004 0.026 0.002 0.030 0.014l0.006 0.017c0.004 0.012-0.002 0.026-0.014 0.030l-2.297 0.822c-0.012 0.004-0.026-0.002-0.030-0.014l-0.006-0.017c-0.004-0.012 0.002-0.026 0.014-0.030z"></path>
<path d="M22.372 23.777l0.023 0.014c0.011 0.007 0.015 0.022 0.008 0.034l-0.654 1.059c-0.007 0.011-0.022 0.015-0.034 0.008l-0.023-0.014c-0.011-0.007-0.015-0.022-0.008-0.034l0.654-1.059c0.007-0.011 0.022-0.015 0.034-0.008z"></path>
<path d="M19.039 25.061c-0.479 0.133-1.111-0.287-0.769-0.834 0.189-0.301 0.589-0.465 0.894-0.231 0.319 0.245 0.354 0.932-0.125 1.065z"></path>
<path d="M14.089 25.919c-0.732-0.456 0.050-2.069 0.978-1.336 0.866 0.685 0.013 1.952-0.978 1.336z"></path>
<path d="M10.751 24.671c-0.008-0.003-0.013-0.011-0.013-0.019 0-0.006 0.002-0.011 0.006-0.015v0c0.030-0.030 2.24 0.517 2.459 0.569 0.016 0.003 0.028 0.017 0.028 0.033 0 0.018-0.015 0.033-0.033 0.033-0.002 0-0.004-0-0.006-0.001l0 0q-1.258-0.151-2.44-0.601z"></path>
<path d="M6.048 27.892q-0.103 0.023-0.166-0.010l0.035-0.005q0.051-0.006 0.028-0.053l-0.063-0.125q-0.026-0.051 0.028-0.071 0.030-0.012 0.020-0.046-0.014-0.051-0.063-0.073-0.113-0.052-0.121-0.171c-0.002-0.022-0.020-0.039-0.042-0.039-0.018 0-0.034 0.012-0.040 0.028l-0 0q-0.039 0.121 0.042 0.185 0.037 0.029 0.025 0.074-0.031 0.123 0.041 0.194-0.092 0.037-0.176 0.001-0.12-0.117-0.298-0.179l-0.125-0.312q-0.018-0.044-0.059-0.070-0.081-0.051-0.088-0.139-0.003-0.033-0.023-0.059-0.038-0.049-0.090-0.049-0.050 0.001-0.044 0.050l0.024 0.199q-0.636-0.512-0.425-1.28 0.023-0.082 0.079-0.113c-0.037 0.452 0.529-0.351 0.533-0.357 0.017-0.022 0.023-0.050 0.016-0.077l-0-0.001q-0.079-0.305-0.101-0.64c-0-0-0-0.001-0-0.001 0-0.007 0.005-0.012 0.012-0.012s0.011 0.005 0.012 0.010v0q0.081 0.414 0.177 0.822c0.016 0.069 0 0.106-0.063 0.131q-0.040 0.015-0.052 0.055c-0.043 0.134-0.303 0.907-0.199 0.98q0.047 0.032 0.051-0.024 0.017-0.254 0.164-0.451 0.042-0.056 0.023 0.012l-0.053 0.189c-0.002 0.009-0.003 0.018-0.002 0.028 0.005 0.040 0.041 0.069 0.080 0.064 0.010-0.001 0.019-0.004 0.028-0.009l-0 0q0.17-0.097 0.147-0.302-0.005-0.041 0.035-0.056 0.012-0.005 0.023-0.008 0.019-0.006 0.014 0.013-0.013 0.047 0.022 0.072c0.007 0.005 0.015 0.008 0.024 0.008 0.022 0 0.041-0.018 0.041-0.041 0-0 0-0.001 0-0.001v0q-0.005-0.174 0.095-0.316c0.006-0.009 0.017-0.015 0.029-0.015 0.019 0 0.035 0.016 0.035 0.035v0 0.091q0 0.041 0.040 0.054l0.074 0.023q0.028 0.009 0.023 0.038l-0.031 0.185q-0.007 0.043-0.001 0.087 0.017 0.115-0.077 0.202c-0.021 0.020-0.032 0.048-0.029 0.076l0 0.001q0.014 0.147-0.069 0.276c-0.015 0.023-0.014 0.053 0.002 0.075l0 0 0.152 0.221c0.011 0.016 0.030 0.027 0.051 0.027 0.022 0 0.041-0.012 0.052-0.029l0-0q0.036-0.059 0.1-0.067 0.072-0.008 0.071 0.065-0.003 0.196 0.094 0.364 0.027 0.046-0.023 0.063-0.056 0.020-0.057 0.083 0 0.019-0.007 0.036-0.026 0.059 0.045 0.085zM5.372 26.675q0.016-0.122-0.093-0.158c-0.003-0.001-0.007-0.002-0.011-0.002-0.019 0-0.034 0.015-0.034 0.034 0 0.006 0.002 0.012 0.004 0.017l-0-0 0.094 0.179c0.005 0.009 0.014 0.015 0.025 0.015s0.020-0.006 0.025-0.015l0-0q0.023-0.050-0.009-0.069zM5.079 26.697q-0.113 0.090-0.068 0.243c0.005 0.018 0.022 0.030 0.041 0.030 0.015 0 0.027-0.007 0.035-0.018l0-0q0.056-0.082 0.090-0.185c0.003-0.009 0.004-0.020 0.002-0.031-0.006-0.034-0.038-0.057-0.072-0.052-0.011 0.002-0.021 0.007-0.029 0.013l0-0zM5.196 26.937l-0.066 0.139q-0.026 0.055 0.031 0.078c0.125 0.048 0.136-0.238 0.123-0.295-0.005-0.022-0.024-0.037-0.047-0.037-0.009 0-0.018 0.003-0.025 0.007l0-0q-0.037 0.022-0.020 0.050c0.012 0.018 0.013 0.040 0.005 0.059l-0 0zM5.473 27.531c0.010 0.007 0.022 0.012 0.035 0.012 0.029 0 0.053-0.021 0.058-0.048l0-0q0.040-0.226-0.122-0.381-0.040-0.039-0.061 0.013-0.106 0.256 0.090 0.405z"></path>
<path d="M17.874 24.993q-1.005 0.392-2.087 0.392-0.005 0 0-0.001l2.067-0.456q0.43-0.095 0.020 0.065z"></path>
<path d="M20.434 25.393c0 0 0.001 0 0.001 0.001v0l-0.004 0.006c-0 0-0 0-0 0-0.017 0.031-0.237-0.058-0.491-0.198-0 0-0-0-0-0v0l-0.021-0.011c-0 0-0-0-0-0-0.254-0.14-0.446-0.279-0.429-0.31 0-0 0-0 0-0v0l0.004-0.006c0-0 0-0 0-0s0 0 0 0v0l0.938 0.518z"></path>
<path d="M5.414 25.11q0.060 0.052 0.041 0.132-0.012 0.050-0.036 0.005-0.052-0.097-0.037-0.129 0.012-0.025 0.032-0.007z"></path>
<path d="M21.736 25.736c0 0.348-0.282 0.631-0.631 0.631s-0.631-0.282-0.631-0.631c0-0.348 0.282-0.631 0.631-0.631s0.631 0.282 0.631 0.631z"></path>
<path d="M5.372 26.675q0.032 0.019 0.009 0.069c-0.005 0.009-0.014 0.016-0.025 0.016s-0.020-0.006-0.025-0.014l-0-0-0.094-0.179c-0.003-0.005-0.004-0.010-0.004-0.016 0-0.019 0.015-0.034 0.034-0.034 0.004 0 0.008 0.001 0.012 0.002l-0-0q0.109 0.036 0.093 0.158z"></path>
<path d="M5.079 26.697c0.008-0.006 0.018-0.011 0.029-0.013 0.034-0.006 0.066 0.017 0.072 0.052 0.002 0.011 0.001 0.022-0.002 0.031l0-0q-0.034 0.103-0.090 0.185c-0.008 0.011-0.021 0.019-0.035 0.019-0.019 0-0.035-0.013-0.041-0.030l-0-0q-0.045-0.152 0.068-0.243z"></path>
<path d="M5.191 26.878q-0.017-0.028 0.020-0.050c0.007-0.004 0.016-0.007 0.025-0.007 0.023 0 0.042 0.016 0.047 0.037l0 0c0.014 0.057 0.002 0.343-0.123 0.295q-0.057-0.023-0.031-0.078l0.066-0.139c0.009-0.019 0.007-0.042-0.004-0.059l-0-0z"></path>
<path d="M5.299 27.601q-0.238-0.128-0.404-0.38l-0.024-0.199q-0.005-0.049 0.044-0.050 0.052 0 0.090 0.049 0.020 0.025 0.023 0.059 0.006 0.088 0.088 0.139 0.041 0.026 0.059 0.070l0.125 0.312z"></path>
<path d="M5.596 27.78q0.084 0.036 0.176-0.001l0.11 0.103q0.063 0.032 0.166 0.010-0.001 0.003-0.001 0.005-0.039 0.299 0.226 0.185l0.262 0.273q0.028 0.158 0.159 0.226 0.039 0.020 0.060 0.058 0.093 0.161 0.25 0.259 0.039 0.025 0.001 0.052-0.057 0.041-0.129 0.009-0.737-0.339-1.167-0.505c-0.131-0.051-0.237-0.18-0.342-0.217q-0.224-0.079-0.391-0.244-0.027-0.027-0.065-0.027h-0.062q-0.052 0-0.090-0.035-0.327-0.297-0.363-0.742c-0-0.002-0-0.004-0-0.007 0-0.046 0.038-0.084 0.084-0.084 0.026 0 0.049 0.012 0.064 0.030l0 0q0.134 0.16 0.338 0.192c0.024 0.004 0.044 0.019 0.055 0.040l0 0q0.092 0.19 0.269 0.264c0.153 0.065 0.255 0.118 0.39 0.154z"></path>
<path d="M5.473 27.531q-0.196-0.149-0.090-0.405 0.022-0.051 0.061-0.013 0.161 0.155 0.122 0.381c-0.005 0.028-0.029 0.049-0.058 0.049-0.013 0-0.025-0.004-0.035-0.012l0 0z"></path>
<path d="M5.882 27.882l-0.11-0.103q-0.071-0.071-0.041-0.194 0.012-0.045-0.025-0.074-0.081-0.064-0.042-0.185c0.006-0.016 0.022-0.028 0.040-0.028 0.022 0 0.040 0.017 0.042 0.039v0q0.008 0.119 0.121 0.171 0.049 0.022 0.063 0.073 0.010 0.034-0.020 0.046-0.054 0.020-0.028 0.071l0.063 0.125q0.023 0.047-0.028 0.053l-0.035 0.005z"></path>
<path d="M9.199 29.319c-0.207 0-0.384-0.005-0.594-0.070-0.33-0.104-0.666-0.115-0.972-0.248-0.414-0.18-0.724-0.292-1.098-0.645l-0.262-0.273-0.136-0.173q-0.064-0.138 0.050-0.233 0.032-0.026 0.004-0.056-0.091-0.097-0.093-0.243c0.001-0.017 0.015-0.031 0.032-0.031 0.013 0 0.023 0.007 0.029 0.017l0 0 0.125 0.273q0.020 0.045 0.066 0.027l0.053-0.021q0.048-0.019 0.074 0.024 0.057 0.093 0.014 0.131-0.026 0.023-0.004 0.050l0.387 0.446q0.042 0.050 0.044-0.016l0.006-0.255q0-0.021 0.020-0.014l0.072 0.023q0.072 0.023 0.033 0.088l-0.014 0.023c-0.001 0.002-0.002 0.004-0.003 0.006-0.009 0.022 0.002 0.046 0.023 0.055 0.002 0.001 0.004 0.001 0.006 0.002l-0-0 0.142 0.033q0.042 0.010 0.076 0.038l0.433 0.374q0.034 0.029 0.075 0.010l0.053-0.025q0.050-0.023 0.088 0.014l0.262 0.253c0.019 0.018 0.047 0.021 0.068 0.008l0-0 0.024-0.014q0.021-0.013 0.039 0.004 0.235 0.207 0.545 0.168 0.088-0.011 0.013-0.058-0.12-0.075-0.171-0.206c-0.001-0.003-0.002-0.007-0.002-0.010 0-0.014 0.012-0.026 0.026-0.026 0.008 0 0.014 0.003 0.019 0.008v0q0.315 0.306 0.728 0.425c0.010 0.004 0.016 0.013 0.016 0.024 0 0.014-0.011 0.025-0.025 0.025-0.001 0-0.002-0-0.003-0h0l-0.223-0.045q-0.044-0.009-0.061 0.032-0.014 0.034 0.016 0.081z"></path>
<path d="M6.047 27.897q0.045 0.006 0.090 0.012l0.136 0.173q-0.265 0.115-0.226-0.185z"></path>
<path d="M27.162 28.293l-0.254 0.146q-0.044-0.094-0.189-0.147c-0.015-0.004-0.025-0.017-0.025-0.032 0-0.018 0.015-0.033 0.033-0.033 0.003 0 0.006 0 0.008 0.001l-0-0 0.428 0.066z"></path>
<path d="M26.683 28.524l-0.050 0.009q-0.149-0.042-0.259-0.145-0.082-0.076 0.016-0.023l0.292 0.159z"></path>
<path d="M25.624 28.953l-0.303 0.096q-0.294-0.297-0.669-0.381-0.023-0.005-0.005-0.021c0.103-0.080 0.466 0.154 0.625 0.232 0.009 0.005 0.020 0.007 0.031 0.007 0.039 0 0.071-0.032 0.071-0.071 0-0.009-0.002-0.018-0.005-0.027l0 0q-0.006-0.018 0.014-0.042 0.031-0.035 0.076-0.025 0.299 0.066 0.164 0.232z"></path>
<path d="M25.141 29.084l-0.412 0.149q-0.049-0.475-0.513-0.152-0.043 0.031 0.003 0.055l0.281 0.156-0.907 0.254q-0.090-0.066-0.259-0.069-0.047-0.002-0.078-0.037-0.209-0.243-0.518-0.345c-0.025-0.008-0.043-0.032-0.043-0.059 0-0.022 0.012-0.042 0.029-0.053l0-0c0.135-0.086 0.578 0.097 0.737 0.141 0.006 0.002 0.012 0.002 0.018 0.001 0.019-0.005 0.031-0.024 0.027-0.044-0.001-0.006-0.004-0.012-0.008-0.016l0 0q-0.078-0.087-0.189-0.127-0.039-0.014-0.031-0.054 0.022-0.111 0.142-0.076 0.046 0.014 0.078 0.048 0.115 0.119 0.254 0.023c0.008-0.006 0.019-0.009 0.030-0.009 0.015 0 0.028 0.006 0.037 0.016v0q0.149 0.15 0.346 0.065c0.005-0.002 0.009-0.005 0.012-0.009 0.011-0.014 0.009-0.035-0.006-0.046-0.004-0.003-0.009-0.006-0.014-0.007l0 0-0.247-0.048c-0.020-0.004-0.035-0.022-0.035-0.042 0-0.010 0.003-0.019 0.009-0.026l-0 0 0.015-0.022q0.031-0.041 0.077-0.020 0.174 0.078 0.37 0.045 0.046-0.008 0.087 0.014c0.063 0.034 0.717 0.263 0.707 0.295z"></path>
<path d="M28.703 28.937l0.193-0.133c0.004-0.003 0.009-0.004 0.014-0.004 0.007 0 0.013 0.003 0.018 0.008v0c0.109 0.11-0.415 0.185-0.489 0.168q-0.072-0.017-0.001-0.035 0.093-0.024 0.184 0.007 0.043 0.016 0.081-0.011z"></path>
<path d="M10.335 29.059q0.027 0.051-0.017 0.014-0.063-0.054-0.117-0.156c-0.002-0.003-0.003-0.007-0.003-0.010 0-0.011 0.009-0.019 0.019-0.019 0.007 0 0.013 0.003 0.016 0.009l0 0q0.057 0.078 0.102 0.163z"></path>
<path d="M24.729 29.232q-0.106 0.076-0.229 0.060l-0.281-0.156q-0.046-0.024-0.003-0.055 0.465-0.324 0.513 0.152z"></path>
<path d="M23.27 29.6c-0.604 0.106-1.077 0.021-1.596 0.097-0.259 0.038-0.41 0.002-0.638-0.074q0.071-0.025 0.097-0.074 0.022-0.042-0.021-0.063c-0.113-0.056-0.774-0.294-0.79-0.363-0.001-0.005-0.002-0.011-0.002-0.016 0-0.038 0.031-0.069 0.069-0.069 0.016 0 0.031 0.005 0.043 0.015l-0-0c0.271 0.205 0.526 0.138 0.802 0.221q0.459 0.137 0.935 0.186 0.099 0.010 0.014-0.041-0.306-0.178-0.649-0.264c-0.010-0.002-0.017-0.011-0.017-0.021 0-0.012 0.010-0.022 0.022-0.022 0.002 0 0.003 0 0.005 0.001l-0-0q0.405 0.075 0.77 0.267 0.039 0.021 0.080 0.004 0.248-0.106 0.508-0.035 0.049 0.014 0.014 0.049l-0.034 0.034q-0.036 0.035 0.013 0.051l0.377 0.12z"></path>
<path d="M5.179 29.271q0.46 0.207 0.958 0.436c0.113 0.051 0.263 0.066 0.388 0.122q0.060 0.027 0 0.055-0.193 0.090-0.407 0.1-0.042 0.002-0.075 0.026-0.106 0.077-0.189 0.013-0.021-0.016 0-0.032 0.133-0.101 0.295-0.139c0.006-0.002 0.012-0.005 0.016-0.011 0.009-0.013 0.004-0.031-0.010-0.040-0.006-0.004-0.013-0.006-0.020-0.006h0q-0.115 0.006-0.345 0.103c-0.005 0.003-0.011 0.004-0.017 0.004-0.022 0-0.040-0.018-0.040-0.040 0-0.012 0.005-0.022 0.013-0.029l0.097-0.097q0.048-0.048-0.009-0.083-0.103-0.064-0.231-0.032-0.037 0.009-0.063-0.019l-0.103-0.11c-0.020-0.021-0.051-0.026-0.075-0.012l-0 0q-0.080 0.047-0.136-0.014-0.038-0.042-0.093-0.060l-0.315-0.098c-0.002-0.001-0.004-0.001-0.007-0.002-0.026-0.004-0.050 0.013-0.053 0.038-0 0.003-0.001 0.005-0 0.008v-0 0.034c0 0.002 0 0.004 0.001 0.006 0.003 0.018 0.021 0.030 0.038 0.027 0.002-0 0.004-0.001 0.006-0.002l-0 0q0.174-0.069 0.29 0.092 0.026 0.036-0.013 0.059l-0.088 0.051q-0.043 0.025-0.047-0.024-0.006-0.077-0.096-0.078 0.081-0.1-0.139-0.090-0.043 0.003-0.043-0.041v-0.026q0-0.053-0.049-0.033l-0.327 0.133q-0.051 0.021-0.069-0.032l-0.027-0.078q-0.016-0.046 0.029-0.065l0.462-0.198q0.051-0.022 0.070 0.030 0.114 0.289 0.422 0.156z"></path>
<path d="M28.324 29.202l0.022-0.016q0.029-0.021-0.004-0.035l-0.065-0.028 0.143-0.025c0.002-0 0.004-0 0.006-0 0.024 0 0.044 0.020 0.044 0.044 0 0.015-0.007 0.027-0.018 0.036l-0 0q-0.060 0.041-0.128 0.025z"></path>
<path d="M14.949 29.831q-0.953 0.074-1.3-0.003-0.195-0.042-0.318-0.024-0.044 0.007-0.077-0.023c-0.070-0.066-0.105-0.093-0.209-0.081-0.28 0.031-0.599-0.023-0.82-0.025-0.613-0.005-1.226 0.023-1.833-0.067-0.031-0.004-0.060-0.016-0.084-0.035l-0.001-0.001q-0.115-0.087-0.244-0.034-0.178-0.299-0.472-0.387-0.036-0.011-0.003-0.029c0.072-0.038 0.472 0.202 0.548 0.251q0.038 0.024 0.084 0.021c0.426-0.036 0.945 0.055 1.184-0.039q0.033-0.013 0.067-0.004l0.396 0.106c0.004 0.001 0.008 0.002 0.013 0.002 0.027 0 0.050-0.022 0.050-0.050 0-0.004-0.001-0.008-0.001-0.012l0 0q-0.014-0.060-0.073-0.090-0.032-0.016-0.020-0.050 0.005-0.016 0.011-0.031c0.002-0.006 0.008-0.011 0.015-0.011 0.004 0 0.007 0.001 0.010 0.003h-0c0.102 0.092 0.346 0.368 0.475 0.226q0.025-0.028 0.059-0.012l0.264 0.125q0.029 0.014 0.053-0.007 0.118-0.097 0.357-0.102 0.389-0.007 0.854-0.27 0.041-0.023 0.085-0.005c0.299 0.123 0.478 0.382 0.846 0.537 0.028 0.012 0.049 0.033 0.060 0.060l0 0.001 0.023 0.059z"></path>
<path d="M20.505 29.524q-0.092 0.042-0.223-0.032c-0.013-0.007-0.028-0.012-0.044-0.012s-0.032 0.004-0.045 0.012l0-0q-0.107 0.061-0.191 0.038 0.018 0.001 0.031-0.010 0.029-0.023-0.003-0.041-0.247-0.142-0.474-0.315-0.058-0.043 0.009-0.017l0.939 0.377z"></path>
<path d="M28.277 29.122l0.065 0.028q0.032 0.014 0.004 0.035l-0.022 0.016q-0.043 0.012-0.084-0.001c-0.019-0.006-0.032-0.024-0.032-0.044 0-0.019 0.012-0.036 0.028-0.043l0-0q0.013-0.005 0.041 0.009z"></path>
<path d="M18.699 29.501l-0.64 0.198q-0.35-0.060-0.456 0.082 0.004-0.134-0.134-0.099l-0.961-0.003-0.259 0.011q-0.187-0.256-0.392-0.094-0.034 0.027-0.078 0.019-0.177-0.033-0.332-0.117-0.007-0.005-0.014 0.002-0.008 0.009-0.017 0.017-0.020 0.018 0.002 0.033l0.274 0.189q-0.044 0.060-0.007 0.127 0.017 0.032-0.019 0.029l-0.476-0.030q-0.079-0.148-0.238-0.229c-0.262-0.133-0.453-0.271-0.691-0.389-0.011-0.006-0.019-0.017-0.019-0.030 0-0.011 0.005-0.020 0.012-0.026l0-0q0.011-0.010 0.019-0.018 0.015-0.017 0.035-0.005 0.287 0.164 0.571-0.002c0.027-0.016 0.059-0.018 0.088-0.006l0.001 0q0.418 0.182 0.865 0.071 0.043-0.011 0.085 0.007 0.209 0.097 0.379-0.059 0.037-0.032 0.077-0.003 0.217 0.166 0.447 0.056c0.008-0.004 0.017-0.005 0.027-0.004 0.023 0.003 0.040 0.021 0.037 0.040-0.001 0.008-0.006 0.015-0.012 0.020l0-0q-0.019 0.014-0.043 0.021-0.143 0.036-0.020 0.117 0.107 0.072 0.233 0.112 0.039 0.012 0.077-0.001 0.287-0.1 0.541 0.051c0.006 0.003 0.013 0.006 0.021 0.006 0.022 0 0.041-0.018 0.041-0.041 0-0.007-0.002-0.013-0.004-0.018l0 0q-0.089-0.171-0.252-0.267-0.042-0.025 0.006-0.019 0.021 0.003 0.035 0.002 0.020-0.002 0.035 0.013 0.091 0.094 0.228 0.077 0.040-0.005 0.069 0.023 0.073 0.071 0.141-0.021c0.016-0.021 0.040-0.034 0.068-0.034 0.014 0 0.026 0.003 0.038 0.009l-0-0 0.341 0.17q0.041 0.020 0.078-0.006 0.132-0.096 0.193 0.020z"></path>
<path d="M28.797 29.17q0.035 0.013 0.075 0.052c0.005 0.005 0.008 0.011 0.008 0.019 0 0.011-0.007 0.021-0.017 0.025l-0 0q-0.122 0.043-0.121-0.057 0-0.060 0.056-0.039z"></path>
<path d="M28.253 29.337q-0.076 0.090-0.248-0.024 0.245-0.055 0.248 0.024z"></path>
<path d="M9.759 29.37q-0.115 0.196-0.265 0.018 0.104-0.074 0.265-0.018z"></path>
<path d="M16.25 29.69q-0.197 0.002-0.25 0.071c-0.016 0.021-0.043 0.032-0.068 0.026l-0-0-0.237-0.049-0.274-0.189q-0.022-0.015-0.002-0.033 0.009-0.008 0.017-0.017 0.006-0.006 0.014-0.002 0.155 0.084 0.332 0.117 0.043 0.008 0.078-0.019 0.205-0.162 0.391 0.094z"></path>
<path d="M19.399 29.492l0.179 0.139c0.004 0.004 0.007 0.009 0.007 0.015 0 0.011-0.009 0.021-0.021 0.021-0.001 0-0.002-0-0.003-0h0q-0.11-0.019-0.235-0.152 0.061 0.025 0.073-0.023z"></path>
<path d="M5.417 29.607q0.032-0.032 0.067-0.005c0.009 0.007 0.015 0.018 0.015 0.031 0 0.014-0.007 0.026-0.018 0.032l-0 0q-0.103 0.067-0.235 0.032-0.064-0.017-0.013-0.059 0.079-0.064 0.183-0.032z"></path>
<path d="M19.005 29.613q0.035-0.064 0.141-0.001 0.080 0.049-0.014 0.045-0.041-0.001-0.088 0.008c-0.002 0-0.004 0.001-0.007 0.001-0.020 0-0.036-0.016-0.036-0.036 0-0.006 0.002-0.012 0.004-0.017l-0 0z"></path>
<path d="M27.698 29.671q-0.032-0.021 0.002-0.037l0.090-0.043c0.004-0.002 0.009-0.003 0.014-0.003 0.018 0 0.033 0.015 0.033 0.033 0 0.006-0.002 0.013-0.005 0.018l0-0q-0.055 0.085-0.134 0.032z"></path>
<path d="M27.27 29.786q-0.694 0.106-0.28 0.152l-0.549 0.078q-0.047 0.007-0.056-0.040c-0.028-0.142 0.333-0.112 0.405-0.103 0.005 0.001 0.011 0 0.017-0.001 0.023-0.007 0.036-0.030 0.030-0.053-0.002-0.006-0.005-0.011-0.008-0.015l0 0c-0.1-0.125-0.648 0.091-0.766 0.158q-0.041 0.024-0.087 0.014-0.115-0.027-0.2 0.040-0.078 0.060 0.020 0.064l0.184 0.010q-0.156 0.077-0.303 0.020 0.014-0.011 0.021-0.021 0.016-0.025-0.014-0.025h-0.036c-0.022-0.001-0.040-0.018-0.040-0.041 0-0.017 0.011-0.032 0.026-0.038l0-0c0.296-0.107 1.023-0.486 1.254-0.248q0.031 0.032 0.075 0.033l0.308 0.016z"></path>
<path d="M17.47 29.682q-0.020 0.080 0.036 0.090c0.032 0.005 0.057 0.033 0.057 0.067 0 0.036-0.029 0.066-0.065 0.068h-0q-0.338 0.016-0.683 0.022c-0.189 0.002-0.26-0.078-0.306-0.249l0.961 0.003z"></path>
<path d="M18.060 29.699q0.002 0.064 0.092 0.071 0.042 0.004 0.068-0.032c0.062-0.087 0.604-0.035 0.701 0.049q0.055 0.049-0.018 0.053-0.646 0.045-1.299-0.060 0.106-0.143 0.456-0.082z"></path>
<path d="M5.267 30.012q-0.063-0.040-0.122 0.007c-0.013-0.032 0.014-0.076 0.053-0.065q0.014 0.005 0.023-0.008 0.080-0.121 0.234-0.128 0.040-0.002 0.063-0.034 0.060-0.082 0.157-0.078c0.018 0.001 0.033 0.016 0.033 0.034 0 0.010-0.004 0.019-0.011 0.025l-0 0-0.176 0.161c-0.020 0.018-0.046 0.028-0.072 0.026l-0.001-0q-0.115-0.008-0.18 0.060z"></path>
<path d="M28.611 29.823c0.002 0.025-0.091 0.051-0.207 0.059s-0.211-0.006-0.213-0.031c-0.002-0.025 0.091-0.051 0.207-0.059s0.211 0.006 0.213 0.031z"></path>
<path d="M5.227 30.156q0.094-0.052 0.097-0.094 0.199 0.014 0.376-0.051c0.024-0.008 0.051 0.003 0.061 0.026l0 0c0.085 0.189-0.455 0.125-0.534 0.118z"></path>
<path d="M24.531 30.291q-0.087 0.076 0.191 0.078l-0.59 0.035q-0.046 0.003-0.087 0.025c-0.143 0.079-0.352 0.088-0.464 0.114q-0.401 0.093-0.808 0.126-0.041 0.003-0.046 0.044c-0.014 0.136-0.827 0.158-1.035 0.157l0.449-0.049q0.068-0.007 0.019-0.055-0.051-0.050-0.249-0.031 0.167-0.012 0.108-0.055c-0.012-0.009-0.020-0.024-0.020-0.040 0-0.026 0.021-0.048 0.047-0.050h0q0.719-0.027 1.267-0.12 0.613-0.104 1.217-0.18z"></path>
<path d="M5.034 30.395q-0.053 0.053-0.106-0.006-0.048-0.053 0.023-0.042l0.071 0.011q0.043 0.007 0.013 0.038z"></path>
<path d="M26.873 30.337l0.098-0.004q0.105-0.004 0.018 0.055-0.076 0.051-0.135-0.001-0.053-0.048 0.019-0.051z"></path>
<path d="M6.655 30.381q-0.061 0.075-0.004 0.131 0.033 0.032 0.001 0.065-0.078 0.079-0.166 0.118c-0.017 0.006-0.037 0.008-0.058 0.003-0.045-0.011-0.074-0.050-0.065-0.086 0.004-0.017 0.016-0.030 0.031-0.038l-0 0q0.060-0.028 0.128-0.006c0.004 0.001 0.009 0.002 0.014 0.002 0.024 0 0.044-0.019 0.045-0.044v-0l0.004-0.101q0.001-0.024 0.025-0.028t0.044-0.015z"></path>
<path d="M27.553 30.43q-0.051 0.007-0.091-0.026c-0.004-0.003-0.006-0.008-0.006-0.013 0-0.009 0.007-0.016 0.016-0.016 0.001 0 0.001 0 0.002 0h-0l0.234 0.024c0.011 0 0.019 0.009 0.019 0.020 0 0.009-0.006 0.016-0.014 0.019l-0 0q-0.086 0.033-0.16-0.008z"></path>
<path d="M26.748 30.442c0.002 0.022-0.11 0.049-0.25 0.061s-0.255 0.004-0.257-0.018c-0.002-0.022 0.11-0.049 0.25-0.061s0.255-0.004 0.257 0.018z"></path>
<path d="M7.916 30.554l-0.097 0.072c-0.007 0.005-0.015 0.008-0.024 0.008-0.023 0-0.042-0.019-0.042-0.042 0-0.004 0.001-0.009 0.002-0.012l-0 0q0.034-0.107 0.159-0.056c0.001 0.001 0.003 0.001 0.004 0.003 0.008 0.006 0.009 0.017 0.003 0.025-0.001 0.001-0.002 0.003-0.004 0.004l0-0z"></path>
<path d="M17.882 30.633q-0.033 0.057-0.027 0.085c0.010 0.040 0.045 0.070 0.088 0.070 0.018 0 0.035-0.005 0.049-0.014l-0 0c0.325-0.203 0.576 0.061 0.947-0.084q0.044-0.017 0.090-0.008 0.427 0.082 0.773-0.072l0.163 0.012q0.532 0.103 1.068 0.067 0.062-0.005 0.032 0.051-0.065 0.122-0.201 0.118-0.062-0.002-0.031 0.051 0.031 0.051 0.102 0.046c0.005-0 0.011 0.001 0.014 0.004 0.008 0.008 0.007 0.023-0.003 0.034-0.005 0.005-0.010 0.008-0.016 0.009h0q-0.116 0.031-0.227-0.012-0.044-0.016-0.087 0.001l-0.212 0.086q-0.018 0.004-0.036-0.004-0.041-0.023-0.063-0.052-0.045-0.056 0.027-0.056h0.144q0.054 0 0.017-0.040c-0.043-0.047-0.3-0.044-0.398-0.094-0.021-0.011-0.044-0.015-0.067-0.014l-0.001 0-1.345 0.113q-0.036 0.003-0.055 0.033-0.056 0.087-0.161 0.033-0.020-0.010-0.020-0.032 0-0.011 0.001-0.023t-0.010-0.019q-0.106-0.054-0.127-0.007-0.023 0.056-0.080 0.034c-0.109-0.043-0.416-0.089-0.418 0.097q0 0.051-0.051 0.051-0.259 0.005-0.516 0.004c-0.327-0.003-0.579-0.18-0.934 0.038q-0.038 0.023-0.083 0.025c-0.138 0.006-0.515 0.097-0.546-0.097q-0.007-0.046-0.055-0.048l-1.488-0.031q-0.031 0-0.045 0.026c-0.029 0.052-0.429 0.119-0.521 0.148l-0.308 0.025-0.732-0.029q-0.052-0.002-0.102-0.017l-0.146-0.043q-0.034-0.011-0.067 0.005c-0.292 0.132-0.769 0.1-1.102 0.114q-0.042 0.002-0.045 0.044t-0.014 0.057q-0.095-0.134-0.333-0.071c-0.025 0.006-0.051 0.001-0.072-0.015l-0-0q-0.264-0.207-0.589-0.162-0.038 0.005-0.050-0.031c-0.029-0.089 0.324-0.082 0.379-0.086 0.029-0.002 0.055-0.012 0.076-0.029l-0 0q0.088-0.069 0.175-0.021 0.033 0.017 0.065 0.002 0.077-0.036 0.191 0.015l-0.136 0.001q-0.062 0.001-0.026 0.051c0.053 0.075 0.851-0.006 0.993-0.017 0.024-0.004 0.043-0.024 0.043-0.049s-0.019-0.046-0.043-0.049l-0-0-0.232-0.013 0.631-0.085q0.051-0.006 0.040-0.058-0.022-0.096 0.092-0.097c1.876-0.032 3.748 0.072 5.62 0.028z"></path>
<path d="M19.802 30.61q-0.346 0.154-0.773 0.072-0.046-0.009-0.090 0.008c-0.372 0.145-0.622-0.119-0.947 0.084-0.014 0.009-0.030 0.014-0.048 0.014-0.043 0-0.078-0.030-0.088-0.069l-0-0.001q-0.006-0.028 0.027-0.085l1.92-0.023z"></path>
<path d="M19.965 30.622l1.431-0.005c0 0 0 0 0 0 0.016 0 0.029 0.013 0.029 0.029 0 0.001 0 0.001-0 0.002v-0q-0.001 0.014-0.001 0.027 0 0.020-0.020 0.019l-0.181-0.014c-0.001-0-0.003-0-0.004-0-0.027 0-0.050 0.022-0.050 0.050 0 0.010 0.003 0.019 0.008 0.027l-0-0q0.060 0.096-0.051 0.11c-0.005 0.001-0.010 0.003-0.013 0.007-0.009 0.010-0.006 0.026 0.005 0.036 0.005 0.004 0.010 0.007 0.015 0.008h-0q0.346 0.067 0.698 0.044-0.087-0.005-0.125 0.024c-0.009 0.007-0.015 0.017-0.015 0.029 0 0.019 0.015 0.035 0.034 0.036h0l0.511 0.035-0.143 0.019q-0.060 0.007-0.009 0.040l0.074 0.048c0.004 0.003 0.008 0.006 0.011 0.010 0.015 0.019 0.011 0.046-0.009 0.061-0.004 0.003-0.009 0.006-0.014 0.007l0-0c-0.097 0.031-0.41-0.085-0.398 0.1q-0.084 0.114-0.281 0.089-0.041-0.005-0.070-0.035-0.067-0.067-0.178-0.058l-0.025-0.043q0.071-0.025 0.161-0.020 0.045 0.003 0.078 0.032 0.087 0.078 0.198 0.009c0.014-0.009 0.023-0.024 0.023-0.042 0-0.023-0.016-0.043-0.037-0.048l-0-0q-0.696-0.156-1.375 0.080-0.098 0.034 0.005 0.047l0.354 0.042-1.315 0.027q-0.047 0.001-0.023 0.041 0.029 0.046 0.209 0.074l-0.28 0.015c-0 0-0 0-0.001 0-0.013 0-0.024 0.011-0.024 0.024 0 0.011 0.007 0.020 0.018 0.023l0 0 0.095 0.033c0.005 0.002 0.010 0.006 0.014 0.011 0.010 0.012 0.010 0.028 0 0.035-0.004 0.003-0.008 0.004-0.013 0.004h0q-0.225-0.038-0.343 0.129-0.026 0.037-0.071 0.033l-1.051-0.079-0.298-0.060q0.64 0.041 1.316-0.046c0.031-0.002 0.055-0.027 0.055-0.058 0-0.032-0.026-0.058-0.058-0.058-0.001 0-0.002 0-0.003 0h0c-0.355-0.004-0.699 0.059-1.053 0.031-0.121-0.009-1.521-0.112-1.424 0.059 0.006 0.011 0.017 0.017 0.029 0.018h0l0.662 0.036q0.106 0.056 0.248 0.065-0.314 0.083 0.208 0.177c0.007 0.001 0.013 0.007 0.013 0.014s-0.007 0.015-0.015 0.015c-0.001 0-0.001-0-0.002-0h0q-0.747-0.035-1.483-0.119-0.407-0.234-0.903-0.172c-0.026 0.003-0.046 0.025-0.046 0.051 0 0.017 0.008 0.032 0.021 0.042l0 0q0.023 0.016 0.070 0.026c-0.776 0.061-1.709 0.006-2.306-0.004q-0.922-0.016-1.792-0.070-0.199-0.097-0.463-0.027 0.005-0.015 0.005-0.029c0-0.020-0.015-0.036-0.034-0.038h-0q-0.035-0.004-0.064-0.023l0.599-0.114 0.468-0.033q0.085-0.005 0.013-0.050c-0.12-0.074-0.382-0.020-0.559-0.079q0.013 0.017 0.036-0.029 0.012-0.015 0.014-0.057t0.045-0.044c0.334-0.014 0.81 0.018 1.102-0.114q0.033-0.015 0.067-0.005l0.146 0.043q0.050 0.015 0.102 0.017l0.732 0.029q-0.171-0.016-0.21 0.046c-0.001 0.002-0.002 0.004-0.003 0.006-0.004 0.014 0.003 0.028 0.016 0.033 0.002 0.001 0.005 0.001 0.007 0.001h-0l0.559 0.023q0.044 0.003 0.076-0.029l0.048-0.049q0.049-0.049-0.020-0.051l-0.165-0.006c0.091-0.029 0.492-0.096 0.521-0.148q0.014-0.026 0.045-0.026l1.488 0.031q0.048 0.002 0.055 0.048c0.031 0.194 0.408 0.104 0.546 0.097q0.045-0.002 0.083-0.025c0.355-0.217 0.607-0.041 0.934-0.038q0.257 0.001 0.516-0.004 0.051-0.001 0.051-0.051c0.002-0.186 0.309-0.14 0.418-0.097q0.057 0.022 0.080-0.034 0.021-0.047 0.127 0.007 0.011 0.006 0.010 0.019t-0.001 0.023q0 0.023 0.020 0.032 0.106 0.053 0.161-0.033 0.019-0.031 0.055-0.033l1.345-0.113c0.023-0.002 0.046 0.003 0.067 0.013l0.001 0c0.097 0.050 0.355 0.047 0.398 0.094q0.037 0.040-0.017 0.040h-0.144q-0.072 0-0.027 0.056 0.023 0.030 0.063 0.052l-0.392 0.085c-0.034 0.007-0.059 0.037-0.059 0.073s0.027 0.067 0.062 0.074l0 0q0.143 0.025 0.226-0.053 0.035-0.034 0.085-0.035 0.185-0.005 0.339-0.106 0.093-0.060-0.018-0.051l-0.207 0.017 0.212-0.086q0.043-0.017 0.087-0.001 0.111 0.042 0.227 0.012c0.005-0.001 0.011-0.005 0.016-0.009 0.010-0.011 0.012-0.026 0.003-0.034-0.004-0.004-0.009-0.005-0.014-0.004h0q-0.071 0.005-0.102-0.046-0.032-0.053 0.031-0.051 0.136 0.004 0.201-0.118 0.030-0.055-0.032-0.051-0.536 0.036-1.068-0.067zM15.156 31.46q-0.224 0.16 0.281 0.078c0.020-0.003 0.035-0.020 0.035-0.041 0-0.004-0.001-0.009-0.002-0.012l0 0-0.009-0.028q0.097-0.033 0.145-0.081 0.051-0.050-0.021-0.050h-0.658c-0.001-0-0.002-0-0.003-0-0.034 0-0.062 0.028-0.062 0.062 0 0.028 0.018 0.052 0.044 0.059l0 0q0.106 0.038 0.249 0.012z"></path>
<path d="M10.099 30.652l0.436 0.037-0.136 0.011q-0.050 0.005-0.014 0.040l0.025 0.024q0.043 0.043-0.012 0.070-0.177 0.087-0.418 0.019 0.144 0 0.12-0.085 0.103 0.066 0.195-0.034 0.025-0.028-0.011-0.037l-0.185-0.045z"></path>
<path d="M7.545 30.761q0.037-0.003 0.069 0.017 0.050 0.030-0.008 0.035-0.185 0.014-0.365 0.038-0.066 0.008-0.023-0.042 0.104-0.126 0.263-0.058 0.031 0.014 0.065 0.010z"></path>
<path d="M7.985 30.852c-0.016-0.004-0.029-0.018-0.029-0.035 0-0.019 0.014-0.034 0.033-0.036h0l0.346-0.006c0 0 0.001-0 0.001-0 0.012 0 0.022 0.010 0.022 0.022 0 0.010-0.006 0.018-0.015 0.021l-0 0q-0.178 0.059-0.358 0.035z"></path>
<path d="M6.273 30.922q-0.075-0.001-0.142-0.026-0.053-0.021 0.004-0.021h0.331q0.042 0 0.073-0.031 0.133-0.136 0.255 0.022c0.021 0.027 0.057 0.037 0.088 0.025l0-0 0.228-0.087c0.001-0 0.003-0.001 0.004-0.001 0.007 0 0.014 0.006 0.014 0.014 0 0.004-0.002 0.008-0.005 0.011h-0q-0.181 0.137-0.397 0.071c-0.028-0.008-0.058-0.006-0.084 0.006l-0.001 0q-0.145 0.069-0.304 0.026c-0.022-0.006-0.043-0.009-0.064-0.010h-0.001z"></path>
<path d="M24.948 31.001l1.207-0.061c0.012-0.001 0.023 0.009 0.024 0.021s-0.009 0.023-0.021 0.024l-1.207 0.061c-0.012 0.001-0.023-0.009-0.024-0.021s0.009-0.023 0.021-0.024z"></path>
<path d="M7.026 31.128l-0.428-0.030q-0.041-0.003-0.026-0.041c0.012-0.032 0.407 0.038 0.456 0.045 0.005 0.002 0.009 0.007 0.009 0.013s-0.005 0.012-0.012 0.013h-0z"></path>
<path d="M8.636 31.165l-0.122-0.025q0.178-0.191 0.356-0.054 0.072 0.056-0.017 0.039-0.119-0.023-0.217 0.041z"></path>
<path d="M7.598 31.193q0.011-0.114 0.361-0.026 0.073 0.018-0.002 0.025-0.134 0.013-0.265 0.069c-0.005 0.002-0.010 0.004-0.016 0.005-0.037 0.006-0.072-0.019-0.077-0.055-0.001-0.006-0.001-0.012-0-0.017l-0 0z"></path>
<path d="M6.411 31.393c-0.008 0.003-0.019 0.004-0.031 0.002-0.023-0.004-0.040-0.018-0.038-0.031 0.001-0.007 0.007-0.012 0.015-0.015v0q0.265-0.106 0.547-0.095c0.005-0 0.010 0.001 0.013 0.005 0.007 0.007 0.007 0.019-0 0.026-0.004 0.004-0.008 0.006-0.013 0.006v0q-0.254 0.018-0.493 0.102z"></path>
<path d="M21.196 31.323l0.025 0.043q-0.151 0.060-0.274 0.013-0.053-0.021 0.003-0.027l0.246-0.029z"></path>
<path d="M21.468 31.692l0.020-0.087q0.519-0.016 1.022-0.074 0.626-0.071 0.944-0.094c0.417-0.030 0.934-0.147 1.239-0.072 0.006 0.002 0.011 0.008 0.011 0.015s-0.006 0.014-0.013 0.015h-0l-3.222 0.297z"></path>
<path d="M8.177 31.526q-0.198 0.091-0.494-0.041l0.333-0.103q0.046-0.014 0.074 0.024l0.088 0.119z"></path>
<path d="M20.603 31.424c-0.125 0.039-0.73 0.108-0.74 0.163q-0.006 0.034-0.041 0.029l-0.348-0.051q-0.18-0.028-0.209-0.074-0.024-0.040 0.023-0.041l1.315-0.027z"></path>
<path d="M15.156 31.46l0.305-0.003 0.009 0.028c0.001 0.004 0.002 0.008 0.002 0.012 0 0.021-0.015 0.038-0.035 0.041l-0 0q-0.504 0.081-0.281-0.078z"></path>
<path d="M21.488 31.606l-0.020 0.087q-0.464 0.064-0.921-0.084-0.060-0.020 0.003-0.028l0.784-0.105q0.053-0.007 0.060 0.046 0.018 0.152 0.095 0.084z"></path>
<path d="M8.922 31.509q0.069-0.014 0.12 0.020 0.021 0.014-0.003 0.022-0.167 0.060-0.345 0.044-0.084-0.006-0.014-0.053 0.075-0.051 0.171-0.032 0.035 0.007 0.070 0z"></path>
<path d="M9.999 31.645l-0.318 0.016q0.094-0.134 0.318-0.016z"></path>
<path d="M11.059 31.741l-0.427 0.028q-0.030 0.003-0.033-0.027-0.003-0.014-0.003-0.028 0.263-0.069 0.463 0.027z"></path>
<path d="M16.014 31.868l-0.857-0.053q-0.048-0.010-0.070-0.026c-0.013-0.009-0.021-0.025-0.021-0.042 0-0.026 0.020-0.048 0.046-0.051l0-0q0.496-0.061 0.903 0.172z"></path>
<path d="M17.044 31.717l0.476 0.018 0.298 0.060-0.526-0.014q-0.143-0.009-0.248-0.065z"></path>
<path d="M9.624 31.933l-0.017-0.014c-0.001-0.001-0.002-0.002-0.002-0.003-0.002-0.004 0-0.008 0.004-0.010 0.001-0 0.002-0.001 0.004-0.001h-0q0.373-0.019 0.035 0.035-0.014 0.002-0.023-0.007z"></path>
<path d="M8.634 31.949q0.36-0.030 0.722-0.041c0.004-0 0.007 0 0.010 0.003 0.006 0.005 0.006 0.014 0.001 0.020-0.003 0.003-0.006 0.005-0.009 0.005v0q-0.41 0.055-0.825 0.063c-0.018-0-0.033-0.015-0.033-0.033 0-0.013 0.007-0.024 0.018-0.030l0-0q0.027-0.014 0.058 0.002c0.018 0.009 0.038 0.012 0.058 0.011l0.001-0z"></path>
</svg>
