<!--
SPDX-FileCopyrightText: 2022-Present SkoHub <https://skohub.io>

SPDX-License-Identifier: LicenseRef-AllRightsReserved
-->
<svg version="1.1" xmlns="http://www.w3.org/2000/svg" width="32" height="32" viewBox="0 0 32 32">
<title>ds-skohub</title>
<path d="M0.003 19.593c1.059 2.146 3.077 3.557 4.531 4.404l13.622 8.004h-10.149c-4.404 0-8.004-3.599-8.004-8.004zM2.755 0c0.522 3.261 3.303 5.251 5.138 6.338l18.873 11.081c2.781 1.637 7.707 5.392 3.755 12.351l-1.256 2.216c-0.522-3.247-3.303-5.251-5.138-6.324l-18.873-11.095c-2.795-1.623-7.721-5.378-3.755-12.351l1.256-2.216zM23.999 0c4.404 0 8.004 3.599 7.989 8.004v4.39c-1.059-2.131-3.077-3.543-4.517-4.39l-13.622-8.004h10.149z"></path>
</svg>
