<!--
SPDX-FileCopyrightText: Copyright © 2023, Meta, Inc  <https://www.meta.com/>

SPDX-License-Identifier: LicenseRef-AllRightsReserved
-->
<svg version="1.1" xmlns="http://www.w3.org/2000/svg" width="32" height="32" viewBox="0 0 32 32">
<title>ds-threads</title>
<path d="M23.657 14.832c-0.138-0.066-0.278-0.13-0.42-0.191-0.247-4.551-2.734-7.156-6.909-7.183-0.019-0-0.038-0-0.057-0-2.498 0-4.575 1.066-5.853 3.006l2.296 1.575c0.955-1.449 2.454-1.758 3.558-1.758 0.013 0 0.026 0 0.038 0 1.375 0.009 2.412 0.409 3.084 1.188 0.489 0.568 0.815 1.352 0.977 2.342-1.219-0.207-2.537-0.271-3.947-0.19-3.97 0.229-6.522 2.544-6.351 5.761 0.087 1.632 0.9 3.036 2.289 3.953 1.175 0.775 2.687 1.154 4.259 1.069 2.076-0.114 3.705-0.906 4.841-2.354 0.863-1.1 1.409-2.525 1.65-4.322 0.989 0.597 1.723 1.383 2.128 2.328 0.689 1.606 0.729 4.245-1.424 6.396-1.886 1.885-4.154 2.7-7.581 2.725-3.801-0.028-6.676-1.247-8.546-3.624-1.75-2.225-2.655-5.439-2.689-9.553 0.034-4.114 0.938-7.327 2.689-9.553 1.869-2.376 4.744-3.595 8.546-3.624 3.829 0.028 6.754 1.253 8.695 3.641 0.952 1.171 1.669 2.643 2.142 4.36l2.691-0.718c-0.573-2.113-1.475-3.934-2.703-5.444-2.488-3.061-6.127-4.63-10.816-4.662h-0.019c-4.679 0.032-8.277 1.607-10.694 4.68-2.151 2.734-3.261 6.539-3.298 11.309l-0 0.011 0 0.011c0.037 4.769 1.147 8.574 3.298 11.309 2.417 3.073 6.015 4.647 10.694 4.68h0.019c4.16-0.029 7.092-1.118 9.508-3.531 3.16-3.157 3.065-7.115 2.024-9.545-0.747-1.742-2.172-3.157-4.12-4.092zM16.475 21.585c-1.74 0.098-3.548-0.683-3.637-2.356-0.066-1.24 0.883-2.624 3.743-2.789 0.328-0.019 0.649-0.028 0.965-0.028 1.039 0 2.011 0.101 2.895 0.294-0.33 4.117-2.263 4.785-3.967 4.879z"></path>
</svg>
