<!--
SPDX-FileCopyrightText: Copyright © 2022-Present, Andrew Godwin

SPDX-License-Identifier: LicenseRef-AllRightsReserved
-->

<svg version="1.1" xmlns="http://www.w3.org/2000/svg" width="32" height="32" viewBox="0 0 32 32">
<title>ds-takahe</title>
<path d="M27.937 0c2.244 0 4.063 1.819 4.063 4.064v23.873c0 2.244-1.819 4.063-4.063 4.063h-12.938l-0.245-0.988c-0.565-1.493-0.697-2.803-0.395-3.932l0.011-0.040c0.473-1.706 1.992-2.992 3.161-2.997 0.709-0.003 0.313-0.339 0.854-0.447 0.307-0.061 1.553-0.148 2.81-0.191l0.118-0.004c0.668-0.021 1.331-0.029 1.85-0.013 1.217 0.037 3.63 0.152 7.241 0.345-1.186-2.909-2.090-4.854-2.714-5.837-2.288-3.606-3.485-4.884-4.321-5.683-0.756-0.723-3.324-3.422-5.875-4.952-1.715-1.028-3.623-1.786-6.369-1.927-5.117-0.262-8.825 0.7-11.123 2.887l0-0v-4.158c0-2.244 1.819-4.064 4.063-4.064h23.873zM0 19.136l0 8.834c-0-0.011-0-0.022-0-0.033v-8.801zM11.112 13.587c1.087 0 1.968 0.881 1.968 1.968s-0.881 1.968-1.968 1.968c-1.087 0-1.968-0.881-1.968-1.968s0.881-1.968 1.968-1.968z"></path>
</svg>
