<!--- SPDX-FileCopyrightText: 2023 to Present, Vocata Project <https://codeberg.org/Vocata/vocata>

SPDX-License-Identifier: LGPL-3.0-or-later -->
<svg version="1.1" xmlns="http://www.w3.org/2000/svg" width="32" height="32" viewBox="0 0 32 32">
<title>ds-vocata</title>
<path d="M5.159 3.343q-0.018 0.545-0.018 1.094 0.005 5.304 0.008 10.604c0 0.007-0.006 0.013-0.013 0.013v0h-1.798c-0.010 0-0.018-0.008-0.018-0.018v0-15.025c0-0.006 0.005-0.011 0.011-0.011 0.002 0 0.004 0.001 0.006 0.002l-0-0 11.337 7.2c0.009 0.006 0.015 0.016 0.015 0.027v2.127c0 0 0 0 0 0 0 0.008-0.006 0.014-0.014 0.014-0.003 0-0.005-0.001-0.007-0.002l0 0-9.496-6.031c-0.001-0.001-0.003-0.001-0.005-0.001-0.005 0-0.008 0.004-0.008 0.008v0z"></path>
<path d="M7.059 6.707l5.424 3.445c0.004 0.003 0.007 0.007 0.007 0.012s-0.003 0.010-0.007 0.012l-0 0-5.424 3.445c-0.002 0.001-0.005 0.002-0.008 0.002-0.008 0-0.014-0.006-0.014-0.014 0-0 0-0 0-0v0-6.89c0-0 0-0 0-0 0-0.008 0.006-0.014 0.014-0.014 0.003 0 0.006 0.001 0.008 0.002l-0-0z"></path>
<path d="M25.26 16.007l-8.929-5.582c-0.004-0.002-0.006-0.006-0.006-0.011 0-0 0-0 0-0v0-2.105c0-0 0-0 0-0 0-0.007 0.006-0.013 0.013-0.013 0.002 0 0.005 0.001 0.007 0.002l-0-0 12.33 7.708c0.004 0.002 0.006 0.006 0.006 0.011s-0.002 0.009-0.006 0.011l-0 0-12.334 7.71c-0.002 0.001-0.004 0.002-0.007 0.002-0.007 0-0.012-0.006-0.013-0.012v0l0.006-2.108c0-0 0-0 0-0 0-0.005 0.002-0.008 0.006-0.011l0-0 8.928-5.581c0.004-0.002 0.006-0.006 0.006-0.011s-0.002-0.009-0.006-0.011l-0-0z"></path>
<path d="M16.337 12.607l5.41 3.382c0.005 0.004 0.009 0.010 0.009 0.016s-0.004 0.013-0.009 0.016l-0 0-5.41 3.382c-0.003 0.002-0.006 0.003-0.010 0.003-0.011 0-0.019-0.009-0.020-0.019v0-6.764c0-0.011 0.009-0.019 0.020-0.019 0.004 0 0.007 0.001 0.010 0.003l-0-0z"></path>
<path d="M13.701 19.44l-5.427-3.392c-0.003-0.002-0.005-0.006-0.005-0.010s0.002-0.008 0.005-0.010l0-0 5.427-3.392c0.002-0.001 0.004-0.002 0.006-0.002 0.006 0 0.011 0.005 0.012 0.011v0 6.785c-0 0.006-0.005 0.011-0.012 0.011-0.002 0-0.004-0.001-0.006-0.002l0 0z"></path>
<path d="M14.689 22.651v2.132c0 0 0 0 0 0 0 0.005-0.003 0.010-0.007 0.013l-0 0-11.339 7.201c-0.002 0.002-0.005 0.003-0.008 0.003-0.009 0-0.015-0.007-0.015-0.015 0 0 0-0 0-0v0-15.051c0-0.009 0.007-0.015 0.015-0.015h1.798c0.008 0 0.015 0.007 0.015 0.015v0 11.721c0 0 0 0 0 0 0 0.009 0.007 0.015 0.015 0.015 0.003 0 0.006-0.001 0.008-0.003l-0 0 9.493-6.028c0.002-0.002 0.005-0.003 0.008-0.003 0.008 0 0.015 0.007 0.015 0.015 0 0 0 0 0 0v0z"></path>
<path d="M7.038 18.334l5.425 3.445c0.004 0.002 0.006 0.006 0.006 0.011s-0.002 0.008-0.006 0.010l-0 0-5.425 3.445c-0.002 0.001-0.004 0.002-0.006 0.002-0.007 0-0.012-0.005-0.012-0.012v-6.89c0-0.007 0.006-0.012 0.012-0.012 0.002 0 0.005 0.001 0.006 0.002l-0-0z"></path>
</svg>
