<!--- SPDX-FileCopyrightText: 2022 to Present, Veilid Foundation Inc <https://veilid.com/>

SPDX-License-Identifier: MPL-2.0 -->
<svg version="1.1" xmlns="http://www.w3.org/2000/svg" width="32" height="32" viewBox="0 0 32 32">
<title>ds-veilid</title>
<path d="M16.352 20.597l2.458 8.882c0.17 0.55-0.094 0.859-0.585 0.996q-2.467 0.688-4.936 1.367c-0.512 0.141-0.927 0.315-1.232-0.11q-0.098-0.137-0.201-0.508-3.9-14.076-7.802-28.152c-0.076-0.276-0.239-0.698-0.193-0.964 0.070-0.394 0.334-0.498 0.716-0.604q2.624-0.727 5.248-1.455c0.566-0.157 0.854 0.082 1.001 0.612q2.76 9.963 5.526 19.937z"></path>
<path d="M18.81 29.479l-2.458-8.882 1.387-3.337c0.020-0.048 0.057-0.087 0.104-0.109l0.001-0.001c0.209-0.1 0.568-0.239 0.722-0.427q0.229-0.28 0.462-0.558c0.081-0.096-0-0.465-0.002-0.598-0.003-0.213 0.195-0.53 0.286-0.725 0.021-0.046 0.026-0.097 0.013-0.145l-0-0.001q-0.092-0.35-0.199-0.72c-0.047-0.164 0.12-0.483 0.183-0.639 0.092-0.228 0.276-0.403 0.428-0.594 0.193-0.242 0.294-0.56 0.412-0.841 0.014-0.034 0.039-0.061 0.070-0.079l0.001-0q0.382-0.208 0.776-0.424c0.139-0.076 0.243-0.45 0.329-0.599 0.101-0.174 0.265-0.337 0.41-0.504 0.167-0.192 0.253-0.46 0.321-0.701q0.007-0.023-0-0.046-0.132-0.44-0.29-0.873c-0.061-0.169 0.071-0.474 0.139-0.64 0.008-0.019 0.021-0.035 0.038-0.046l0-0 0.564-0.357c0.056-0.036 0.1-0.086 0.129-0.144l0.001-0.002c0.116-0.247 0.298-0.525 0.346-0.799 0.053-0.295 0.046-0.631 0.148-0.9 0.089-0.234 0.242-0.47 0.162-0.755q-0.086-0.308-0.161-0.602c-0.012-0.046-0.008-0.094 0.011-0.137l0.001-0.001c0.102-0.229 0.156-0.496 0.437-0.579q0.331-0.098 0.528-0.332c0.472-0.559 1.554-1.608 2.366-1.313 0.489 0.178 0.885 0.569 1.278 0.9 0.087 0.072 0.198 0.121 0.293 0.159q0.141 0.056 0.090 0.199l-7.363 20.265c-0.008 0.024-0.007 0.051 0.004 0.073l0 0.001 0.182 0.369q0.009 0.018 0.001 0.037l-2.146 5.406zM26.422 2.777c-0.472-0.262-0.82 0.014-1.003 0.443q-0.583 1.367-1.154 2.739-3.404 8.193-6.792 16.394-0.069 0.167-0.003 0.315c0.123 0.28 0.349 0.055 0.46-0.076 1.013-1.186 1.766-2.468 2.337-3.905q3.103-7.82 6.189-15.646c0.032-0.080 0.038-0.223-0.035-0.263z"></path>
</svg>
