<!--
SPDX-FileCopyrightText: Copyright © 2023, Sean Tilley <sean@deadsuperhero.com>

SPDX-License-Identifier: CC0-1.0
-->
<svg version="1.1" xmlns="http://www.w3.org/2000/svg" width="32" height="32" viewBox="0 0 32 32">
<title>ds-wedistribute</title>
<path d="M0.085 14.456c0.972-10.059 10.941-16.703 20.588-13.749 11.253 3.447 15.064 17.499 7.075 26.148-2.327 2.519-5.464 4.263-8.891 4.875-0.642 0.115-1.274 0.243-1.913 0.261q-0.521 0.014-1.044 0.006c-9.37-0.151-16.728-8.092-15.815-17.541zM20.214 17.039l-0.168-2.877c-0-0-0-0.001-0-0.001-0.001-0.022 0.017-0.041 0.040-0.041 0 0 0.001-0 0.001-0h1.033c0 0 0 0 0 0 0.065 0 0.117-0.053 0.117-0.117 0-0.003-0-0.006-0-0.009l0 0-0.404-5.465c-0.003-0.040-0.036-0.070-0.076-0.070h-5.993c-0.027 0-0.051 0.015-0.063 0.038l-0 0-2.769 5.589q-0.017 0.034-0.055 0.034h-1.157c-0.025 0-0.048 0.014-0.059 0.036l-0 0-1.398 2.798q-0.029 0.059-0.034-0.006l-0.205-2.782c-0-0.001-0-0.002-0-0.003 0-0.023 0.018-0.041 0.041-0.041 0 0 0 0 0 0v0l1.119-0.005q0.063-0.001 0.059-0.063l-0.411-5.527c-0.003-0.038-0.035-0.068-0.073-0.068h-6.017q-0.031 0-0.026 0.030l0.799 5.535c0.001 0.004 0.001 0.008 0.001 0.012 0 0.047-0.038 0.085-0.085 0.085-0 0-0 0-0 0v0h-1.080c-0.023 0-0.041 0.019-0.041 0.042 0 0.002 0 0.004 0 0.006l-0-0 0.843 5.782q0.005 0.037 0.043 0.037h1.128c0.031 0 0.057 0.023 0.061 0.054l0 0 0.784 5.435c0.009 0.060 0.060 0.104 0.12 0.104h4.756q0.033 0 0.050-0.029l3.144-5.526c0.001-0.002 0.002-0.004 0.003-0.006 0.004-0.014-0.004-0.028-0.018-0.032-0.002-0.001-0.005-0.001-0.007-0.001h-1.124q-0.050 0-0.025-0.043l1.628-2.863q0.031-0.053 0.039 0.008l0.415 2.858c0.003 0.023 0.023 0.040 0.046 0.040v0h1.138q0.043 0 0.049 0.042l0.794 5.497q0.008 0.055 0.063 0.055h4.763q0.074 0 0.11-0.064l3.118-5.475c0.003-0.005 0.005-0.011 0.005-0.018 0-0.020-0.016-0.037-0.037-0.037v0c-0.184 0-0.969 0.050-1.096-0.020-0-0-0-0-0-0-0.021-0.012-0.029-0.039-0.017-0.061 0-0 0-0 0-0v0l3.282-5.755q0.017-0.030 0.051-0.030h1.115c0 0 0 0 0 0 0.051 0 0.096-0.029 0.119-0.071l0-0.001q0.282-0.527 0.615-1.073c0.219-0.359 0.133-0.746 0.134-1.113q0.005-1.684 0.001-3.371 0-0.033-0.033-0.033h-3.581c-0.041 0-0.078 0.023-0.097 0.059l-0 0.001-2.785 5.57c-0.010 0.020-0.030 0.032-0.051 0.032h-1.105c-0.033 0-0.061 0.019-0.075 0.046l-1.44 2.878q-0.020 0.040-0.022-0.005z"></path>
</svg>
