<!--
SPDX-FileCopyrightText: Copyright © 2016-Present, Aaron Parecki <https://aaronparecki.com>

SPDX-License-Identifier: CC0-1.0
-->
<svg version="1.1" xmlns="http://www.w3.org/2000/svg" width="32" height="32" viewBox="0 0 32 32">
<title>ds-webmention</title>
<path d="M20.11 10.026l7.23-6.721c0.007-0.007 0.017-0.011 0.027-0.011 0.014 0 0.026 0.007 0.033 0.017l0 0 4.48 6.721c0.004 0.006 0.007 0.014 0.007 0.022 0 0.022-0.018 0.040-0.039 0.040v0h-3.497c-0.018 0-0.033 0.012-0.038 0.029l-0 0-4.979 18.552c-0.005 0.017-0.020 0.029-0.038 0.029h-4.8c-0 0-0 0-0 0-0.017 0-0.032-0.011-0.037-0.027l-0-0-3.75-11.469c-0.005-0.016-0.020-0.027-0.037-0.027s-0.032 0.011-0.037 0.027l-0 0-3.689 11.469c-0.005 0.016-0.020 0.027-0.037 0.028h-4.894c-0.018-0-0.033-0.012-0.038-0.029l-0-0-5.859-22.152c-0.001-0.003-0.001-0.006-0.001-0.010 0-0.022 0.018-0.039 0.039-0.040h4.804c0.018 0 0.034 0.013 0.038 0.030l0 0 3.503 15.077c0.004 0.018 0.020 0.032 0.039 0.032 0.018 0 0.033-0.012 0.038-0.027l0-0 3.841-11.464c0.005-0.016 0.020-0.027 0.037-0.027 0 0 0 0 0 0h4.525c0 0 0 0 0 0 0.018 0 0.033 0.012 0.038 0.027l0 0 3.779 11.651c0.006 0.016 0.020 0.027 0.037 0.027 0.018 0 0.034-0.013 0.038-0.030l0-0 2.698-11.627c0.001-0.003 0.001-0.006 0.001-0.009 0-0.022-0.018-0.040-0.040-0.040-0 0-0 0-0 0v0h-3.394c-0.022-0-0.039-0.018-0.039-0.040 0-0.011 0.005-0.021 0.012-0.029v0z"></path>
</svg>
