<!-- SPDX-License-Identifier: CC-BY-SA-3.0 -->
<!-- SPDX-FileCopyrightText: Copyright © 2013-Present, Eran Hammer <eran@hueniverse.com> -->
<svg version="1.1" xmlns="http://www.w3.org/2000/svg" width="32" height="32" viewBox="0 0 32 32">
<title>ds-webfinger</title>
<path d="M12.262 1.315c0.069-0.731 0.737-1.379 1.49-1.309 0.618 0.052 1.239 0.045 1.857 0.099 0.526 0.050 0.98 0.434 1.146 0.932 0.539 1.504 0.353 3.179 1.002 4.655 0.608 1.393 1.208 2.818 2.145 4.029 0.236-1.508 0.295-3.038 0.543-4.545 0.185-1.085 0.208-2.215 0.625-3.248 0.191-0.465 0.488-0.954 0.996-1.112 0.67-0.205 1.493-0.066 1.96 0.488 0.423 0.49 0.577 1.147 0.634 1.776 0.121 1.503 0.041 3.014-0.081 4.515-0.182 2.376-0.349 4.756-0.39 7.141-0.005 0.454 0.050 0.922 0.282 1.323 0.396 0.743 1.117 1.355 1.182 2.243 0.043 0.887-0.183 1.758-0.38 2.615-0.238 1.040-0.651 2.062-0.611 3.147 0.005 2.055 1.008 3.969 0.937 6.030-0.266-0.354-0.485-0.752-0.554-1.195-0.294-1.568-0.71-3.115-0.884-4.705-0.364 0.1-0.73 0.19-1.099 0.265 0.483-0.577 1.020-1.146 1.253-1.878 0.244-0.761 0.444-1.537 0.624-2.316 0.114-0.538 0.231-1.085 0.2-1.638-0.040-0.623-0.38-1.17-0.728-1.668-0.61-0.843-1.311-1.621-2.067-2.334-0.37-0.351-0.799-0.654-1.291-0.803-0.887-0.274-1.826-0.191-2.74-0.211-0.035 0.634-0.024 1.421-0.625 1.811-0.897 0.585-2.026 0.372-3.033 0.543 1.020 1.022 2.418 1.57 3.817 1.818 1.080 0.194 1.976-0.55 2.952-0.854-0.518 0.73-1.325 1.153-2.093 1.565 0.289 0.666 0.615 1.389 1.293 1.738 0.838 0.496 1.823 0.159 2.718 0.071-0.474 0.363-1.005 0.733-1.629 0.726-0.804 0.030-1.488-0.55-2.288-0.525-0.653 0.177-1.124 0.714-1.684 1.067 0.21-0.537 0.515-1.026 0.8-1.525 0.257-0.389-0.034-0.835-0.226-1.182-0.289-0.525-0.929-0.609-1.451-0.754-0.874-0.225-1.814-0.528-2.392-1.267-0.591-0.813-0.529-1.932-0.183-2.832 0.136-0.313 0.299-0.696 0.66-0.796 0.437-0.088 0.885-0.018 1.326 0.002 1.21 0.095 2.421-0.144 3.631-0.023 0.79 0.079 1.659 0.101 2.308 0.621 0.486 0.389 0.922 0.834 1.394 1.24 0.197-1.536 0.146-3.087 0.285-4.628 0.191-2.226 0.243-4.462 0.329-6.695 0.017-0.733-0.035-1.528-0.476-2.144-0.491-0.674-1.67-0.651-2.098 0.080-0.395 0.688-0.456 1.501-0.559 2.273-0.273 2.48-0.539 4.968-0.581 7.466 0.53 0.071 1.053 0.179 1.57 0.32-0.851 0.366-1.776 0.472-2.693 0.507 0.184-0.256 0.379-0.504 0.578-0.749-0.207-0.465-0.393-0.941-0.619-1.397-0.34-0.693-0.807-1.318-1.114-2.027-0.239-0.553-0.474-1.107-0.746-1.646-0.108 1.154-0.076 2.315-0.102 3.471-0.041 0.687-0.035 1.374-0.013 2.061 0.324 0.124 0.646 0.254 0.964 0.394-0.526 0.212-1.065 0.461-1.645 0.433-0.459 0-0.839-0.288-1.207-0.523 0.391-0.049 0.782-0.082 1.176-0.101 0.087-0.914 0.106-1.831 0.039-2.747-0.871-0.233-1.759-0.456-2.544-0.914 0.866 0.002 1.722 0.144 2.57 0.314 0.165-1.020 0.137-2.051 0.068-3.078-0.852-0.216-1.732-0.285-2.599-0.425 0.839-0.452 1.808-0.334 2.71-0.192-0.062-0.976-0.191-1.946-0.348-2.91-0.089-0.469-0.155-0.961-0.416-1.371-0.311-0.482-1.054-0.55-1.477-0.182-0.254 0.222-0.399 0.539-0.514 0.85-0.289 0.812-0.341 1.68-0.42 2.532-0.095 1.193-0.312 2.373-0.362 3.57-0.080 1.811-0.226 3.621-0.22 5.435 0.35-0.077 0.702-0.15 1.054-0.212-0.277 0.364-0.568 0.734-0.962 0.976-0.405 0.262-0.888 0.352-1.355 0.437 0.18-0.265 0.372-0.521 0.568-0.774-1.121-2.094-2.148-4.244-3.416-6.256-0.281-0.403-0.642-0.97-1.217-0.844-0.452 0.081-1.098 0.355-0.977 0.927 0.115 1.119 0.648 2.134 1.023 3.179 0.525 1.33 0.904 2.72 1.563 3.994 0.42 0.808 0.842 1.617 1.22 2.448 0.529 0.016 1.055 0.051 1.582 0.101-0.495 0.219-0.988 0.447-1.505 0.611 0.175 1.394 0.434 2.777 0.596 4.173 0.129 0.983 0.275 2.043 0.943 2.824 0.541 0.634 1.345 0.931 2.055 1.325-0.371 0.031-0.741 0.055-1.112 0.074 0.268 1.529 0.647 3.037 0.97 4.556 0.106 0.472 0.070 0.958-0.007 1.431-0.752-1.943-0.733-4.109-1.594-6.021-0.332-0.72-0.889-1.309-1.204-2.038-0.248-0.565-0.325-1.182-0.417-1.786-0.265-1.823-0.356-3.689-0.939-5.449-0.203-0.63-0.505-1.222-0.822-1.801-0.892-1.637-1.35-3.459-2.054-5.176-0.248-0.633-0.55-1.248-0.718-1.909-0.096-0.409-0.146-0.893 0.134-1.244 0.392-0.501 1.086-0.697 1.698-0.589 0.469 0.082 0.771 0.494 1.018 0.865 0.339 0.539 0.646 1.099 0.991 1.634 0.895 1.413 1.497 2.99 2.402 4.397 0.113-1.407 0.062-2.819 0.146-4.227 0.069-1.122 0.163-2.241 0.241-3.362 0.031-0.412-0.014-0.829-0.166-1.214-0.337-0.882-0.706-1.804-0.617-2.766zM12.722 1.126c-0.159 0.813 0.174 1.619 0.543 2.327 0.26-1.063 0.471-2.146 0.934-3.145-0.593-0.029-1.285 0.194-1.477 0.818zM14.824 13.592c-0.162 0.537-0.315 1.078-0.447 1.623 0.942 0.069 1.934 0.284 2.85-0.044 0.528-0.197 0.575-0.825 0.718-1.289-1.038-0.134-2.076-0.243-3.121-0.289z"></path>
<path d="M21.222 5.413c0.867-0.106 1.744 0.025 2.537 0.392-0.489 0.117-1 0.214-1.5 0.103-0.381-0.075-0.711-0.293-1.037-0.495z"></path>
<path d="M8.035 10.147c0.44-0.627 1.098-1.046 1.814-1.294-0.214 0.326-0.429 0.669-0.758 0.892-0.314 0.217-0.691 0.308-1.055 0.401z"></path>
<path d="M21.128 9.193c0.462-0.085 0.936-0.179 1.405-0.1 0.372 0.063 0.692 0.274 1.005 0.471-0.82 0.040-1.646-0.063-2.41-0.371z"></path>
<path d="M10.118 11.608c0.294-0.172 0.638-0.217 0.967-0.277-0.538 0.596-1.233 1.021-1.978 1.311 0.287-0.388 0.586-0.788 1.010-1.035z"></path>
</svg>
