<!--
SPDX-FileCopyrightText: 2003-Present The Wordpress Foundation

SPDX-License-Identifier: LicenseRef-AllRightsReserved
-->
<svg version="1.1" xmlns="http://www.w3.org/2000/svg" width="32" height="32" viewBox="0 0 32 32">
<title>ds-wordpress</title>
<path fill="#000" d="M3.989 16c0 4.754 2.763 8.862 6.769 10.809l-5.729-15.697c-0.666 1.494-1.040 3.147-1.040 4.888z"></path>
<path fill="#000" d="M24.107 15.394c0-1.484-0.533-2.512-0.99-3.312-0.609-0.989-1.179-1.827-1.179-2.816 0-1.104 0.837-2.132 2.017-2.132 0.053 0 0.104 0.007 0.156 0.010-2.137-1.957-4.983-3.153-8.11-3.153-4.196 0-7.887 2.153-10.035 5.413 0.282 0.008 0.547 0.014 0.773 0.014 1.256 0 3.201-0.152 3.201-0.152 0.647-0.038 0.724 0.913 0.077 0.989 0 0-0.651 0.076-1.375 0.115l4.374 13.009 2.628-7.883-1.871-5.127c-0.647-0.038-1.259-0.115-1.259-0.115-0.647-0.038-0.571-1.027 0.076-0.989 0 0 1.983 0.152 3.163 0.152 1.256 0 3.201-0.152 3.201-0.152 0.648-0.038 0.724 0.913 0.077 0.989 0 0-0.652 0.076-1.375 0.115l4.34 12.911 1.198-4.003c0.519-1.661 0.914-2.854 0.914-3.882z"></path>
<path fill="#000" d="M16.21 17.050l-3.603 10.471c1.076 0.316 2.214 0.489 3.393 0.489 1.399 0 2.74-0.242 3.988-0.681-0.032-0.052-0.061-0.106-0.085-0.165z"></path>
<path fill="#000" d="M26.538 10.238c0.052 0.382 0.081 0.793 0.081 1.235 0 1.219-0.228 2.589-0.913 4.302l-3.669 10.607c3.571-2.082 5.972-5.95 5.972-10.381 0-2.088-0.533-4.052-1.471-5.762z"></path>
<path fill="#000" d="M15.999 2c-7.72 0-14 6.28-14 14s6.281 14 14 14c7.719 0 14.001-6.28 14.001-14s-6.282-14-14.001-14zM15.999 29.358c-7.365 0-13.358-5.993-13.358-13.359s5.993-13.358 13.358-13.358c7.365 0 13.357 5.992 13.357 13.358s-5.992 13.359-13.357 13.359z"></path>
</svg>
