<!--
SPDX-FileCopyrightText: Copyright © 2018-Present, WriteFreely Contributors <https://writefreely.org>

SPDX-License-Identifier: AGPL-3.0-only
-->
<svg version="1.1" xmlns="http://www.w3.org/2000/svg" width="32" height="32" viewBox="0 0 32 32">
<title>ds-writefreely</title>
<path fill="#000" d="M29.276 17.838q-0.625 1.69-1.58 3.142t-2.187 2.536-2.683 1.709q-1.433 0.606-3.032 0.606-0.662 0-1.36-0.202-0.68-0.202-1.249-0.717-0.551-0.533-0.9-1.415-0.349-0.9-0.349-2.26 0-0.496 0.055-1.084h-0.073q-0.386 1.103-1.066 2.131-0.662 1.029-1.525 1.819t-1.874 1.268q-0.992 0.459-2.021 0.459-1.103 0-1.856-0.386-0.735-0.386-1.194-1.048-0.459-0.68-0.662-1.562-0.202-0.9-0.202-1.911 0-1.488 0.147-3.105 0.165-1.617 0.349-3.124t0.331-2.774q0.165-1.286 0.165-2.095 0-0.349-0.037-0.662-0.018-0.331-0.128-0.57t-0.313-0.386-0.551-0.147q-0.313 0-0.662 0.202-0.349 0.184-0.698 0.625-0.331 0.423-0.662 1.121t-0.606 1.69l-1.048-0.221q0.128-0.662 0.459-1.562 0.349-0.919 0.919-1.746 0.588-0.845 1.415-1.415 0.845-0.588 1.984-0.588 1.488 0 2.26 0.937 0.79 0.937 0.79 2.719 0 0.827-0.073 1.874-0.073 1.029-0.202 2.15-0.11 1.121-0.239 2.279-0.128 1.139-0.257 2.187-0.11 1.029-0.184 1.874t-0.073 1.378q0 0.423 0.073 0.827t0.257 0.717 0.496 0.514 0.79 0.202q1.213 0 2.389-0.882t2.095-2.554q0.937-1.672 1.507-4.098 0.588-2.444 0.588-5.549 0-0.974-0.055-2.003-0.055-1.048-0.202-2.15h3.215q0.037 0.165 0.055 0.404 0.037 0.221 0.055 0.459t0.018 0.478q0.018 0.221 0.018 0.349 0 1.893-0.202 3.638-0.184 1.727-0.423 3.308-0.239 1.562-0.441 2.995-0.184 1.433-0.184 2.719 0 0.551 0.073 1.084 0.092 0.533 0.313 0.937 0.239 0.404 0.643 0.662 0.423 0.239 1.084 0.239 0.919 0 1.838-0.386 0.937-0.404 1.782-1.121t1.562-1.709q0.735-0.992 1.268-2.187 0.551-1.213 0.845-2.573 0.313-1.378 0.313-2.848 0-0.717-0.092-1.397t-0.294-1.268-0.57-1.011q-0.349-0.441-0.863-0.662-0.221 0.496-0.643 0.717t-0.9 0.221q-0.257 0-0.533-0.092t-0.514-0.294q-0.221-0.202-0.367-0.496-0.147-0.313-0.147-0.735 0-0.313 0.11-0.643 0.128-0.331 0.386-0.588 0.257-0.276 0.68-0.441 0.441-0.184 1.084-0.184 1.139 0 1.984 0.533t1.397 1.433 0.827 2.095 0.276 2.536q0 1.249-0.239 2.554-0.221 1.286-0.68 2.517z"></path>
</svg>
