<!--
SPDX-FileCopyrightText: Copyright © 2007-Present, XMPP Standards Foundation  <info@xmpp.org>

SPDX-License-Identifier: LicenseRef-AllRightsReserved
-->

<svg version="1.1" xmlns="http://www.w3.org/2000/svg" width="32" height="32" viewBox="0 0 32 32">
<title>ds-xmpp</title>
<path d="M8.146 27.408l0.005-0.231 0.229-0.062c1.578-0.429 3.102-1.139 4.576-2.132 0.396-0.266 1.004-0.725 0.995-0.75-0.004-0.012-0.089-0.071-0.189-0.13-2.001-1.192-3.798-2.532-5.529-4.124-0.378-0.348-1.28-1.246-1.671-1.665-3.261-3.491-5.428-7.367-6.226-11.135-0.176-0.833-0.295-1.745-0.324-2.507l-0.012-0.31 0.117 0.044c0.065 0.024 1.076 0.417 2.247 0.871 3.047 1.182 3.089 1.197 5.566 1.931 1.136 0.337 2.070 0.616 2.075 0.622s0.008 0.275 0.004 0.599c-0.013 1.304 0.143 2.573 0.491 3.989 0.713 2.903 2.16 5.849 4.087 8.328 0.529 0.68 1.346 1.609 1.415 1.609 0.050 0 0.493-0.48 0.966-1.047 2.423-2.906 4.158-6.547 4.784-10.040 0.184-1.025 0.252-1.804 0.245-2.804-0.002-0.344-0.001-0.629 0.004-0.634s0.917-0.276 2.028-0.605c2.461-0.728 2.569-0.765 5.704-1.981l2.258-0.875 0.006 0.139c0.007 0.156-0.021 0.608-0.062 1.008-0.070 0.682-0.222 1.544-0.399 2.258-1.106 4.457-4.151 9.073-8.476 12.846-1.431 1.249-2.956 2.361-4.594 3.351-0.229 0.138-0.416 0.258-0.416 0.267 0 0.019 0.42 0.338 0.759 0.576 1.543 1.085 3.175 1.857 4.918 2.327l0.128 0.034 0.010 0.463h-0.060c-0.096-0-0.684-0.069-1.102-0.13-1.566-0.226-3.251-0.699-4.708-1.32-0.727-0.31-1.307-0.564-1.591-0.697-0.166-0.078-0.327-0.149-0.357-0.159-0.049-0.017-0.093-0.001-0.421 0.15-0.369 0.17-1.090 0.485-1.627 0.712-1.748 0.738-3.624 1.221-5.491 1.417-0.145 0.015-0.287 0.027-0.316 0.027h-0.053l0.005-0.231z"></path>
</svg>
