<!--
SPDX-FileCopyrightText: 2004-2018 XWiki

SPDX-License-Identifier: LicenseRef-AllRightsReserved
-->
<svg version="1.1" xmlns="http://www.w3.org/2000/svg" width="32" height="32" viewBox="0 0 32 32">
<title>ds-xwiki</title>
<path d="M15.924 0.013c0.613 0 1.113 0.469 1.136 1.057l0.001 0.042v4.925c0 0.607-0.509 1.099-1.136 1.099-0.613 0-1.113-0.469-1.136-1.057l-0.001-0.042v-4.925c0-0.607 0.509-1.099 1.136-1.099z"></path>
<path d="M30.964 14.711c0.607 0 1.099 0.509 1.099 1.136 0 0.611-0.466 1.109-1.050 1.135l-0.049 0.001h-4.925c-0.607 0-1.099-0.509-1.099-1.136 0-0.611 0.466-1.109 1.050-1.135l0.049-0.001h4.925z"></path>
<path d="M17.061 30.888c0 0.607-0.509 1.099-1.136 1.099-0.611 0-1.109-0.466-1.135-1.050l-0.001-0.049v-4.925c0-0.607 0.509-1.099 1.136-1.099 0.611 0 1.109 0.466 1.135 1.050l0.001 0.049v4.925z"></path>
<path d="M1.036 16.985c-0.607 0-1.099-0.509-1.099-1.136 0-0.611 0.466-1.109 1.050-1.135l0.049-0.001h4.925c0.607 0 1.099 0.509 1.099 1.136 0 0.611-0.466 1.109-1.050 1.135l-0.049 0.001h-4.925z"></path>
<path d="M28.069 2.157c0.789 0.688 0.881 1.875 0.219 2.676l-0.038 0.044-9.758 11.122 9.758 11.122c0.703 0.801 0.622 2.019-0.182 2.721-0.789 0.689-1.98 0.623-2.688-0.138l-0.039-0.043-9.418-10.734-9.417 10.734c-0.703 0.801-1.924 0.882-2.727 0.181-0.789-0.689-0.881-1.875-0.219-2.677l0.038-0.044 9.758-11.122-9.758-11.122c-0.703-0.801-0.622-2.019 0.182-2.721 0.789-0.688 1.98-0.623 2.688 0.138l0.039 0.043 9.417 10.734 9.418-10.734c0.703-0.801 1.924-0.882 2.727-0.181z"></path>
</svg>
